<svg width="1422" height="17" viewBox="0 0 1422 17" fill="none" xmlns="http://www.w3.org/2000/svg">
<path d="M13.5541 16.6079C21.4503 16.8038 31.9505 16.5638 39.8689 16.245C42.4339 16.1459 41.1122 15.724 42.812 15.6366C46.2024 15.4662 49.2691 15.6691 52.6357 15.4671C53.7104 15.3982 52.3688 14.7287 53.5 14.6718C59.9101 14.3643 65.7306 14.5258 72.2105 14.3722C79.6245 14.1965 86.6976 14.0456 94.13 13.9122C118.252 13.4712 142.103 13.2282 166.694 12.9529C177.246 12.8352 189.979 12.2049 200.904 12.4538C202.165 12.4835 201.414 13.0743 201.654 13.1225C205.425 13.8604 204.17 12.6721 206.641 12.51C216.492 11.8698 227.358 11.7982 236.838 12.0108C240.853 12.103 236.831 13.2804 240.868 12.6167C241.148 12.5719 240.129 11.9473 241.23 11.8788C243.723 11.7247 248.476 11.8292 250.417 11.7766C254.142 11.672 254.76 11.6773 258.292 11.6647C263.133 11.642 268.858 11.3219 274.045 11.4558C275.152 11.4863 273.688 12.1304 275.453 12.2369C277.217 12.3432 281.886 12.2817 283.459 12.128C285.034 11.9742 284.362 11.4708 284.641 11.3547C286.93 10.3753 292.336 11.7189 293.031 11.7513C305.689 12.3018 316.581 11.5158 328.456 11.5009C337.501 11.4912 347.133 11.7318 355.739 11.6851C365.947 11.6271 374.625 11.2676 384.592 11.3145C385.636 11.3188 384.414 12.075 385.688 12.0817C399.319 12.1519 412.844 12.0532 426.402 11.5287C427.763 11.4754 426.01 10.8148 427.368 10.722C435.634 10.1682 448.878 8.84691 453.766 11.7274C456.236 11.6766 458.882 11.6251 461.449 11.536C465.051 11.4183 468.381 11.2355 471.269 10.9026C474.566 10.526 471.389 9.80638 475.384 10.1117C476.276 10.1797 475.119 10.8126 476.452 10.8669C482.12 11.0946 488.41 10.8859 493.929 11.2106C495.103 11.2781 494.78 11.8446 495.111 11.9465C497.888 12.7716 502.335 11.4052 503.37 11.3058C510.883 10.5649 516.343 10.8566 523.377 10.8414C524.97 10.8376 523.071 11.5976 524.63 11.6213C532.813 11.7342 541.114 11.6766 549.123 11.3525C550.87 11.2786 549.267 10.6278 550.099 10.5593C553.847 10.2657 554.661 11.4914 558.221 11.2349C558.982 11.1825 558.555 10.6267 558.694 10.5661C560.831 9.61452 562.719 10.9747 563.259 11.0061C570.256 11.4335 574.721 10.0337 581.48 10.2555C582.286 10.2834 580.464 10.9797 582.733 11.0153C589.305 11.1201 595.993 11.1503 602.776 11.1044C611.547 11.0443 620.431 10.8562 628.888 10.5481C631.226 10.4645 629.558 9.93521 629.704 9.87038C632.122 8.85744 633.631 10.2201 634.404 10.2722C640.401 10.6477 645.999 9.512 650.083 11.1371C675.476 10.6005 700.764 11.5321 725.948 10.1369C726.266 10.1208 725.699 9.44918 726.332 9.41998C734.029 9.06236 732.534 10.1006 737.642 11.3895C738.888 11.713 742.846 10.1879 743.155 10.0764C744.437 9.66537 743.113 8.6635 743.542 8.58455C745.317 8.27395 746.026 8.94823 746.891 9.69991C747.795 10.4473 748.811 11.2708 751.153 11.2817C751.302 11.2768 750.678 10.6671 751.079 10.6085C752.338 10.4246 753.475 10.6711 754.721 10.4682C757.464 9.99864 758.431 8.4006 762.633 9.35884C763.144 9.48334 762.362 11.3479 766.54 11.288C768.193 11.2611 775.613 11.3532 777.677 11.2536C779.764 11.1527 778.338 10.536 778.487 10.5114C784.075 9.77071 781.961 9.41938 784.774 8.27007C787.581 7.12659 786.772 9.92182 787.908 10.2483C789.043 10.5737 793.145 9.96778 794.156 9.75228C795.163 9.53646 793.912 9.13732 794.811 9.01941C800.747 8.24968 797.395 10.4444 799.342 10.9142C803.938 12.0254 807.548 9.98582 811.764 9.81859C812.907 9.77327 811.97 10.239 812.993 10.2918C813.633 10.3244 814.244 10.3351 814.838 10.3328C817.855 10.3201 820.183 9.95911 824.014 10.4772C824.769 10.5782 828.457 11.8457 830.861 10.9374C831.201 10.8064 830.237 10.2845 831.956 10.1751C834.517 10.011 839.139 9.9133 841.891 10.0949C843.925 10.2293 841.59 11.0761 844.151 10.8186C845.29 10.7036 843.182 10.1977 845.32 10.0233C847.448 9.84884 852.883 9.88622 854.95 9.90938C857.017 9.93293 855.883 10.5774 856.05 10.6215C857.057 10.8743 861.021 11.1983 861.371 11.1987C870.929 11.2712 880.1 11 889.195 10.8396C896.919 10.7037 904.615 10.6717 912.487 10.9184C913.839 10.96 912.931 11.6336 913.137 11.6469C917.774 11.9802 914.1 10.1272 917.362 9.55136C916.887 10.9328 918.795 10.7009 922.028 10.8814C923.623 10.9697 922.752 11.4988 922.896 11.555C925.165 12.3898 926.858 11.3503 927.244 11.138C928.791 10.3581 930.459 11.307 931.506 10.7852C932.568 10.2674 930.134 9.47024 933.294 9.50336C934.143 10.0057 931.874 11.286 934.188 11.5128C943.096 12.374 959.888 11.4474 967.007 11.3739C974.209 11.3022 976.524 11.4032 980.661 11.2414C988.28 10.9486 985.419 11.8988 990.123 12.3577C994.916 12.8164 992.574 10.4404 993.262 9.93416C993.911 9.428 994.619 9.95423 995.438 9.67768C996.255 9.40118 994.487 9.04864 996.411 8.95082C997.319 8.90484 998.985 9.08513 1000.6 9.34463C1002.31 9.6363 1003.96 10.0283 1004.32 10.3113C1005.78 11.4435 1003.34 12.6182 1008.55 12.2204C1008.85 12.1967 1007.89 11.5711 1009.02 11.512C1017.94 11.0631 1027.21 11.0622 1036.25 10.6649C1037.46 10.6092 1036.38 9.91362 1037.08 9.87337C1044.47 9.45193 1041.83 10.6117 1045.96 11.9203C1045.06 10.1919 1047.27 9.14233 1052.94 9.14774C1056.35 9.15036 1055.82 9.90268 1057.97 10.4398C1058.62 10.6017 1061.01 10.0905 1061.45 10.4462C1062.89 11.6088 1060.59 12.8999 1066.49 12.3989C1066.74 12.3751 1065.92 11.7386 1066.82 11.7025C1072.49 11.4659 1073.17 12.6797 1079.4 12.8423C1084.17 12.9696 1092.85 12.2519 1098.36 12.1448C1098.25 10.2042 1103.49 10.6611 1105.57 12.0038C1109.11 11.9574 1113.09 12.0424 1116.49 11.8653C1117.67 11.805 1116.89 11.2414 1117.04 11.181C1119.33 10.2341 1120.89 11.5392 1121.67 11.592C1130.08 12.1073 1136.93 11.1361 1144.86 12.1176C1145.15 12.1529 1145.6 13.5018 1147.74 12.5223C1147.88 12.4548 1145.24 11.8358 1149.01 11.7966C1152.85 11.7574 1159.81 11.0499 1165.1 11.6857C1166.38 11.8388 1169.53 12.9396 1172.1 12.0902C1172.44 11.9748 1172.07 11.5874 1172.57 11.3734C1174.16 10.6913 1175.03 12.0555 1176.92 10.902C1178.83 9.74869 1182.67 8.88996 1187.95 9.69937C1188.12 9.72293 1189.36 10.8053 1191.03 10.7916C1193.72 10.769 1197.4 10.5516 1200.18 10.5643C1201.5 10.5707 1200.65 11.2395 1200.88 11.2522C1209.83 11.6461 1216.09 11.0609 1225.62 10.8204C1227.36 10.775 1232.37 11.6993 1235.77 10.9831C1239.48 10.199 1235.67 6.89983 1244.19 7.70072C1247.63 8.02112 1251.99 12.2058 1258.16 10.054C1270.18 10.6134 1281.23 9.52709 1293.26 10.3154C1293.8 10.3503 1295.52 11.5191 1296.78 11.5056C1298.66 11.4834 1299.7 10.9406 1301.04 10.9072C1306.68 10.7537 1311.88 11.2296 1317.29 11.1672C1319.36 11.1447 1318.64 10.5801 1321.1 10.5532C1323.57 10.5268 1325.22 11.2717 1328.56 10.9196C1331.07 10.6513 1333.59 9.13988 1336.94 8.96938C1337.06 10.465 1339.36 10.4385 1343.45 10.8408C1344.24 10.9189 1343.4 11.4378 1343.77 11.5016C1345.27 11.7726 1346.67 11.3438 1348.1 11.6385C1348.45 11.7093 1348.47 12.22 1348.75 12.3067C1351.18 13.0633 1355.18 11.9219 1355.87 11.7231C1358.51 10.9684 1359.73 11.6349 1361.75 11.3395C1363.76 11.0441 1360.75 10.6646 1363.11 10.4875C1367.98 10.121 1374.27 10.2151 1379.21 10.2007C1381.19 10.1981 1379.84 10.8773 1380.12 10.8928C1384.21 11.0732 1388.35 10.3556 1390.62 11.7177C1393.46 8.21185 1393.08 12.0627 1398.93 11.3706C1399.39 11.3146 1399.97 9.65532 1398.21 9.40833C1396.44 9.16157 1393.76 9.67566 1391.31 9.29121C1390.74 9.20098 1387.4 7.63904 1386.95 7.54396C1383.39 6.80087 1382.89 9.28109 1382.7 9.41701C1380.56 10.8837 1376.5 9.20017 1375.43 9.08239C1370.54 8.54271 1366.36 8.88397 1362.28 8.49765C1359.6 8.2479 1359.35 6.6222 1357.24 6.66806C1350.23 6.81955 1347.8 9.08229 1341.21 7.10426C1339.8 6.68237 1341.2 4.90864 1336.13 6.29602C1335.81 6.38348 1332.05 7.65431 1329.89 6.84204C1329.62 6.73962 1329.63 6.22195 1329.27 6.1778C1326.87 5.89203 1325.24 6.30143 1322.62 6.09901C1319.99 5.89658 1316.83 5.59622 1313.84 5.76621C1312.04 5.86784 1309.71 6.828 1308.84 7.06251C1306.39 7.73817 1303.78 6.61792 1302.26 7.43882C1300.74 8.26385 1303.71 9.52674 1299.72 10.0541C1299.57 8.70888 1299.24 7.32774 1299 5.97467C1290.22 6.00547 1281.62 6.42409 1272.79 6.34779C1271.7 6.33699 1272.82 5.61605 1271.65 5.58584C1266.74 5.46157 1262.4 5.96868 1257.29 5.75353C1253.34 5.58424 1249 4.81023 1244.85 4.60925C1242.3 6.14334 1236.21 5.60895 1231.71 5.7407C1230.14 5.7862 1230.25 6.19746 1229.13 6.32936C1224.94 6.81702 1226.91 5.46087 1225.76 5.24456C1220.86 4.32136 1220.39 7.39883 1214.58 7.31112C1214.27 7.30752 1210.51 5.65905 1210 5.55583C1206.72 4.88289 1209.45 6.12588 1207.4 6.24297C1203.6 6.45687 1200.98 6.84342 1196.57 6.3538C1195.3 6.20883 1192.21 5.17975 1189.69 5.96565C1189.36 6.06856 1189.54 6.61131 1189.27 6.64253C1184.46 7.16207 1184.35 5.45758 1181.62 4.87473C1178.92 4.29207 1174.61 5.4595 1173.77 5.79679C1171.51 6.66919 1175.49 6.17528 1175.62 6.26161C1177.06 7.289 1173.95 7.10614 1171.6 7.18773C1171.25 8.85803 1167.97 8.75078 1169.16 7.26559C1169.29 7.10338 1171.12 7.26307 1171.6 7.18773C1169.53 5.54386 1165.95 5.32634 1161.9 6.84976C1160.02 7.56381 1161.78 8.40484 1156.1 8.08634C1153.53 7.94253 1154.53 6.79411 1152.26 6.4755C1146.96 5.74832 1140.33 6.80706 1134.87 6.62575C1132.91 6.55999 1134.82 5.93442 1133.48 5.86777C1129.93 5.68891 1126.89 6.15461 1123.28 5.90431C1122.96 5.88084 1123.75 5.22335 1122.64 5.21242C1114.28 5.11676 1106.98 5.52202 1098.23 5.51268C1094 5.5079 1086.44 5.12577 1082.07 5.18789C1074.51 5.2918 1065.13 6.22616 1058.68 5.97586C1054.52 5.81553 1055.37 5.15837 1053.56 4.70415C1050.04 3.82364 1043.93 5.36641 1043.05 5.60543C1043.02 5.61335 1046.7 5.77925 1044.73 6.11218C1043.59 6.81426 1043.09 5.6086 1043.05 5.60543C1042.45 5.75986 1035.33 5.88891 1033.8 5.75823C1033 5.68699 1033.45 5.06353 1033.04 5.0382C1023.39 4.45036 1013.59 4.2606 1003.74 4.5182C1003.56 4.53021 1003.82 5.22997 1003.42 5.2495C1002.41 5.301 1001.49 5.31618 1000.61 5.30336C996.291 5.24282 993.347 4.5789 989.359 4.14569C984.765 3.62043 980.879 3.77416 978.184 4.96234C974.561 4.79589 969.487 5.30326 966.605 5.61124C963.66 5.91896 963.238 4.55632 962.986 4.52822C954.958 3.62715 950.298 4.38081 941.981 4.44985C937.986 4.48506 930.205 4.23284 925.884 4.04771C922.502 3.89993 920.425 4.20024 917.327 3.96679C916.896 3.93541 917.338 3.33394 917.206 3.30935C913.744 2.55073 915.392 4.04753 914.666 4.30481C912.07 5.24003 910.438 5.73543 905.97 5.23189C904.962 5.1168 901.965 2.9495 900.091 2.80357C897.648 2.61802 898.565 3.39207 896.005 3.17999C895.787 3.16268 895.837 2.69134 894.255 2.69666C892.61 2.70086 890.968 2.71582 889.256 2.73567C883.367 2.80602 877.206 2.93677 871.281 2.87793C870.24 2.86948 871.58 2.12652 870.071 2.10205C863.01 1.98814 855.282 1.99511 848.408 2.32524C846.717 2.40885 847.775 2.93552 847.408 3.08992C845.148 4.02409 841.963 2.64758 841.431 2.61982C831.77 2.08385 823.837 2.67035 814.895 2.64966C812.198 2.64277 809.402 2.57931 806.447 2.41157C805.75 2.37071 800.411 0.843378 798 2.06847C797.836 2.15007 795.45 3.40522 793.365 2.4994C793.237 2.44278 794.721 1.79974 792.143 1.83437C789.56 1.86874 785.418 1.37596 781.851 2.06574C780.734 2.283 778.062 3.53758 774.722 2.48587C774.487 2.41175 769.351 0.0576731 767.489 1.64017C767.199 1.9009 767.463 3.58937 763.489 2.6981C762.721 2.5255 764.091 2.15755 762.111 1.91018C759.025 1.52883 754.912 1.95909 751.148 1.19074C750.587 1.08406 748.843 0.351954 746.927 0.451634C746.423 0.479401 745.912 0.571251 745.423 0.758328C745.069 0.893198 745.741 1.45912 744.545 1.5178C738.869 1.79968 732.928 1.40616 727.174 1.78232C725.138 1.91453 726.186 2.82784 724.059 3.06714C721.914 3.30629 717.641 3.5323 715.43 3.11195C713.205 2.69137 715.631 1.24404 712.304 1.12185C697.83 0.591629 683.474 1.42673 669.02 1.53615C666.873 1.55253 668.651 1.03487 665.493 1.02177C653.846 0.971193 633.722 0.464912 623.617 1.55538C615.505 2.42885 625.721 3.11546 619.518 3.46696C616.532 3.63454 613.32 1.94176 612.58 1.88743C608.938 1.59923 605.764 1.66353 602.796 1.75551C599.991 1.83909 597.361 1.9457 594.313 1.82837C593.014 1.77734 594.287 1.09663 593.187 1.06074C589.381 0.931917 585.386 1.22507 581.752 1.15769C580.125 1.12589 580.422 0.604347 578.924 0.639892C575.334 0.718897 572.162 0.928383 568.661 1.40782C568.342 1.45151 570.49 2.10775 567.833 2.12416C563.527 2.14891 558.189 2.61852 553.251 2.11008C551.81 1.95726 551.68 0.762698 548.576 1.58212C547.928 1.75335 548.702 3.18822 545.083 1.94389C544.449 1.73687 538.272 0.057851 535.254 1.13255C534.399 1.41525 532.454 2.58692 530.649 2.40125C530.405 2.37165 531.384 1.73093 529.892 1.66732C524.785 1.45448 519.329 1.52092 514.041 1.31937C512.601 1.26428 514.719 0.600782 512.619 0.539919C506.816 0.371577 499.662 0.541806 493.903 0.751646C491.841 0.830245 493.266 1.37954 493.114 1.43943C490.729 2.41351 489.26 1.10058 488.44 1.02435C483.405 0.568016 479.439 1.18738 474.908 1.02708C473.626 0.984535 474.535 0.357591 474.279 0.301913C471.613 -0.241954 473.604 0.8815 471.903 1.00667C468.51 1.25741 465.079 1.30753 461.441 1.28874C460.03 1.2809 458.616 1.26123 457.227 1.23903C455.48 1.21025 457.446 0.482259 455.873 0.464833C446.594 0.347933 436.922 0.427317 427.893 0.837623C426.191 0.916202 427.262 1.47426 426.908 1.60238C424.465 2.49871 420.804 1.28393 420.021 1.16871C416.3 0.642812 414.835 1.13907 411.48 1.05073C395.272 0.610253 375.314 0.963774 360.011 1.18708C340.09 1.47478 324.623 2.02907 305.621 1.91901C304.412 1.91272 305.63 1.16696 304.588 1.15199C291.149 0.992583 277.913 1.30337 264.449 1.10928C263.345 1.09467 264.935 0.386936 263.164 0.339779C259.519 0.238128 254.907 0.283625 251.238 0.514549C249.449 0.625847 251.851 1.22729 250.049 1.32695C245.829 1.56044 241.325 1.61774 237.018 1.51147C235.172 1.46473 237.955 0.739016 235.557 0.734475C219.283 0.688605 203.306 0.590021 186.858 1.55081C185.722 1.61681 184.726 3.08444 182.326 2.80721C182.145 2.40065 182.154 1.92204 182.075 1.48731C158.472 1.29148 134.876 1.8388 111.198 1.95681C110.177 1.96166 111.937 1.18197 109.966 1.18738C104.627 1.20174 99.2659 1.1648 94.1089 1.20701C88.1472 1.25397 82.3769 1.39702 76.3661 1.81165C75.2181 1.88906 75.7758 3.25465 72.4578 3.05348C71.9513 3.01661 66.7432 2.843 65.5052 2.54841C65.3323 2.50395 66.2303 1.86463 64.6407 1.84867C55.2231 1.76741 45.1871 1.92959 35.7954 2.33468C34.2411 2.40134 35.893 3.07788 34.793 3.13124C27.1565 3.50428 18.6672 3.00176 11.3834 3.62988C6.40596 4.05286 8.27412 5.22409 5.65069 6.38377C5.27412 6.54743 2.25513 6.57752 2.08412 7.25006C1.68262 8.94146 3.1631 10.7911 2.55988 12.5942C2.41964 12.9833 -1.65308 12.5674 0.76591 13.5044C0.92283 13.5673 3.88466 13.8748 4.61509 14.1919C5.12566 14.4112 4.18795 15.0964 5.26195 15.3765C6.24066 15.6565 7.48402 15.0813 9.13881 15.4097C10.853 15.7421 10.1166 16.5212 13.5541 16.6079ZM953.391 6.98214C950.664 7.62032 950.287 5.22538 953.216 5.81417C953.359 5.84547 953.533 6.95087 953.391 6.98214ZM1281.66 8.22894C1278.1 9.27755 1275.67 7.72108 1278.18 6.9108C1280.69 6.1014 1282.73 7.91107 1281.66 8.22894ZM1318.42 9.06871C1314.28 9.89309 1313.63 6.49885 1318.07 7.19305C1318.32 7.2323 1318.66 9.02085 1318.42 9.06871ZM17.7856 6.69395C17.7148 6.72584 15.619 6.76015 15.5119 6.72883C14.3497 5.97075 18.7077 5.9024 17.7856 6.69395ZM1354.92 9.9753C1353.62 10.4319 1349.9 9.89517 1351.51 9.3274C1352.8 8.87065 1356.54 9.40734 1354.92 9.9753ZM811.888 8.65164C811.847 8.68706 810.275 8.70519 810.306 8.50381C810.426 7.85595 812.602 8.05808 811.888 8.65164ZM1416.96 10.1282C1407.79 10.2391 1402.24 13.0318 1412.21 12.7338C1414.02 12.6798 1408.32 11.8328 1410.62 11.5844C1414.83 11.1317 1417.62 12.8966 1421.92 11.9615C1422.7 11.7903 1417.48 10.1156 1416.94 10.1243C1416.94 10.1256 1416.95 10.1269 1416.96 10.1282ZM951.808 9.84741C951.739 9.8787 949.643 9.8968 949.554 9.86488C948.394 9.09864 952.722 9.06238 951.808 9.84741ZM720.128 9.46984C720.003 9.53689 714.956 9.59005 714.788 9.52773C712.153 8.28037 722.373 8.16917 720.128 9.46984ZM1098.44 12.0933C1100.85 12.8633 1103.68 12.96 1105.56 12.0048C1103.22 12.0502 1100.84 12.052 1098.44 12.0933Z" fill="#E5249E"/>
</svg>
