<svg width="17" height="19" viewBox="0 0 17 19" fill="none" xmlns="http://www.w3.org/2000/svg">
<path d="M13.2123 8.43792L14.9998 9.14225L13.2123 10.0227L12.3186 13.8965L11.0673 10.0227L9.27979 9.14225L11.2461 8.43792L12.1398 5.62061L12.9442 7.73359L13.2123 8.43792Z" fill="#E5249E" stroke="#E5249E"/>
<path d="M5.93254 4.81732L7.72006 5.52165L5.93254 6.40206L5.03878 10.2759L3.78752 6.40206L2 5.52165L3.96627 4.81732L4.86003 2L5.66442 4.11299L5.93254 4.81732Z" fill="#E5249E" stroke="#E5249E"/>
<path d="M7.98064 13.247L9.28065 13.7312L7.98064 14.3365L7.33063 16.9997L6.42062 14.3365L5.12061 13.7312L6.55062 13.247L7.20063 11.3101L7.78563 12.7627L7.98064 13.247Z" fill="#E5249E" stroke="#E5249E"/>
</svg>
