<svg width="19" height="23" viewBox="0 0 19 23" fill="none" xmlns="http://www.w3.org/2000/svg">
<g filter="url(#filter0_d_844_205)">
<path d="M11.573 7.57985L13.0991 8.19027L11.573 8.95329L10.8099 12.3106L9.74163 8.95329L8.21552 8.19027L9.89424 7.57985L10.6573 5.13818L11.3441 6.96944L11.573 7.57985Z" fill="black"/>
<path d="M11.573 7.57985L13.0991 8.19027L11.573 8.95329L10.8099 12.3106L9.74163 8.95329L8.21552 8.19027L9.89424 7.57985L10.6573 5.13818L11.3441 6.96944L11.573 7.57985Z" stroke="black"/>
</g>
<path d="M5.35746 4.44167L6.88357 5.05209L5.35746 5.81511L4.5944 9.17241L3.52612 5.81511L2 5.05209L3.67873 4.44167L4.44179 2L5.12854 3.83125L5.35746 4.44167Z" fill="black" stroke="black"/>
<path d="M7.10567 11.7475L8.21557 12.1672L7.10567 12.6917L6.55071 14.9999L5.77378 12.6917L4.66388 12.1672L5.88477 11.7475L6.43972 10.0688L6.93918 11.3278L7.10567 11.7475Z" fill="black" stroke="black"/>
<defs>
<filter id="filter0_d_844_205" x="2.95215" y="3.59961" width="15.3665" height="18.6128" filterUnits="userSpaceOnUse" color-interpolation-filters="sRGB">
<feFlood flood-opacity="0" result="BackgroundImageFix"/>
<feColorMatrix in="SourceAlpha" type="matrix" values="0 0 0 0 0 0 0 0 0 0 0 0 0 0 0 0 0 0 127 0" result="hardAlpha"/>
<feOffset dy="4"/>
<feGaussianBlur stdDeviation="2"/>
<feComposite in2="hardAlpha" operator="out"/>
<feColorMatrix type="matrix" values="0 0 0 0 0 0 0 0 0 0 0 0 0 0 0 0 0 0 0.25 0"/>
<feBlend mode="normal" in2="BackgroundImageFix" result="effect1_dropShadow_844_205"/>
<feBlend mode="normal" in="SourceGraphic" in2="effect1_dropShadow_844_205" result="shape"/>
</filter>
</defs>
</svg>
