<svg width="268" height="207" viewBox="0 0 268 207" fill="none" xmlns="http://www.w3.org/2000/svg">
<rect x="8" y="2.76416" width="254.427" height="203.236" fill="#F4E7D5"/>
<path d="M18.5244 4.34265C18.6692 5.54365 18.3587 7.01405 17.9903 8.11663C17.8762 8.45388 17.4626 8.25563 17.3645 8.49304C17.1717 8.98332 17.3569 9.39803 17.1333 9.88398C17.0578 10.0327 16.3975 9.80715 16.3338 9.96211C15.9889 10.8272 16.1127 11.7082 15.9232 12.592C14.984 17.0401 14.5278 21.4204 14.026 25.9543C13.861 27.4524 13.1752 29.2656 13.3796 30.8012C13.404 30.9824 13.9975 30.8991 14.0447 30.9353C14.7661 31.5044 13.5841 31.2771 13.4117 31.6264C12.7314 32.9996 12.6147 34.5858 12.7917 35.9042C12.8682 36.4779 14.0604 35.95 13.3815 36.5014C13.3356 36.5399 12.7155 36.3701 12.6427 36.5252C12.4791 36.8733 12.5643 37.5777 12.5046 37.8443C12.3862 38.3611 12.3892 38.4484 12.3634 38.9486C12.3229 39.6238 11.9796 40.4837 12.0955 41.193C12.122 41.3494 12.7709 41.1673 12.871 41.4191C12.9709 41.6704 12.8924 42.3318 12.733 42.553C12.5735 42.7736 12.0728 42.6592 11.9558 42.695C10.9687 42.9857 12.2909 43.8325 12.3213 43.9177C12.8273 45.7058 12.0021 47.2702 11.9467 48.9451C11.932 49.4077 11.949 49.8875 11.9732 50.3729C12.0182 51.1996 12.0882 52.0463 12.0421 52.8413C11.955 54.2842 11.5738 55.5244 11.5992 56.9296C11.6011 57.0775 12.3598 56.9227 12.3637 57.1034C12.4045 59.0434 12.2825 60.9481 11.7374 62.8868C11.6822 63.0771 11.0242 62.8184 10.9294 63.008C10.3635 64.1595 9.02468 66.0585 11.8992 66.7831C11.7745 67.5776 11.6444 68.553 11.0534 69.2721C10.6731 69.7314 9.95718 69.2724 10.2578 69.8411C10.3248 69.9692 10.959 69.8118 11.0117 70.0034C11.2328 70.8101 11.0168 71.6934 11.3344 72.5053C11.4005 72.6704 11.9674 72.6318 12.0689 72.6795C12.8905 73.0824 11.5184 73.7019 11.4178 73.8432C10.667 74.9025 10.9507 75.6974 10.9238 76.6993C10.9173 76.9295 11.6805 76.6639 11.7015 76.8857C11.8007 78.0348 11.7261 79.2395 11.3807 80.3742C11.3021 80.6242 10.6556 80.3894 10.5849 80.5087C10.2809 81.0353 11.5042 81.1607 11.2366 81.6676C11.1817 81.7746 10.6273 81.7107 10.5662 81.7299C9.60786 82.0305 10.9615 82.3057 10.991 82.3848C11.394 83.3869 9.97578 84.0223 10.1715 84.9825C10.1964 85.0977 10.8996 84.8415 10.9265 85.1652C11.1101 87.3299 10.9098 89.6068 10.3437 91.7514C10.2566 92.0828 9.72978 91.845 9.66472 91.8657C8.64826 92.2038 10.0088 92.4271 10.0599 92.5354C10.4272 93.3902 9.28475 94.1892 10.9051 94.7739C10.3384 98.394 11.2509 102.005 9.80565 105.6C9.78891 105.646 9.11848 105.565 9.08798 105.656C8.71384 106.755 9.75517 106.542 11.0309 107.266C11.3512 107.448 9.81438 108.009 9.70176 108.058C9.28672 108.239 8.28906 108.055 8.20875 108.116C7.57817 108.615 10.8757 108.525 10.8786 109.196C10.8732 109.217 10.2659 109.13 10.2057 109.187C10.0168 109.362 10.2584 109.535 10.05 109.707C9.56766 110.1 7.96563 110.244 8.90011 110.839C9.02139 110.915 10.8916 110.793 10.8052 111.393C10.7692 111.632 10.8049 112.69 10.6847 112.986C10.5647 113.282 9.96118 113.081 9.93516 113.102C9.14098 113.902 8.80951 113.601 7.6309 114.005C6.45676 114.408 9.26042 114.287 9.57403 114.448C9.88674 114.608 9.23142 115.198 9.00339 115.343C8.77525 115.488 8.39147 115.31 8.26257 115.438C7.42042 116.29 9.65595 115.805 10.1022 116.082C11.1588 116.735 9.08153 117.256 8.8805 117.858C8.82621 118.021 9.29922 117.886 9.34418 118.031C9.51597 118.601 8.86876 118.954 9.46689 119.606C9.56436 119.712 10.8172 120.235 9.90143 120.581C9.76937 120.63 9.25047 120.496 9.13563 120.741C8.96327 121.107 8.85342 121.765 9.02873 122.156C9.15843 122.445 10.0105 122.107 9.74724 122.475C9.62967 122.639 9.12852 122.339 8.94932 122.647C8.77016 122.953 8.7964 123.731 8.81531 124.026C8.8346 124.321 9.4814 124.155 9.52517 124.179C9.77593 124.322 10.0915 124.885 10.091 124.935C10.1846 127.454 9.1075 129.783 9.4854 132.241C9.51411 132.433 10.1963 132.3 10.2077 132.33C10.4983 132.985 8.67882 132.479 8.0741 132.942C9.45969 132.867 9.21054 133.136 9.36575 133.6C9.44168 133.825 9.97752 133.699 10.0326 133.719C10.8501 134.048 9.7988 134.287 9.58383 134.349C8.79307 134.575 9.73092 134.808 9.20238 134.962C8.6778 135.116 7.89614 134.776 7.90927 135.222C8.4063 135.344 9.70055 135.004 9.91308 135.341C10.7168 136.6 9.71714 139.01 9.61913 140.025C9.52114 141.035 9.61537 141.386 9.4406 141.982C9.12466 143.064 10.0836 142.661 10.5291 143.324C10.9745 143.986 8.60507 143.68 8.09699 143.78C7.58913 143.878 8.11347 143.976 7.83478 144.095C7.55618 144.216 7.20822 143.961 7.10543 144.241C7.00276 144.523 7.91352 145.277 8.44632 145.37C9.5751 145.569 10.7554 145.219 10.3455 145.954C10.3212 145.996 9.69771 145.865 9.63608 146.026C9.16688 147.292 9.14797 148.648 8.73431 149.917C8.67645 150.092 7.98285 149.942 7.94134 150.044C7.50688 151.098 8.67133 150.717 9.97288 151.295C8.24598 151.175 7.19275 151.513 7.18902 152.323C7.18616 152.808 7.93925 152.718 8.47299 153.026C8.63388 153.119 8.11904 153.463 8.47401 153.521C9.6344 153.718 10.9289 153.373 10.4191 154.221C10.3948 154.258 9.75961 154.145 9.72222 154.273C9.47735 155.102 10.6902 155.191 10.8439 156.068C10.9643 156.737 10.2351 158.007 10.1209 158.787C8.18044 158.786 8.63041 159.52 9.97046 159.804C9.91963 160.323 9.99948 160.885 9.8182 161.378C9.75641 161.549 9.19381 161.441 9.13326 161.463C8.18347 161.798 9.48663 162.007 9.53845 162.116C9.61812 162.301 9.66078 162.481 9.67995 162.655C9.78263 163.639 9.21758 164.476 10.0371 165.415C10.0722 165.456 11.4205 165.513 10.439 165.832C10.3713 165.852 9.75492 165.475 9.71202 166.02C9.6691 166.575 8.95492 167.544 9.58666 168.312C9.73871 168.495 10.8372 168.945 9.98583 169.315C9.87022 169.365 9.48315 169.316 9.26873 169.387C8.58552 169.619 9.94901 169.728 8.79429 170.001C7.63956 170.267 6.77878 170.866 7.58527 171.601C7.60874 171.624 8.69037 171.79 8.67585 172.021C8.65159 172.378 8.43308 172.947 8.44473 173.338C8.45071 173.527 9.11974 173.398 9.13239 173.431C9.52286 174.667 8.93696 175.605 8.69668 176.963C8.65141 177.22 9.57591 177.911 8.86052 178.399C8.07776 178.95 4.7776 178.462 5.58146 179.663C5.90275 180.12 10.0898 180.726 7.94225 181.612C8.51071 183.325 7.43775 184.933 8.24934 186.63C8.28538 186.709 9.45675 186.906 9.44618 187.093C9.42825 187.371 8.88809 187.534 8.85792 187.726C8.71767 188.524 9.20865 189.266 9.16495 190.028C9.14996 190.324 8.58326 190.249 8.56589 190.602C8.54881 190.943 9.30043 191.165 8.96386 191.644C8.70819 192.023 7.21043 192.438 7.0617 192.951C8.55592 192.884 8.54271 193.224 8.97342 193.77C9.05742 193.881 9.56869 193.723 9.6352 193.773C9.91763 193.98 9.49946 194.185 9.80654 194.379C9.8802 194.424 10.3896 194.388 10.4786 194.422C11.2519 194.688 10.1568 195.345 9.96746 195.46C9.24658 195.901 9.92669 196.011 9.66117 196.32C9.39838 196.643 8.97524 196.253 8.83598 196.615C8.67646 197.028 8.67439 197.491 8.71958 197.933C8.75572 198.29 8.82162 198.639 8.86209 198.954C8.90171 199.236 9.54328 198.934 9.56458 198.972C9.82869 199.518 9.21544 200.227 10.6089 200.309C7.22296 201.321 11.0042 200.595 10.4632 201.536C10.4193 201.61 8.8027 201.999 8.51638 201.792C8.2302 201.585 8.67138 201.111 8.23549 200.829C8.13306 200.764 6.51689 200.553 6.41278 200.502C5.59816 200.108 8.03408 199.626 8.16391 199.577C9.56392 199.034 7.8173 198.728 7.6785 198.589C7.5273 198.442 7.42669 198.293 7.35474 198.142C7.12493 197.665 7.18917 197.166 6.847 196.729C6.55718 196.358 4.93714 196.486 4.95274 196.147C5.01207 195.034 7.25251 194.532 5.2282 193.684C4.79766 193.505 3.03385 193.795 4.38733 192.979C4.47191 192.916 5.71994 192.317 4.89725 192.026C4.79351 191.99 4.27639 192.014 4.23045 191.963C3.93373 191.64 4.33432 191.364 4.12137 190.998C3.90843 190.632 3.59582 190.169 3.75592 189.734C3.85111 189.46 4.80373 189.093 5.03574 188.965C5.70414 188.599 4.5767 188.229 5.39397 188.002C6.21499 187.761 7.48435 188.147 8.00209 187.562C6.65706 187.58 5.27571 187.572 3.92265 187.576C3.93336 186.317 4.33716 185.033 4.25097 183.794C4.23886 183.636 3.51943 183.813 3.48781 183.644C3.35748 182.918 3.86114 182.317 3.64192 181.57C3.47015 181.029 2.69307 180.38 2.49065 179.807C4.02372 179.439 3.48645 178.517 3.61809 177.906C3.6634 177.684 4.07463 177.693 4.20639 177.532C4.69356 176.923 3.33776 177.224 3.12135 177.061C2.19766 176.341 5.27534 176.27 5.18825 175.435C5.18468 175.392 3.53687 174.867 3.43375 174.791C2.7614 174.315 4.00376 174.698 4.12137 174.406C4.33643 173.877 4.72382 173.501 4.23583 172.864C4.09127 172.673 3.0636 172.244 3.85084 171.885C3.95392 171.838 4.49655 171.857 4.5279 171.82C5.04998 171.134 3.34568 171.131 2.76439 170.739C2.18311 170.335 3.35369 169.736 3.69155 169.61C4.56554 169.283 4.06878 169.85 4.15503 169.865C5.18135 170.056 5.00069 169.626 5.084 169.29C6.75447 169.226 6.64968 168.754 5.16366 168.94C5.00135 168.961 5.15969 169.222 5.084 169.29C3.44173 169.011 3.22681 168.493 4.7535 167.889C5.46915 167.616 6.30856 167.864 5.99523 167.064C5.85378 166.698 4.70447 166.85 4.388 166.527C3.66585 165.777 4.73136 164.805 4.55645 164.044C4.49293 163.765 3.8652 164.042 3.80008 163.852C3.66337 163.455 3.92078 163.088 3.92163 162.697C3.92191 162.594 3.90232 162.489 3.84884 162.381C3.82578 162.336 3.16731 162.451 3.15778 162.296C3.07273 161.13 3.48676 160.032 3.48912 158.817C3.48994 158.226 3.11761 157.108 3.18598 156.506C3.30048 155.448 4.24815 154.054 4.00812 153.162C3.85427 152.564 3.1959 152.7 2.74456 152.446C1.8697 151.955 3.42253 151.049 3.66311 150.926C3.67108 150.922 3.83073 151.447 4.16698 151.164C4.87098 150.995 3.66622 150.932 3.66311 150.926C3.81847 150.839 3.96003 149.82 3.83232 149.612C3.76254 149.501 3.13829 149.569 3.11371 149.511C2.54353 148.124 2.37373 146.738 2.65482 145.329C2.66725 145.304 3.36636 145.336 3.38686 145.277C3.69115 144.454 2.83218 143.935 2.31949 143.275C1.807 142.611 1.97283 142.075 3.16947 141.666C3.01453 141.157 3.53937 140.42 3.8581 140.006C4.1768 139.587 2.81605 139.539 2.78889 139.502C1.91965 138.367 2.69323 137.675 2.80591 136.494C2.8618 135.932 2.65653 134.809 2.50349 134.192C2.38027 133.705 2.69704 133.409 2.49018 132.967C2.46255 132.907 1.85727 132.972 1.83383 132.954C1.10578 132.463 2.58811 132.691 2.85186 132.587C3.81102 132.208 4.32165 131.975 3.86501 131.339C3.76043 131.193 1.62559 130.776 1.49915 130.507C1.33867 130.157 2.10372 130.285 1.91623 129.918C1.90089 129.886 1.42947 129.895 1.44882 129.671C1.53243 128.63 1.79968 127.486 1.74591 126.392C1.74037 126.242 0.99371 126.438 0.973403 126.222C0.878792 125.218 0.900175 124.116 1.24482 123.128C1.332 122.885 1.85642 123.034 2.0116 122.981C2.9505 122.652 1.58129 122.201 1.55486 122.127C0.888611 120.341 2.11868 118.943 1.52166 117.121C1.48664 117.022 0.0180882 116.26 1.27328 115.911C1.35679 115.887 2.64101 115.543 1.76077 115.246C1.7057 115.227 1.04469 115.442 1.11065 115.072C1.17646 114.701 0.732147 114.112 1.45748 113.602C1.68596 113.441 2.96703 113.058 1.94303 112.582C1.87154 112.552 -0.44261 111.82 1.15142 111.55C1.41381 111.507 3.10169 111.546 2.23452 110.977C2.06641 110.868 1.69058 111.068 1.4546 110.78C1.09092 110.341 1.5412 109.757 0.787852 109.217C0.654483 109.123 -0.492171 108.724 0.376465 108.399C0.512508 108.348 1.07621 108.442 1.13883 108.272C1.43922 107.461 1.06038 106.612 1.4486 105.789C1.58502 105.498 2.4962 105.645 2.73973 105.341C2.98317 105.036 3.21686 104.424 2.80012 104.107C2.3832 103.79 0.931958 104.139 0.815086 103.663C0.307568 101.591 1.15791 99.5428 1.28309 97.4703C1.3018 97.1634 0.782216 97.4176 0.772541 96.9655C0.73432 95.3035 0.251463 92.4164 1.35914 90.975C2.24618 89.8149 2.91555 91.2789 3.2776 90.3922C3.45035 89.9647 1.7639 89.4975 1.71108 89.3942C1.17439 88.3837 1.92451 87.6941 1.69875 86.779C1.6519 86.5908 0.967075 86.7724 0.934768 86.6123C0.818356 86.0654 1.12623 85.4938 1.07284 84.9741C1.04733 84.741 0.524642 84.7814 0.566015 84.5673C0.659002 84.0561 0.881006 83.6021 1.3735 83.1002C1.41837 83.0546 2.0666 83.3676 2.09289 82.9857C2.13362 82.3677 2.62129 81.6061 2.12706 80.8975C1.97837 80.6873 0.784296 80.6707 1.61201 80.2272C1.78491 80.1336 3.21786 80.2668 1.9827 79.7276C1.77742 79.6369 0.112857 78.7352 1.19345 78.3095C1.47784 78.197 2.65346 77.9143 2.47113 77.6607C2.44199 77.6263 1.79948 77.758 1.73863 77.5486C1.53532 76.8129 1.61055 76.0387 1.41687 75.2727C1.36388 75.0688 0.697311 75.3654 0.639544 75.0617C0.479739 74.2235 0.659256 73.2044 0.87616 72.3858C0.957383 72.0846 1.50483 72.2996 1.5649 72.2783C2.542 71.936 1.23091 71.7131 1.15567 71.5953C0.705523 70.8635 1.32929 70.3212 1.17452 69.6573C1.13348 69.4742 0.505524 69.5955 0.450149 69.5585C-0.090583 69.1744 1.03047 69.4708 1.15759 69.2325C1.51762 68.5544 1.47779 67.7984 1.40776 67.1172C1.38113 66.867 0.650814 67.1369 0.635313 66.9126C0.529513 65.6041 0.622382 64.177 1.04591 62.9048C1.127 62.6639 1.68337 62.8265 1.812 62.7784C2.71166 62.4539 1.50296 61.9004 1.38915 61.7805C0.869531 61.2261 1.36815 61.0256 1.28548 60.548C0.872163 58.2309 1.27004 55.3193 1.53626 53.1493C1.6703 52.0249 1.84536 50.997 2.00621 50.0345C2.26146 48.4437 2.47462 47.0708 2.45066 45.3538C2.4487 45.18 1.69904 45.3286 1.68781 45.1786C1.57554 43.2751 1.93518 41.3722 1.79184 39.4404C1.78147 39.2799 1.06813 39.484 1.0278 39.2259C0.940121 38.6962 1.00298 38.0423 1.24746 37.5364C1.36537 37.2896 1.95741 37.6488 2.06373 37.4002C2.31345 36.801 2.38882 36.1433 2.2994 35.5276C2.25983 35.265 1.52389 35.6303 1.52863 35.2915C1.54719 32.9564 1.51405 30.6716 2.54542 28.3505C2.61625 28.1914 4.08689 28.1102 3.8202 27.7595C3.41477 27.7169 2.93654 27.6983 2.50252 27.6689C2.41 24.2836 3.06777 20.9214 3.30885 17.5367C3.31873 17.3966 2.53123 17.6015 2.54639 17.3305C2.63616 15.7048 2.49864 14.1421 3.35519 12.5387C3.43929 12.376 4.79966 12.528 4.61853 12.0359C4.58524 11.9497 4.44109 11.2255 4.15547 11.0127C4.11216 10.9847 3.46812 11.0836 3.46214 10.8476C3.43803 9.48674 3.6629 8.06821 4.12915 6.74056C4.20542 6.52968 4.87054 6.79633 4.9307 6.64734C5.3527 5.57658 4.90939 4.33026 5.5761 3.3668C6.02297 2.72993 7.18432 3.0193 8.35364 2.71702C8.51941 2.6675 8.55738 2.26926 9.2291 2.26682C10.921 2.23994 12.7671 2.50074 14.571 2.45157C14.962 2.46318 14.5487 1.68655 15.4843 2.14498C15.5484 2.18648 15.8476 2.73058 16.1608 2.84424C16.3777 2.93565 17.0667 2.80639 17.3418 2.99115C17.616 3.19079 17.0366 3.32781 17.3541 3.62021C17.6767 3.88574 18.4585 3.83764 18.5244 4.34265ZM5.28257 138.112C5.93299 137.718 3.53988 137.678 4.11542 138.095C4.14608 138.115 5.25067 138.133 5.28257 138.112ZM6.14344 185.02C7.18604 184.467 5.62757 184.18 4.82049 184.544C4.0148 184.926 5.82738 185.186 6.14344 185.02ZM7.07212 190.27C7.88127 189.65 4.48727 189.683 5.19646 190.289C5.23669 190.326 7.02524 190.308 7.07212 190.27ZM8.59815 4.42477C8.63035 4.41868 8.67805 4.11494 8.64681 4.10865C7.89685 3.9059 7.80227 4.50918 8.59815 4.42477ZM8.21636 195.488C8.65497 195.253 8.08389 194.766 7.53407 195.046C7.09129 195.275 7.66962 195.778 8.21636 195.488ZM7.71262 117.88C7.74825 117.873 7.77933 117.649 7.57781 117.654C6.92873 117.673 7.11336 117.984 7.71262 117.88ZM9.7014 204.306C9.5697 202.99 12.1738 201.687 12.1342 203.135C12.1276 203.398 11.1504 202.764 10.9655 203.134C10.6297 203.812 12.4337 203.858 11.6291 204.644C11.4816 204.787 9.70277 204.383 9.69712 204.305C9.69855 204.305 9.69997 204.306 9.7014 204.306ZM8.15486 137.867C8.18644 137.859 8.21416 137.546 8.18273 137.538C7.42188 137.374 7.36561 138.006 8.15486 137.867ZM9.14983 104.769C9.21721 104.752 9.27909 104.031 9.21695 104.007C7.97413 103.633 7.84533 105.092 9.14983 104.769ZM10.0692 158.799C10.836 159.131 10.929 159.53 9.97143 159.802C10.0199 159.472 10.0248 159.137 10.0692 158.799Z" fill="#2461E5"/>
<path d="M10.548 0.423265C11.9614 0.218231 13.7906 0.449141 15.1934 0.761794C15.6417 0.858834 15.4054 1.28176 15.7055 1.36781C16.3082 1.53567 16.8385 1.3304 17.4351 1.52993C17.6225 1.59809 17.3848 2.26857 17.5822 2.32466C18.7197 2.62751 19.7225 2.4619 20.8756 2.61116C26.3842 3.34668 31.88 3.63271 37.4548 3.97362C39.316 4.08562 41.5286 4.70922 43.4708 4.45498C43.6997 4.42471 43.5671 3.83425 43.611 3.78594C44.2781 3.04624 44.045 4.23506 44.4733 4.39593C45.1801 4.66067 45.936 4.82671 46.7106 4.91472C47.7351 5.03751 48.7934 5.00747 49.787 4.88116C50.4857 4.78712 49.7941 3.61154 50.4896 4.27337C50.538 4.31809 50.3573 4.94305 50.5478 5.01106C50.9786 5.16404 51.8122 5.05751 52.1567 5.10935C52.8138 5.21238 52.9498 5.20696 53.55 5.21799C54.3835 5.23861 55.3901 5.5564 56.3173 5.42059C56.5152 5.38974 56.2574 4.74621 56.5739 4.63905C56.8827 4.53202 57.6894 4.59173 57.9654 4.74484C58.2399 4.89803 58.1194 5.40172 58.1674 5.51767C58.5612 6.49625 59.5264 5.15084 59.6512 5.11824C61.866 4.56322 63.8043 5.34613 65.8687 5.35775C67.4694 5.36515 69.1477 5.12223 70.6655 5.16738C72.4885 5.22375 73.9674 5.58165 75.7412 5.53405C75.927 5.52975 75.7164 4.77364 75.9404 4.76685C78.3124 4.69534 80.7051 4.79422 83.0804 5.32037C83.3199 5.37381 83.0061 6.0342 83.2451 6.12721C84.7158 6.68206 86.9966 8.00633 87.8959 5.12787C88.8934 5.24763 90.0796 5.37252 90.9645 5.96042C91.5334 6.3388 90.9727 7.05658 91.6778 6.75366C91.8368 6.68619 91.6351 6.05258 91.8734 5.9992C92.8817 5.77506 93.9615 5.98838 94.9531 5.66901C95.1546 5.60256 95.1039 5.03576 95.1616 4.93418C95.6461 4.11167 96.4346 5.48296 96.6081 5.58346C97.9295 6.33308 98.8896 6.04899 100.124 6.07623C100.41 6.08287 100.077 5.31956 100.353 5.29862C101.786 5.20023 103.257 5.27665 104.654 5.62481C104.964 5.70408 104.673 6.34998 104.821 6.42102C105.474 6.72637 105.629 5.50346 106.255 5.7727C106.387 5.82789 106.309 6.38211 106.332 6.44322C106.703 7.40256 107.041 6.04982 107.139 6.02064C108.371 5.6212 109.147 7.04204 110.336 6.85089C110.479 6.82659 110.164 6.12214 110.564 6.09676C113.227 5.92357 116.043 6.13856 118.671 6.72114C119.079 6.81077 118.783 7.33576 118.808 7.40097C119.22 8.42005 119.501 7.0613 119.636 7.01113C120.696 6.6507 121.671 7.79999 122.399 6.18485C126.864 6.78382 131.297 5.91081 135.722 7.40185C135.778 7.41916 135.672 8.08853 135.783 8.12018C137.125 8.50833 136.876 7.46438 137.787 6.19832C138.016 5.88041 138.69 7.42469 138.749 7.53798C138.966 7.95544 138.728 8.95055 138.802 9.03167C139.408 9.66899 139.338 6.37044 140.161 6.37677C140.187 6.3825 140.074 6.9885 140.142 7.04948C140.355 7.24088 140.569 7.0016 140.777 7.21243C141.248 7.70021 141.414 9.30421 142.161 8.37838C142.256 8.2582 142.131 6.38632 142.869 6.48146C143.165 6.52097 144.463 6.50088 144.822 6.62547C145.183 6.74991 144.929 7.35039 144.954 7.37673C145.925 8.18293 145.555 8.50986 146.038 9.69456C146.521 10.8748 146.41 8.06957 146.615 7.7585C146.82 7.44832 147.533 8.11278 147.707 8.34307C147.881 8.57347 147.658 8.95441 147.813 9.08532C148.843 9.94084 148.282 7.69787 148.628 7.2561C149.433 6.20995 150.062 8.29565 150.802 8.50662C151.002 8.5636 150.843 8.0884 151.022 8.04586C151.732 7.88362 152.15 8.53662 152.952 7.94959C153.079 7.85389 153.749 6.61021 154.164 7.53196C154.223 7.66487 154.047 8.18134 154.35 8.30046C154.802 8.47921 155.612 8.60068 156.094 8.43237C156.45 8.30784 156.053 7.44984 156.496 7.71965C156.693 7.84011 156.321 8.33586 156.691 8.52051C157.048 8.70497 158.026 8.69313 158.388 8.67968C158.753 8.66585 158.56 8.01609 158.59 7.97276C158.771 7.72467 159.47 7.41967 159.531 7.42109C162.625 7.3747 165.501 8.49834 168.506 8.17229C168.747 8.14771 168.595 7.46284 168.631 7.45204C169.456 7.1756 168.788 8.98383 169.352 9.59842C169.286 8.21148 169.621 8.46644 170.191 8.32129C170.465 8.25021 170.322 7.71176 170.348 7.65712C170.762 6.8469 171.028 7.90315 171.097 8.1194C171.345 8.91481 171.671 7.98258 171.849 8.51443C172.029 9.04235 171.59 9.81621 172.146 9.81314C172.308 9.31895 171.912 8.0173 172.336 7.81243C172.926 7.52611 173.691 7.48946 174.467 7.56322C174.472 7.56298 174.487 7.56387 174.491 7.56368C175.905 7.70743 177.284 8.17162 178.109 8.25944C179.386 8.39781 179.781 8.31663 180.493 8.51461C181.842 8.8744 181.369 7.89965 182.206 7.48139C183.035 7.06311 182.573 9.41861 182.677 9.93041C182.778 10.4419 182.917 9.92188 183.05 10.2052C183.183 10.4884 182.869 10.826 183.198 10.9399C183.548 11.0542 184.511 10.1753 184.643 9.64669C184.927 8.52689 184.547 7.33293 185.423 7.77293C185.473 7.79899 185.291 8.41659 185.484 8.48484C187.058 9.00774 188.691 9.08403 190.237 9.55366C190.447 9.61911 190.238 10.3056 190.359 10.3515C191.668 10.8335 191.235 9.65273 191.99 8.378C191.785 10.0985 192.118 11.1647 193.131 11.2062C193.735 11.2317 193.653 10.475 194.054 9.95605C194.175 9.79959 194.572 10.33 194.657 9.97801C194.944 8.82781 194.591 7.51854 195.612 8.06813C195.657 8.09413 195.492 8.72346 195.647 8.76689C196.632 9.05043 196.803 7.84327 197.894 7.73302C198.734 7.64593 200.237 8.43784 201.204 8.59358C201.108 10.5317 202.044 10.1214 202.468 8.79864C203.074 8.87625 203.792 8.82825 204.371 9.0363C204.572 9.1074 204.416 9.66344 204.439 9.7251C204.818 10.6932 205.141 9.40366 205.279 9.35817C206.774 8.92279 207.924 9.96011 209.374 9.06184C209.425 9.02948 209.573 7.68694 209.9 8.68749C209.92 8.75637 209.434 9.34744 210.083 9.42544C210.753 9.50449 211.953 10.2867 212.9 9.70967C213.136 9.57109 213.744 8.50661 214.156 9.384C214.21 9.50303 214.124 9.88569 214.2 10.105C214.442 10.8039 214.667 9.45137 214.936 10.6243C215.202 11.797 215.843 12.6985 216.808 11.9482C216.839 11.9266 217.111 10.8593 217.401 10.8909C217.864 10.9425 218.512 11.1996 218.994 11.2155C219.227 11.2228 219.11 10.546 219.151 10.5357C219.861 10.3996 220.464 10.4555 221.081 10.5887C221.82 10.757 222.558 11.041 223.471 11.2332C223.768 11.2982 224.698 10.4332 225.258 11.1881C225.858 12.0138 225.015 15.2638 226.549 14.5636C227.176 14.2844 228.163 10.1569 229.132 12.3787C231.259 11.9618 233.147 13.179 235.296 12.536C235.392 12.5076 235.765 11.3616 235.983 11.3901C236.311 11.4348 236.462 11.9892 236.697 12.0387C237.677 12.2598 238.609 11.8469 239.562 11.9749C239.921 12.0222 239.762 12.5771 240.193 12.6337C240.626 12.6899 240.953 11.966 241.519 12.3578C241.949 12.6564 242.296 14.1952 242.876 14.4061C242.987 12.9146 243.385 12.9687 244.126 12.6165C244.268 12.5482 244.151 12.0199 244.22 11.9608C244.502 11.7085 244.72 12.1534 244.989 11.8766C245.054 11.8102 245.087 11.3005 245.142 11.2174C245.612 10.4916 246.247 11.6794 246.355 11.8861C246.771 12.6714 247.029 12.0212 247.364 12.3404C247.699 12.6597 247.149 13.002 247.551 13.2074C248.386 13.6324 249.492 13.6146 250.358 13.689C250.704 13.7156 250.507 13.0211 250.558 13.0091C251.288 12.8788 251.967 13.6451 252.446 12.313C252.737 15.8472 252.897 11.9984 253.883 12.7604C253.96 12.8219 253.965 14.4854 253.641 14.7105C253.316 14.9353 252.876 14.3896 252.425 14.7437C252.318 14.8267 251.642 16.3455 251.557 16.4349C250.89 17.1336 250.948 14.6516 250.923 14.5136C250.634 13.0234 249.823 14.6548 249.629 14.7595C248.737 15.2387 248.029 14.8476 247.288 15.1837C246.806 15.4006 246.663 17.0203 246.297 16.949C245.082 16.7132 244.787 14.4248 243.514 16.3196C243.241 16.7236 243.386 18.5115 242.578 17.0651C242.526 16.9739 241.944 15.6599 241.515 16.4446C241.461 16.5435 241.433 17.0604 241.367 17.1001C240.926 17.3562 240.671 16.9283 240.198 17.0986C239.723 17.2688 239.159 17.531 238.639 17.3249C238.327 17.2016 237.981 16.2154 237.841 15.9708C237.449 15.2666 236.928 16.3537 236.711 15.516C236.49 14.674 237.087 13.4491 236.414 12.8744C236.31 14.2156 236.171 15.5904 236.051 16.9384C234.517 16.8023 233.029 16.2812 231.483 16.2525C231.292 16.2503 231.446 16.9834 231.24 16.9997C230.369 17.0651 229.64 16.5074 228.736 16.662C228.029 16.784 227.229 17.5059 226.492 17.658C226.134 16.0966 225.035 16.5588 224.257 16.3754C223.99 16.3121 224.027 15.9024 223.839 15.7578C223.131 15.2226 223.403 16.5995 223.191 16.8023C222.272 17.6674 222.369 14.5896 221.345 14.6115C221.313 14.6115 221.052 15.1439 220.824 15.6142L220.863 15.6161C220.689 15.9632 220.532 16.2763 220.491 16.3178C219.877 16.9575 220.418 15.7429 220.061 15.6056C219.4 15.3539 218.958 14.9409 218.156 15.3831C217.919 15.5141 217.325 16.5087 216.921 15.6961C216.869 15.5897 216.928 15.0496 216.883 15.0156C216.066 14.4438 215.956 16.1444 215.445 16.696C214.931 17.2472 214.251 16.0337 214.118 15.6873C213.771 14.791 214.438 15.3286 214.466 15.2439C214.772 14.234 214.22 14.3819 213.812 14.2741C213.838 12.6022 213.255 12.6726 213.387 14.1691C213.4 14.3324 213.734 14.1936 213.812 14.2741C213.361 15.8925 212.716 16.0695 212.1 14.5045C211.806 13.7708 212.157 12.9497 211.148 13.2066C210.679 13.3222 210.81 14.4805 210.396 14.7745C209.45 15.4454 208.321 14.3191 207.378 14.4473C207.035 14.4938 207.339 15.1375 207.103 15.1909C206.461 15.3341 205.961 14.8401 205.321 15.056C205.265 15.0765 205.372 15.7408 205.183 15.7414C203.705 15.7577 202.474 15.2879 200.938 15.2201C200.194 15.1875 198.878 15.505 198.095 15.4054C196.797 15.2381 195.168 14.226 194.036 14.4235C193.298 14.5495 193.436 15.2136 193.102 15.6528C192.43 16.5032 191.445 14.9126 191.292 14.6664C191.289 14.6583 191.929 14.5221 191.601 14.1735C191.425 13.4626 191.3 14.6636 191.292 14.6664C191.2 14.5074 189.919 14.3196 189.675 14.4386C189.537 14.5035 189.595 15.1302 189.523 15.1522C187.785 15.6607 186.058 15.7709 184.378 15.4326C184.348 15.4191 184.413 14.7218 184.342 14.6989C183.338 14.3606 182.678 15.1981 181.849 15.6837C181.019 16.1692 180.323 15.9809 179.895 14.7696C179.283 14.9048 178.401 14.3514 177.883 14.0163C177.362 13.681 177.265 15.0394 177.219 15.0651C176.089 15.7314 175.344 15.3392 174.305 15.0798L174.37 15.081C174.134 15.0222 173.882 14.9712 173.604 14.9442C172.93 14.8756 171.499 15.0551 170.764 15.1949C170.177 15.3076 169.823 14.9845 169.27 15.1818C169.195 15.2081 169.263 15.8147 169.24 15.8378C168.615 16.5551 168.929 15.0779 168.804 14.812C168.355 13.8449 168.055 13.3291 167.286 13.7727C167.106 13.8742 166.559 16.0001 166.228 16.121C165.796 16.2743 165.968 15.512 165.514 15.692C165.475 15.7067 165.478 16.1782 165.198 16.1542C163.885 16.0491 162.537 15.7599 161.168 15.7925C160.983 15.7951 161.213 16.5455 160.944 16.5616C159.719 16.6371 158.368 16.5953 157.144 16.2326C156.849 16.141 157.04 15.6194 156.978 15.4633C156.597 14.5186 156.026 15.8796 155.934 15.9047C153.714 16.539 152.049 15.2855 149.776 15.8525C149.648 15.8858 148.695 17.3419 148.29 16.0814C148.262 15.9975 147.86 14.7079 147.484 15.5834C147.46 15.6382 147.713 16.3025 147.261 16.2308C146.809 16.1592 146.073 16.5943 145.451 15.8612C145.251 15.6302 144.805 14.3435 144.21 15.3604C144.172 15.4314 143.246 17.7345 142.935 16.1367C142.885 15.8737 142.956 14.1865 142.244 15.0454C142.108 15.2119 142.349 15.5906 141.992 15.8224C141.443 16.1797 140.729 15.7212 140.062 16.4671C139.945 16.5991 139.443 17.7402 139.055 16.8672C138.994 16.7305 139.117 16.1681 138.908 16.1032C137.918 15.7919 136.856 16.1594 135.861 15.7608C135.505 15.6207 135.696 14.7114 135.326 14.4641C134.956 14.2168 134.206 13.9755 133.81 14.3884C133.415 14.8014 133.831 16.2568 133.242 16.3679C130.7 16.8505 128.179 15.9775 125.647 15.832C125.27 15.8102 125.578 16.3323 125.022 16.3376C122.973 16.3592 119.434 16.8176 117.671 15.6997C116.256 14.8043 118.052 14.1455 116.967 13.7771C116.444 13.6013 115.862 15.2846 115.735 15.3367C114.491 15.8666 113.64 15.1123 112.524 15.3329C112.294 15.3788 112.514 16.0646 112.318 16.096C111.649 16.2094 110.948 15.8986 110.309 15.9496C110.022 15.974 110.071 16.4968 109.808 16.4545C109.177 16.3591 108.621 16.1352 108.009 15.6408C107.954 15.5958 108.337 14.9487 107.87 14.921C107.114 14.8779 106.183 14.3877 105.308 14.88C105.048 15.0281 105.029 16.2221 104.481 15.3933C104.366 15.2202 104.525 13.7874 103.869 15.0215C103.759 15.2265 102.662 16.8894 102.139 15.8083C102 15.5238 101.653 14.3478 101.339 14.5298C101.297 14.5589 101.461 15.2016 101.203 15.2622C100.294 15.4648 99.3442 15.3893 98.4135 15.5833C98.1649 15.6364 98.5296 16.3028 98.1594 16.3608C97.1456 16.521 95.8658 16.3426 94.873 16.1277C94.5065 16.0471 94.7642 15.4992 94.738 15.4391C94.3156 14.4628 94.0526 15.7746 93.9098 15.8501C93.0233 16.3023 92.3504 15.6804 91.5291 15.8378C91.3027 15.8795 91.4585 16.507 91.4131 16.5625C90.9426 17.1048 91.2982 15.9825 91.0039 15.8564C90.1796 15.4994 89.2608 15.5432 88.4298 15.6173C88.1208 15.6454 88.4626 16.3741 88.1854 16.3909C86.5408 16.5043 84.8694 16.423 83.2705 16.0114C82.9702 15.9326 83.1634 15.3747 83.1016 15.2465C82.6758 14.3499 82.0364 15.5643 81.8908 15.6794C81.2282 16.205 80.9766 15.7087 80.3971 15.7969C77.5386 16.2366 74.0238 15.8849 71.3534 15.6644C67.8354 15.3801 65.1613 14.8302 61.794 14.946C61.5824 14.9527 61.7908 15.6981 61.6084 15.7134C59.2618 15.8772 56.9473 15.5713 54.5545 15.7706C54.3611 15.7857 54.635 16.4927 54.3247 16.5406C53.689 16.6438 52.8955 16.6003 52.233 16.3708C51.9153 16.2602 52.3462 15.6578 52.0265 15.5589C51.2822 15.3272 50.4991 15.2719 49.7546 15.3802C49.4235 15.4277 49.9176 16.1522 49.4881 16.1577C48.5111 16.1754 47.5624 16.1991 46.6384 16.1874C44.7093 16.1634 42.8301 15.9985 40.9423 15.3649C40.7495 15.2995 40.5716 13.8324 40.144 14.1108C40.1093 14.5175 40.108 14.9961 40.0913 15.4308C35.9178 15.6388 31.8223 15.105 27.6459 15.0014C27.4739 14.9972 27.766 15.7757 27.4339 15.7716C25.4494 15.7482 23.5394 15.9522 21.5281 15.1687C21.3306 15.0921 21.4351 13.7261 20.8616 13.9296C20.7472 13.9666 19.8512 14.1439 19.6352 14.4394C19.603 14.4839 19.7641 15.1227 19.4758 15.1397C17.8147 15.2274 16.0543 15.0725 14.4184 14.6752C14.1418 14.6098 14.4389 13.932 14.2433 13.8795C12.8916 13.5128 11.4259 14.0231 10.1412 13.4038C9.28583 12.987 9.60366 11.8135 9.14607 10.6573C9.08496 10.4941 8.54712 10.4681 8.52011 9.7957C8.44905 8.1048 8.70938 6.25334 8.60283 4.451C8.5803 4.06277 7.86281 4.48089 8.28738 3.54277C8.31809 3.47998 8.83656 3.16868 8.96843 2.85055C9.05924 2.63057 8.89888 1.94662 9.07953 1.66507C9.26269 1.3838 9.46501 1.95722 9.76822 1.62677C10.0761 1.29229 9.93864 0.513953 10.548 0.423265ZM175.614 12.5199C175.15 11.8548 175.019 14.245 175.553 13.6857C175.579 13.6558 175.638 12.5525 175.614 12.5199ZM233.142 14.4801C232.577 13.3906 232.069 14.9159 232.458 15.7545C232.848 16.5924 233.315 14.8104 233.142 14.4801ZM239.636 14.0833C238.96 13.2105 238.647 16.5911 239.465 15.9515C239.512 15.9155 239.676 14.134 239.636 14.0833ZM11.2779 10.3325C11.2673 10.3007 10.8799 10.2686 10.8746 10.3001C10.6672 11.0594 11.438 11.1231 11.2779 10.3325ZM246.086 13.6195C245.888 13.1481 245.201 13.6386 245.451 14.225C245.654 14.6968 246.334 14.2059 246.086 13.6195ZM150.81 9.67472C150.803 9.639 150.526 9.60419 150.53 9.80579C150.542 10.4551 150.93 10.2756 150.81 9.67472ZM256.969 14.2195C255.369 13.9974 254.56 11.1422 256.291 11.5608C256.605 11.6366 255.555 12.4129 255.944 12.6889C256.656 13.1919 257.248 11.4639 257.947 12.4497C258.074 12.63 257.06 14.2384 256.966 14.2232C256.967 14.222 256.968 14.2207 256.969 14.2195ZM175.41 9.63984C175.401 9.60798 175.014 9.5683 175.003 9.59942C174.774 10.3536 175.555 10.4339 175.41 9.63984ZM134.694 8.04719C134.674 7.97958 133.785 7.90881 133.755 7.97068C133.28 9.20881 135.078 9.35558 134.694 8.04719ZM201.218 8.64585C201.645 7.89668 202.174 7.82627 202.466 8.79759C202.056 8.73121 201.616 8.70741 201.218 8.64585Z" fill="#2461E5"/>
<path d="M267.278 19.6291C267.617 22.0702 267.535 25.3039 267.323 27.7235C267.258 28.5067 266.819 28.1174 266.755 28.6449C266.63 29.6953 266.872 30.6273 266.712 31.6416C266.657 31.984 265.971 31.5838 265.928 31.9437C265.7 33.8785 265.931 35.683 265.85 37.6371C265.781 39.3271 265.721 40.9377 265.673 42.6261C265.43 50.6053 265.266 58.4207 265.053 66.4492C264.968 69.6485 264.367 73.5363 264.638 76.836C264.67 77.2216 265.259 76.9909 265.308 77.0643C266.053 78.2145 264.863 77.8321 264.705 78.5829C264.084 81.5634 264.03 84.8735 264.258 87.7387C264.356 88.9586 265.527 87.7355 264.87 88.9644C264.826 89.0497 264.199 88.7402 264.133 89.0747C263.982 89.832 264.094 91.2705 264.045 91.8586C263.946 92.9886 263.952 93.176 263.945 94.249C263.93 95.7077 263.619 97.4488 263.762 99.0236C263.794 99.3591 264.436 98.9149 264.546 99.4492C264.655 99.9803 264.602 101.399 264.451 101.876C264.3 102.352 263.796 102.15 263.68 102.234C262.705 102.917 264.059 104.572 264.093 104.774C264.671 108.596 263.912 111.911 263.942 115.5C263.949 116.301 263.981 117.193 264.022 118.011C264.116 119.978 264.258 121.916 264.263 123.735C264.268 126.815 263.974 129.46 264.109 132.457C264.122 132.772 264.867 132.384 264.886 132.768C265.078 136.878 265.129 140.95 264.772 145.071C264.735 145.487 264.054 144.979 263.978 145.395C263.526 147.923 262.374 151.968 265.311 153.36C265.261 155.074 265.215 157.164 264.678 158.716C264.332 159.717 263.584 158.776 263.925 159.982C264.001 160.254 264.623 159.881 264.689 160.291C264.887 161.527 264.858 162.853 264.952 164.136C264.99 164.641 265.049 165.134 265.151 165.611C265.226 165.955 265.791 165.849 265.895 165.944C266.737 166.742 265.407 168.14 265.316 168.437C264.638 170.727 264.985 172.379 265.043 174.499C265.056 174.991 265.795 174.384 265.835 174.854C266.032 177.304 266.066 179.863 265.804 182.3C265.744 182.843 265.081 182.364 265.019 182.626C264.752 183.773 265.983 183.99 265.743 185.101C265.693 185.334 265.136 185.215 265.076 185.258C264.133 185.928 265.495 186.491 265.527 186.657C265.952 188.846 264.547 190.211 264.593 192.389C264.596 192.655 265.348 192.101 265.31 192.871C265.196 194.097 265.245 195.206 264.354 197.12C260.922 202.375 256.203 202.096 252.696 202.496C251.952 202.529 252.391 201.924 252.334 201.867C251.421 200.985 251.181 202.389 250.939 202.474C249.128 203.092 247.272 202.119 246.186 203.839C238.33 203.913 230.726 205.015 223.034 203.869C222.935 203.856 223.085 203.179 222.889 203.156C220.531 202.869 221.046 203.891 219.534 205.225C219.147 205.56 217.932 204.068 217.817 203.96C217.42 203.56 217.775 202.548 217.645 202.473C216.569 201.883 216.837 205.173 215.444 205.23C215.399 205.227 215.56 204.613 215.439 204.557C215.064 204.383 214.707 204.639 214.334 204.445C213.479 203.997 213.104 202.409 211.889 203.395C211.733 203.523 212.065 205.381 210.786 205.349C210.255 205.335 208.058 205.467 207.409 205.377C206.77 205.286 207.176 204.663 207.13 204.639C205.396 203.924 206.033 203.563 205.128 202.426C204.223 201.293 204.596 204.083 204.266 204.412C204.081 204.596 203.599 204.492 203.151 204.328C202.806 204.198 202.482 204.029 202.343 203.934C202.028 203.721 202.388 203.32 202.112 203.204C200.273 202.444 201.386 204.631 200.807 205.104C199.468 206.219 198.252 204.187 196.989 204.03C196.642 203.988 196.942 204.451 196.635 204.506C195.413 204.72 194.661 204.096 193.289 204.734C193.065 204.838 191.967 206.122 191.221 205.224C191.115 205.095 191.393 204.569 190.87 204.467C190.085 204.314 188.679 204.236 187.851 204.428C187.236 204.571 187.965 205.408 187.179 205.161C186.829 205.05 187.461 204.536 186.805 204.37C186.146 204.204 184.516 204.258 183.88 204.287C183.251 204.316 183.607 204.958 183.557 205.002C183.25 205.258 182.063 205.591 181.954 205.591C176.587 205.758 171.629 204.709 166.417 205.092C166.008 205.121 166.283 205.803 166.221 205.815C164.819 206.106 165.918 204.286 164.937 203.682C165.084 205.067 164.501 204.818 163.517 204.973C163.041 205.048 163.301 205.584 163.258 205.64C162.554 206.456 162.06 205.404 161.933 205.189C161.465 204.397 160.957 205.334 160.639 204.805C160.321 204.279 161.051 203.5 160.105 203.51C159.839 204.006 160.543 205.303 159.824 205.513C157.11 206.311 152.046 205.282 149.865 205.166C147.692 205.051 146.984 205.139 145.718 204.953C143.436 204.615 144.261 205.582 142.837 206.013C141.41 206.444 142.119 204.082 141.918 203.572C141.721 203.062 141.499 203.584 141.249 203.302C141 203.021 141.545 202.679 140.956 202.57C140.367 202.461 138.759 203.354 138.549 203.884C138.102 205.008 138.816 206.196 137.259 205.768C137.17 205.743 137.466 205.123 137.123 205.057C134.423 204.556 131.577 204.5 128.88 204.05C128.505 203.987 128.848 203.298 128.629 203.254C126.364 202.788 127.177 203.964 125.918 205.248C126.219 203.525 125.525 202.462 123.823 202.434C122.797 202.417 122.955 203.172 122.282 203.696C122.079 203.854 121.357 203.329 121.223 203.682C120.772 204.836 121.467 206.141 119.681 205.605C119.603 205.58 119.858 204.948 119.589 204.907C117.867 204.637 117.629 205.847 115.765 205.974C114.289 206.074 111.679 205.308 110.019 205.172C110.064 203.469 108.835 203.592 108.119 204.55C108.114 204.55 108.099 204.549 108.094 204.549C107.987 204.68 107.889 204.827 107.805 204.988C106.701 204.9 105.546 204.942 104.503 204.726C104.139 204.652 104.396 204.097 104.351 204.035C103.673 203.063 103.164 204.35 102.929 204.394C100.392 204.815 98.3258 203.767 95.8935 204.66C95.8077 204.692 95.6335 206.035 95.0042 205.032C94.9641 204.963 95.7902 204.374 94.6411 204.292C93.5076 204.211 91.3665 203.425 89.7806 204.002C89.3862 204.141 88.3789 205.206 87.6413 204.328C87.5429 204.209 87.6658 203.826 87.5254 203.607C87.0578 202.907 86.7465 204.261 86.213 203.087C85.6869 201.913 84.5169 201.011 82.9106 201.762C82.8605 201.783 82.4548 202.851 81.9441 202.819C81.133 202.766 80.0255 202.507 79.1738 202.488C78.7732 202.48 79.009 203.158 78.9391 203.168C76.2315 203.461 74.3446 202.804 71.4636 202.452C70.9282 202.386 69.3806 203.25 68.3864 202.494C67.295 201.665 68.5442 198.415 65.9442 199.11C64.8996 199.388 63.4253 203.516 61.6387 201.284C57.9772 201.682 54.684 200.441 51.0042 201.006C50.8429 201.032 50.2555 202.166 49.8714 202.128C49.3098 202.069 49.0138 201.505 48.6181 201.444C48.3185 201.396 48.0281 201.368 47.7452 201.352C46.3781 201.33 45.0602 201.613 43.6959 201.53C43.0779 201.494 43.2977 200.934 42.5533 200.892C41.8065 200.851 41.2951 201.586 40.2924 201.217C39.5275 200.935 38.7841 199.412 37.7635 199.227C37.7151 200.722 37.016 200.685 35.7745 201.072C35.5337 201.147 35.788 201.669 35.674 201.731C35.2198 201.996 34.792 201.562 34.3577 201.852C34.2521 201.922 34.2443 202.432 34.1577 202.518C33.4164 203.266 32.21 202.112 32.0048 201.911C31.2107 201.148 30.8354 201.811 30.2238 201.51C29.611 201.209 30.5293 200.838 29.8143 200.654C28.3349 200.274 26.4339 200.352 24.9301 200.326C24.3323 200.319 24.7392 201.001 24.6536 201.016C23.4104 201.187 22.1612 200.461 21.4714 201.818C20.6141 198.307 20.7222 202.158 18.9517 201.455C18.8119 201.398 18.6349 199.737 19.1716 199.494C19.7065 199.25 20.5216 199.77 21.2638 199.39C21.4417 199.301 22.45 197.746 22.5886 197.652C23.6709 196.917 23.8169 199.398 23.8752 199.535C24.5218 201.006 25.7574 199.332 26.081 199.217C27.5688 198.689 28.832 199.041 30.0746 198.666C30.8924 198.424 30.971 196.799 31.6146 196.852C33.74 197.025 34.468 199.296 36.4833 197.344C36.9117 196.928 36.5052 195.148 38.0322 196.557C38.1304 196.646 39.2655 197.934 39.9287 197.132C40.0137 197.031 40.0167 196.514 40.1278 196.471C40.8676 196.198 41.3529 196.616 42.157 196.429C42.9558 196.242 43.937 195.963 44.8494 196.155C45.402 196.27 46.0972 197.249 46.3515 197.491C46.8642 197.974 47.4192 197.599 47.8531 197.599C47.8819 197.601 47.9682 197.603 47.9968 197.606C48.1836 197.613 48.3482 197.694 48.4713 197.956C48.8761 198.812 47.8994 200.01 49.0689 200.62C49.1965 199.28 49.3832 197.908 49.5367 196.563C52.1382 196.768 54.7103 197.325 57.3623 197.377C57.6952 197.383 57.3898 196.646 57.7409 196.633C59.2326 196.58 60.4974 197.145 62.058 196.998C63.2524 196.88 64.6159 196.163 65.8515 196.013C66.5837 197.578 68.432 197.118 69.7883 197.303C70.2724 197.367 70.2126 197.777 70.5442 197.922C71.7935 198.459 71.2469 197.08 71.6033 196.877C73.1136 196.012 73.1779 199.094 74.9155 199.073C75.0044 199.072 76.2189 197.469 76.3658 197.371C77.3763 196.736 76.5102 197.947 77.1299 198.087C78.2877 198.345 79.0279 198.76 80.4086 198.321C80.7948 198.19 81.7542 197.196 82.5032 198.01C82.6016 198.117 82.5291 198.657 82.6099 198.692C84.0288 199.264 84.1249 197.562 84.9831 197.01C85.8222 196.458 87.0682 197.672 87.3277 198.019C87.9958 198.917 86.7848 198.378 86.7475 198.463C86.2759 199.474 87.2382 199.326 87.9413 199.434C87.9916 201.107 88.9901 201.037 88.6737 199.539C88.6369 199.375 88.0799 199.514 87.9413 199.434C88.5999 197.813 89.7379 197.637 90.888 199.204C91.4337 199.939 90.8609 200.759 92.6129 200.505C93.4089 200.39 93.1289 199.231 93.8263 198.938C95.4333 198.269 97.4395 199.402 99.0876 199.282C99.6732 199.238 99.1227 198.591 99.5243 198.54C100.583 198.4 101.563 198.902 102.617 198.691C102.714 198.671 102.497 198.005 102.83 198.006C104.732 198.006 106.402 198.275 108.275 198.451L108.172 198.449C108.79 198.496 109.436 198.532 110.126 198.541C111.402 198.558 113.695 198.218 115.033 198.305C117.315 198.452 120.171 199.441 122.115 199.229C123.401 199.093 123.136 198.431 123.685 197.987C124.734 197.127 126.624 198.707 126.859 198.951C126.869 198.959 125.765 199.103 126.352 199.447C126.683 200.156 126.847 198.953 126.859 198.951C127.014 199.108 129.231 199.28 129.663 199.158C129.899 199.091 129.773 198.465 129.897 198.442C132.856 197.912 135.785 197.779 138.777 198.094C138.829 198.107 138.745 198.806 138.868 198.828C140.585 199.151 141.709 198.304 143.13 197.806C144.561 197.308 145.685 197.484 146.521 198.688C147.6 198.543 149.135 199.08 150.022 199.406C150.909 199.731 151.038 198.371 151.116 198.345C153.548 197.492 154.955 198.274 157.478 198.398C158.678 198.459 161.057 198.261 162.356 198.109C163.382 197.987 163.998 198.305 164.945 198.098C165.073 198.07 164.941 197.465 164.98 197.441C166.033 196.713 165.531 198.195 165.75 198.459C166.544 199.418 167.03 199.928 168.384 199.469C168.696 199.363 169.591 197.226 170.155 197.098C170.889 196.934 170.618 197.701 171.391 197.51C171.457 197.494 171.44 197.023 171.917 197.04C174.125 197.113 176.536 197.362 178.839 197.284C179.152 197.275 178.741 196.533 179.192 196.507C181.314 196.389 183.647 196.377 185.714 196.684C186.221 196.762 185.916 197.292 186.029 197.445C186.73 198.372 187.667 196.983 187.823 196.953C191.588 196.207 194.514 197.358 198.33 196.617C198.551 196.574 200.052 195.044 200.847 196.264C200.899 196.346 201.675 197.597 202.249 196.688C202.284 196.631 201.818 195.992 202.578 196.021C202.626 196.023 202.675 196.023 202.726 196.021C203.531 195.989 204.695 195.585 205.727 196.217C206.067 196.43 206.957 197.671 207.927 196.603C207.998 196.528 209.43 194.148 210.088 195.716C210.19 195.974 210.175 197.664 211.353 196.746C211.578 196.568 211.141 196.211 211.741 195.949C212.641 195.548 213.938 195.945 215.045 195.147C215.238 195.006 216.04 193.827 216.773 194.668C216.887 194.8 216.704 195.371 217.071 195.42C218.791 195.654 220.595 195.207 222.349 195.531C222.977 195.645 222.694 196.567 223.348 196.786C223.994 197.006 225.303 197.192 225.964 196.751C226.618 196.309 225.835 194.886 226.828 194.732C231.192 194.061 235.525 194.751 239.836 194.635C240.468 194.618 239.922 194.129 240.835 194.065C244.321 193.838 249.963 192.847 252.56 193.386C254.709 193.819 252.375 195.033 253.979 195.034C254.796 195.015 254.981 193.178 255.066 193.09C255.63 192.611 255.999 192.472 256.215 192.441C256.429 192.416 256.44 192.502 256.177 192.708C256.078 192.792 255.627 192.417 255.475 192.44C255.452 192.46 255.43 192.486 255.41 192.519C255.05 193.175 255.227 193.008 255.304 192.785C255.404 192.533 255.512 192.149 255.518 191.728C255.52 191.357 254.994 191.374 255.055 191.027C255.193 190.151 255.429 189.29 255.922 188.306C255.967 188.216 256.615 188.822 256.641 188.075C256.679 186.853 257.134 185.269 256.594 183.811C256.432 183.382 255.239 183.4 256.034 182.435C256.2 182.233 257.642 182.441 256.367 181.377C256.156 181.205 254.42 179.396 255.463 178.448C255.738 178.191 256.888 177.54 256.684 177.006C256.652 176.934 256.021 177.251 255.942 176.805C255.676 175.25 255.685 173.601 255.431 171.988C255.362 171.555 254.72 172.225 254.639 171.577C254.414 169.806 254.522 167.572 254.694 165.817C254.759 165.173 255.318 165.607 255.377 165.559C256.13 164.954 255.474 164.562 255.121 164.299C255.025 164.23 254.951 164.171 254.934 164.12C254.449 162.628 255.04 161.469 254.839 160.083C254.786 159.701 254.167 159.99 254.109 159.915C253.542 159.14 254.682 159.698 254.792 159.193C255.103 157.777 255 156.206 254.87 154.779C254.821 154.255 254.116 154.871 254.08 154.4C253.855 151.617 253.809 148.688 254.107 145.925C254.164 145.403 254.735 145.708 254.859 145.595C255.724 144.818 254.466 143.764 254.342 143.523C253.771 142.396 254.25 141.941 254.124 140.927C253.495 136.007 253.668 129.881 253.794 125.213C253.859 122.67 253.984 120.368 254.096 118.114C254.252 114.996 254.382 111.991 254.29 108.627C254.281 108.258 253.538 108.633 253.52 108.315C253.328 104.212 253.616 100.215 253.4 96.1204C253.383 95.7835 252.678 96.2696 252.628 95.7284C252.52 94.6322 252.559 93.221 252.784 92.1132C252.892 91.5695 253.498 92.299 253.594 91.7514C253.821 90.4709 253.872 89.1117 253.759 87.7978C253.709 87.2418 252.988 88.0808 252.979 87.3579C252.908 82.4256 252.782 77.5816 253.705 72.6055C253.768 72.2665 255.233 71.9591 254.95 71.2341C254.543 71.1806 254.065 71.1849 253.63 71.1622C253.374 63.99 253.846 56.9171 253.806 49.7526C253.804 49.4522 253.037 49.9835 253.029 49.4036C252.998 47.2359 252.867 45.1279 252.947 42.9962C252.99 41.758 253.104 40.543 253.342 39.3038C253.407 38.9713 254.778 39.084 254.54 38.0762C254.497 37.9079 254.265 36.3704 253.956 35.9967C253.909 35.9458 253.281 36.2388 253.247 35.7585C253.055 32.8899 253.094 29.905 253.368 27.048C253.413 26.5873 254.112 27.046 254.15 26.7195C254.415 24.3786 253.784 21.909 254.281 19.6686C254.614 18.1619 255.816 18.649 256.926 17.7875C257.083 17.6787 257.059 16.7168 257.731 16.6356C259.416 16.4521 261.284 16.8027 263.077 16.5497C263.27 16.5241 263.25 16.2361 263.309 16.0831C263.369 15.9299 263.498 15.8653 263.97 16.0824C264.029 16.0788 264.373 16.8393 264.705 17.0529C264.932 17.1912 265.601 16.8866 265.898 17.1737C266.196 17.4713 265.643 17.8335 266.002 18.3429C266.366 18.8568 267.13 18.5796 267.278 19.6291ZM154.013 200.857C154.834 201.512 154.96 199.12 154.07 199.69C154.027 199.721 153.971 200.825 154.013 200.857ZM54.6129 199.122C55.6365 200.226 56.4389 198.707 55.7176 197.859C55.0151 197.013 54.298 198.787 54.6129 199.122ZM43.3915 199.425C44.6378 200.277 44.8994 196.888 43.5291 197.552C43.4503 197.589 43.3187 199.375 43.3915 199.425ZM257.45 21.4351C257.482 21.4303 257.479 20.7537 257.447 20.7463C256.67 20.4336 256.676 21.757 257.45 21.4351ZM32.2986 200.166C32.695 200.627 33.819 200.102 33.3376 199.529C32.9511 199.068 31.8114 199.593 32.2986 200.166ZM196.911 202.864C196.926 202.899 197.4 202.914 197.382 202.712C197.326 202.065 196.675 202.273 196.911 202.864ZM13.4853 200.178C16.2653 200.306 17.9493 203.109 14.923 202.792C14.3748 202.735 16.1043 201.899 15.4068 201.646C14.1294 201.186 13.2833 202.945 11.98 202.002C11.7445 201.83 13.3265 200.165 13.4903 200.174C13.4886 200.176 13.487 200.177 13.4853 200.178ZM154.481 203.732C154.497 203.764 155.157 203.795 155.173 203.764C155.531 203.005 154.203 202.941 154.481 203.732ZM224.763 203.149C224.802 203.215 226.353 203.22 226.395 203.156C227.155 201.884 224.026 201.871 224.763 203.149ZM109.992 205.12C109.361 205.767 108.646 205.921 108.112 205.352C108.104 205.352 108.079 205.351 108.07 205.351C107.977 205.252 107.889 205.131 107.808 204.989C107.899 204.998 107.989 205.006 108.08 205.014C108.087 205.014 108.108 205.015 108.115 205.015C108.726 205.056 109.353 205.073 109.992 205.12Z" fill="#2461E5"/>
</svg>
