<svg width="138" height="162" viewBox="0 0 138 162" fill="none" xmlns="http://www.w3.org/2000/svg">
<g clip-path="url(#clip0_725_942)">
<path d="M88.3983 109.87L96.5053 109.976C97.8245 110.057 99.1622 109.885 100.474 109.885C104.454 109.885 108.459 109.947 112.406 109.98C112.955 109.983 113.243 109.672 113.873 109.998C114.79 110.474 114.4 112.82 114.403 113.684C114.433 120.555 114.86 128.612 114.3 135.387C114.005 138.931 111.127 141.697 107.652 142.258C102.003 141.979 96.0078 142.624 90.3992 142.258C86.4268 141.994 83.9836 139.535 83.6667 135.578C83.2945 130.924 83.5525 124.845 83.5856 120.06C83.6004 117.99 83.7367 115.894 83.8104 113.831C83.8399 112.995 83.4419 110.291 84.4479 110.002L88.3946 109.874L88.3983 109.87ZM112.609 111.588L85.7966 111.742L85.5719 112.061C85.6234 115.117 84.5401 118.616 87.4844 120.698C89.4669 122.101 93.7968 121.474 96.24 121.493C99.8734 121.522 104.797 121.987 108.297 121.551C110.516 121.273 112.576 119.151 112.753 116.931C112.893 115.157 112.594 113.362 112.612 111.588H112.609ZM85.4392 121.452V135.703C85.4392 137.886 87.1196 139.964 89.2384 140.437C91.7922 141.005 95.9783 140.646 98.6758 140.631C101.373 140.616 108.423 141.195 110.427 139.48C112.996 137.278 112.502 135.032 112.601 132.053C112.69 129.499 112.793 126.927 112.745 124.358C112.723 123.219 112.41 122.046 112.745 120.914C112.111 121.573 111.396 122.178 110.556 122.588C109.329 123.186 107.258 123.339 105.884 123.358C101.259 123.416 96.1257 123.435 91.56 123.299C89.1942 123.23 87.2596 123.127 85.4392 121.452Z" fill="#2461E5"/>
<path d="M34.9788 109.87L43.0859 109.976C44.4051 110.057 45.7428 109.885 47.0546 109.885C51.0344 109.885 55.04 109.947 58.9867 109.98C59.5358 109.983 59.8232 109.672 60.4533 109.998C61.3709 110.474 60.9803 112.82 60.984 113.684C61.0134 120.555 61.4409 128.612 60.8808 135.387C60.586 138.931 57.708 141.697 54.233 142.258C48.5839 141.979 42.5884 142.624 36.9798 142.258C33.0073 141.994 30.5642 139.535 30.2473 135.578C29.8751 130.924 30.133 124.845 30.1662 120.06C30.1809 117.99 30.3173 115.894 30.391 113.831C30.4205 112.995 30.0225 110.291 31.0285 110.002L34.9751 109.874L34.9788 109.87ZM59.1894 111.588L32.3772 111.742L32.1524 112.061C32.204 115.117 31.1206 118.616 34.0649 120.698C36.0475 122.101 40.3774 121.474 42.8205 121.493C46.454 121.522 51.3771 121.987 54.8779 121.551C57.0963 121.273 59.1562 119.151 59.3331 116.931C59.4731 115.157 59.1746 113.362 59.193 111.588H59.1894ZM32.0198 121.452V135.703C32.0198 137.886 33.7001 139.964 35.819 140.437C38.3727 141.005 42.5589 140.646 45.2563 140.631C47.9538 140.616 55.0032 141.195 57.0078 139.48C59.5763 137.278 59.0825 135.032 59.182 132.053C59.2704 129.499 59.3736 126.927 59.3257 124.358C59.3036 123.219 58.9904 122.046 59.3257 120.914C58.6919 121.573 57.977 122.178 57.1368 122.588C55.9097 123.186 53.8387 123.339 52.4642 123.358C47.8395 123.416 42.7063 123.435 38.1406 123.299C35.7748 123.23 33.8402 123.127 32.0198 121.452Z" fill="#2461E5"/>
<mask id="path-3-inside-1_725_942" fill="white">
<path d="M32.889 155.77L34.921 155.13V151.306H30.073V146.474H33.017V148.442H37.897V157.178L33.817 158.458L32.889 155.77ZM39.3405 147.866L42.2525 147.69L42.7485 154.73L45.1325 154.602L45.2925 151.338H43.5485L44.2045 148.474H48.4125L47.9485 157.322L40.0125 157.706L39.3405 147.866ZM50.4519 150.986L49.2199 150.25L50.7079 147.802L53.4119 149.402V153.818L50.4519 154.474V150.986ZM53.1811 156.874L55.6771 152.89L56.5091 153.226L56.0291 151.162L54.4771 150.234L55.9651 147.77L58.6371 149.354L60.5251 157.402L57.5811 158.026L57.1171 155.946L55.6451 158.314L53.1811 156.874ZM61.4206 150.986L60.1886 150.25L61.6766 147.802L64.3806 149.402V153.818L61.4206 154.474V150.986ZM69.6112 151.338H65.5792L66.2352 148.49H72.2512L73.8192 148.122L74.4912 150.874L72.5712 151.338V157.402L69.6112 158.058V151.338ZM82.9811 154.906L84.3731 154.458L84.5651 151.338H78.7891L79.4451 148.49H87.7011L87.1571 156.554L83.8131 157.61L82.9811 154.906ZM79.4291 152.538H82.4051V159.514L79.4291 160.17V152.538ZM89.684 151.066L88.308 150.218L89.78 147.77L92.452 149.37L92.612 150.602L94.036 148.186L96.388 149.61L94.068 153.466L92.98 153.114L93.252 154.938L96.884 154.586L97.588 150.714L96.692 150.202L98.148 147.802L100.836 149.434L99.428 157.274L90.692 158.058L89.684 151.066ZM102.608 151.338H101.472L102.128 148.49H110.864L111.152 156.794L107.328 157.994L106.4 155.322L108.112 154.778L108.016 151.338H105.584V157.402L102.608 158.058V151.338Z"/>
</mask>
<path d="M32.889 155.77L31.9877 152.908L29.0471 153.835L30.0532 156.749L32.889 155.77ZM34.921 155.13L35.8222 157.991L37.921 157.33V155.13H34.921ZM34.921 151.306H37.921V148.306H34.921V151.306ZM30.073 151.306H27.073V154.306H30.073V151.306ZM30.073 146.474V143.474H27.073V146.474H30.073ZM33.017 146.474H36.017V143.474H33.017V146.474ZM33.017 148.442H30.017V151.442H33.017V148.442ZM37.897 148.442H40.897V145.442H37.897V148.442ZM37.897 157.178L38.795 160.04L40.897 159.381V157.178H37.897ZM33.817 158.458L30.9812 159.437L31.9328 162.193L34.715 161.32L33.817 158.458ZM32.889 155.77L33.7902 158.631L35.8222 157.991L34.921 155.13L34.0197 152.268L31.9877 152.908L32.889 155.77ZM34.921 155.13H37.921V151.306H34.921H31.921V155.13H34.921ZM34.921 151.306V148.306H30.073V151.306V154.306H34.921V151.306ZM30.073 151.306H33.073V146.474H30.073H27.073V151.306H30.073ZM30.073 146.474V149.474H33.017V146.474V143.474H30.073V146.474ZM33.017 146.474H30.017V148.442H33.017H36.017V146.474H33.017ZM33.017 148.442V151.442H37.897V148.442V145.442H33.017V148.442ZM37.897 148.442H34.897V157.178H37.897H40.897V148.442H37.897ZM37.897 157.178L36.999 154.315L32.919 155.595L33.817 158.458L34.715 161.32L38.795 160.04L37.897 157.178ZM33.817 158.458L36.6527 157.479L35.7247 154.791L32.889 155.77L30.0532 156.749L30.9812 159.437L33.817 158.458ZM39.3405 147.866L39.1595 144.871L36.1414 145.054L36.3474 148.07L39.3405 147.866ZM42.2525 147.69L45.2451 147.479L45.0363 144.516L42.0715 144.695L42.2525 147.69ZM42.7485 154.73L39.7559 154.941L39.9632 157.884L42.9093 157.726L42.7485 154.73ZM45.1325 154.602L45.2933 157.598L47.9963 157.452L48.1289 154.749L45.1325 154.602ZM45.2925 151.338L48.2889 151.485L48.4431 148.338H45.2925V151.338ZM43.5485 151.338L40.6242 150.668L39.7836 154.338H43.5485V151.338ZM44.2045 148.474V145.474H41.8139L41.2802 147.804L44.2045 148.474ZM48.4125 148.474L51.4084 148.631L51.5739 145.474H48.4125V148.474ZM47.9485 157.322L48.0935 160.318L50.8023 160.187L50.9444 157.479L47.9485 157.322ZM40.0125 157.706L37.0194 157.91L37.2198 160.844L40.1575 160.702L40.0125 157.706ZM39.3405 147.866L39.5215 150.86L42.4335 150.684L42.2525 147.69L42.0715 144.695L39.1595 144.871L39.3405 147.866ZM42.2525 147.69L39.2599 147.901L39.7559 154.941L42.7485 154.73L45.7411 154.519L45.2451 147.479L42.2525 147.69ZM42.7485 154.73L42.9093 157.726L45.2933 157.598L45.1325 154.602L44.9716 151.606L42.5876 151.734L42.7485 154.73ZM45.1325 154.602L48.1289 154.749L48.2889 151.485L45.2925 151.338L42.2961 151.191L42.1361 154.455L45.1325 154.602ZM45.2925 151.338V148.338H43.5485V151.338V154.338H45.2925V151.338ZM43.5485 151.338L46.4727 152.008L47.1287 149.144L44.2045 148.474L41.2802 147.804L40.6242 150.668L43.5485 151.338ZM44.2045 148.474V151.474H48.4125V148.474V145.474H44.2045V148.474ZM48.4125 148.474L45.4166 148.317L44.9526 157.165L47.9485 157.322L50.9444 157.479L51.4084 148.631L48.4125 148.474ZM47.9485 157.322L47.8035 154.325L39.8675 154.709L40.0125 157.706L40.1575 160.702L48.0935 160.318L47.9485 157.322ZM40.0125 157.706L43.0055 157.501L42.3335 147.661L39.3405 147.866L36.3474 148.07L37.0194 157.91L40.0125 157.706ZM50.4519 150.986H53.4519V149.283L51.9904 148.41L50.4519 150.986ZM49.2199 150.25L46.6563 148.692L45.0861 151.275L47.6813 152.825L49.2199 150.25ZM50.7079 147.802L52.2356 145.22L49.6842 143.71L48.1443 146.244L50.7079 147.802ZM53.4119 149.402H56.4119V147.691L54.9396 146.82L53.4119 149.402ZM53.4119 153.818L54.061 156.747L56.4119 156.226V153.818H53.4119ZM50.4519 154.474H47.4519V158.211L51.101 157.403L50.4519 154.474ZM50.4519 150.986L51.9904 148.41L50.7584 147.674L49.2199 150.25L47.6813 152.825L48.9133 153.561L50.4519 150.986ZM49.2199 150.25L51.7834 151.808L53.2714 149.36L50.7079 147.802L48.1443 146.244L46.6563 148.692L49.2199 150.25ZM50.7079 147.802L49.1801 150.384L51.8841 151.984L53.4119 149.402L54.9396 146.82L52.2356 145.22L50.7079 147.802ZM53.4119 149.402H50.4119V153.818H53.4119H56.4119V149.402H53.4119ZM53.4119 153.818L52.7627 150.889L49.8027 151.545L50.4519 154.474L51.101 157.403L54.061 156.747L53.4119 153.818ZM50.4519 154.474H53.4519V150.986H50.4519H47.4519V154.474H50.4519ZM53.1811 156.874L50.6388 155.281L48.9963 157.903L51.6674 159.464L53.1811 156.874ZM55.6771 152.89L56.8005 150.108L54.4695 149.167L53.1348 151.297L55.6771 152.89ZM56.5091 153.226L55.3857 156.008L60.7388 158.169L59.4311 152.546L56.5091 153.226ZM56.0291 151.162L58.9511 150.482L58.6625 149.241L57.5687 148.587L56.0291 151.162ZM54.4771 150.234L51.909 148.683L50.3514 151.262L52.9375 152.809L54.4771 150.234ZM55.9651 147.77L57.4949 145.189L54.9353 143.672L53.397 146.219L55.9651 147.77ZM58.6371 149.354L61.5578 148.669L61.266 147.425L60.1669 146.773L58.6371 149.354ZM60.5251 157.402L61.1472 160.337L64.1459 159.701L63.4458 156.717L60.5251 157.402ZM57.5811 158.026L54.6531 158.679L55.2994 161.576L58.2032 160.961L57.5811 158.026ZM57.1171 155.946L60.0451 155.293L58.4462 148.125L54.5692 154.362L57.1171 155.946ZM55.6451 158.314L54.1314 160.904L56.6518 162.377L58.193 159.898L55.6451 158.314ZM53.1811 156.874L55.7234 158.467L58.2194 154.483L55.6771 152.89L53.1348 151.297L50.6388 155.281L53.1811 156.874ZM55.6771 152.89L54.5537 155.672L55.3857 156.008L56.5091 153.226L57.6325 150.444L56.8005 150.108L55.6771 152.89ZM56.5091 153.226L59.4311 152.546L58.9511 150.482L56.0291 151.162L53.1071 151.841L53.5871 153.905L56.5091 153.226ZM56.0291 151.162L57.5687 148.587L56.0167 147.659L54.4771 150.234L52.9375 152.809L54.4895 153.737L56.0291 151.162ZM54.4771 150.234L57.0452 151.785L58.5332 149.321L55.9651 147.77L53.397 146.219L51.909 148.683L54.4771 150.234ZM55.9651 147.77L54.4353 150.35L57.1073 151.934L58.6371 149.354L60.1669 146.773L57.4949 145.189L55.9651 147.77ZM58.6371 149.354L55.7164 150.039L57.6044 158.087L60.5251 157.402L63.4458 156.717L61.5578 148.669L58.6371 149.354ZM60.5251 157.402L59.9031 154.467L56.9591 155.091L57.5811 158.026L58.2032 160.961L61.1472 160.337L60.5251 157.402ZM57.5811 158.026L60.5091 157.373L60.0451 155.293L57.1171 155.946L54.1891 156.599L54.6531 158.679L57.5811 158.026ZM57.1171 155.946L54.5692 154.362L53.0972 156.73L55.6451 158.314L58.193 159.898L59.665 157.53L57.1171 155.946ZM55.6451 158.314L57.1588 155.724L54.6948 154.284L53.1811 156.874L51.6674 159.464L54.1314 160.904L55.6451 158.314ZM61.4206 150.986H64.4206V149.283L62.9592 148.41L61.4206 150.986ZM60.1886 150.25L57.625 148.692L56.0548 151.275L58.65 152.825L60.1886 150.25ZM61.6766 147.802L63.2043 145.22L60.6529 143.71L59.113 146.244L61.6766 147.802ZM64.3806 149.402H67.3806V147.691L65.9083 146.82L64.3806 149.402ZM64.3806 153.818L65.0297 156.747L67.3806 156.226V153.818H64.3806ZM61.4206 154.474H58.4206V158.211L62.0697 157.403L61.4206 154.474ZM61.4206 150.986L62.9592 148.41L61.7272 147.674L60.1886 150.25L58.65 152.825L59.882 153.561L61.4206 150.986ZM60.1886 150.25L62.7522 151.808L64.2402 149.36L61.6766 147.802L59.113 146.244L57.625 148.692L60.1886 150.25ZM61.6766 147.802L60.1489 150.384L62.8529 151.984L64.3806 149.402L65.9083 146.82L63.2043 145.22L61.6766 147.802ZM64.3806 149.402H61.3806V153.818H64.3806H67.3806V149.402H64.3806ZM64.3806 153.818L63.7315 150.889L60.7715 151.545L61.4206 154.474L62.0697 157.403L65.0297 156.747L64.3806 153.818ZM61.4206 154.474H64.4206V150.986H61.4206H58.4206V154.474H61.4206ZM69.6112 151.338H72.6112V148.338H69.6112V151.338ZM65.5792 151.338L62.6558 150.664L61.8097 154.338H65.5792V151.338ZM66.2352 148.49V145.49H63.8477L63.3118 147.816L66.2352 148.49ZM72.2512 148.49V151.49H72.5985L72.9367 151.41L72.2512 148.49ZM73.8192 148.122L76.7336 147.41L76.0283 144.522L73.1338 145.201L73.8192 148.122ZM74.4912 150.874L75.1959 153.79L78.1189 153.083L77.4056 150.162L74.4912 150.874ZM72.5712 151.338L71.8665 148.422L69.5712 148.976V151.338H72.5712ZM72.5712 157.402L73.2203 160.331L75.5712 159.81V157.402H72.5712ZM69.6112 158.058H66.6112V161.795L70.2603 160.987L69.6112 158.058ZM69.6112 151.338V148.338H65.5792V151.338V154.338H69.6112V151.338ZM65.5792 151.338L68.5027 152.011L69.1587 149.163L66.2352 148.49L63.3118 147.816L62.6558 150.664L65.5792 151.338ZM66.2352 148.49V151.49H72.2512V148.49V145.49H66.2352V148.49ZM72.2512 148.49L72.9367 151.41L74.5047 151.042L73.8192 148.122L73.1338 145.201L71.5658 145.569L72.2512 148.49ZM73.8192 148.122L70.9049 148.833L71.5769 151.585L74.4912 150.874L77.4056 150.162L76.7336 147.41L73.8192 148.122ZM74.4912 150.874L73.7865 147.958L71.8665 148.422L72.5712 151.338L73.2759 154.254L75.1959 153.79L74.4912 150.874ZM72.5712 151.338H69.5712V157.402H72.5712H75.5712V151.338H72.5712ZM72.5712 157.402L71.9221 154.473L68.9621 155.129L69.6112 158.058L70.2603 160.987L73.2203 160.331L72.5712 157.402ZM69.6112 158.058H72.6112V151.338H69.6112H66.6112V158.058H69.6112ZM82.9811 154.906L82.062 152.05L79.2428 152.957L80.1138 155.788L82.9811 154.906ZM84.3731 154.458L85.2922 157.314L87.2416 156.686L87.3674 154.642L84.3731 154.458ZM84.5651 151.338L87.5594 151.522L87.7554 148.338H84.5651V151.338ZM78.7891 151.338L75.8657 150.664L75.0195 154.338H78.7891V151.338ZM79.4451 148.49V145.49H77.0576L76.5217 147.816L79.4451 148.49ZM87.7011 148.49L90.6943 148.692L90.9103 145.49H87.7011V148.49ZM87.1571 156.554L88.0605 159.415L90.0125 158.798L90.1503 156.756L87.1571 156.554ZM83.8131 157.61L80.9458 158.492L81.8346 161.381L84.7165 160.471L83.8131 157.61ZM79.4291 152.538V149.538H76.4291V152.538H79.4291ZM82.4051 152.538H85.4051V149.538H82.4051V152.538ZM82.4051 159.514L83.0509 162.443L85.4051 161.925V159.514H82.4051ZM79.4291 160.17H76.4291V163.903L80.0749 163.099L79.4291 160.17ZM82.9811 154.906L83.9002 157.762L85.2922 157.314L84.3731 154.458L83.454 151.602L82.062 152.05L82.9811 154.906ZM84.3731 154.458L87.3674 154.642L87.5594 151.522L84.5651 151.338L81.5708 151.154L81.3788 154.274L84.3731 154.458ZM84.5651 151.338V148.338H78.7891V151.338V154.338H84.5651V151.338ZM78.7891 151.338L81.7126 152.011L82.3686 149.163L79.4451 148.49L76.5217 147.816L75.8657 150.664L78.7891 151.338ZM79.4451 148.49V151.49H87.7011V148.49V145.49H79.4451V148.49ZM87.7011 148.49L84.7079 148.288L84.1639 156.352L87.1571 156.554L90.1503 156.756L90.6943 148.692L87.7011 148.49ZM87.1571 156.554L86.2537 153.693L82.9097 154.749L83.8131 157.61L84.7165 160.471L88.0605 159.415L87.1571 156.554ZM83.8131 157.61L86.6804 156.728L85.8484 154.024L82.9811 154.906L80.1138 155.788L80.9458 158.492L83.8131 157.61ZM79.4291 152.538V155.538H82.4051V152.538V149.538H79.4291V152.538ZM82.4051 152.538H79.4051V159.514H82.4051H85.4051V152.538H82.4051ZM82.4051 159.514L81.7593 156.584L78.7833 157.24L79.4291 160.17L80.0749 163.099L83.0509 162.443L82.4051 159.514ZM79.4291 160.17H82.4291V152.538H79.4291H76.4291V160.17H79.4291ZM89.684 151.066L92.6533 150.638L92.453 149.248L91.2579 148.512L89.684 151.066ZM88.308 150.218L85.737 148.672L84.2078 151.215L86.734 152.772L88.308 150.218ZM89.78 147.77L91.3212 145.196L88.7521 143.658L87.209 146.224L89.78 147.77ZM92.452 149.37L95.427 148.983L95.2399 147.542L93.9932 146.796L92.452 149.37ZM92.612 150.602L89.637 150.988L90.7618 159.649L95.1965 152.125L92.612 150.602ZM94.036 148.186L95.5897 145.62L92.9929 144.047L91.4515 146.663L94.036 148.186ZM96.388 149.61L98.9586 151.156L100.501 148.593L97.9417 147.044L96.388 149.61ZM94.068 153.466L93.1445 156.32L95.4107 157.053L96.6386 155.012L94.068 153.466ZM92.98 153.114L93.9034 150.259L89.299 148.77L90.0128 153.556L92.98 153.114ZM93.252 154.938L90.2848 155.38L90.7051 158.199L93.5414 157.924L93.252 154.938ZM96.884 154.586L97.1734 157.572L99.43 157.353L99.8356 155.122L96.884 154.586ZM97.588 150.714L100.54 151.25L100.919 149.162L99.0764 148.109L97.588 150.714ZM96.692 150.202L94.1271 148.646L92.5298 151.279L95.2036 152.807L96.692 150.202ZM98.148 147.802L99.7049 145.237L97.1397 143.68L95.5831 146.246L98.148 147.802ZM100.836 149.434L103.789 149.964L104.153 147.938L102.393 146.869L100.836 149.434ZM99.428 157.274L99.6961 160.262L101.976 160.057L102.381 157.804L99.428 157.274ZM90.692 158.058L87.7227 158.486L88.1284 161.3L90.9601 161.046L90.692 158.058ZM89.684 151.066L91.2579 148.512L89.8819 147.664L88.308 150.218L86.734 152.772L88.11 153.62L89.684 151.066ZM88.308 150.218L90.879 151.764L92.351 149.316L89.78 147.77L87.209 146.224L85.737 148.672L88.308 150.218ZM89.78 147.77L88.2388 150.344L90.9108 151.944L92.452 149.37L93.9932 146.796L91.3212 145.196L89.78 147.77ZM92.452 149.37L89.477 149.756L89.637 150.988L92.612 150.602L95.587 150.215L95.427 148.983L92.452 149.37ZM92.612 150.602L95.1965 152.125L96.6205 149.709L94.036 148.186L91.4515 146.663L90.0275 149.079L92.612 150.602ZM94.036 148.186L92.4822 150.752L94.8342 152.176L96.388 149.61L97.9417 147.044L95.5897 145.62L94.036 148.186ZM96.388 149.61L93.8174 148.063L91.4974 151.919L94.068 153.466L96.6386 155.012L98.9586 151.156L96.388 149.61ZM94.068 153.466L94.9914 150.611L93.9034 150.259L92.98 153.114L92.0565 155.968L93.1445 156.32L94.068 153.466ZM92.98 153.114L90.0128 153.556L90.2848 155.38L93.252 154.938L96.2192 154.495L95.9472 152.671L92.98 153.114ZM93.252 154.938L93.5414 157.924L97.1734 157.572L96.884 154.586L96.5946 151.6L92.9626 151.952L93.252 154.938ZM96.884 154.586L99.8356 155.122L100.54 151.25L97.588 150.714L94.6364 150.177L93.9324 154.049L96.884 154.586ZM97.588 150.714L99.0764 148.109L98.1804 147.597L96.692 150.202L95.2036 152.807L96.0996 153.319L97.588 150.714ZM96.692 150.202L99.2569 151.758L100.713 149.358L98.148 147.802L95.5831 146.246L94.1271 148.646L96.692 150.202ZM98.148 147.802L96.591 150.366L99.279 151.998L100.836 149.434L102.393 146.869L99.7049 145.237L98.148 147.802ZM100.836 149.434L97.8832 148.904L96.4752 156.744L99.428 157.274L102.381 157.804L103.789 149.964L100.836 149.434ZM99.428 157.274L99.1598 154.286L90.4238 155.07L90.692 158.058L90.9601 161.046L99.6961 160.262L99.428 157.274ZM90.692 158.058L93.6613 157.63L92.6533 150.638L89.684 151.066L86.7147 151.494L87.7227 158.486L90.692 158.058ZM102.608 151.338H105.608V148.338H102.608V151.338ZM101.472 151.338L98.5483 150.664L97.7022 154.338H101.472V151.338ZM102.128 148.49V145.49H99.7402L99.2043 147.816L102.128 148.49ZM110.864 148.49L113.862 148.386L113.761 145.49H110.864V148.49ZM111.152 156.794L112.05 159.656L114.229 158.972L114.15 156.69L111.152 156.794ZM107.328 157.994L104.494 158.978L105.449 161.728L108.226 160.856L107.328 157.994ZM106.4 155.322L105.491 152.463L102.555 153.396L103.566 156.306L106.4 155.322ZM108.112 154.778L109.02 157.637L111.174 156.953L111.111 154.694L108.112 154.778ZM108.016 151.338L111.015 151.254L110.933 148.338H108.016V151.338ZM105.584 151.338V148.338H102.584V151.338H105.584ZM105.584 157.402L106.23 160.331L108.584 159.813V157.402H105.584ZM102.608 158.058H99.6077V161.791L103.254 160.987L102.608 158.058ZM102.608 151.338V148.338H101.472V151.338V154.338H102.608V151.338ZM101.472 151.338L104.395 152.011L105.051 149.163L102.128 148.49L99.2043 147.816L98.5483 150.664L101.472 151.338ZM102.128 148.49V151.49H110.864V148.49V145.49H102.128V148.49ZM110.864 148.49L107.866 148.594L108.154 156.898L111.152 156.794L114.15 156.69L113.862 148.386L110.864 148.49ZM111.152 156.794L110.253 153.931L106.429 155.131L107.328 157.994L108.226 160.856L112.05 159.656L111.152 156.794ZM107.328 157.994L110.162 157.01L109.234 154.338L106.4 155.322L103.566 156.306L104.494 158.978L107.328 157.994ZM106.4 155.322L107.308 158.181L109.02 157.637L108.112 154.778L107.203 151.919L105.491 152.463L106.4 155.322ZM108.112 154.778L111.111 154.694L111.015 151.254L108.016 151.338L105.017 151.422L105.113 154.862L108.112 154.778ZM108.016 151.338V148.338H105.584V151.338V154.338H108.016V151.338ZM105.584 151.338H102.584V157.402H105.584H108.584V151.338H105.584ZM105.584 157.402L104.938 154.472L101.962 155.128L102.608 158.058L103.254 160.987L106.23 160.331L105.584 157.402ZM102.608 158.058H105.608V151.338H102.608H99.6077V158.058H102.608Z" fill="#2461E5" mask="url(#path-3-inside-1_725_942)"/>
<path d="M45.0728 23.856L45.6292 34.397L47.855 37.7258L48.4115 37.171L48.9679 34.397L50.0808 31.0683V28.8491L51.1937 23.3012L52.8631 18.8628L56.7582 16.6436L61.7663 17.1984L69.5566 18.8628L74.5647 18.308L80.6857 17.1984H85.6937L89.5889 18.8628L91.2582 24.4107L92.9276 32.7327L95.1534 38.2806L97.3792 36.0614V29.9587V21.6368L93.484 12.2053L87.9195 6.65732L80.6857 2.21896L69.0002 1.10938L57.8711 4.43814L52.3066 8.3217L47.2986 14.9792L45.0728 23.856Z" fill="#2461E5"/>
<path d="M125 92C122.5 83 96.6219 79.9518 97.5 81.6543C97.8352 82.8958 99.5 85.5 99.805 86.5L100.207 87.7835L103.052 96.8658C103.18 97.6588 102.727 98.1423 101.938 98.1459C99.3306 98.1566 95.1671 96.8765 92.3915 96.4996C91.5959 96.3929 90.7468 96.4711 89.9512 96.2862C91.9955 98.3557 92.6376 99.3513 89.7621 100.902C88.1959 101.748 86.3122 102.47 84.7032 103.312C80.0653 105.748 75.5165 108.358 70.9036 110.84C70.661 111.178 70.9036 111.843 70.8501 112.045C70.7359 112.476 70.6966 111.821 70.6752 113.041C70.5111 122.353 70.6859 131.652 70.6788 140.9C70.6752 147.116 71.1818 139.145 70.6717 145.186C70.6467 145.492 70.6396 145.989 70.4184 146.21C70.1758 146.455 69.3945 146.587 69.1768 146.267C68.8201 145.748 69.291 142.914 69.2946 142.042C69.3516 127.428 68.3848 127.459 69.0805 112.845C69.1447 111.462 69.3516 109.987 69.5978 108.635L68.3848 108.059L68.499 107.458C68.4134 107.362 68.1493 107.846 67.8497 107.821C67.3538 107.778 64.7744 106.577 64.0751 106.281C62.6659 105.688 61.0926 105.005 59.7154 104.351C58.2277 103.647 53.4721 101.449 52.4624 100.596C50.6393 99.0455 53.4685 96.2756 53.151 95.888C51.6954 96.1191 41.4848 98.6757 40.9568 98.3486C40.0363 97.7761 40.6392 96.3645 40.8533 95.4933C41.8665 91.39 43.4791 87.4218 45.0845 83.5318C38.6021 85.7683 32.027 87.9409 25.698 90.5899C21.902 92.1794 18.0561 93.8897 14.7738 96.3822C19.5509 104.948 19.5224 115.107 20.6818 124.622C21.4953 136.843 21.3169 133.455 21.5809 145.684L21.3383 146.071L20.6176 146.235L20.2395 145.815L19.5045 134.233C19.08 123.964 18.8124 107.17 13.8891 98.2384C13.807 98.0855 13.8391 97.6908 13.5002 97.8508C12.5405 98.3095 10.1038 104.319 9.65783 105.592C5.00919 118.805 2.78231 135.37 2.22586 138.699C2.22586 142.027 1.95886 142.316 1.57712 145.545C1.44512 146.658 1.13116 145.758 0.899267 146.455C-0.0996737 146.441 -0.0140502 145.559 0.0144909 144.77C0.203576 139.315 0.884996 149.068 1.39874 143.638C2.57606 131.2 4.88789 107.576 11.8662 97.3885C15.2733 92.4105 23.5609 89.6512 29.0979 87.4964C34.6349 85.3416 40.3788 83.3895 46.0621 81.4552C47.4677 79.4498 48.7735 77.3839 50.2398 75.4211C50.8463 74.6068 53.4863 71.7302 53.6611 71.1791C53.7753 70.8164 53.9787 66.9371 53.8966 66.6064C53.7789 66.137 52.6658 64.8427 52.334 64.2383C50.5002 60.8816 48.9055 57.1765 48.6272 53.3221C43.3078 53.5888 40.5572 47.6685 39.9935 43.1953C39.5654 39.8031 40.0934 33.833 44.8883 34.882C45.1166 34.6509 44.3389 31.1484 44.2925 30.4764C44.1498 28.4425 44.1462 25.2423 44.3032 23.2156C46.533 -5.56112 91.2891 -8.68662 97.5681 19.9407C98.6741 24.9899 98.4957 29.9679 98.0248 35.0775C102.72 33.9966 103.308 38.9853 102.92 42.4095C102.541 45.7341 101.032 50.0224 98.2103 52.0314C96.9295 52.9416 95.6345 52.931 94.1753 53.3043C93.7401 55.7365 93.2299 58.1793 92.3201 60.4798C91.7315 61.9733 89.8014 64.697 89.6087 65.8206C89.491 66.4997 89.4518 70.5035 89.6622 70.9657C92.4129 73.5259 94.6141 76.5554 96.6477 79.6916C97.7929 79.9618 100.772 79.8329 101.938 80C105.692 80.5405 107.458 80.7547 111.207 81.6543C116.156 82.8384 124.086 86.1168 126.116 91.1162C126.295 91.55 126.438 92.6807 126.605 92.887C126.905 93.2603 129.099 94.6613 129.905 95.5787C134.575 100.884 137.618 112.333 137.965 119.317C137.986 119.779 138.079 120.529 137.79 120.903C137.483 121.297 136.869 121.283 136.573 120.903C136.149 120.355 135.935 116.174 135.745 115.057C134.547 107.981 132.62 99.6287 126.851 94.896L126.252 96.2614C127.351 97.8579 127.868 99.0099 127.244 100.976C127.098 101.431 126.57 102.025 126.57 102.448C126.57 102.871 127.272 103.874 127.351 104.792C127.533 106.936 126.409 107.686 126.355 108.742C126.334 109.19 127.14 110.587 127.158 111.665C127.183 113.144 126.174 114.367 126.174 115.004C126.174 115.43 126.858 116.362 126.948 117.158C127.197 119.395 126.049 120.053 125.967 121.294C125.931 121.834 126.691 122.94 126.677 123.993C126.655 125.394 125.446 127.051 125.446 127.556C125.446 128.26 126.33 129.291 126.159 131.083C126.034 132.37 125.128 133.266 125.021 133.867C124.975 134.137 125.631 135.122 125.72 135.645C125.845 136.374 125.724 138.091 125.385 138.731C125.31 138.873 124.918 138.6 124.786 138.937L125.175 139.03C125.299 140.587 123.908 141.629 123.212 142.859C122.784 148.328 123.091 138.554 122.617 143.991C122.524 145.047 122.299 146.878 120.968 145.666L121.646 143.24C120.901 141.554 119.991 140.587 120.308 138.589C120.394 138.038 121.186 136.555 121.175 136.388C121.15 135.972 120.219 134.877 120.244 133.444C120.269 132.011 121.189 130.869 121.239 130.098C121.279 129.515 120.487 128.26 120.508 127.225C120.537 125.934 121.546 124.647 121.586 123.801C121.603 123.413 120.637 121.98 120.633 120.892C120.633 119.463 121.66 118.449 121.789 117.72C121.835 117.45 120.758 115.736 120.836 114.413C120.904 113.276 122.006 111.718 122.021 111.284C122.035 110.875 121.033 109.606 121.025 108.539C121.018 107.177 122.153 105.663 122.213 104.802C122.249 104.308 121.889 103.736 121.85 103.224C121.614 100.212 123.066 97.3708 122.613 94.3199C122.542 94.2239 122.793 94.8044 122.613 94.3199C123 93.5 124.582 92.887 125 92ZM94.8781 37.4457C94.9673 37.5097 96.1589 36.098 96.2124 35.9345C96.5585 34.85 96.7476 30.5724 96.7726 29.2746C96.8724 23.8485 96.2124 18.2589 93.3869 13.5368C85.9341 1.08459 69.6014 -1.32621 57.3537 5.44394C46.162 11.6309 44.7741 22.4937 46.4652 34.2135C46.6543 35.5113 46.3368 35.9772 47.5498 37.051C47.9458 37.0688 48.8199 32.1867 48.9304 31.568C50.0685 25.3455 49.7546 15.7236 58.5667 16.0721C63.1332 16.2534 67.764 18.0277 72.5482 17.8428C80.3685 17.5406 88.9059 12.143 91.7172 22.8635C92.948 27.5607 92.948 32.8481 94.8781 37.4457ZM94.1361 39.9454C93.7543 39.5791 92.5056 35.4402 92.288 34.6295C91.3497 31.0951 91.0643 27.4042 90.2545 23.9089C89.7158 21.5906 88.7668 18.5433 86.0982 18.0491C82.3771 17.3628 77.5358 19.162 73.7149 19.4038C70.4433 19.61 67.1397 19.2011 63.9074 18.7851C61.2959 18.4509 56.9041 16.9006 54.7386 18.7318C50.857 22.0208 50.8855 30.8284 49.751 35.7283C49.5976 36.3967 48.7699 39.6751 48.5237 39.9952C48.2419 40.365 47.9244 40.4787 47.4606 40.3721C46.7792 37.2857 42.9011 34.3593 41.7845 38.9675C40.914 42.5766 42.5301 49.041 45.9265 51.0215C47.7745 52.0989 48.2597 50.8864 49.9758 51.402C50.6501 60.8283 56.8399 70.9551 66.0908 74.077C78.4848 78.2586 89.1021 67.5167 91.8635 56.3232C92.2095 54.9257 92.2738 53.5639 92.552 52.3016C92.8588 50.9184 94.3002 51.498 95.3455 51.3593C99.723 50.7798 101.96 42.4344 101.118 38.7755C100.526 36.2083 98.6384 35.9629 96.9367 37.8404C96.3587 38.4768 95.2741 41.0405 94.1361 39.9454ZM87.9854 68.4376C87.6251 68.3558 87.4467 68.747 87.2148 68.9887C79.077 77.3483 69.6478 79.6773 59.4693 72.6369L55.5199 68.8287C55.4842 71.6911 55.3736 74.4788 55.7482 77.327C56.8149 85.4874 60.8321 90.7464 65.7555 96.9689C67.6891 99.4082 69.7405 101.759 71.7527 104.134L72.2379 103.835C76.6332 97.9219 81.9918 92.6238 85.0671 85.8288C87.5966 80.2427 88.3386 74.5535 87.9854 68.4376ZM90.0297 73.8423C89.912 73.7357 90.0511 73.4619 89.7586 73.5365C89.4089 80.2285 87.2184 86.5968 83.5402 92.1509C80.2008 97.193 74.9814 101.883 71.9632 106.697C71.8062 106.95 70.9357 108.518 71.0605 108.639L89.5588 99.1308C90.6362 97.961 87.172 96.5743 87.6215 95.0524L88.1246 94.5546L101.168 96.4782C98.8454 88.8405 96.1803 79.3395 90.0261 73.8388L90.0297 73.8423ZM55.2916 94.3519C55.4164 94.9066 55.2702 95.4329 55.0811 95.952C54.7814 96.7663 53.0618 98.7219 53.7468 99.522L61.4814 103.384L69.4373 106.843L70.0759 106.783L70.8393 105.638C65.1311 98.4019 57.6426 91.4611 55.0204 82.3619C54.7029 81.2668 54.4032 79.9902 54.1999 78.8666C53.9109 77.2914 53.9573 75.6167 53.4507 74.1232C47.8031 80.5129 44.3318 88.0938 42.1341 96.2827C42.7727 96.7485 51.7917 94.2737 53.4756 94.1528C54.0928 94.1101 54.7207 94.0639 55.2916 94.3484V94.3519ZM124.39 96.4818C124.497 96.048 126.216 94.2168 125.253 93.9466L124.001 94.1279V96.3822L124.39 96.4818ZM124.126 103.081C125.542 101.744 127.176 99.1095 125.253 97.4739C123.166 98.6473 122.966 101.442 123.409 103.544C123.434 103.576 124.019 103.184 124.126 103.081ZM125.282 103.743C124.415 104.696 123.173 105.478 122.806 106.772C122.642 107.348 122.345 109.848 122.92 110.015C123.719 110.253 125.567 107.323 125.777 106.594C126.024 105.748 126.241 104.144 125.282 103.743ZM123.013 116.486C123.273 115.576 124.358 115.071 124.875 114.317C125.556 113.322 126.22 111.228 125.278 110.211C123.112 111.352 121.557 113.973 122.624 116.358L123.013 116.486ZM125.374 116.291C123.105 117.318 121.275 120.106 122.427 122.567C122.667 122.745 124.086 121.262 124.297 121.002C125.449 119.576 125.877 118.111 125.374 116.294V116.291ZM122.228 128.843C122.67 129.252 124.497 126.514 124.686 126.098C125.207 124.956 125.638 123.726 124.978 122.567C122.852 123.911 121.2 126.315 122.228 128.843ZM122.224 135.314C122.613 134.365 123.63 133.757 124.161 132.829C124.743 131.812 125.335 129.828 124.49 128.846C122.463 130.389 120.975 132.15 121.853 134.806C121.924 135.023 121.914 135.279 122.224 135.314ZM123.28 135.776C121.903 137.103 120.79 139.805 122.349 141.387C123.394 141.562 124.993 136.107 124.193 135.122C124.154 135.083 123.384 135.68 123.28 135.78V135.776Z" fill="#2461E5"/>
<path d="M97.5125 81.156C97.5125 81.156 104.815 86.2824 110.011 88.2626C112.544 89.2282 115.581 89.8032 118.111 90.321C121.863 91.1735 125.195 91.3693 125.195 91.3693L125.201 92.373C125.201 92.373 124.585 92.3736 124.19 92.3666C118.247 92.2619 114.785 91.6246 109.21 89.509C103.988 87.5269 96.8317 82.33 96.8317 82.33L97.5125 81.156Z" fill="#2461E5"/>
</g>
<defs>
<clipPath id="clip0_725_942">
<rect width="138" height="162" fill="white"/>
</clipPath>
</defs>
</svg>
