<svg width="88" height="64" viewBox="0 0 88 64" fill="none" xmlns="http://www.w3.org/2000/svg">
<mask id="mask0_846_67" style="mask-type:luminance" maskUnits="userSpaceOnUse" x="0" y="0" width="88" height="64">
<path d="M88 0H0V64H88V0Z" fill="white"/>
</mask>
<g mask="url(#mask0_846_67)">
<mask id="mask1_846_67" style="mask-type:luminance" maskUnits="userSpaceOnUse" x="0" y="0" width="88" height="64">
<path d="M88 0H0V64H88V0Z" fill="white"/>
</mask>
<g mask="url(#mask1_846_67)">
<path d="M32.0785 40.7744C29.3486 45.7637 26.894 49.8409 24.7112 53.0019L31.1081 59.343L27.4227 62.9924C23.0234 58.4307 17.0683 52.6649 9.56505 45.6993C8.82494 49.7765 8.28492 52.5892 7.94887 54.1415C7.31068 57.3365 6.63853 60.1341 5.93237 62.5379H0C0.913837 59.8918 2.00893 55.9205 3.29283 50.6286C4.13869 47.191 4.81464 44.3327 5.32063 42.0502C3.93477 40.7441 2.80193 39.7863 1.92585 39.1768L5.73222 35.6637C11.5664 40.5018 16.5774 45.0179 20.7728 49.2164L25.0209 42.1445L21.2863 39.4078L24.5112 35.6221L32.0823 40.7782L32.0785 40.7744Z" fill="#6C63FF"/>
<path d="M59.2481 41.0016C59.2481 41.8232 58.9911 43.1935 58.4814 45.1093C56.6427 52.0443 52.1904 57.9461 45.1138 62.8147L42.1044 58.9342C47.3568 55.2849 50.9556 50.8102 52.9004 45.5179C53.1381 44.8783 53.259 44.227 53.259 43.5569C53.259 42.9475 53.0775 42.395 52.7189 41.8914C52.3602 41.3878 51.8543 41.138 51.2046 41.138H39.1437C38.7244 41.138 38.4677 41.0509 38.3696 40.8729C38.3241 40.7934 38.3241 40.7139 38.3241 40.6838C38.3241 37.197 38.3583 36.4286 38.3583 36.4286C38.4035 35.4367 38.5092 33.2297 37.1649 32.0145C36.8138 31.7003 36.4512 31.5262 36.1982 31.4277C37.0216 31.0681 37.8484 30.7124 38.6717 30.3525C39.2571 30.4814 39.982 30.595 40.8126 30.6101C41.7868 30.6327 42.6251 30.5231 43.2788 30.3866C43.8223 30.7578 44.3697 31.1287 44.9136 31.4997C44.6304 31.6057 44.4153 31.7457 44.2492 31.8896C42.7724 33.1617 43.6374 36.0501 43.6866 36.2091H55.5737C56.3066 36.2091 56.9446 36.3719 57.4848 36.6974C57.968 36.9888 58.2512 37.3296 58.3756 37.4887C59.4219 38.7757 59.2897 40.5436 59.2443 41.0016H59.2481Z" fill="#6C63FF"/>
<path d="M88 57.8856C88 60.5618 86.633 62.0197 83.8953 62.2657L64.3119 63.9995L63.9043 59.1614L80.3795 57.7C81.7767 57.5791 82.4789 56.9998 82.4789 55.9665V45.0597C82.4789 43.6592 81.9655 42.8075 80.9384 42.5048L75.6442 40.8616H75.2325C74.2737 40.8616 73.5521 41.244 73.0726 42.0012L71.4264 44.6473C71.1882 45.0446 71.0678 45.4383 71.0678 45.8323C71.0678 46.3811 71.3056 46.7899 71.785 47.0625L74.8626 48.8873L72.0907 52.9494L65.5355 49.0348C64.9237 48.6713 64.6218 47.9561 64.6218 46.896C64.6218 46.139 64.8105 45.4689 65.1844 44.8931L71.0299 35.6525C71.5393 34.8651 72.1476 34.4678 72.8611 34.4678C73.0651 34.4678 77.3626 35.804 85.753 38.4767C86.4365 38.6887 86.9804 39.1542 87.3919 39.8659C87.7999 40.5814 88.0037 41.3007 88.0037 42.0275V57.878L88 57.8856Z" fill="#6C63FF"/>
<path fill-rule="evenodd" clip-rule="evenodd" d="M51.1595 -0.274414L51.5801 2.51308C51.9321 4.84516 52.283 7.17629 52.6339 9.50724L52.6383 9.53627C52.9337 11.497 53.2288 13.4577 53.5245 15.4188L67.7483 8.436L65.841 11.1226C64.5832 12.8944 63.3397 14.6475 62.0962 16.4007C61.1684 17.7088 60.2403 19.017 59.3063 20.3332L75.976 20.4998L72.8457 22.0515C70.81 23.0604 68.7737 24.0685 66.7373 25.0763L66.7305 25.0798C65.0002 25.9362 63.27 26.7926 61.5405 27.6496C61.6399 27.7796 61.7394 27.9096 61.8389 28.0396C62.8296 29.3337 63.8218 30.6301 64.8117 31.9263L66.5741 34.2347L63.858 33.2189C61.0676 32.1754 56.7779 30.9665 51.4681 30.9851C48.0284 30.9962 45.0926 31.521 42.8348 32.109L42.4156 30.4895C44.7799 29.8739 47.8563 29.3235 51.4624 29.3118C55.5728 29.2976 59.0985 29.9848 61.8371 30.7849C61.3964 30.2091 60.9558 29.6334 60.5151 29.0578C60.2094 28.6585 59.904 28.2592 59.5985 27.8604L58.9803 27.0523L59.8907 26.601C61.9262 25.5918 63.9628 24.5838 65.9989 23.5759L66.0123 23.5693C66.9998 23.0806 67.9872 22.592 68.9744 22.1031L56.0935 21.9744L57.0205 20.6686C58.2511 18.9349 59.4942 17.1826 60.7372 15.4301C61.3506 14.5654 61.9639 13.7007 62.5759 12.8382L52.2153 17.9244L52.0453 16.7968C51.6928 14.4612 51.3413 12.1266 50.9897 9.7921L50.9855 9.76359C50.774 8.35958 50.5627 6.95559 50.3512 5.55144C48.4959 9.64368 46.6402 13.7361 44.7814 17.8285L44.2102 19.0863L43.3641 17.9955C41.9337 16.1515 40.5043 14.3084 39.0749 12.4655C37.8757 10.9197 36.677 9.37397 35.4777 7.8278L35.1255 19.4456L22.1273 13.7748L27.4187 22.2623L14.2552 22.137C14.9696 22.4685 15.6842 22.8 16.3988 23.1315L16.4033 23.1337C18.2889 24.0084 20.1748 24.8832 22.0598 25.759L23.3328 26.3505L18.37 30.0479C20.8573 29.5802 23.7311 29.2279 26.9225 29.1643C31.7314 29.0682 35.8301 29.6568 38.9608 30.3338L38.6093 31.9695C35.5771 31.314 31.6099 30.7442 26.9558 30.8374C22.0935 30.9342 17.9923 31.7237 14.9124 32.5503L10.6924 33.6833L20.0852 26.6858C20.5097 26.8829 20.9341 27.08 21.3585 27.2771L20.0852 26.6858C18.6233 26.0071 17.161 25.3285 15.6985 24.6502L15.695 24.6487C13.8091 23.7737 11.9228 22.8987 10.0375 22.0227L6.52393 20.3902L24.3901 20.5602L17.8621 10.0893L33.5329 16.9261L33.9508 3.13479L35.3727 4.96756C37.0482 7.12755 38.7226 9.28658 40.3973 11.4457C41.5431 12.9226 42.6886 14.3997 43.8346 15.8771C43.6442 16.2964 43.4537 16.7157 43.2634 17.1349L43.8346 15.8771L44.6808 16.968C44.3988 16.6044 44.1167 16.2407 43.8346 15.8771C45.8857 11.3595 47.9335 6.84189 49.9816 2.32403L51.1595 -0.274414Z" fill="#6C63FF"/>
<path fill-rule="evenodd" clip-rule="evenodd" d="M49.961 8.66504L50.1026 9.70509C50.5329 12.8688 50.9594 16.036 51.386 19.2031C52.655 18.6027 53.9252 18.0031 55.1956 17.4033C56.1823 16.9375 57.1691 16.4717 58.1556 16.0053L59.1243 15.5474L58.5537 16.4563C57.8532 17.5721 57.1536 18.6889 56.4538 19.8058L56.4487 19.8139C55.8462 20.7759 55.2434 21.738 54.64 22.6994L65.264 22.8582L64.0911 23.4342C63.2159 23.8641 62.3401 24.2944 61.4641 24.7251C60.0199 25.4346 58.5751 26.1446 57.1302 26.8535L59.469 29.4022L58.7306 29.3831C51.4118 29.1942 47.748 29.8307 45.7769 30.5236C45.7615 30.5291 45.7452 30.5349 45.7277 30.5411C45.3144 30.6884 44.3014 31.0493 42.9122 31.217C40.4094 31.5195 38.2821 31.0033 37.3316 30.767H37.3309C36.3084 30.5105 35.5447 30.2207 35.2359 30.1035C35.192 30.0869 35.1574 30.0736 35.1325 30.0645L35.1305 30.0639C33.2348 29.3581 29.6087 28.6793 22.0489 28.9475L20.989 28.9852L24.9353 26.2248C24.3777 25.9661 23.8204 25.7074 23.263 25.449C21.9404 24.8354 20.6186 24.2222 19.2969 23.6074L17.9824 22.9962L19.4313 23.009C21.1137 23.0243 22.7961 23.0403 24.4783 23.0564H24.4789C25.9738 23.0708 27.4687 23.085 28.9634 23.0987C28.3721 22.1211 27.7808 21.1441 27.1895 20.1671L27.1833 20.1571C26.4954 19.0208 25.8078 17.8844 25.1199 16.7471L24.6265 15.9315L25.5063 16.2942C27.3657 17.0609 29.2223 17.8258 31.0787 18.5908C32.7617 19.2841 34.4448 19.9775 36.13 20.6723C36.1728 19.262 36.2167 17.8451 36.2606 16.4282C36.3084 14.8777 36.3563 13.3274 36.403 11.786L36.4282 10.9571L36.9564 11.5952C38.319 13.2412 39.6826 14.8883 41.0463 16.5353C42.1407 17.8572 43.2351 19.1791 44.3288 20.5003C46.0557 16.8733 47.7831 13.2429 49.5104 9.61239L49.961 8.66504ZM49.624 10.8302C47.9769 14.2924 46.3296 17.7544 44.6828 21.2131L44.4721 21.6556L44.1598 21.2784C42.9653 19.8354 41.7699 18.3915 40.5746 16.9476C39.3838 15.5095 38.1933 14.0713 37.0032 12.6339C36.9643 13.908 36.9251 15.1781 36.8858 16.4482C36.8375 18.0112 36.789 19.5742 36.7414 21.1442L36.7277 21.5971L36.31 21.4249C34.488 20.6737 32.6651 19.9227 30.8423 19.1716C29.2773 18.5269 27.7124 17.8821 26.1481 17.2372C26.6721 18.1033 27.1961 18.969 27.7202 19.8347L27.7248 19.8424C28.4129 20.9795 29.1013 22.1166 29.7896 23.2548L30.0807 23.7363L29.5194 23.7312C27.8379 23.7161 26.1567 23.7 24.4754 23.6838H24.4723C23.2734 23.6723 22.0747 23.661 20.876 23.6499C21.7589 24.0598 22.642 24.4695 23.5257 24.8794C24.2474 25.2143 24.9697 25.5493 25.6924 25.8848L26.1867 26.1145L23.0787 28.2885C29.9641 28.1155 33.4329 28.7628 35.347 29.4753C35.3475 29.4755 35.3477 29.4755 35.3482 29.4757L35.2394 29.7698L35.3462 29.4748C35.3464 29.475 35.3466 29.475 35.347 29.4753C35.3744 29.4852 35.4112 29.4992 35.4567 29.5164C35.7696 29.6351 36.4988 29.9115 37.482 30.158L37.4068 30.4625L37.4826 30.1582C38.4204 30.3912 40.4541 30.8819 42.8374 30.594C44.1572 30.4348 45.1173 30.0927 45.5202 29.9492C45.5374 29.9432 45.5535 29.9374 45.5687 29.9321L45.5694 29.9317C47.5757 29.2263 51.146 28.6094 58.0107 28.7394L56.102 26.6592L56.4787 26.4746C58.0495 25.7041 59.6201 24.9324 61.1899 24.161C61.6745 23.9227 62.159 23.6847 62.6436 23.4466L53.5174 23.3102L53.814 22.8376C54.5147 21.7218 55.2143 20.605 55.9141 19.4881L55.919 19.4801C56.4307 18.6634 56.9423 17.8467 57.4542 17.0303C56.7902 17.3441 56.1261 17.6575 55.4622 17.971C54.063 18.6315 52.6643 19.2917 51.2667 19.9534L50.8803 20.1363L50.8231 19.7117C50.4244 16.7501 50.0258 13.7888 49.624 10.8302Z" fill="#6C63FF"/>
<path fill-rule="evenodd" clip-rule="evenodd" d="M14.2103 13.5732L14.3186 13.6724C14.8394 14.1491 15.3613 14.6249 15.8834 15.101L15.884 15.1016C16.4058 15.5774 16.9279 16.0535 17.449 16.5305L18.4941 17.4872L17.1444 17.0615C15.9354 16.6803 14.719 16.2961 13.5026 15.9118C12.2997 15.5319 11.097 15.1519 9.90166 14.775L8.57178 14.3556L9.95283 14.1649C10.6379 14.0703 11.3231 13.9748 12.0085 13.8792C12.6938 13.7836 13.3795 13.688 14.0651 13.5933L14.2103 13.5732ZM11.4165 14.5952C12.1756 14.8348 12.9333 15.0742 13.691 15.3135C14.4531 15.5543 15.2152 15.795 15.9786 16.036C15.8067 15.8791 15.6346 15.7222 15.4626 15.5653L15.4623 15.5651C14.9765 15.1221 14.4905 14.6789 14.0052 14.2349C13.3685 14.323 12.7317 14.4118 12.0947 14.5006L12.0944 14.5007C11.8685 14.5322 11.6425 14.5637 11.4165 14.5952Z" fill="#6C63FF"/>
<path fill-rule="evenodd" clip-rule="evenodd" d="M65.2381 2.09766L64.3813 2.87162C63.3202 3.83027 62.2583 4.78965 61.1963 5.74903C60.1571 6.68799 59.1178 7.62695 58.0792 8.56523L56.4873 10.0032L57.6029 8.16876C58.1128 7.33014 58.6233 6.49152 59.1341 5.653L59.1383 5.64598C59.6476 4.80978 60.1568 3.9737 60.6652 3.13765L60.7362 3.02072L60.9398 2.97935C61.9965 2.76448 63.0529 2.54967 64.1089 2.33125L65.2381 2.09766ZM61.1282 3.58124C60.6434 4.37861 60.1577 5.17597 59.6721 5.97323L59.6681 5.98009C59.5303 6.20635 59.3924 6.43259 59.2546 6.65885C59.7614 6.20108 60.2682 5.74318 60.775 5.2853C61.5527 4.58263 62.3304 3.87996 63.1078 3.17773C62.4477 3.31291 61.7878 3.44713 61.1282 3.58124Z" fill="#6C63FF"/>
<path fill-rule="evenodd" clip-rule="evenodd" d="M72.2574 27.7383L71.1706 28.5094C70.435 29.0313 69.6993 29.5533 68.9639 30.0753L68.7851 30.2022L68.6051 30.0768C67.7783 29.5017 66.9479 28.9266 66.121 28.355L65.3032 27.7897L66.2964 27.783C67.1382 27.7773 67.9651 27.7706 68.7919 27.764C69.6101 27.7573 70.4284 27.7509 71.2619 27.7451L72.2574 27.7383ZM67.2926 28.4031C67.7888 28.7468 68.2857 29.0914 68.7815 29.4362C69.2776 29.0841 69.7738 28.7319 70.27 28.3798C69.7817 28.3836 69.2899 28.3874 68.7981 28.3913C68.295 28.3953 67.7919 28.3993 67.2926 28.4031Z" fill="#6C63FF"/>
</g>
</g>
</svg>
