<svg width="88" height="64" viewBox="0 0 88 64" fill="none" xmlns="http://www.w3.org/2000/svg">
<mask id="mask0_914_122" style="mask-type:luminance" maskUnits="userSpaceOnUse" x="0" y="0" width="88" height="64">
<path d="M88 0H0V64H88V0Z" fill="white"/>
</mask>
<g mask="url(#mask0_914_122)">
<mask id="mask1_914_122" style="mask-type:luminance" maskUnits="userSpaceOnUse" x="0" y="0" width="88" height="64">
<path d="M88 0H0V64H88V0Z" fill="white"/>
</mask>
<g mask="url(#mask1_914_122)">
<path d="M32.0785 40.7744C29.3486 45.7637 26.894 49.8409 24.7112 53.0019L31.1081 59.343L27.4227 62.9924C23.0234 58.4307 17.0683 52.6649 9.56505 45.6993C8.82494 49.7765 8.28492 52.5892 7.94887 54.1415C7.31068 57.3365 6.63853 60.1341 5.93237 62.5379H0C0.913837 59.8918 2.00893 55.9205 3.29283 50.6286C4.13869 47.191 4.81464 44.3327 5.32063 42.0502C3.93477 40.7441 2.80193 39.7863 1.92585 39.1768L5.73222 35.6637C11.5664 40.5018 16.5774 45.0179 20.7728 49.2164L25.0209 42.1445L21.2863 39.4078L24.5112 35.6221L32.0823 40.7782L32.0785 40.7744Z" fill="black"/>
<path d="M59.2481 41.0016C59.2481 41.8232 58.9911 43.1935 58.4814 45.1093C56.6427 52.0443 52.1904 57.9461 45.1138 62.8147L42.1044 58.9342C47.3568 55.2849 50.9556 50.8102 52.9004 45.5179C53.1381 44.8783 53.259 44.227 53.259 43.5569C53.259 42.9475 53.0775 42.395 52.7189 41.8914C52.3602 41.3878 51.8543 41.138 51.2046 41.138H39.1437C38.7244 41.138 38.4677 41.0509 38.3696 40.8729C38.3241 40.7934 38.3241 40.7139 38.3241 40.6838C38.3241 37.197 38.3583 36.4286 38.3583 36.4286C38.4035 35.4367 38.5092 33.2297 37.1649 32.0145C36.8138 31.7003 36.4512 31.5262 36.1982 31.4277C37.0216 31.0681 37.8484 30.7124 38.6717 30.3525C39.2571 30.4814 39.982 30.595 40.8126 30.6101C41.7868 30.6327 42.6251 30.5231 43.2788 30.3866C43.8223 30.7578 44.3697 31.1287 44.9136 31.4997C44.6304 31.6057 44.4153 31.7457 44.2492 31.8896C42.7724 33.1617 43.6374 36.0501 43.6866 36.2091H55.5737C56.3066 36.2091 56.9446 36.3719 57.4848 36.6974C57.968 36.9888 58.2512 37.3296 58.3756 37.4887C59.4219 38.7757 59.2897 40.5436 59.2443 41.0016H59.2481Z" fill="black"/>
<path d="M88 57.8856C88 60.5618 86.633 62.0197 83.8953 62.2657L64.3119 63.9995L63.9043 59.1614L80.3795 57.7C81.7767 57.5791 82.4789 56.9998 82.4789 55.9665V45.0597C82.4789 43.6592 81.9655 42.8075 80.9384 42.5048L75.6442 40.8616H75.2325C74.2737 40.8616 73.5521 41.244 73.0726 42.0012L71.4264 44.6473C71.1882 45.0446 71.0678 45.4384 71.0678 45.8323C71.0678 46.3811 71.3056 46.7899 71.785 47.0625L74.8626 48.8873L72.0907 52.9494L65.5355 49.0348C64.9237 48.6713 64.6218 47.9561 64.6218 46.896C64.6218 46.139 64.8105 45.4689 65.1844 44.8931L71.0299 35.6525C71.5393 34.8651 72.1476 34.4678 72.8611 34.4678C73.0651 34.4678 77.3626 35.804 85.753 38.4767C86.4365 38.6887 86.9804 39.1542 87.3919 39.8659C87.7999 40.5814 88.0037 41.3007 88.0037 42.0275V57.878L88 57.8856Z" fill="black"/>
<path fill-rule="evenodd" clip-rule="evenodd" d="M51.16 -0.274414L51.5806 2.51308C51.9326 4.84516 52.2835 7.17629 52.6344 9.50724L52.6388 9.53627C52.9341 11.497 53.2292 13.4577 53.525 15.4188L67.7488 8.436L65.8415 11.1226C64.5837 12.8944 63.3402 14.6475 62.0967 16.4007C61.1689 17.7088 60.2408 19.017 59.3068 20.3332L75.9765 20.4998L72.8462 22.0515C70.8105 23.0604 68.7741 24.0685 66.7378 25.0763L66.7309 25.0798C65.0007 25.9362 63.2705 26.7926 61.5409 27.6496C61.6404 27.7796 61.7399 27.9096 61.8393 28.0396C62.8301 29.3337 63.8223 30.6301 64.8122 31.9263L66.5746 34.2347L63.8585 33.2189C61.0681 32.1754 56.7784 30.9665 51.4686 30.9851C48.0289 30.9962 45.0931 31.521 42.8353 32.109L42.416 30.4895C44.7804 29.8739 47.8568 29.3235 51.4628 29.3118C55.5733 29.2976 59.099 29.9848 61.8376 30.7849C61.3969 30.2091 60.9563 29.6334 60.5156 29.0578C60.2099 28.6585 59.9045 28.2592 59.599 27.8604L58.9808 27.0523L59.8912 26.601C61.9267 25.5918 63.9633 24.5838 65.9994 23.5759L66.0128 23.5693C67.0002 23.0806 67.9877 22.592 68.9748 22.1031L56.094 21.9744L57.021 20.6686C58.2516 18.9349 59.4947 17.1826 60.7377 15.4301C61.351 14.5654 61.9644 13.7007 62.5764 12.8382L52.2158 17.9244L52.0458 16.7968C51.6933 14.4612 51.3418 12.1266 50.9902 9.79209L50.986 9.76359C50.7745 8.35958 50.5632 6.95559 50.3517 5.55144C48.4964 9.64368 46.6407 13.7361 44.7819 17.8285L44.2107 19.0863L43.3646 17.9955C41.9341 16.1515 40.5047 14.3084 39.0754 12.4655C37.8762 10.9197 36.6775 9.37397 35.4782 7.8278L35.1259 19.4456L22.1277 13.7748L27.4192 22.2623L14.2556 22.137C14.9701 22.4685 15.6847 22.8 16.3993 23.1315L16.4038 23.1337C18.2894 24.0084 20.1753 24.8832 22.0603 25.759L23.3333 26.3505L18.3705 30.0479C20.8578 29.5802 23.7316 29.2279 26.923 29.1643C31.7319 29.0682 35.8306 29.6568 38.9613 30.3338L38.6098 31.9695C35.5776 31.314 31.6103 30.7442 26.9563 30.8374C22.094 30.9342 17.9928 31.7237 14.9129 32.5503L10.6929 33.6833L20.0857 26.6858C20.5102 26.8829 20.9346 27.08 21.359 27.2771L20.0857 26.6858C18.6238 26.0071 17.1615 25.3285 15.699 24.6502L15.6955 24.6487C13.8096 23.7737 11.9233 22.8987 10.038 22.0227L6.52441 20.3902L24.3906 20.5602L17.8626 10.0893L33.5333 16.9261L33.9513 3.13479L35.3732 4.96756C37.0487 7.12755 38.7231 9.28658 40.3978 11.4457C41.5435 12.9226 42.6891 14.3997 43.8351 15.8771C43.6447 16.2964 43.4542 16.7157 43.2638 17.1349L43.8351 15.8771L44.6813 16.968C44.3992 16.6044 44.1172 16.2407 43.8351 15.8771C45.8862 11.3595 47.934 6.84189 49.9821 2.32403L51.16 -0.274414Z" fill="black"/>
<path fill-rule="evenodd" clip-rule="evenodd" d="M49.961 8.66504L50.1026 9.70509C50.5329 12.8688 50.9594 16.036 51.386 19.2031C52.655 18.6027 53.9252 18.0031 55.1956 17.4033C56.1823 16.9375 57.1691 16.4717 58.1556 16.0053L59.1243 15.5474L58.5537 16.4563C57.8532 17.5721 57.1536 18.6889 56.4538 19.8058L56.4487 19.8139C55.8462 20.7759 55.2434 21.738 54.64 22.6994L65.264 22.8582L64.0911 23.4342C63.2159 23.8641 62.3401 24.2944 61.4641 24.7251C60.0199 25.4346 58.5751 26.1446 57.1302 26.8535L59.469 29.4022L58.7306 29.3831C51.4118 29.1942 47.748 29.8307 45.7769 30.5236C45.7615 30.5291 45.7452 30.5349 45.7277 30.5411C45.3144 30.6884 44.3014 31.0493 42.9122 31.217C40.4094 31.5195 38.2821 31.0033 37.3316 30.767H37.3309C36.3084 30.5105 35.5447 30.2207 35.2359 30.1035C35.192 30.0869 35.1574 30.0736 35.1325 30.0645L35.1305 30.0639C33.2348 29.3581 29.6087 28.6793 22.0489 28.9475L20.989 28.9852L24.9353 26.2248C24.3777 25.9661 23.8204 25.7074 23.263 25.449C21.9404 24.8354 20.6186 24.2222 19.2969 23.6074L17.9824 22.9962L19.4313 23.009C21.1137 23.0243 22.7961 23.0403 24.4783 23.0564H24.4789C25.9738 23.0708 27.4687 23.085 28.9634 23.0987C28.3721 22.1211 27.7808 21.1441 27.1895 20.1671L27.1833 20.1571C26.4954 19.0208 25.8078 17.8844 25.1199 16.7471L24.6265 15.9315L25.5063 16.2942C27.3657 17.0609 29.2223 17.8258 31.0787 18.5908C32.7617 19.2841 34.4448 19.9775 36.13 20.6723C36.1728 19.262 36.2167 17.8451 36.2606 16.4282C36.3084 14.8777 36.3563 13.3274 36.403 11.786L36.4282 10.9571L36.9564 11.5952C38.319 13.2412 39.6826 14.8883 41.0463 16.5353C42.1407 17.8572 43.2351 19.1791 44.3288 20.5003C46.0557 16.8733 47.7831 13.2429 49.5104 9.61239L49.961 8.66504ZM49.624 10.8302C47.9769 14.2924 46.3296 17.7544 44.6828 21.2131L44.4721 21.6556L44.1598 21.2784C42.9653 19.8354 41.7699 18.3915 40.5746 16.9476C39.3838 15.5095 38.1933 14.0713 37.0032 12.6339C36.9644 13.908 36.9251 15.1781 36.8858 16.4482C36.8375 18.0112 36.789 19.5742 36.7414 21.1442L36.7277 21.5971L36.31 21.4249C34.488 20.6737 32.6651 19.9227 30.8423 19.1716C29.2773 18.5269 27.7124 17.8821 26.1481 17.2372C26.6721 18.1033 27.1961 18.969 27.7202 19.8347L27.7248 19.8424C28.4129 20.9795 29.1013 22.1166 29.7896 23.2548L30.0807 23.7363L29.5194 23.7312C27.8379 23.7161 26.1567 23.7 24.4754 23.6838H24.4723C23.2734 23.6723 22.0747 23.661 20.876 23.6499C21.7589 24.0598 22.642 24.4695 23.5257 24.8794C24.2474 25.2143 24.9697 25.5493 25.6924 25.8848L26.1867 26.1145L23.0787 28.2885C29.9641 28.1155 33.4329 28.7628 35.347 29.4753C35.3475 29.4755 35.3477 29.4755 35.3482 29.4757L35.2394 29.7698L35.3462 29.4748C35.3464 29.475 35.3466 29.475 35.347 29.4753C35.3744 29.4852 35.4112 29.4992 35.4567 29.5164C35.7696 29.6351 36.4988 29.9115 37.482 30.158L37.4068 30.4625L37.4826 30.1582C38.4204 30.3912 40.4541 30.8819 42.8374 30.594C44.1572 30.4348 45.1173 30.0927 45.5202 29.9492C45.5374 29.9432 45.5535 29.9374 45.5687 29.9321L45.5694 29.9317C47.5757 29.2263 51.146 28.6094 58.0107 28.7394L56.102 26.6592L56.4787 26.4746C58.0495 25.7041 59.6201 24.9324 61.1899 24.161C61.6745 23.9227 62.159 23.6847 62.6436 23.4466L53.5174 23.3102L53.814 22.8376C54.5147 21.7218 55.2143 20.605 55.9141 19.4881L55.919 19.4801C56.4307 18.6634 56.9423 17.8467 57.4542 17.0303C56.7902 17.3441 56.1261 17.6575 55.4622 17.9709C54.063 18.6315 52.6643 19.2917 51.2667 19.9534L50.8803 20.1363L50.8231 19.7117C50.4244 16.7501 50.0258 13.7888 49.624 10.8302Z" fill="black"/>
<path fill-rule="evenodd" clip-rule="evenodd" d="M14.2108 13.5732L14.3191 13.6724C14.8399 14.1491 15.3618 14.6249 15.8839 15.101L15.8845 15.1016C16.4063 15.5774 16.9284 16.0535 17.4495 16.5305L18.4946 17.4872L17.1449 17.0615C15.9359 16.6803 14.7195 16.2961 13.503 15.9118C12.3002 15.5319 11.0974 15.1519 9.90215 14.775L8.57227 14.3556L9.95331 14.1649C10.6384 14.0703 11.3236 13.9748 12.009 13.8792C12.6943 13.7836 13.38 13.688 14.0656 13.5933L14.2108 13.5732ZM11.417 14.5952C12.1761 14.8348 12.9338 15.0742 13.6915 15.3135C14.4536 15.5543 15.2157 15.795 15.9791 16.036C15.8071 15.8791 15.6351 15.7222 15.463 15.5653L15.4628 15.5651C14.977 15.1221 14.491 14.6789 14.0057 14.2349C13.369 14.323 12.7322 14.4118 12.0952 14.5006L12.0949 14.5007C11.869 14.5322 11.643 14.5637 11.417 14.5952Z" fill="black"/>
<path fill-rule="evenodd" clip-rule="evenodd" d="M65.2381 2.09766L64.3813 2.87162C63.3202 3.83027 62.2583 4.78965 61.1963 5.74903C60.1571 6.68799 59.1178 7.62695 58.0792 8.56523L56.4873 10.0032L57.6029 8.16876C58.1128 7.33014 58.6233 6.49152 59.1341 5.653L59.1383 5.64598C59.6476 4.80978 60.1568 3.9737 60.6652 3.13765L60.7362 3.02072L60.9398 2.97935C61.9965 2.76448 63.0529 2.54967 64.1089 2.33125L65.2381 2.09766ZM61.1282 3.58124C60.6434 4.37861 60.1577 5.17597 59.6721 5.97323L59.6681 5.98009C59.5303 6.20635 59.3924 6.43259 59.2546 6.65885C59.7614 6.20108 60.2682 5.74318 60.775 5.2853C61.5527 4.58263 62.3304 3.87996 63.1078 3.17773C62.4477 3.31291 61.7878 3.44713 61.1282 3.58124Z" fill="black"/>
<path fill-rule="evenodd" clip-rule="evenodd" d="M72.2569 27.7383L71.1701 28.5094C70.4345 29.0313 69.6988 29.5533 68.9634 30.0753L68.7846 30.2022L68.6046 30.0768C67.7778 29.5017 66.9474 28.9266 66.1205 28.355L65.3027 27.7897L66.2959 27.783C67.1377 27.7773 67.9646 27.7706 68.7914 27.764C69.6097 27.7573 70.4279 27.7509 71.2614 27.7451L72.2569 27.7383ZM67.2921 28.4031C67.7883 28.7468 68.2852 29.0914 68.781 29.4362C69.2771 29.0841 69.7733 28.7319 70.2695 28.3798C69.7812 28.3836 69.2894 28.3874 68.7976 28.3913C68.2945 28.3953 67.7914 28.3993 67.2921 28.4031Z" fill="black"/>
</g>
</g>
</svg>
