<svg width="88" height="66" viewBox="0 0 88 66" fill="none" xmlns="http://www.w3.org/2000/svg">
<mask id="mask0_972_146" style="mask-type:luminance" maskUnits="userSpaceOnUse" x="0" y="0" width="88" height="66">
<path d="M88 0H0V65.33H88V0Z" fill="white"/>
</mask>
<g mask="url(#mask0_972_146)">
<mask id="mask1_972_146" style="mask-type:luminance" maskUnits="userSpaceOnUse" x="0" y="0" width="88" height="66">
<path d="M88 0H0V65.33H88V0Z" fill="white"/>
</mask>
<g mask="url(#mask1_972_146)">
<path d="M32.0785 41.6217C29.3486 46.7147 26.894 50.8766 24.7112 54.1033L31.1081 60.5762L27.4227 64.3014C23.0234 59.6449 17.0683 53.7593 9.56505 46.6489C8.82494 50.8109 8.28492 53.682 7.94887 55.2666C7.31068 58.5279 6.63853 61.3837 5.93237 63.8375H0C0.913837 61.1364 2.00893 57.0825 3.29283 51.6807C4.13869 48.1717 4.81464 45.254 5.32063 42.924C3.93477 41.5907 2.80193 40.613 1.92585 39.9909L5.73222 36.4048C11.5664 41.3434 16.5774 45.9534 20.7728 50.2392L25.0209 43.0203L21.2863 40.2267L24.5112 36.3623L32.0823 41.6255L32.0785 41.6217Z" fill="#555555"/>
<path d="M59.2481 41.8537C59.2481 42.6924 58.9911 44.0912 58.4814 46.0468C56.6427 53.126 52.1904 59.1503 45.1138 64.1202L42.1044 60.159C47.3568 56.4338 50.9556 51.8662 52.9004 46.4639C53.1381 45.811 53.259 45.1462 53.259 44.4622C53.259 43.8401 53.0775 43.2761 52.7189 42.762C52.3602 42.248 51.8543 41.993 51.2046 41.993H39.1437C38.7244 41.993 38.4677 41.9041 38.3696 41.7224C38.3241 41.6412 38.3241 41.5601 38.3241 41.5293C38.3241 37.9701 38.3583 37.1857 38.3583 37.1857C38.4035 36.1732 38.5092 33.9203 37.1649 32.6799C36.8138 32.3592 36.4512 32.1815 36.1982 32.0809C37.0216 31.7138 37.8484 31.3507 38.6717 30.9834C39.2571 31.115 39.982 31.2309 40.8126 31.2463C41.7868 31.2694 42.6251 31.1575 43.2788 31.0182C43.8223 31.3971 44.3697 31.7757 44.9136 32.1544C44.6304 32.2626 44.4153 32.4055 44.2492 32.5524C42.7724 33.8509 43.6374 36.7993 43.6866 36.9617H55.5737C56.3066 36.9617 56.9446 37.1278 57.4848 37.4601C57.968 37.7576 58.2512 38.1055 58.3756 38.2678C59.4219 39.5816 59.2897 41.3862 59.2443 41.8537H59.2481Z" fill="#555555"/>
<path d="M88 59.089C88 61.8209 86.633 63.309 83.8953 63.5601L64.3119 65.3299L63.9043 60.3913L80.3795 58.8996C81.7767 58.7761 82.4789 58.1848 82.4789 57.13V45.9966C82.4789 44.567 81.9655 43.6976 80.9384 43.3886L75.6442 41.7112H75.2325C74.2737 41.7112 73.5521 42.1016 73.0726 42.8745L71.4264 45.5757C71.1882 45.9812 71.0678 46.3831 71.0678 46.7853C71.0678 47.3454 71.3056 47.7627 71.785 48.041L74.8626 49.9037L72.0907 54.0502L65.5355 50.0543C64.9237 49.6833 64.6218 48.9531 64.6218 47.871C64.6218 47.0984 64.8105 46.4143 65.1844 45.8266L71.0299 36.394C71.5393 35.5901 72.1476 35.1846 72.8611 35.1846C73.0651 35.1846 77.3626 36.5486 85.753 39.2768C86.4365 39.4932 86.9804 39.9684 87.3919 40.6949C87.7999 41.4253 88.0037 42.1595 88.0037 42.9014V59.0813L88 59.089Z" fill="#555555"/>
<path fill-rule="evenodd" clip-rule="evenodd" d="M51.1595 -0.280273L51.5801 2.56515C51.9321 4.94569 52.283 7.32526 52.6339 9.70465L52.6383 9.73428C52.9337 11.7358 53.2288 13.7372 53.5245 15.7391L67.7483 8.61115L65.841 11.3536C64.5832 13.1622 63.3397 14.9517 62.0962 16.7413C61.1684 18.0766 60.2403 19.412 59.3063 20.7556L75.976 20.9256L72.8457 22.5095C70.81 23.5395 68.7736 24.5685 66.7373 25.5972L66.7305 25.6008C65.0002 26.475 63.27 27.3492 61.5405 28.224C61.6399 28.3567 61.7394 28.4894 61.8389 28.6221C62.8296 29.9431 63.8218 31.2665 64.8117 32.5896L66.5741 34.946L63.858 33.9091C61.0676 32.8439 56.7779 31.6098 51.4681 31.6288C48.0284 31.6401 45.0926 32.1759 42.8348 32.7761L42.4156 31.1229C44.7799 30.4945 47.8563 29.9327 51.4624 29.9208C55.5728 29.9063 59.0985 30.6077 61.8371 31.4245C61.3964 30.8367 60.9558 30.249 60.5151 29.6615C60.2094 29.2539 59.904 28.8463 59.5985 28.4392L58.9803 27.6143L59.8907 27.1536C61.9262 26.1235 63.9628 25.0945 65.9989 24.0657L66.0123 24.0589C66.9998 23.56 67.9872 23.0613 68.9744 22.5623L56.0935 22.4309L57.0205 21.0979C58.2511 19.3283 59.4942 17.5395 60.7372 15.7506C61.3506 14.8679 61.9639 13.9852 62.5759 13.1048L52.2153 18.2967L52.0453 17.1457C51.6928 14.7616 51.3413 12.3784 50.9897 9.99542L50.9855 9.96633C50.774 8.53314 50.5627 7.09997 50.3512 5.66665C48.4959 9.84392 46.6402 14.0214 44.7814 18.1989L44.2102 19.4828L43.3641 18.3693C41.9337 16.487 40.5043 14.6056 39.0749 12.7244C37.8757 11.1465 36.677 9.56861 35.4777 7.99031L35.1255 19.8496L22.1273 14.0608L27.4187 22.7247L14.2552 22.5969C14.9696 22.9352 15.6842 23.2736 16.3988 23.612L16.4033 23.6143C18.2889 24.5072 20.1748 25.4001 22.0598 26.2942L23.3328 26.898L18.37 30.6722C20.8573 30.1947 23.7311 29.8351 26.9225 29.7702C31.7314 29.6721 35.8301 30.273 38.9608 30.964L38.6093 32.6337C35.5771 31.9645 31.6099 31.3829 26.9558 31.4781C22.0935 31.5768 17.9923 32.3827 14.9124 33.2266L10.6924 34.3831L20.0852 27.2402C20.5097 27.4414 20.9341 27.6426 21.3585 27.8438L20.0852 27.2402C18.6233 26.5473 17.161 25.8547 15.6985 25.1623L15.695 25.1607C13.8091 24.2676 11.9228 23.3744 10.0375 22.4802L6.52393 20.8137L24.3901 20.9873L17.8621 10.2988L33.5329 17.2777L33.9508 3.19977L35.3727 5.07063C37.0482 7.2755 38.7226 9.47941 40.3973 11.6834C41.5431 13.191 42.6886 14.6987 43.8346 16.2069C43.6442 16.6348 43.4537 17.0629 43.2634 17.4908L43.8346 16.2069L44.6808 17.3205C44.3988 16.9492 44.1167 16.578 43.8346 16.2069C45.8857 11.5954 47.9335 6.98392 49.9816 2.37216L51.1595 -0.280273Z" fill="#555555"/>
<path fill-rule="evenodd" clip-rule="evenodd" d="M49.961 8.84473L50.1026 9.90639C50.5329 13.1359 50.9594 16.3689 51.386 19.6018C52.655 18.9889 53.9252 18.3768 55.1956 17.7646C56.1823 17.2891 57.1691 16.8136 58.1556 16.3376L59.1243 15.8701L58.5537 16.7979C57.8532 17.9369 57.1536 19.0769 56.4538 20.217L56.4487 20.2253C55.8462 21.2072 55.2434 22.1893 54.64 23.1708L65.264 23.3329L64.0911 23.9208C63.2159 24.3596 62.3401 24.7988 61.4641 25.2385C60.0199 25.9628 58.5751 26.6875 57.1302 27.4111L59.469 30.0128L58.7306 29.9933C51.4118 29.8005 47.748 30.4502 45.7769 31.1575C45.7615 31.1632 45.7452 31.1691 45.7277 31.1754C45.3144 31.3257 44.3014 31.6942 42.9122 31.8653C40.4094 32.1741 38.2821 31.6472 37.3316 31.406H37.3309C36.3084 31.1442 35.5447 30.8483 35.2359 30.7287C35.192 30.7117 35.1574 30.6982 35.1325 30.6889L35.1305 30.6882C33.2348 29.9678 29.6087 29.2749 22.0489 29.5487L20.989 29.5871L24.9353 26.7693C24.3777 26.5053 23.8204 26.2413 23.263 25.9775C21.9404 25.3511 20.6186 24.7251 19.2969 24.0976L17.9824 23.4737L19.4313 23.4868C21.1137 23.5024 22.7961 23.5187 24.4783 23.5352H24.4789C25.9738 23.5499 27.4687 23.5643 28.9634 23.5783C28.3721 22.5804 27.7808 21.5831 27.1895 20.5858L27.1833 20.5756C26.4954 19.4157 25.8078 18.2557 25.1199 17.0947L24.6265 16.2622L25.5063 16.6324C27.3657 17.4151 29.2223 18.1959 31.0787 18.9767C32.7617 19.6845 34.4448 20.3923 36.13 21.1015C36.1728 19.6619 36.2167 18.2155 36.2606 16.7692C36.3084 15.1865 36.3563 13.6039 36.403 12.0305L36.4282 11.1844L36.9564 11.8357C38.319 13.516 39.6826 15.1973 41.0463 16.8785C42.1407 18.2279 43.2351 19.5772 44.3288 20.926C46.0557 17.2235 47.7831 13.5177 49.5104 9.81177L49.961 8.84473ZM49.624 11.0549C47.9769 14.5891 46.3296 18.1229 44.6828 21.6536L44.4721 22.1052L44.1598 21.7202C42.9653 20.2472 41.7699 18.7733 40.5746 17.2994C39.3838 15.8314 38.1933 14.3633 37.0032 12.896C36.9644 14.1966 36.9251 15.4932 36.8858 16.7896C36.8375 18.3851 36.789 19.9805 36.7414 21.5833L36.7277 22.0456L36.31 21.8697C34.488 21.103 32.6651 20.3363 30.8423 19.5696C29.2773 18.9115 27.7124 18.2533 26.1481 17.5951C26.6721 18.4791 27.1961 19.3628 27.7202 20.2465L27.7248 20.2543C28.4129 21.4151 29.1013 22.5759 29.7896 23.7377L30.0807 24.2292L29.5194 24.224C27.8379 24.2086 26.1567 24.1921 24.4754 24.1756H24.4723C23.2734 24.1638 22.0747 24.1523 20.876 24.141C21.7589 24.5594 22.642 24.9776 23.5257 25.3961C24.2474 25.7379 24.9697 26.0799 25.6924 26.4224L26.1867 26.6568L23.0787 28.876C29.9641 28.6994 33.4329 29.3602 35.347 30.0874C35.3475 30.0876 35.3477 30.0876 35.3482 30.0878L35.2394 30.388L35.3462 30.0869C35.3464 30.0872 35.3466 30.0872 35.347 30.0874C35.3744 30.0976 35.4112 30.1118 35.4567 30.1294C35.7696 30.2506 36.4988 30.5327 37.482 30.7843L37.4068 31.0951L37.4826 30.7845C38.4204 31.0223 40.4541 31.5233 42.8374 31.2294C44.1572 31.0669 45.1173 30.7176 45.5202 30.5711C45.5374 30.565 45.5535 30.5592 45.5687 30.5537L45.5694 30.5533C47.5757 29.8333 51.146 29.2035 58.0107 29.3362L56.102 27.2129L56.4787 27.0243C58.0495 26.2379 59.6201 25.4501 61.1899 24.6627C61.6745 24.4195 62.159 24.1765 62.6436 23.9335L53.5174 23.7942L53.814 23.3118C54.5147 22.1729 55.2143 21.0329 55.9141 19.8927L55.919 19.8845C56.4307 19.0509 56.9423 18.2172 57.4542 17.3838C56.7902 17.7041 56.1261 18.0241 55.4622 18.344C54.063 19.0183 52.6643 19.6922 51.2667 20.3677L50.8803 20.5543L50.8231 20.1209C50.4244 17.0978 50.0258 14.075 49.624 11.0549Z" fill="#555555"/>
<path fill-rule="evenodd" clip-rule="evenodd" d="M14.2103 13.8555L14.3186 13.9567C14.8394 14.4433 15.3613 14.929 15.8834 15.415L15.884 15.4156C16.4058 15.9013 16.9279 16.3873 17.449 16.8742L18.4941 17.8507L17.1444 17.4162C15.9354 17.0271 14.719 16.6349 13.5026 16.2427C12.2997 15.8548 11.097 15.467 9.90166 15.0822L8.57178 14.6541L9.95283 14.4595C10.6379 14.3629 11.3231 14.2653 12.0085 14.1678C12.6938 14.0702 13.3795 13.9726 14.0651 13.8759L14.2103 13.8555ZM11.4165 14.8987C12.1756 15.1433 12.9333 15.3876 13.691 15.6319C14.4531 15.8776 15.2152 16.1234 15.9786 16.3694C15.8067 16.2092 15.6346 16.0491 15.4626 15.8889L15.4623 15.8887C14.9765 15.4365 14.4905 14.9841 14.0052 14.5309C13.3685 14.6208 12.7317 14.7114 12.0947 14.8021L12.0944 14.8022C11.8685 14.8344 11.6425 14.8665 11.4165 14.8987Z" fill="#555555"/>
<path fill-rule="evenodd" clip-rule="evenodd" d="M65.2381 2.14062L64.3813 2.93067C63.3202 3.90924 62.2583 4.88856 61.1963 5.86787C60.1571 6.82635 59.1178 7.78482 58.0792 8.74259L56.4873 10.2105L57.6029 8.33789C58.1128 7.48184 58.6233 6.62579 59.1341 5.76986L59.1383 5.76269C59.6476 4.9091 60.1568 4.05566 60.6652 3.20223L60.7362 3.08287L60.9398 3.04065C61.9965 2.8213 63.0529 2.60203 64.1089 2.37907L65.2381 2.14062ZM61.1282 3.65504C60.6434 4.46898 60.1577 5.28291 59.6721 6.09673L59.6681 6.10374C59.5303 6.3347 59.3924 6.56564 59.2546 6.7966C59.7614 6.32932 60.2682 5.8619 60.775 5.39451C61.5527 4.67724 62.3304 3.95997 63.1078 3.24315C62.4477 3.38113 61.7878 3.51814 61.1282 3.65504Z" fill="#555555"/>
<path fill-rule="evenodd" clip-rule="evenodd" d="M72.2574 28.3145L71.1706 29.1016C70.435 29.6344 69.6993 30.1672 68.9639 30.7L68.7851 30.8295L68.6051 30.7016C67.7783 30.1145 66.9479 29.5275 66.121 28.944L65.3032 28.3669L66.2964 28.3601C67.1382 28.3542 67.9651 28.3475 68.7919 28.3407C69.6101 28.3339 70.4284 28.3273 71.2619 28.3215L72.2574 28.3145ZM67.2926 28.9931C67.7888 29.3439 68.2857 29.6956 68.7815 30.0476C69.2776 29.6882 69.7738 29.3288 70.27 28.9693C69.7817 28.9732 69.2899 28.977 68.7981 28.9811C68.295 28.9852 67.7919 28.9892 67.2926 28.9931Z" fill="#555555"/>
</g>
</g>
</svg>
