<svg width="115" height="110" viewBox="0 0 115 110" fill="none" xmlns="http://www.w3.org/2000/svg">
<g clip-path="url(#clip0_724_929)">
<path d="M87.9587 46.3126C88.4494 47.4119 98.8975 53.0048 100.799 54.3066C105.144 57.2767 105.961 62.2044 103.597 66.805C95.7694 77.2382 89.6266 90.577 81.6645 100.703C79.7919 103.087 77.2637 104.966 74.1304 105.068C70.1098 105.2 68.3491 102.588 64.8697 101.342C47.3819 88.2844 25.3693 78.0478 8.31079 64.8026C5.19341 62.3812 3.76307 59.697 4.7304 55.7507C5.46166 52.76 9.26857 47.4703 11.1021 44.5317C16.1594 36.44 22.73 24.9258 28.4514 17.7276C31.4928 13.8989 35.0427 12.9004 39.3189 15.5C40.0412 14.5326 40.6496 13.0759 41.9519 12.7683C43.9637 12.2917 51.9944 17.4065 53.3649 19.0905C54.3166 20.2676 51.0922 22.935 53.0602 24.4102C55.881 21.865 60.1772 16.6469 64.4059 18.0262C69.0548 19.5466 74.3919 24.2088 78.4739 26.8704C82.3363 29.3819 90.4961 31.9483 90.5173 37.4541C90.5263 40.3037 88.4613 43.5001 87.955 46.3184L87.9587 46.3126ZM86.6965 36.762C86.1829 34.279 65.9024 23.8984 62.7811 21.1566C60.2761 21.7058 55.9937 28.3344 54.0357 28.1123C51.7629 27.85 41.9944 20.1375 38.7945 18.5347C36.4897 17.3798 33.3586 16.5873 31.8559 19.3404C25.3394 30.9466 15.957 42.0784 9.67515 53.6732C8.27272 56.271 6.91669 58.9476 9.58275 61.1508C13.6258 64.488 19.8848 67.9368 24.3489 70.886C39.5753 80.9512 55.0924 90.9434 70.8237 100.667C73.6335 101.643 77.0477 100.842 78.7901 98.333C84.9615 87.1476 94.3139 76.3387 100.206 65.1845C101.639 62.4762 101.977 60.1195 99.4667 57.9764L83.9903 48.0594C82.7756 45.9709 87.1886 39.1904 86.6891 36.7735L86.6965 36.762ZM48.757 21.6138C50.2241 19.0415 44.808 17.164 42.8617 16.974C42.0617 17.7853 43.2728 18.0708 43.8551 18.4632C45.468 19.546 47.3801 20.1783 48.757 21.6138Z" fill="#2461E5"/>
<path d="M74.0254 71.0696C67.2248 81.596 53.2084 84.6411 42.7267 77.8694C32.245 71.0977 29.2594 57.0684 36.06 46.5421C42.8605 36.0157 56.877 32.9706 67.3587 39.7423C77.8404 46.514 80.8259 60.5433 74.0254 71.0696ZM70.9568 69.2257C76.6877 60.3551 74.1747 48.5459 65.3416 42.8393C56.5086 37.1328 44.7102 39.696 38.9793 48.5667C33.2484 57.4373 35.7615 69.2465 44.5946 74.9531C53.4276 80.6596 65.226 78.0964 70.9568 69.2257Z" fill="#2461E5"/>
<path d="M89.7955 57.7496C96.8422 60.3058 92.846 69.3926 86.5917 65.1076C82.2904 62.1576 86.0934 56.4091 89.7955 57.7496Z" fill="#2461E5"/>
<path d="M66.054 66.3028C62.039 72.5174 53.7707 74.3138 47.5825 70.3158C41.3942 66.3179 39.633 58.042 43.648 51.8274C47.6629 45.6128 55.9312 43.8164 62.1195 47.8144C68.3078 51.8123 70.069 60.0882 66.054 66.3028ZM62.6576 64.1249C65.4655 59.7786 64.2294 53.9932 59.9073 51.2009C55.5852 48.4086 49.7993 49.6657 46.9952 54.0061C44.191 58.3466 45.4234 64.1378 49.7455 66.9301C54.0675 69.7223 59.8535 68.4653 62.6576 64.1249Z" fill="#2461E5"/>
</g>
<defs>
<clipPath id="clip0_724_929">
<rect width="90.5349" height="71.065" fill="white" transform="translate(38.9546 0.678711) rotate(32.8645)"/>
</clipPath>
</defs>
</svg>
