<svg width="61" height="54" viewBox="0 0 61 54" fill="none" xmlns="http://www.w3.org/2000/svg">
<g clip-path="url(#clip0_725_971)">
<path d="M47.6257 43.0761C46.7878 43.7947 52.4989 50.8199 52.6449 52.2494C53.0369 56.1174 44.4665 52.5169 42.6679 51.5843C37.933 49.1152 36.8184 44.9566 31.2534 43.9628C18.4093 41.6695 3.67429 44.9413 0.538202 27.665C-1.72163 15.1588 2.96713 1.59762 17.2948 0.473892C24.4893 -0.0917928 38.594 -0.221748 45.7117 0.496825C54.1822 1.34535 59.7396 10.8091 60.7157 18.4612C61.9302 27.9861 59.5013 42.2811 47.6257 43.0761ZM48.0484 50.2389C45.8654 47.4028 43.8439 44.2763 43.9899 40.5305C45.9346 39.8272 47.7333 40.2553 49.8317 39.5826C61.8072 35.7528 59.9778 8.69162 47.8562 4.25787C43.4211 2.63726 24.8659 3.06534 19.4085 3.41698C4.85801 4.35724 0.376785 16.8558 4.15854 29.5837C7.66358 41.3943 22.6138 39.7814 32.1451 40.9662C39.1628 41.8377 40.777 49.6885 48.0484 50.2313V50.2389Z" fill="#2461E5"/>
<path d="M30.5462 26.6025C32.8216 26.6025 34.6662 24.768 34.6662 22.5051C34.6662 20.2422 32.8216 18.4077 30.5462 18.4077C28.2708 18.4077 26.4263 20.2422 26.4263 22.5051C26.4263 24.768 28.2708 26.6025 30.5462 26.6025Z" fill="#2461E5"/>
<path d="M47.9178 24.8215C45.3813 28.0703 38.6325 25.9376 40.7386 20.8311C42.8447 15.7246 51.7226 19.9443 47.9178 24.8215Z" fill="#2461E5"/>
<path d="M14.8582 18.7056C20.6307 17.4061 21.5454 26.0213 15.9343 26.5411C10.9227 27.0074 10.5845 19.6688 14.8582 18.7056Z" fill="#2461E5"/>
</g>
<defs>
<clipPath id="clip0_725_971">
<rect width="61" height="54" fill="white"/>
</clipPath>
</defs>
</svg>
