<svg width="133" height="118" viewBox="0 0 133 118" fill="none" xmlns="http://www.w3.org/2000/svg">
<g clip-path="url(#clip0_724_909)">
<path d="M21.1421 60.9141C19.6163 60.9767 17.4623 61.4154 16.051 61.929C13.8147 62.7403 11.4736 64.6451 9.60033 65.2841C7.83743 65.8861 4.99627 65.4095 4.12511 67.2442C3.80682 67.9134 4.22816 72.7622 4.4394 73.7826C5.21812 77.4766 7.21808 78.753 10.1717 80.7929L93.1414 114.06C98.6324 115.696 102.888 114.156 105.743 109.08C108.002 105.056 106.304 105.736 105.218 103.033C104.919 102.287 105.086 101.278 104.783 100.581C103.452 97.5521 100.794 94.8634 99.4329 91.8366C98.3743 89.4907 99.8161 89.0851 100.562 87.1782C106.501 72.0756 112.546 57.0225 118.585 41.9668C119.307 40.0803 118.761 37.5186 117.203 36.2414C116.393 35.5793 113.107 33.5248 112.151 33.0994C110.487 32.3626 107.476 32.0173 105.524 31.2684C94.7988 27.1479 84.4827 22.7774 73.7998 18.6441C65.6411 15.4875 55.8616 10.4907 47.7439 8.19077C42.1971 6.62089 39.3783 12.7507 37.9702 17.1872C37.7129 17.9987 37.9267 19.0127 37.573 19.9922C32.6229 33.7937 26.3398 47.2113 21.1332 60.9179L21.1421 60.9141ZM44.5141 9.85181L116.275 38.4588L95.7164 90.0307L23.9553 61.4238L44.5141 9.85181ZM12.1794 67.0272C15.3352 67.1206 18.6966 64.8339 21.9742 64.6956C26.973 64.4843 43.6491 72.0757 49.3512 74.4372C63.1957 80.1626 76.9239 87.0285 91.4623 91.8437C92.0526 92.0422 92.9424 91.8219 93.7778 92.1254C95.921 92.9134 100.065 100.16 101.559 102.503C101.938 103.104 102.787 102.838 101.82 104.229C84.8489 97.2864 67.6452 90.8337 50.6749 83.8696C38.9914 79.072 27.5259 73.4325 15.411 69.0158C13.9585 68.4884 12.0486 69.4224 12.1819 67.0209L12.1794 67.0272ZM8.12503 69.8339L101.702 108.236C97.7693 113.302 94.3567 109.849 89.5702 108.162C84.5094 106.387 79.2672 104.681 74.4016 102.159L72.1293 101.953C53.9996 91.8071 30.9639 87.0101 12.7381 77.5847C9.56633 75.9444 7.45283 73.5317 8.12756 69.8275L8.12503 69.8339Z" fill="#2461E5"/>
<path d="M47.3654 17.7405L31.4163 57.6751L33.9129 59.496C51.444 65.8286 68.424 74.374 86.2427 79.5607C89.5703 80.5334 92.5205 83.3386 94.9683 79.0438C98.1646 68.7006 104.447 58.0542 107.4 47.8208C109.43 40.809 106.339 40.6087 101.076 38.7167C89.4533 34.5406 77.8483 29.2141 66.2842 24.5231C64.2578 23.7006 61.339 22.9203 59.1743 22.0205C55.4173 20.4638 51.6394 17.6678 47.3641 17.7253L47.3654 17.7405ZM91.0237 77.8104L37.3806 56.426C37.2346 56.3678 36.3045 57.0954 36.1748 56.6825L48.8511 21.1929C50.1994 21.7599 51.6163 22.192 52.933 22.857C66.1166 29.5205 83.6976 36.6322 97.8183 41.4799C99.9602 42.2158 102.279 42.0641 104.36 43.2844C104.928 43.6139 104.429 45.9729 104.252 46.5656C102.095 53.748 98.224 60.5788 95.1985 67.2823C93.6567 70.7072 92.5554 74.3741 91.0262 77.804L91.0237 77.8104Z" fill="#2461E5"/>
</g>
<defs>
<clipPath id="clip0_724_909">
<rect width="110.029" height="82.2441" fill="white" transform="matrix(-0.928911 -0.370303 -0.370303 0.928911 132.897 41.3696)"/>
</clipPath>
</defs>
</svg>
