<svg width="133" height="119" viewBox="0 0 133 119" fill="none" xmlns="http://www.w3.org/2000/svg">
<g clip-path="url(#clip0_724_912)">
<path d="M111.755 61.1744C113.281 61.2369 115.435 61.6756 116.846 62.1893C119.082 63.0006 121.423 64.9053 123.297 65.5444C125.06 66.1463 127.901 65.6698 128.772 67.5044C129.09 68.1737 128.669 73.0225 128.458 74.0429C127.679 77.7368 125.679 79.0132 122.725 81.0531L39.7555 114.32C34.2646 115.956 30.009 114.416 27.1541 109.34C24.8953 105.317 26.5935 105.996 27.6789 103.293C27.9776 102.547 27.8105 101.538 28.1143 100.842C29.4449 97.8124 32.1031 95.1236 33.4641 92.0969C34.5227 89.7509 33.0809 89.3453 32.3354 87.4384C26.3958 72.3359 20.3509 57.2828 14.3123 42.2271C13.5897 40.3406 14.1355 37.7789 15.6937 36.5016C16.5039 35.8396 19.7902 33.785 20.7463 33.3597C22.4096 32.6229 25.4207 32.2776 27.3735 31.5286C38.0982 27.4081 48.4143 23.0377 59.0971 18.9044C67.2559 15.7478 77.0354 10.7509 85.1531 8.45102C90.6999 6.88114 93.5187 13.0109 94.9268 17.4474C95.1841 18.2589 94.9703 19.273 95.324 20.2524C100.274 34.054 106.557 47.4715 111.764 61.1782L111.755 61.1744ZM88.3829 10.1121L16.6218 38.719L37.1806 90.291L108.942 61.684L88.3829 10.1121ZM120.718 67.2875C117.562 67.3808 114.2 65.0941 110.923 64.9559C105.924 64.7446 89.2478 72.3359 83.5458 74.6975C69.7013 80.4229 55.9731 87.2887 41.4347 92.1039C40.8443 92.3024 39.9546 92.0821 39.1192 92.3857C36.976 93.1737 32.8316 100.421 31.3376 102.763C30.959 103.364 30.1099 103.098 31.0765 104.489C48.0481 97.5466 65.2518 91.094 82.2221 84.1298C93.9056 79.3323 105.371 73.6927 117.486 69.2761C118.938 68.7486 120.848 69.6827 120.715 67.2811L120.718 67.2875ZM124.772 70.0941L31.1951 108.496C35.1277 113.563 38.5403 110.109 43.3268 108.422C48.3875 106.648 53.6298 104.941 58.4954 102.419L60.7677 102.214C78.8974 92.0674 101.933 87.2704 120.159 77.845C123.331 76.2046 125.444 73.792 124.769 70.0878L124.772 70.0941Z" fill="#2461E5"/>
<path d="M85.5316 18.0008L101.481 57.9354L98.9841 59.7562C81.453 66.0888 64.4729 74.6343 46.6543 79.821C43.3267 80.7937 40.3764 83.5988 37.9286 79.3041C34.7324 68.9609 28.4504 58.3145 25.4965 48.0811C23.4665 41.0692 26.5576 40.869 31.8215 38.977C43.4437 34.8009 55.0487 29.4744 66.6128 24.7834C68.6392 23.9608 71.5579 23.1806 73.7227 22.2808C77.4797 20.7241 81.2575 17.9281 85.5329 17.9855L85.5316 18.0008ZM41.8733 78.0706L95.5163 56.6863C95.6623 56.6281 96.5924 57.3556 96.7221 56.9427L84.0459 21.4531C82.6975 22.0202 81.2807 22.4523 79.964 23.1172C66.7804 29.7807 49.1994 36.8924 35.0786 41.7402C32.9368 42.4761 30.6177 42.3244 28.5365 43.5447C27.9689 43.8741 28.4679 46.2331 28.6453 46.8258C30.8022 54.0082 34.673 60.8391 37.6984 67.5426C39.2403 70.9675 40.3416 74.6343 41.8708 78.0643L41.8733 78.0706Z" fill="#2461E5"/>
</g>
<defs>
<clipPath id="clip0_724_912">
<rect width="110.029" height="82.2441" fill="white" transform="translate(0 41.6299) rotate(-21.7343)"/>
</clipPath>
</defs>
</svg>
