<svg width="68" height="93" viewBox="0 0 68 93" fill="none" xmlns="http://www.w3.org/2000/svg">
<g clip-path="url(#clip0_724_905)">
<path d="M64.3712 68.5871C75.3689 80.654 59.1821 100.951 45.2856 89.732C39.6871 85.2153 39.2888 79.6726 40.2293 73.0257L23.7216 63.3231C17.9683 66.2116 14.4942 68.2525 7.96635 65.4086C-9.28259 57.8808 4.282 29.9439 22.0178 39.167L40.9042 22.0703C31.0018 6.78038 52.8424 -8.86646 63.132 5.99971C71.6735 18.3454 57.3233 34.9179 44.3783 26.3863L26.2885 41.5648C25.2153 43.2599 27.9592 46.2599 28.2358 48.8027C28.5898 51.9923 27.8264 55.0146 26.9745 58.0257C27.0962 59.0183 42.9179 68.1187 43.9026 68.1744C45.0422 68.2413 47.3324 65.9105 49.1248 65.2971C54.2364 63.5573 60.6315 64.483 64.3712 68.5871ZM50.7955 5.75435C40.3731 7.73948 42.5306 24.312 53.5726 23.1967C63.2316 22.2265 62.0145 3.62424 50.7955 5.75435ZM20.4135 58.9179C26.6204 53.5313 20.9667 40.8176 11.352 44.0406C2.97644 46.851 4.20455 59.9439 12.6575 60.7023C14.638 60.8807 18.9198 60.2005 20.4135 58.9179ZM62.4571 78.5796C62.4571 73.8845 58.6842 70.0703 54.0152 70.0703C49.3461 70.0703 45.5732 73.8733 45.5732 78.5796C45.5732 83.2859 49.3461 87.0889 54.0152 87.0889C58.6842 87.0889 62.4571 83.2859 62.4571 78.5796Z" fill="#2461E5"/>
</g>
<defs>
<clipPath id="clip0_724_905">
<rect width="68" height="93" fill="white"/>
</clipPath>
</defs>
</svg>
