<svg width="120" height="165" viewBox="0 0 120 165" fill="none" xmlns="http://www.w3.org/2000/svg">
<mask id="path-1-inside-1_736_2532" fill="white">
<path d="M26.4544 150.208L28.0704 149.712V145.872H26.9024L27.5584 143.008H36.4224V151.92L33.4464 152.576V145.872H31.0304V151.792L27.3664 152.896L26.4544 150.208ZM38.612 145.52L37.38 144.784L38.868 142.336L41.572 143.936V148.352L38.612 149.008V145.52ZM43.036 147.296L44.38 146.288L42.78 144.256L45.1 142.432L47.436 145.408L48.028 144.944L47.404 144.144L49.612 142.432L52.06 145.552L49.26 147.744L51.644 150.784L49.308 152.592L45.98 148.368V151.984L43.036 152.608V147.296ZM56.6256 149.44L58.0176 148.992L58.2096 145.872H52.4336L53.0896 143.024H61.3456L60.8016 151.088L57.4576 152.144L56.6256 149.44ZM53.0736 147.072H56.0496V154.048L53.0736 154.704V147.072ZM63.3308 145.52L62.0988 144.784L63.5868 142.336L66.2908 143.936V148.352L63.3308 149.008V145.52ZM67.7529 149.744L73.4809 149.2V145.872H71.6249V148.144L68.6649 148.816V145.872H67.3049L67.9609 143.008H76.4569V151.792L68.0569 152.576L67.7529 149.744ZM81.6033 145.856H77.4913L78.1473 143.008H84.5633V151.92L81.6033 152.576V145.856ZM85.2006 151.408L87.6966 147.424L88.5286 147.76L88.0486 145.696L86.4966 144.768L87.9846 142.304L90.6566 143.888L92.5446 151.936L89.6006 152.56L89.1366 150.48L87.6646 152.848L85.2006 151.408Z"/>
</mask>
<path d="M26.4544 150.208L25.5741 147.34L22.6209 148.246L23.6134 151.172L26.4544 150.208ZM28.0704 149.712L28.9506 152.58L31.0704 151.929V149.712H28.0704ZM28.0704 145.872H31.0704V142.872H28.0704V145.872ZM26.9024 145.872L23.9781 145.202L23.1375 148.872H26.9024V145.872ZM27.5584 143.008V140.008H25.1678L24.6341 142.338L27.5584 143.008ZM36.4224 143.008H39.4224V140.008H36.4224V143.008ZM36.4224 151.92L37.0682 154.85L39.4224 154.331V151.92H36.4224ZM33.4464 152.576H30.4464V156.309L34.0922 155.506L33.4464 152.576ZM33.4464 145.872H36.4464V142.872H33.4464V145.872ZM31.0304 145.872V142.872H28.0304V145.872H31.0304ZM31.0304 151.792L31.8959 154.664L34.0304 154.021V151.792H31.0304ZM27.3664 152.896L24.5254 153.86L25.4567 156.605L28.2319 155.768L27.3664 152.896ZM26.4544 150.208L27.3346 153.076L28.9506 152.58L28.0704 149.712L27.1901 146.844L25.5741 147.34L26.4544 150.208ZM28.0704 149.712H31.0704V145.872H28.0704H25.0704V149.712H28.0704ZM28.0704 145.872V142.872H26.9024V145.872V148.872H28.0704V145.872ZM26.9024 145.872L29.8267 146.542L30.4827 143.678L27.5584 143.008L24.6341 142.338L23.9781 145.202L26.9024 145.872ZM27.5584 143.008V146.008H36.4224V143.008V140.008H27.5584V143.008ZM36.4224 143.008H33.4224V151.92H36.4224H39.4224V143.008H36.4224ZM36.4224 151.92L35.7766 148.99L32.8006 149.646L33.4464 152.576L34.0922 155.506L37.0682 154.85L36.4224 151.92ZM33.4464 152.576H36.4464V145.872H33.4464H30.4464V152.576H33.4464ZM33.4464 145.872V142.872H31.0304V145.872V148.872H33.4464V145.872ZM31.0304 145.872H28.0304V151.792H31.0304H34.0304V145.872H31.0304ZM31.0304 151.792L30.1649 148.92L26.5009 150.024L27.3664 152.896L28.2319 155.768L31.8959 154.664L31.0304 151.792ZM27.3664 152.896L30.2073 151.932L29.2953 149.244L26.4544 150.208L23.6134 151.172L24.5254 153.86L27.3664 152.896ZM38.612 145.52H41.612V143.818L40.1506 142.945L38.612 145.52ZM37.38 144.784L34.8164 143.226L33.2462 145.809L35.8414 147.359L37.38 144.784ZM38.868 142.336L40.3957 139.754L37.8443 138.244L36.3044 140.778L38.868 142.336ZM41.572 143.936H44.572V142.225L43.0997 141.354L41.572 143.936ZM41.572 148.352L42.2211 151.281L44.572 150.76V148.352H41.572ZM38.612 149.008H35.612V152.746L39.2611 151.937L38.612 149.008ZM38.612 145.52L40.1506 142.945L38.9186 142.209L37.38 144.784L35.8414 147.359L37.0734 148.095L38.612 145.52ZM37.38 144.784L39.9436 146.342L41.4316 143.894L38.868 142.336L36.3044 140.778L34.8164 143.226L37.38 144.784ZM38.868 142.336L37.3403 144.918L40.0443 146.518L41.572 143.936L43.0997 141.354L40.3957 139.754L38.868 142.336ZM41.572 143.936H38.572V148.352H41.572H44.572V143.936H41.572ZM41.572 148.352L40.9229 145.423L37.9629 146.079L38.612 149.008L39.2611 151.937L42.2211 151.281L41.572 148.352ZM38.612 149.008H41.612V145.52H38.612H35.612V149.008H38.612ZM43.036 147.296L41.236 144.896L40.036 145.796V147.296H43.036ZM44.38 146.288L46.18 148.688L48.6371 146.845L46.737 144.432L44.38 146.288ZM42.78 144.256L40.9258 141.898L38.5657 143.753L40.423 146.112L42.78 144.256ZM45.1 142.432L47.4598 140.58L45.6061 138.218L43.2458 140.074L45.1 142.432ZM47.436 145.408L45.0762 147.26L46.9272 149.618L49.2867 147.769L47.436 145.408ZM48.028 144.944L49.8787 147.305L52.2343 145.459L50.3935 143.099L48.028 144.944ZM47.404 144.144L45.5658 141.773L43.1881 143.617L45.0385 145.989L47.404 144.144ZM49.612 142.432L51.9722 140.58L50.131 138.233L47.7738 140.061L49.612 142.432ZM52.06 145.552L53.9093 147.914L56.2741 146.063L54.4202 143.7L52.06 145.552ZM49.26 147.744L47.4107 145.382L45.0465 147.233L46.8993 149.595L49.26 147.744ZM51.644 150.784L53.4802 153.156L55.8678 151.308L54.0047 148.933L51.644 150.784ZM49.308 152.592L46.9515 154.449L48.7922 156.785L51.1442 154.964L49.308 152.592ZM45.98 148.368L48.3365 146.511L42.98 139.713V148.368H45.98ZM45.98 151.984L46.6021 154.919L48.98 154.415V151.984H45.98ZM43.036 152.608H40.036V156.311L43.6581 155.543L43.036 152.608ZM43.036 147.296L44.836 149.696L46.18 148.688L44.38 146.288L42.58 143.888L41.236 144.896L43.036 147.296ZM44.38 146.288L46.737 144.432L45.137 142.4L42.78 144.256L40.423 146.112L42.023 148.144L44.38 146.288ZM42.78 144.256L44.6342 146.614L46.9542 144.79L45.1 142.432L43.2458 140.074L40.9258 141.898L42.78 144.256ZM45.1 142.432L42.7402 144.284L45.0762 147.26L47.436 145.408L49.7958 143.556L47.4598 140.58L45.1 142.432ZM47.436 145.408L49.2867 147.769L49.8787 147.305L48.028 144.944L46.1774 142.583L45.5854 143.047L47.436 145.408ZM48.028 144.944L50.3935 143.099L49.7695 142.299L47.404 144.144L45.0385 145.989L45.6625 146.789L48.028 144.944ZM47.404 144.144L49.2423 146.515L51.4503 144.803L49.612 142.432L47.7738 140.061L45.5658 141.773L47.404 144.144ZM49.612 142.432L47.2518 144.284L49.6998 147.404L52.06 145.552L54.4202 143.7L51.9722 140.58L49.612 142.432ZM52.06 145.552L50.2107 143.19L47.4107 145.382L49.26 147.744L51.1093 150.106L53.9093 147.914L52.06 145.552ZM49.26 147.744L46.8993 149.595L49.2833 152.635L51.644 150.784L54.0047 148.933L51.6207 145.893L49.26 147.744ZM51.644 150.784L49.8078 148.412L47.4718 150.22L49.308 152.592L51.1442 154.964L53.4802 153.156L51.644 150.784ZM49.308 152.592L51.6645 150.735L48.3365 146.511L45.98 148.368L43.6235 150.225L46.9515 154.449L49.308 152.592ZM45.98 148.368H42.98V151.984H45.98H48.98V148.368H45.98ZM45.98 151.984L45.358 149.049L42.414 149.673L43.036 152.608L43.6581 155.543L46.6021 154.919L45.98 151.984ZM43.036 152.608H46.036V147.296H43.036H40.036V152.608H43.036ZM56.6256 149.44L55.7065 146.584L52.8873 147.492L53.7583 150.322L56.6256 149.44ZM58.0176 148.992L58.9367 151.848L60.8862 151.22L61.012 149.176L58.0176 148.992ZM58.2096 145.872L61.204 146.056L61.3999 142.872H58.2096V145.872ZM52.4336 145.872L49.5102 145.199L48.6641 148.872H52.4336V145.872ZM53.0896 143.024V140.024H50.7021L50.1662 142.351L53.0896 143.024ZM61.3456 143.024L64.3388 143.226L64.5548 140.024H61.3456V143.024ZM60.8016 151.088L61.705 153.949L63.6571 153.332L63.7948 151.29L60.8016 151.088ZM57.4576 152.144L54.5903 153.026L55.4791 155.915L58.361 155.005L57.4576 152.144ZM53.0736 147.072V144.072H50.0736V147.072H53.0736ZM56.0496 147.072H59.0496V144.072H56.0496V147.072ZM56.0496 154.048L56.6954 156.978L59.0496 156.459V154.048H56.0496ZM53.0736 154.704H50.0736V158.437L53.7194 157.634L53.0736 154.704ZM56.6256 149.44L57.5447 152.296L58.9367 151.848L58.0176 148.992L57.0985 146.136L55.7065 146.584L56.6256 149.44ZM58.0176 148.992L61.012 149.176L61.204 146.056L58.2096 145.872L55.2153 145.688L55.0233 148.808L58.0176 148.992ZM58.2096 145.872V142.872H52.4336V145.872V148.872H58.2096V145.872ZM52.4336 145.872L55.3571 146.545L56.0131 143.697L53.0896 143.024L50.1662 142.351L49.5102 145.199L52.4336 145.872ZM53.0896 143.024V146.024H61.3456V143.024V140.024H53.0896V143.024ZM61.3456 143.024L58.3524 142.822L57.8084 150.886L60.8016 151.088L63.7948 151.29L64.3388 143.226L61.3456 143.024ZM60.8016 151.088L59.8982 148.227L56.5542 149.283L57.4576 152.144L58.361 155.005L61.705 153.949L60.8016 151.088ZM57.4576 152.144L60.325 151.262L59.493 148.558L56.6256 149.44L53.7583 150.322L54.5903 153.026L57.4576 152.144ZM53.0736 147.072V150.072H56.0496V147.072V144.072H53.0736V147.072ZM56.0496 147.072H53.0496V154.048H56.0496H59.0496V147.072H56.0496ZM56.0496 154.048L55.4038 151.118L52.4278 151.774L53.0736 154.704L53.7194 157.634L56.6954 156.978L56.0496 154.048ZM53.0736 154.704H56.0736V147.072H53.0736H50.0736V154.704H53.0736ZM63.3308 145.52H66.3308V143.818L64.8693 142.945L63.3308 145.52ZM62.0988 144.784L59.5352 143.226L57.965 145.809L60.5602 147.359L62.0988 144.784ZM63.5868 142.336L65.1145 139.754L62.5631 138.244L61.0232 140.778L63.5868 142.336ZM66.2908 143.936H69.2908V142.225L67.8185 141.354L66.2908 143.936ZM66.2908 148.352L66.9399 151.281L69.2908 150.76V148.352H66.2908ZM63.3308 149.008H60.3308V152.746L63.9799 151.937L63.3308 149.008ZM63.3308 145.52L64.8693 142.945L63.6373 142.209L62.0988 144.784L60.5602 147.359L61.7922 148.095L63.3308 145.52ZM62.0988 144.784L64.6623 146.342L66.1503 143.894L63.5868 142.336L61.0232 140.778L59.5352 143.226L62.0988 144.784ZM63.5868 142.336L62.059 144.918L64.763 146.518L66.2908 143.936L67.8185 141.354L65.1145 139.754L63.5868 142.336ZM66.2908 143.936H63.2908V148.352H66.2908H69.2908V143.936H66.2908ZM66.2908 148.352L65.6416 145.423L62.6816 146.079L63.3308 149.008L63.9799 151.937L66.9399 151.281L66.2908 148.352ZM63.3308 149.008H66.3308V145.52H63.3308H60.3308V149.008H63.3308ZM67.7529 149.744L67.4692 146.757L64.4459 147.045L64.77 150.064L67.7529 149.744ZM73.4809 149.2L73.7645 152.187L76.4809 151.929V149.2H73.4809ZM73.4809 145.872H76.4809V142.872H73.4809V145.872ZM71.6249 145.872V142.872H68.6249V145.872H71.6249ZM71.6249 148.144L72.2891 151.07L74.6249 150.539V148.144H71.6249ZM68.6649 148.816H65.6649V152.573L69.3291 151.742L68.6649 148.816ZM68.6649 145.872H71.6649V142.872H68.6649V145.872ZM67.3049 145.872L64.3806 145.202L63.54 148.872H67.3049V145.872ZM67.9609 143.008V140.008H65.5703L65.0366 142.338L67.9609 143.008ZM76.4569 143.008H79.4569V140.008H76.4569V143.008ZM76.4569 151.792L76.7357 154.779L79.4569 154.525V151.792H76.4569ZM68.0569 152.576L65.074 152.896L65.3898 155.838L68.3357 155.563L68.0569 152.576ZM67.7529 149.744L68.0365 152.731L73.7645 152.187L73.4809 149.2L73.1972 146.213L67.4692 146.757L67.7529 149.744ZM73.4809 149.2H76.4809V145.872H73.4809H70.4809V149.2H73.4809ZM73.4809 145.872V142.872H71.6249V145.872V148.872H73.4809V145.872ZM71.6249 145.872H68.6249V148.144H71.6249H74.6249V145.872H71.6249ZM71.6249 148.144L70.9607 145.218L68.0007 145.89L68.6649 148.816L69.3291 151.742L72.2891 151.07L71.6249 148.144ZM68.6649 148.816H71.6649V145.872H68.6649H65.6649V148.816H68.6649ZM68.6649 145.872V142.872H67.3049V145.872V148.872H68.6649V145.872ZM67.3049 145.872L70.2292 146.542L70.8852 143.678L67.9609 143.008L65.0366 142.338L64.3806 145.202L67.3049 145.872ZM67.9609 143.008V146.008H76.4569V143.008V140.008H67.9609V143.008ZM76.4569 143.008H73.4569V151.792H76.4569H79.4569V143.008H76.4569ZM76.4569 151.792L76.1781 148.805L67.7781 149.589L68.0569 152.576L68.3357 155.563L76.7357 154.779L76.4569 151.792ZM68.0569 152.576L71.0397 152.256L70.7357 149.424L67.7529 149.744L64.77 150.064L65.074 152.896L68.0569 152.576ZM81.6033 145.856H84.6033V142.856H81.6033V145.856ZM77.4913 145.856L74.5678 145.183L73.7217 148.856H77.4913V145.856ZM78.1473 143.008V140.008H75.7597L75.2238 142.335L78.1473 143.008ZM84.5633 143.008H87.5633V140.008H84.5633V143.008ZM84.5633 151.92L85.2124 154.849L87.5633 154.328V151.92H84.5633ZM81.6033 152.576H78.6033V156.314L82.2524 155.505L81.6033 152.576ZM81.6033 145.856V142.856H77.4913V145.856V148.856H81.6033V145.856ZM77.4913 145.856L80.4147 146.529L81.0707 143.681L78.1473 143.008L75.2238 142.335L74.5678 145.183L77.4913 145.856ZM78.1473 143.008V146.008H84.5633V143.008V140.008H78.1473V143.008ZM84.5633 143.008H81.5633V151.92H84.5633H87.5633V143.008H84.5633ZM84.5633 151.92L83.9141 148.991L80.9541 149.647L81.6033 152.576L82.2524 155.505L85.2124 154.849L84.5633 151.92ZM81.6033 152.576H84.6033V145.856H81.6033H78.6033V152.576H81.6033ZM85.2006 151.408L82.6584 149.815L81.0158 152.437L83.6869 153.998L85.2006 151.408ZM87.6966 147.424L88.82 144.642L86.489 143.701L85.1544 145.831L87.6966 147.424ZM88.5286 147.76L87.4052 150.542L92.7584 152.704L91.4507 147.08L88.5286 147.76ZM88.0486 145.696L90.9707 145.016L90.682 143.775L89.5882 143.121L88.0486 145.696ZM86.4966 144.768L83.9286 143.217L82.3709 145.796L84.9571 147.343L86.4966 144.768ZM87.9846 142.304L89.5145 139.723L86.9548 138.206L85.4166 140.753L87.9846 142.304ZM90.6566 143.888L93.5773 143.203L93.2855 141.959L92.1865 141.307L90.6566 143.888ZM92.5446 151.936L93.1667 154.871L96.1655 154.235L95.4653 151.251L92.5446 151.936ZM89.6006 152.56L86.6726 153.213L87.3189 156.11L90.2227 155.495L89.6006 152.56ZM89.1366 150.48L92.0647 149.827L90.4658 142.659L86.5888 148.896L89.1366 150.48ZM87.6646 152.848L86.1509 155.438L88.6713 156.911L90.2125 154.432L87.6646 152.848ZM85.2006 151.408L87.7429 153.001L90.2389 149.017L87.6966 147.424L85.1544 145.831L82.6584 149.815L85.2006 151.408ZM87.6966 147.424L86.5732 150.206L87.4052 150.542L88.5286 147.76L89.652 144.978L88.82 144.642L87.6966 147.424ZM88.5286 147.76L91.4507 147.08L90.9707 145.016L88.0486 145.696L85.1266 146.376L85.6066 148.44L88.5286 147.76ZM88.0486 145.696L89.5882 143.121L88.0362 142.193L86.4966 144.768L84.9571 147.343L86.5091 148.271L88.0486 145.696ZM86.4966 144.768L89.0647 146.319L90.5527 143.855L87.9846 142.304L85.4166 140.753L83.9286 143.217L86.4966 144.768ZM87.9846 142.304L86.4548 144.885L89.1268 146.469L90.6566 143.888L92.1865 141.307L89.5145 139.723L87.9846 142.304ZM90.6566 143.888L87.7359 144.573L89.6239 152.621L92.5446 151.936L95.4653 151.251L93.5773 143.203L90.6566 143.888ZM92.5446 151.936L91.9226 149.001L88.9786 149.625L89.6006 152.56L90.2227 155.495L93.1667 154.871L92.5446 151.936ZM89.6006 152.56L92.5287 151.907L92.0647 149.827L89.1366 150.48L86.2086 151.133L86.6726 153.213L89.6006 152.56ZM89.1366 150.48L86.5888 148.896L85.1168 151.264L87.6646 152.848L90.2125 154.432L91.6845 152.064L89.1366 150.48ZM87.6646 152.848L89.1783 150.258L86.7143 148.818L85.2006 151.408L83.6869 153.998L86.1509 155.438L87.6646 152.848Z" fill="#2461E5" mask="url(#path-1-inside-1_736_2532)"/>
<path d="M79.6898 38.1202C84.112 38.5442 83.915 44.3194 82.9714 47.525C82.3804 49.5311 80.7733 52.0853 78.7826 52.9229C78.0516 53.2279 77.2688 53.29 76.5119 53.4864C75.475 58.4758 73.1266 63.1291 69.5806 66.8V71.0552L74.8374 78.1593C78.7981 76.2411 82.9455 76.5048 87.1344 77.4199C90.1983 78.0869 97.4303 80.7496 99.364 83.1538C100.582 84.6739 99.9135 85.01 100.276 86.4266C100.365 86.7679 100.878 87.1712 101.08 87.5124C101.474 88.1638 101.458 88.7274 101.681 89.2238C102.195 90.3716 102.967 90.7387 102.946 92.3828C102.941 92.8637 102.547 93.8047 102.573 94.1201C102.599 94.4355 103.205 95.666 103.351 96.1624C105.134 102.269 105.658 109.342 106.363 115.675C107.016 121.518 108.042 128.368 107.934 134.185C107.923 134.671 108.281 135.266 107.436 135.441C106.7 135.596 106.456 135.214 106.332 134.573C105.528 130.395 105.943 125.256 105.233 120.97C104.372 113.307 103.278 105.671 102.661 97.9823C101.754 98.6286 102.412 99.0991 102.516 99.8126C102.64 100.671 102.469 101.7 102.106 102.48C101.935 102.842 101.344 103.478 101.308 103.716C101.235 104.228 101.811 105.495 101.718 106.539C101.624 107.522 100.847 108.344 100.805 108.716C100.759 109.145 101.277 110.189 101.178 111.125C101.09 111.978 100.302 112.94 100.266 113.302C100.23 113.664 100.707 114.703 100.644 115.582C100.567 116.704 99.8098 117.516 99.7217 118.167C99.6595 118.622 100.043 119.574 99.9498 120.416C99.8046 121.699 99.0426 122.728 98.4671 123.798C99.1411 126.926 101.007 130.209 101.298 133.394C101.588 136.579 98.8559 136.698 96.9326 135.069C95.3721 137.551 92.3964 138.073 92.1164 134.464C91.9713 132.582 92.2719 129.883 92.7022 128.032C92.8526 127.386 93.4177 126.124 93.4488 125.664C93.4799 125.204 92.9355 124.563 93.1014 123.441C93.2207 122.624 93.9205 121.916 93.9879 121.492C94.0501 121.104 93.6613 119.78 93.7443 118.958C93.8168 118.224 94.3923 117.335 94.4182 116.926C94.4493 116.415 93.8998 115.386 94.0139 114.243C94.102 113.338 94.9678 112.061 94.9678 111.684C94.9678 111.306 94.6256 110.887 94.5634 110.458C94.4234 109.481 94.5841 108.55 94.9781 107.656C95.1025 107.377 95.6002 106.731 95.6106 106.674C95.6417 106.508 95.1855 105.795 95.1233 105.448C94.9833 104.647 95.1129 103.752 95.4706 103.029C95.6624 102.641 96.326 102.026 96.3779 101.788C96.4245 101.571 96.0927 100.826 96.0513 100.48C95.875 98.9595 96.2794 97.6204 97.254 96.4519C96.72 95.5626 96.58 94.5389 96.7459 93.5151C96.8133 93.0964 97.2333 92.4449 97.2384 92.1347C97.2436 91.8089 96.8963 91.2402 96.8444 90.7852C96.7615 90.0252 96.8289 89.0376 96.9792 88.2931C90.3486 87.5589 83.8268 85.7752 77.6472 83.3037C78.0775 84.6273 78.6426 85.9096 79.0314 87.2435C79.218 87.8847 79.7313 89.3685 79.6432 89.9424C79.5032 90.8524 78.7567 90.7594 78.0153 90.6818C76.9681 90.5732 71.0166 88.7067 70.747 88.9704C70.8714 89.715 71.141 90.6249 70.3893 91.1058L57.1177 97.2171L56.9518 103.323L56.8584 135.183C56.2467 136 54.9973 135.731 55.0595 134.614C54.5722 123.038 55.7594 111.068 55.2099 99.5489C55.1736 98.8458 54.9921 98.1426 55.0492 97.4187C54.9714 97.2016 52.9858 96.2813 52.5918 96.0951C48.8851 94.301 45.0488 92.7344 41.285 91.0541C40.694 90.6301 41.0362 89.5702 41.145 88.9704L33.2339 90.7335C32.1245 90.5319 32.5133 89.4978 32.6999 88.7016C33.011 87.3573 33.6072 86.0699 34.0167 84.7566L35.8053 80.61C31.7616 81.7061 27.6142 82.4403 23.6742 83.8828C13.0724 87.7606 10.9572 93.8409 9.14794 104.316C7.93483 111.337 7.32828 118.989 6.54027 126.119C6.24477 128.797 6.20848 132.163 5.69006 134.718C5.48788 135.715 4.21255 135.803 4 134.857C4.89687 125.68 5.62267 116.415 6.82541 107.263C7.94002 98.7889 9.4901 89.6684 17.2302 84.7411C18.7958 83.7432 22.627 82.4558 23.4979 81.2821C25.8464 78.1127 23.9178 73.5732 23.7105 70.0315C23.5497 67.2912 23.7105 64.1994 24.3948 61.547C25.5249 57.1729 28.6925 53.745 30.1752 49.5001V49.164C29.8227 48.4247 29.4857 47.5923 29.2887 46.8012C28.4229 43.275 28.7288 38.7924 33.0265 38.0013C32.1245 30.0493 33.2546 21.7303 38.781 15.6293C39.2943 15.0605 40.9636 13.7576 41.2072 13.3285C41.5442 12.7235 41.7309 11.0432 42.0004 10.2108C44.691 1.93823 54.8262 -2.85466 62.6026 1.85551C66.1071 3.97534 67.5432 7.6256 67.709 11.5964C75.164 14.2023 78.964 21.8647 79.6794 29.3203C79.9594 32.2571 79.7365 35.2093 79.6794 38.1512L79.6898 38.1202ZM62.1153 9.94191C60.0882 6.50363 53.6183 5.86251 51.8401 9.87469C55.2462 9.26459 58.7196 9.20772 62.1153 9.94191ZM63.0588 20.3239L62.7892 20.417C60.9436 23.7777 57.2732 26.337 53.6701 27.6089C50.8136 28.6171 47.7135 28.9532 44.9503 30.2355C41.5287 31.8227 38.9314 35.0025 37.7442 38.5494C37.5109 39.2525 37.008 42.1531 36.5674 42.3651C35.2143 43.0113 34.9136 41.2431 34.136 40.6071C33.2702 39.8988 32.3992 40.0074 31.6994 40.8812C29.7553 43.3112 31.9171 50.6272 35.178 51.2994C35.9245 51.4545 36.951 50.9581 37.3605 51.5476C37.7027 52.0387 38.247 54.6704 38.5322 55.5029C41.6272 64.644 49.7146 73.0872 60.223 70.2693C67.455 68.3305 72.0327 61.4849 74.0805 54.6963C74.3138 53.9156 74.5315 52.1525 74.8996 51.5993C75.3921 50.8547 75.9883 51.3149 76.6467 51.3304C80.5348 51.439 82.4686 43.9679 80.9807 41.2017C80.2912 39.9195 78.8707 39.8006 77.8598 40.7984C77.471 41.181 77.1288 42.241 76.6208 42.3909C75.7757 42.6443 75.221 42.2306 75.1069 41.3982C74.8115 39.2835 74.8944 37.6756 74.2723 35.4885C72.3904 28.8757 67.989 27.6606 64.4378 22.6454C63.9297 21.9267 63.375 21.1202 63.0588 20.3136V20.3239ZM67.5224 68.7286C62.0271 73.3509 54.6655 74.1264 48.2371 70.9105C47.024 70.3055 46.0804 69.4162 44.9917 68.7544C44.8414 68.6614 44.7377 68.5528 44.5407 68.5993C44.8362 69.8609 44.6081 71.262 44.6755 72.5753C44.8829 76.4375 45.9197 79.4932 47.7601 82.8487C50.0982 87.1039 53.3332 91.0334 56.0964 95.0249C59.5905 89.4668 64.5985 84.2913 66.4752 77.8749C67.341 74.9071 67.3876 71.8153 67.5172 68.7389L67.5224 68.7286ZM33.7264 78.971L37.3035 78.1593C38.6773 75.9722 40.5281 74.0023 41.9486 71.867C42.2285 71.443 42.6018 70.9984 42.6485 70.4762C39.8231 73.4594 36.8629 76.3083 33.7264 78.971ZM77.2584 88.412C77.5021 88.0811 75.2884 82.704 74.8477 81.9853L69.2851 73.8524C69.0362 77.6577 67.4913 81.1581 65.6094 84.4102L59.0151 94.3476L68.7511 89.8339C69.3473 89.1566 67.6572 86.3801 70.2701 86.7007L77.2636 88.4172L77.2584 88.412ZM53.0584 94.208C48.9214 87.9415 43.4883 81.9233 42.7159 74.1212C39.3824 78.4488 36.3807 82.9263 34.9447 88.2776L42.5551 86.6903C43.3743 86.9333 43.0269 88.867 42.9751 89.565L43.115 89.7615L53.0636 94.208H53.0584ZM76.0401 79.9172C75.9831 80.1964 76.1801 80.2274 76.3512 80.3463C77.3102 80.9978 79.7779 81.9233 80.9496 82.3679C86.2582 84.3895 91.8468 85.62 97.4769 86.3749C99.4366 85.0565 97.2281 83.7225 96.0046 82.9935C91.5358 80.336 83.3188 77.6422 78.2071 79.0434C77.4191 79.2605 76.797 79.6587 76.0453 79.9223L76.0401 79.9172ZM98.6123 90.5681C99.3121 89.2651 100.919 89.0376 99.0892 87.6055C98.3893 88.4534 98.2597 89.4358 98.3427 90.5008L98.6123 90.5681ZM98.3479 95.423L101.215 93.3652C101.775 92.2381 101.365 91.3074 100.442 90.5732C99.281 91.9072 97.5391 93.4893 98.3479 95.423ZM97.5391 100.676C97.8346 100.883 99.3381 99.5851 99.6232 99.3266C100.619 98.4218 102.376 96.6742 101.184 95.3455C99.1825 96.4829 96.6682 97.9513 97.5339 100.676H97.5391ZM101.184 100.273C100.841 100.237 100.613 100.262 100.292 100.397C99.8357 100.593 97.4666 102.486 97.1296 102.904C96.523 103.665 96.0668 104.838 96.7874 105.66C98.4049 104.182 101.173 102.713 101.184 100.268V100.273ZM100.23 105.138C100.09 105.092 99.9446 105.117 99.8046 105.159C99.4936 105.252 96.8237 107.475 96.5386 107.837C95.9528 108.571 95.3669 109.864 96.1238 110.655L99.8928 107.542C100.463 106.86 100.515 105.95 100.23 105.138ZM99.6491 109.859C98.2857 111.074 95.5225 112.242 95.2529 114.238C95.1855 114.745 95.1647 115.417 95.5743 115.768C96.8704 114.564 99.0426 113.333 99.6698 111.632C99.7787 111.332 100.292 109.755 99.6491 109.853V109.859ZM99.2914 114.569C99.0581 114.507 99.0218 114.667 98.887 114.77C98.1975 115.298 97.2177 116.084 96.5904 116.658C95.5121 117.64 94.5634 118.633 95.1077 120.23C97.0622 119.041 99.8617 117.221 99.2966 114.569H99.2914ZM94.4286 124.408C96.0616 124.144 98.7885 121.921 98.6278 120.158C98.6123 120.008 98.576 119.718 98.4101 119.687C98.1094 119.625 95.4291 121.797 95.1025 122.185C94.5271 122.867 94.3093 123.503 94.4234 124.403L94.4286 124.408ZM97.2644 124.542L95.0351 125.757C94.8537 126.13 94.6982 126.517 94.5686 126.91C94.0087 128.658 93.511 133.063 93.7598 134.842C94.045 136.868 95.5795 134.237 96.0409 133.771C97.6636 132.138 97.7672 134.144 98.7419 134.454C99.1411 134.583 99.6284 134.588 99.8098 134.149L97.2592 124.537L97.2644 124.542Z" fill="#2461E5"/>
<path d="M65.542 125.979C64.6037 125.043 63.8623 123.234 63.7379 121.91C63.2298 116.43 64.1163 110.21 63.7327 104.652L64.0645 103.633L87.238 103.602C87.8135 103.752 88.1038 104.021 88.0831 104.646C87.6631 110.215 88.6222 116.564 88.0779 122.045C87.7824 125.012 85.4598 127.386 82.4685 127.639C78.1863 128.006 73.4169 127.365 69.0828 127.644C67.9008 127.541 66.3818 126.801 65.5524 125.974L65.542 125.979ZM86.1804 105.396H65.6301V109.507C65.6301 111.709 68.4348 113.746 70.5603 113.074C74.4485 112.743 79.1817 113.555 82.9662 113.043C84.3245 112.862 86.1804 111.342 86.1804 109.91V105.391V105.396ZM65.6301 113.353V122.05C65.6301 123.399 67.3202 125.369 68.7096 125.581C73.0591 125.617 78.1449 126.129 82.4633 125.762C84.7807 125.566 86.253 123.642 86.2997 121.388C86.2997 121.197 86.1701 120.954 86.1701 120.706C86.2012 118.255 86.1649 115.799 86.1701 113.353C85.1073 114.31 83.9097 114.879 82.4582 114.977C77.9945 115.287 73.168 114.734 68.6629 114.972C67.4031 114.848 66.4959 114.196 65.6198 113.353H65.6301Z" fill="#2461E5"/>
<path d="M24.3583 103.541L47.931 103.701L48.3302 104.787C47.9259 110.371 48.8538 116.684 48.3251 122.185C48.0658 124.878 45.8159 127.262 43.1201 127.645C38.6876 127.381 33.8507 127.996 29.4648 127.65C26.5046 127.417 24.2132 125.101 23.8555 122.19V104.249L24.3635 103.541H24.3583ZM46.4328 105.397H25.8151L25.644 105.593C25.8358 107.382 25.3071 109.062 26.0484 110.826C26.458 111.803 27.7488 113.002 28.822 113.183C31.4607 113.628 35.1053 112.914 37.8529 113.219C40.528 112.656 43.934 114.072 45.7329 111.374C45.9092 111.115 46.4328 109.885 46.4328 109.642V105.397ZM25.6181 113.354V121.647C25.6181 124.439 27.811 125.618 30.2787 125.763C33.69 125.969 38.9416 126.021 42.3217 125.763C43.7007 125.659 44.7168 125.261 45.5515 124.129C46.775 122.464 46.2617 119.357 46.3032 117.325C46.3084 116.973 46.438 116.642 46.4484 116.26C46.4743 115.293 46.4173 114.321 46.438 113.354C45.4063 114.331 44.4421 114.879 43.0008 114.977C38.4491 115.293 33.5292 114.729 28.936 114.972C28.3606 114.853 27.6814 114.719 27.1526 114.46C26.5357 114.16 26.2298 113.586 25.6233 113.359L25.6181 113.354Z" fill="#2461E5"/>
<path d="M20.4726 101.318L18.4634 101.414L20.1072 135.669L22.1164 135.573L20.4726 101.318Z" fill="#2461E5"/>
</svg>
