<svg width="50" height="60" viewBox="0 0 50 60" fill="none" xmlns="http://www.w3.org/2000/svg">
<g clip-path="url(#clip0_724_936)">
<path d="M25.392 27.2627C29.4841 19.097 42.7109 16.3316 47.5683 25.1809C54.012 36.9137 39.1064 51.2068 30.4408 57.2658C27.2128 59.5217 25.9167 61.1436 22.0468 58.9686C16.4734 55.8303 5.23403 45.2969 2.46277 39.4802C-6.80152 20.0354 15.0291 10.8505 25.392 27.2565V27.2627ZM11.2148 21.9432C7.74606 22.3037 4.48104 24.5781 3.59226 28.1017C1.59868 35.9878 9.11627 43.967 14.3934 48.7894C16.0043 50.256 23.812 56.9551 25.5093 56.5947C26.4721 56.3896 32.7183 51.5051 33.8725 50.4922C39.4829 45.5641 51.9073 31.445 42.9639 24.7086C38.5694 21.3964 33.5145 22.894 29.8483 26.4114C28.6262 27.5859 26.9289 30.7428 26.0339 31.5196C25.6266 31.8676 25.3488 32.0789 24.7748 31.9795C23.8428 31.8863 21.3802 26.9023 20.3186 25.7713C18.1522 23.4533 14.4366 21.6076 11.2148 21.9432Z" fill="#2461E5"/>
<path d="M32.8727 0.03125L34.7181 0.627832C35.2428 1.0877 35.1934 1.67807 35.1317 2.2995C35.0885 2.7283 32.3789 10.0426 32.132 10.3969C31.1075 11.851 29.0954 10.9002 29.2744 9.27206C29.404 8.10997 31.9654 0.298469 32.8727 0.0374644V0.03125Z" fill="#2461E5"/>
<path d="M15.9608 0.0557123C18.1581 -0.578156 19.1641 4.27529 19.59 6.0526C19.9295 7.46327 21.0836 10.4462 19.1703 11.0055C17.115 11.6145 16.757 8.24629 16.2941 6.81076C15.788 5.24473 13.8993 0.652294 15.9546 0.0557123H15.9608Z" fill="#2461E5"/>
<path d="M1.14166 6.85454C1.72801 6.70539 1.91934 6.9229 2.34521 7.20876C3.44384 7.94827 7.88774 12.7396 8.39385 13.9079C9.14684 15.6479 7.72109 15.6044 6.32003 15.1383C5.22757 14.7841 0.314601 9.96795 0.0615457 9.06065C-0.19151 8.15335 0.277568 7.07204 1.14166 6.85454Z" fill="#2461E5"/>
<path d="M41.9084 16.611C40.853 15.4179 44.2291 11.5463 45.0747 10.639C45.9202 9.7317 48.1792 6.84201 49.5556 7.84252C50.0247 8.28996 50.0555 8.9549 49.9568 9.5577C49.7778 10.6949 42.7293 17.5308 41.9084 16.6048V16.611Z" fill="#2461E5"/>
</g>
<defs>
<clipPath id="clip0_724_936">
<rect width="50" height="60" fill="white"/>
</clipPath>
</defs>
</svg>
