<svg width="112" height="83" viewBox="0 0 112 83" fill="none" xmlns="http://www.w3.org/2000/svg">
<g clip-path="url(#clip0_724_894)">
<path d="M1.67907 4.12421C4.90705 -0.128892 23.3255 1.5834 29.2418 1.4361C52.8571 0.819311 82.0588 -1.01265 105.304 0.75487C108.912 1.03105 111.58 1.06787 111.84 4.85148C112.42 13.4313 111.121 24.3403 111.081 33.2515C111.021 46.9038 112.45 63.6677 111.131 76.8689C110.421 83.9298 108.712 81.4994 103.905 81.527C95.9402 81.5823 87.8852 81.702 79.9302 81.7756C56.6847 81.9966 27.9327 84.0955 5.19687 82.2359C2.66845 82.0242 0.199995 81.5086 0.0600829 78.7653C0.529789 57.3156 -0.749411 35.6359 0.779633 14.3335C0.969514 11.673 0.150027 6.1495 1.68906 4.12421H1.67907ZM6.2662 6.4533V15.9261H35.388C36.1975 15.9261 39.3455 17.5463 39.1756 18.7615C39.1756 20.3541 37.047 20.9985 35.6279 21.1919L5.57663 20.9709V68.3166C12.942 61.1177 17.0794 50.8992 24.4149 43.691C28.8821 39.2998 34.2187 36.9247 39.4255 41.8682L60.8121 68.8966C63.1307 69.4121 68.5873 59.9485 70.7559 57.9693C77.8115 51.5252 81.869 51.7001 88.5148 57.8864C94.661 63.6032 99.348 70.6365 105.294 76.5191C107.113 71.2809 105.764 65.7666 105.854 60.4364C106.104 45.1087 108.272 23.2908 106.354 8.63508C106.264 7.95385 106.384 7.18056 105.674 6.72947L6.2662 6.4533ZM98.7784 77.1451C93.2219 70.121 86.8858 63.6032 79.9402 57.7299C70.0264 60.5009 70.0363 75.3775 59.0432 74.3005L32.7596 43.7738C29.8415 44.7589 28.4024 46.6921 26.5335 48.791C22.0963 53.7898 18.4386 60.0958 14.3512 65.3432C11.2131 69.3845 6.69594 72.938 4.87707 77.4489L98.7684 77.1359L98.7784 77.1451Z" fill="#2461E5"/>
<path d="M75.4928 14.711C86.4759 12.9895 93.5115 19.9031 91.2729 29.8822C89.5041 37.7808 76.5621 40.4137 70.2261 35.0375C63.2505 29.1181 65.8488 16.2207 75.4928 14.711ZM76.1724 19.765C69.5365 20.8881 70.1561 31.0421 75.6327 32.5887C89.4141 36.4828 91.243 17.2242 76.1724 19.765Z" fill="#2461E5"/>
</g>
<defs>
<clipPath id="clip0_724_894">
<rect width="112" height="83" fill="white"/>
</clipPath>
</defs>
</svg>
