<svg width="55" height="76" viewBox="0 0 55 76" fill="none" xmlns="http://www.w3.org/2000/svg">
<g clip-path="url(#clip0_725_979)">
<path d="M27.3643 68.8198C28.4328 69.9485 31.8495 70.0888 32.0246 70.2674C32.1574 70.4013 32.423 73.0732 32.9904 74.0298C35.0791 77.5626 41.5142 75.9492 42.6672 72.1677C42.9932 71.1027 42.7578 69.6552 43.2105 68.9155C43.5667 68.3415 45.2509 67.7868 45.9813 66.7409C48.2994 63.4377 44.2367 53.6109 45.4139 49.5616C45.6554 48.7262 46.8446 48.5476 47.4362 47.8717C60.5297 33.0262 43.8806 7.37193 25.4325 15.0625C19.2208 17.6515 14.9589 23.6841 13.486 30.501C12.1881 36.5208 14.3492 45.3145 18.4662 49.8421C19.7883 51.2961 23.2473 52.801 23.9294 54.2741C25.0764 56.7483 25.3541 62.9212 26.163 65.9375C26.2958 66.4349 27.159 68.603 27.3643 68.8134V68.8198ZM29.1028 60.6064C27.8593 58.1959 27.8412 53.528 26.5795 51.4746C25.8611 50.3013 23.8087 49.5233 22.716 48.5413C13.981 40.6913 14.9831 25.0296 25.4144 19.5008C33.0629 15.4515 41.9488 18.7164 46.0719 26.4134C48.9695 31.8274 49.5067 37.4837 46.4582 42.9997C45.1664 45.34 44.2126 45.4357 42.9207 46.9151C40.4276 49.7656 42.8302 55.1924 42.9449 58.7379L37.5179 59.3692L35.6949 45.9841C40.6691 47.0618 41.3029 36.8014 38.3268 35.8767C35.0127 34.85 34.0408 37.2414 32.3807 39.6008C29.1994 33.6257 23.2775 38.8037 26.9659 44.0519C28.4328 46.1372 31.0104 45.78 32.097 46.9215C33.1172 47.9865 33.0568 52.2335 33.3225 53.917C33.4794 54.899 34.7652 59.7837 34.4936 60.0133L29.1089 60.6L29.1028 60.6064ZM29.0545 63.8458C33.9503 63.6354 38.4959 61.9136 43.5425 62.5704C44.0737 65.4719 40.4457 65.9375 38.3751 66.3583C37.1678 66.607 34.8437 66.9514 33.6062 67.0534C31.1794 67.2639 28.801 66.9833 29.0545 63.8458ZM35.0912 69.585H39.6187C40.7113 69.7253 39.4557 73.5387 36.6849 72.697C35.6043 72.3654 34.8195 70.803 35.0912 69.585Z" fill="#2461E5"/>
<path d="M30.5577 0.0830559C27.6843 -0.777827 28.2759 5.49705 28.4207 7.44201C28.6562 10.5221 31.1795 10.3244 31.4813 8.06695C31.6564 6.72142 31.8314 0.46567 30.5577 0.0830559Z" fill="#2461E5"/>
<path d="M54.1007 7.729C52.4467 7.2571 49.5672 11.4786 49.2291 12.7986C49.0058 13.685 49.863 14.7946 50.4848 15.3749C51.7162 13.6468 54.0645 13.1239 54.7466 10.9557C55.0605 9.94816 55.302 8.06697 54.1007 7.729Z" fill="#2461E5"/>
<path d="M7.92018 30.6792C7.97451 29.5696 8.16768 27.9371 6.95431 27.5672C5.86772 27.2356 0.428683 27.1464 0.0785565 28.46C-0.796759 31.725 6.1454 30.8258 7.92018 30.6792Z" fill="#2461E5"/>
<path d="M10.5462 9.06818C9.7735 8.93427 8.38507 10.3946 8.55409 11.1789C9.62862 12.3268 12.7798 16.3315 14.2587 16.019C15.0858 15.2602 15.291 15.241 14.9107 14.0613C14.5304 12.8816 11.7716 9.27862 10.5462 9.06181V9.06818Z" fill="#2461E5"/>
</g>
<defs>
<clipPath id="clip0_725_979">
<rect width="55" height="76" fill="white" transform="matrix(-1 0 0 1 55 0)"/>
</clipPath>
</defs>
</svg>
