<svg width="48" height="67" viewBox="0 0 48 67" fill="none" xmlns="http://www.w3.org/2000/svg">
<g clip-path="url(#clip0_724_874)">
<path d="M24.1188 60.67C23.1863 61.665 20.2044 61.7887 20.0516 61.9461C19.9357 62.0642 19.7039 64.4197 19.2087 65.263C17.3858 68.3774 11.7698 66.9551 10.7635 63.6214C10.479 62.6826 10.6845 61.4064 10.2893 60.7543C9.97851 60.2484 8.50864 59.7593 7.87117 58.8373C5.84812 55.9252 9.39372 47.2621 8.36639 43.6923C8.15566 42.9559 7.11779 42.7985 6.60149 42.2025C-4.82557 29.1151 9.70456 6.49882 25.8047 13.2787C31.2258 15.5611 34.9453 20.8793 36.2307 26.8889C37.3634 32.1958 35.4774 39.9482 31.8843 43.9397C30.7306 45.2214 27.7118 46.5482 27.1165 47.8468C26.1155 50.028 25.8731 55.4699 25.1672 58.129C25.0513 58.5675 24.2979 60.4789 24.1188 60.6644V60.67ZM22.6015 53.4292C23.6868 51.3042 23.7026 47.189 24.8037 45.3788C25.4306 44.3444 27.2218 43.6586 28.1754 42.7928C35.7987 35.8725 34.9242 22.0654 25.8205 17.1914C19.1455 13.6216 11.3904 16.4999 7.79214 23.2854C5.26333 28.0582 4.79445 33.0447 7.45497 37.9075C8.5824 39.9707 9.4148 40.055 10.5422 41.3593C12.7181 43.8722 10.6213 48.6563 10.5212 51.782L15.2574 52.3386L16.8484 40.5385C12.5073 41.4886 11.9541 32.4432 14.5514 31.628C17.4438 30.7229 18.292 32.8311 19.7408 34.9111C22.5172 29.6436 27.6855 34.2084 24.4665 38.8351C23.1863 40.6734 20.9367 40.3586 19.9884 41.3649C19.098 42.3037 19.1507 46.0478 18.9189 47.532C18.7819 48.3977 17.6598 52.704 17.8969 52.9064L22.5962 53.4236L22.6015 53.4292ZM22.6436 56.285C18.371 56.0995 14.4039 54.5816 9.99959 55.1607C9.53597 57.7186 12.7023 58.129 14.5093 58.5C15.563 58.7192 17.5913 59.0228 18.6713 59.1128C20.7892 59.2983 22.8649 59.0509 22.6436 56.285ZM17.3753 61.3446H13.424C12.4704 61.4683 13.5663 64.8301 15.9844 64.088C16.9275 63.7957 17.6124 62.4184 17.3753 61.3446Z" fill="#2461E5"/>
<path d="M21.3317 0.0730212C23.8394 -0.685915 23.3231 4.84589 23.1967 6.56052C22.9912 9.27582 20.7891 9.10155 20.5257 7.11145C20.3729 5.92526 20.2201 0.410326 21.3317 0.0730212Z" fill="#2461E5"/>
<path d="M0.785013 6.81353C2.22854 6.39752 4.74155 10.1191 5.03658 11.2828C5.23151 12.0642 4.4834 13.0424 3.94076 13.554C2.86601 12.0305 0.816624 11.5695 0.221299 9.65813C-0.0526553 8.7699 -0.26339 7.11148 0.785013 6.81353Z" fill="#2461E5"/>
<path d="M41.0878 27.0461C41.0404 26.0679 40.8718 24.6287 41.9307 24.3026C42.879 24.0103 47.6258 23.9316 47.9314 25.0897C48.6953 27.968 42.6367 27.1754 41.0878 27.0461Z" fill="#2461E5"/>
<path d="M38.7963 7.99392C39.4706 7.87586 40.6824 9.16324 40.5348 9.85472C39.5971 10.8666 36.847 14.3971 35.5562 14.1216C34.8345 13.4526 34.6554 13.4358 34.9873 12.3957C35.3192 11.3557 37.7268 8.17944 38.7963 7.9883V7.99392Z" fill="#2461E5"/>
</g>
<defs>
<clipPath id="clip0_724_874">
<rect width="48" height="67" fill="white"/>
</clipPath>
</defs>
</svg>
