<svg width="127" height="185" viewBox="0 0 127 185" fill="none" xmlns="http://www.w3.org/2000/svg">
<g clip-path="url(#clip0_735_2454)">
<path d="M102.805 153.374C103.361 151.707 103.361 152.818 103.958 151.429C104.569 150.005 104.279 148.336 104.497 146.798C104.715 145.259 104.237 144.559 104.351 143.124C104.406 142.45 104.841 141.65 104.838 141.112C104.838 140.666 104.533 140.044 104.533 139.496C104.533 138.541 105.091 137.47 105.124 136.699C105.156 135.929 104.903 135.084 105.004 134.197C105.069 133.629 105.53 132.765 105.566 132.416C105.608 132.007 105.166 130.707 105.241 129.765C105.299 129.059 105.709 128.198 105.748 127.614C105.793 126.927 105.423 126.03 105.494 125.101C105.543 124.466 105.887 123.802 105.887 123.215C105.887 122.37 105.433 121.641 105.494 120.563C105.543 119.712 106.099 118.77 106.125 118.164C106.144 117.69 105.784 116.987 105.748 116.413C105.686 115.422 106.118 114.91 106.144 114.261C106.164 113.771 105.845 113.049 105.874 112.242C105.91 111.255 106.466 110.207 106.508 109.594C106.55 108.982 106.073 108.211 106.134 107.333C106.19 106.563 106.804 105.734 106.833 105.266C106.849 105.021 106.378 103.999 106.388 103.424C106.407 102.392 107.135 101.825 107.246 101.251C107.324 100.851 106.917 99.8863 107.028 99.1445C107.119 98.5381 107.674 97.7641 107.908 97.1835C103.824 97.2738 98.9574 97.777 95.2536 95.6902C92.6869 94.2453 91.1988 90.8524 91.6017 87.9722L90.4516 87.6013C90.5393 89.7493 91.1371 91.9554 91.384 94.1099C91.488 95.0033 91.7609 97.0739 91.6277 97.8479C91.6212 97.8899 91.3093 98.5994 91.2768 98.6284C90.7407 99.0703 89.6588 98.5188 89.0513 98.3188C86.8647 97.6093 84.7854 96.5449 82.6378 95.7354C81.3902 95.2645 80.0581 94.9517 78.8332 94.4098L79.7137 98.2769C79.7267 99.4928 78.6286 99.4315 77.9008 99.8508C74.1677 102.002 70.1682 104.589 66.7048 107.266C66.0745 107.753 65.142 108.146 64.7587 108.991C65.4019 109.81 66.1232 110.459 66.1395 111.613V155.591L64.2518 155.442C64.1901 155.387 64.1413 154.31 64.1283 154.097C63.7645 147.882 64.1154 155.432 64.1056 149.175C64.0926 140.179 64.0894 131.11 64.0959 122.073C64.0959 119.602 64.6189 113.552 63.8197 111.52C62.9425 109.291 55.6518 104.463 53.3385 102.989C50.6808 101.293 47.8672 99.8282 45.2453 98.0705C44.3453 97.5222 46.1388 94.5969 45.9438 94.413C45.4077 94.413 44.7677 94.6195 44.2706 94.8033C41.9638 95.6515 39.5108 96.7094 37.2106 97.5512C35.9402 98.0156 32.688 99.6412 32.9966 97.1255C33.1721 94.3743 34.8778 90.7491 35.0013 88.1367C35.0402 87.2852 36.473 82.7247 36.1741 82.815C33.3898 83.6729 29.5592 85.192 26.8431 86.3434C23.6786 87.6851 16.3136 91.6842 13.5 93.5C12.9769 93.8387 13.794 96.5728 13.9869 97.2383C14.5717 99.6283 15.1337 102.047 15.5561 104.469C16.8265 111.733 17.655 119.509 18.2625 126.866C19.0358 136.28 22.7839 153.93 22.7839 154.486C22.7839 155.041 21.6724 155.041 21.6724 155.041C21.6724 155.041 21.1167 153.93 21.1167 153.374C21.1167 153.109 21.0989 152.598 20.7382 151.175C15.8843 132.124 17.1968 126.085 13.9349 106.585C13.4248 103.534 12.7425 98.9897 11.9075 96.1192C11.875 96.0063 11.8393 95.7451 11.6606 95.8579C8.92494 99.4509 7.4824 104.024 6.51745 108.401C3.18725 123.502 2.5537 139.721 1.93314 155.122L1.95913 155.155C1.88116 155.629 0.188441 155.813 0 155.252C0.162449 144.07 0.00974691 147.349 0.870726 136.196C1.46529 128.481 2.31977 120.263 3.69734 112.658C5.20811 104.324 6.96906 95.7967 14.289 90.6524C16.2579 89.2687 18.4769 88.4689 20.3938 87.2239C20.7025 87.024 21.427 86.882 21.544 86.5079C21.6057 81.2636 24.5 74.5 23.2529 70.9396C22.0059 67.3792 26.5 62.5 25.7547 58.7891C25.0093 55.0782 29.5 48 28.513 45.5342C27.5261 43.0685 31.9245 14.0589 45.4207 5.09594C51.8862 0.806344 56.9903 0.0129294 64.6709 2.83198e-05C74.9377 -0.016098 84.6197 6.85693 89.4184 15.5264C94.2009 24.1637 97.5 39.5 97.5 43.5C97.5 47.5 100.336 56.5 101.5 60C102.664 63.5 103.714 69.456 102.664 73.2102C101.615 76.9644 103.714 82.4763 103.714 82.4763C103.714 82.4763 104.591 83.0311 104.767 83.102C108.155 84.4825 116.083 87.4013 117.402 91.0975C117.879 92.4327 117.451 92.9455 117.067 94.1905C117.587 94.7775 118.091 95.3871 118.503 96.0547C122.405 102.412 123.9 112.645 124.793 120.06C126.782 136.554 126.713 138.761 126.707 155.381C126.158 155.681 125.472 155.649 124.92 155.397L124.8 151.058C124.475 139.086 123.971 127.017 122.11 115.161C121.239 109.614 120.069 103.328 117.496 98.3124C117.259 97.8479 116.239 95.9257 115.969 95.6676C115.846 95.5515 115.771 95.5096 115.595 95.5354C113.932 98.8994 113.383 102.786 112.769 106.479C111.918 111.607 111.32 116.796 110.683 121.928C110.537 123.118 110.173 124.44 110.069 125.605C109.988 126.533 110.16 127.565 110.053 128.488C109.971 129.168 109.458 129.984 109.422 130.52C109.387 131.055 109.686 131.942 109.669 132.519C109.65 133.39 109.088 134.397 109.058 135.064C109.026 135.803 109.413 136.79 109.302 137.825C109.224 138.554 108.724 139.257 108.672 139.731C108.607 140.315 108.951 141.234 108.935 141.86C108.912 142.685 108.399 143.269 108.298 143.885C108.191 144.546 108.483 145.124 108.405 145.756C108.275 146.798 106.476 148.778 106.112 150.036C105.706 151.429 105.738 150.111 105.481 151.62C104.62 156.648 104.472 156.153 103.917 157.264L102.249 156.153L102.805 153.374ZM69.5184 14.2976C66.968 12.8624 64.2486 11.7722 61.6299 10.4692L61.2498 4.54442C60.6195 6.46022 61.2628 8.61147 60.6844 10.5369L53.9526 14.317C48.1791 18.4679 42.4479 24.0701 40.427 31.0109C39.6473 33.6911 39.6278 36.4713 39.1599 39.2063L38.8383 39.2676C38.104 38.5257 37.3568 37.7968 36.616 37.0615C36.1611 36.6099 36.0312 36.01 35.1929 35.8262C32.1746 35.165 32.5223 39.7094 32.7595 41.5188C33.1461 44.4731 35.2157 50.1238 37.6069 52.017C37.9968 52.3266 39.6798 52.6621 39.9137 52.0589L40.1606 52.317C41.9508 59.5125 44.8619 65.776 50.9083 70.2591C54.9142 73.2295 58.2509 74.7067 63.4103 74.7486C69.0506 74.7938 75.8637 69.7269 79.3141 65.3341C82.2284 61.6218 84.1031 56.7517 85.1135 52.1783L86.3611 52.5169C88.8921 52.5427 91.2151 47.192 91.9104 45.1891C92.7551 42.7508 93.4666 39.5191 92.5049 37.0325C92.0566 35.8746 90.5101 35.565 89.5061 36.2487C88.7589 36.7583 87.8557 38.1548 87.1474 38.8225C87.0532 38.9096 86.2766 39.5385 86.1987 39.4546C85.9193 37.4711 85.8218 35.4682 85.3994 33.504C83.593 25.0796 76.8319 18.4163 69.5152 14.2976H69.5184ZM78.1997 69.456C77.93 69.5108 77.5824 69.8882 77.3712 70.0817C69.1285 77.632 60.6682 79.8832 50.8433 72.8554L47.2239 69.7076C47.2986 73.7423 46.5026 78.5835 48.0881 82.3957C50.4924 88.1721 55.9994 94.6485 59.635 99.925C60.6389 101.386 61.8736 102.744 62.5883 104.366C62.6663 104.424 63.1179 103.882 63.1991 103.779C64.8009 101.673 66.2662 99.1026 67.8159 96.8933C71.6595 91.4168 77.3614 84.9243 78.073 78.0868C78.3751 75.1969 77.9658 72.3297 78.2029 69.456H78.1997ZM80.357 73.1102H80.1068C80.3765 76.2516 80.1621 79.951 79.0249 82.9376C77.1925 87.7529 73.3977 92.3102 70.4834 96.5127C68.2383 99.7508 66.068 103.034 63.745 106.221L63.732 106.888L69.6126 102.647L77.6831 97.7963L76.5525 91.8909C76.8059 91.6554 78.8495 92.2424 79.2946 92.3747C80.0906 92.6133 81.0685 93.01 81.9198 93.3035C84.467 94.184 86.9687 95.2548 89.5029 96.1708C89.3177 95.0355 89.2722 93.8776 89.087 92.7391C88.6452 90.0073 87.9856 86.4692 87.2871 83.8148C86.2409 79.851 82.693 76.3838 80.3603 73.107L80.357 73.1102ZM45.1868 73.8649C45.0536 73.723 44.3908 74.4455 44.2998 74.5583C42.5844 76.6548 39.2314 80.7992 38.3964 83.1924C36.9929 87.2207 36.5543 91.778 35.5373 95.9192C37.6492 95.0516 39.7935 94.2744 41.9476 93.5132C42.175 93.4326 42.3959 93.539 42.5454 93.4874C44.5825 92.7811 46.5936 91.4361 48.8679 91.5071C49.0076 91.6425 48.2343 93.7518 48.1076 94.0937C47.8867 94.6904 47.1882 95.9289 47.1102 96.3933C46.9802 97.1739 48.8744 97.8834 49.4137 98.2092C51.5808 99.5186 53.8193 100.831 55.9084 102.221C57.8383 103.505 59.661 104.931 61.5617 106.253C61.6656 106.121 61.3082 105.637 61.2238 105.521C60.1614 104.034 59.1347 102.508 58.0853 101.012C53.358 94.2808 45.8463 86.3725 45.1868 77.9578C45.0861 76.6644 45.0049 75.1324 45.1868 73.8649ZM90.0357 85.3081L91.8519 85.8209L92.9241 84.0116C92.5732 83.56 89.3242 82.2474 89.1162 82.4376L90.0325 85.3081H90.0357ZM112 88.5C110.586 87.9722 107.5 85.8209 103.5 84.5C97 83.5 95.2536 84.6895 94.5 85.5C93.7464 86.3105 93.9377 91.2329 94.8344 92.4553C96.8163 95.1516 101.589 95.2968 104.666 95.2903C104.978 95.2903 105.286 95.4612 105.686 95.429C106.086 95.3967 111.84 95.4903 111.84 95.4903C111.84 95.4903 114.9 94.2808 115.274 93.3358C115.274 93.3358 117.115 91.615 112 88.5ZM110.14 99.0219C110.482 98.5349 110.943 97.835 110.586 97.2383C110.03 96.3159 109.445 97.6834 109.201 98.1447C109.013 98.4962 107.915 100.625 109.026 100.119C109.097 100.086 110.059 99.138 110.144 99.0187L110.14 99.0219ZM111.209 104.621L112.86 97.9415C111.537 98.4994 111.667 100.657 111.407 101.857C111.174 102.941 110.654 103.205 110.959 104.434C111.005 104.618 110.858 104.66 111.209 104.624V104.621ZM110.196 100.967C108.955 101.37 107.691 102.87 107.912 104.244C109.007 103.476 110.023 102.36 110.196 100.967ZM109.686 104.621C109.305 104.179 107.223 107.811 107.655 108.401C108.435 107.943 108.659 107.308 109.052 106.601C109.101 106.511 109.273 106.508 109.341 106.353C109.578 105.814 109.738 105.211 109.686 104.621ZM110.702 106.888C110.436 106.775 110.215 107.495 110.205 107.588C110.147 108.056 110.241 108.456 110.326 108.901C110.728 108.385 110.534 107.517 110.706 106.885L110.702 106.888ZM107.528 113.065C108.617 111.852 109.266 110.455 109.179 108.782C108.233 109.581 107.434 111.42 107.34 112.62C107.333 112.713 107.346 113.107 107.528 113.065ZM109.052 113.316C108.162 113.455 106.862 116.609 107.275 117.096C107.554 117.164 107.554 116.935 107.681 116.806C108.652 115.816 108.964 114.687 109.052 113.316ZM109.179 117.225C108.912 117 107.778 118.957 107.671 119.193C107.356 119.873 107.08 120.615 107.148 121.383C108.769 120.638 108.828 118.731 109.179 117.225ZM107.148 126.298C108.133 124.879 108.825 123.395 108.925 121.634C108.282 122.363 107.648 123.34 107.307 124.247C107.103 124.795 106.58 125.904 107.148 126.295V126.298ZM106.641 130.962C107.938 129.942 108.75 128.065 108.542 126.424C107.19 127.491 106.664 129.291 106.641 130.962ZM108.292 130.962C108.016 130.897 108.009 131.11 107.889 131.255C106.914 132.449 106.375 133.945 106.515 135.496C106.732 135.741 107.749 134.071 107.843 133.855C108.243 132.945 108.34 131.939 108.288 130.958L108.292 130.962ZM106.134 140.038C107.369 139.131 108.032 137.509 107.908 136.006C106.615 136.78 105.874 138.57 106.134 140.038ZM107.655 140.541C106.32 141.112 105.771 142.814 105.751 144.195C107.073 143.495 107.512 141.928 107.655 140.541ZM107.148 144.953C106.895 144.669 105.624 146.804 106.008 147.22L106.735 146.369L107.148 144.953Z" fill="#2461E5"/>
<path d="M100.266 152.793C98.9862 154.165 96.7924 154.855 94.9448 154.994C89.441 155.413 83.4354 154.68 77.877 155.002C73.719 154.99 69.9188 151.708 69.7749 147.499C69.5454 140.759 69.8099 133.841 69.7866 127.051C69.7788 125.303 69.4676 123.369 69.7866 121.636C70.0083 120.435 71.1518 120.846 71.8598 120.815C80.242 120.447 89.1648 120.695 97.5237 120.85C98.5933 120.869 100.118 120.695 101.106 120.85C102.596 121.082 102.176 122.931 102.183 123.908C102.226 129.849 102.366 135.748 102.339 141.623C102.32 145.29 102.93 149.933 100.266 152.789V152.793ZM98.6983 131.942C101.192 129.667 100.379 125.923 100.305 122.939L100.091 122.725L71.6458 122.563C71.7703 125.628 70.6267 128.496 72.7972 131.062C73.9835 132.461 75.1737 133.008 77.0174 133.143C80.0708 133.368 83.5209 133.058 86.6054 133.05C89.2698 133.042 92.0431 133.271 94.6609 133.151C96.0573 133.085 97.6248 132.922 98.6983 131.946V131.942ZM71.8364 132.798C71.7431 132.721 71.5058 132.124 71.498 132.636C71.4163 136.783 71.463 141.212 71.6497 145.344C71.7858 148.293 71.7236 151.033 74.8898 152.549C77.5425 153.82 85.8703 153.293 89.1998 153.281C92.5877 153.273 98.1343 154.142 99.8186 150.278C100.515 148.685 100.289 147.305 100.316 145.631C100.383 141.55 100.204 137.434 100.316 133.341C100.324 133.101 100.355 132.918 100.468 132.705L98.5894 134.046C96.5201 135.147 94.7892 134.829 92.6499 134.837C87.4728 134.856 81.8017 135.19 76.7374 134.849C74.3997 134.69 73.5634 134.217 71.8364 132.798Z" fill="#2461E5"/>
<path d="M54.1169 152.793C52.8373 154.165 50.6435 154.855 48.7959 154.994C43.2921 155.413 37.2864 154.68 31.7281 155.002C27.5701 154.99 23.7699 151.708 23.626 147.499C23.3965 140.759 23.661 133.841 23.6376 127.051C23.6299 125.303 23.3187 123.369 23.6376 121.636C23.8594 120.435 25.0029 120.846 25.7108 120.815C34.093 120.447 43.0159 120.695 51.3747 120.85C52.4444 120.869 53.9691 120.695 54.9571 120.85C56.4468 121.082 56.0268 122.931 56.0345 123.908C56.0773 129.849 56.2174 135.748 56.1901 141.623C56.1707 145.29 56.7814 149.933 54.1169 152.789V152.793ZM52.5494 131.942C55.0427 129.667 54.2298 125.923 54.1558 122.939L53.9419 122.725L25.4969 122.563C25.6214 125.628 24.4778 128.496 26.6482 131.062C27.8346 132.461 29.0248 133.008 30.8685 133.143C33.9219 133.368 37.372 133.058 40.4565 133.05C43.1209 133.042 45.8942 133.271 48.512 133.151C49.9083 133.085 51.4759 132.922 52.5494 131.946V131.942ZM25.6875 132.798C25.5941 132.721 25.3569 132.124 25.3491 132.636C25.2674 136.783 25.3141 141.212 25.5008 145.344C25.6369 148.293 25.5747 151.033 28.7409 152.549C31.3936 153.82 39.7214 153.293 43.0509 153.281C46.4388 153.273 51.9854 154.142 53.6696 150.278C54.3659 148.685 54.1403 147.305 54.1675 145.631C54.2336 141.55 54.0547 137.434 54.1675 133.341C54.1753 133.101 54.2064 132.918 54.3192 132.705L52.4405 134.046C50.3712 135.147 48.6403 134.829 46.501 134.837C41.3239 134.856 35.6528 135.19 30.5884 134.849C28.2508 134.69 27.4145 134.217 25.6875 132.798Z" fill="#2461E5"/>
</g>
<mask id="path-4-inside-1_735_2454" fill="white">
<path d="M21.9617 166.01H16.8097V163.162H24.9377V172.042L21.9617 172.698V166.01ZM16.8737 167.018H19.8177V172.042L16.8737 172.698V167.018ZM29.8442 166.026H25.8122L26.4682 163.178H32.4842L34.0522 162.81L34.7242 165.562L32.8042 166.026V172.09L29.8442 172.746V166.026ZM36.2626 166.026H35.1266L35.7826 163.178H44.5186L44.8066 171.482L40.9826 172.682L40.0546 170.01L41.7666 169.466L41.6706 166.026H39.2386V172.09L36.2626 172.746V166.026ZM47.0323 165.69L45.8003 164.954L47.2723 162.49L49.9763 164.09V172.106L47.0323 172.762V165.69ZM54.1532 170.458L56.1852 169.818V165.994H51.3372V161.162H54.2812V163.13H59.1612V171.866L55.0812 173.146L54.1532 170.458ZM63.6522 170.362L65.2682 169.866V166.026H64.1002L64.7562 163.162H73.6202V172.074L70.6442 172.73V166.026H68.2282V171.946L64.5642 173.05L63.6522 170.362ZM75.7458 166.026H74.7378L75.3938 163.178L83.6178 163.162L83.9378 171.978L81.0098 172.714L80.7858 166.026H78.7218V172.09L75.7458 172.746V166.026ZM84.5741 170.362L86.1901 169.866V166.026H85.0221L85.6781 163.162H94.5421V172.074L91.5661 172.73V166.026H89.1501V171.946L85.4861 173.05L84.5741 170.362ZM96.0757 169.898L101.804 169.354V166.026H99.9477V168.298L96.9877 168.97V166.026H95.6277L96.2837 163.162H104.78V171.946L96.3797 172.73L96.0757 169.898ZM106.95 166.026H105.814L106.47 163.178H115.206L115.494 171.482L111.67 172.682L110.742 170.01L112.454 169.466L112.358 166.026H109.926V172.09L106.95 172.746V166.026Z"/>
</mask>
<path d="M21.9617 167.885C21.9617 166.635 21.9617 165.385 21.9617 164.135C21.3826 163.926 20.8036 163.729 20.2245 163.541C19.0862 163.172 17.948 162.844 16.8097 162.556L20.2634 166.01C20.5037 165.06 20.7159 164.111 20.9002 163.162L16.8097 167.252C19.519 167.778 22.2284 168.076 24.9377 168.146L19.9537 163.162C19.943 163.576 19.9377 163.991 19.9377 164.406C19.9377 166.951 20.139 169.496 20.5415 172.042L23.9914 167.749C23.0339 168.124 22.0834 168.531 21.1398 168.969L25.7797 172.698C25.4146 171.048 24.9648 169.397 24.4304 167.747C24.2429 167.168 24.045 166.589 23.8367 166.01C22.5867 166.01 21.3367 166.01 20.0867 166.01C19.8784 166.589 19.6804 167.168 19.4929 167.747C18.9586 169.397 18.5088 171.048 18.1437 172.698L17.3255 176.434L22.7836 176.426C23.8239 176.427 24.8574 176.397 25.884 176.335L28.6815 176.167L29.3338 172.042C29.7364 169.496 29.9377 166.951 29.9377 164.406C29.9377 163.991 29.9323 163.576 29.9217 163.162L29.7901 158.053L24.9377 158.178C22.2284 158.248 19.519 158.545 16.8097 159.071L12.1026 159.985L12.7192 163.162C12.9034 164.111 13.1157 165.06 13.356 166.01L14.3853 170.077L16.8097 169.464C17.948 169.175 19.0862 168.847 20.2245 168.479C20.8036 168.291 21.3826 168.093 21.9617 167.885ZM16.8737 162.018C16.8737 165.351 16.8737 168.684 16.8737 172.018C17.1514 172.018 17.4292 172.018 17.7069 172.018C18.4105 172.018 19.1141 172.018 19.8177 172.018L14.8177 167.018C14.8177 168.692 14.8177 170.367 14.8177 172.042L18.7302 167.161C17.7489 167.38 16.7676 167.599 15.7862 167.817L21.8737 172.698C21.8737 171.082 21.8737 169.467 21.8737 167.851C21.8737 167.573 21.8737 167.296 21.8737 167.018C18.5404 167.018 15.207 167.018 11.8737 167.018C11.8737 167.296 11.8737 167.573 11.8737 167.851C11.8737 169.467 11.8737 171.082 11.8737 172.698V178.935L17.9611 177.578C18.9425 177.359 19.9238 177.141 20.9051 176.922L24.8177 176.05V172.042C24.8177 170.367 24.8177 168.692 24.8177 167.018V162.018H19.8177C19.1141 162.018 18.4105 162.018 17.7069 162.018C17.4292 162.018 17.1514 162.018 16.8737 162.018ZM29.8442 167.901C29.8442 166.651 29.8442 165.401 29.8442 164.151C29.2574 163.942 28.6707 163.745 28.0839 163.557C27.3267 163.315 26.5694 163.09 25.8122 162.883L28.8746 166.731C29.3532 165.842 29.8037 164.946 30.2263 164.043L26.4682 167.034C28.4735 167.465 30.4789 167.774 32.4842 167.961L33.5772 167.835C34.1113 167.761 34.6434 167.679 35.1736 167.588L29.2843 163.974C29.4524 164.905 29.6467 165.83 29.8673 166.748L33.5497 160.702C33.4886 160.717 33.4275 160.731 33.3664 160.746C32.7875 160.886 32.2111 161.036 31.6372 161.197L27.7021 162.299L27.8364 166.026C27.9092 168.047 28.1057 170.068 28.4258 172.09L31.8568 167.815C30.9048 168.19 29.9594 168.595 29.0208 169.03L33.6498 172.746C33.2868 171.093 32.8412 169.439 32.3129 167.786C32.1254 167.199 31.9275 166.613 31.7192 166.026C30.4692 166.026 29.2192 166.026 27.9692 166.026C27.7609 166.613 27.5629 167.199 27.3754 167.786C26.8471 169.439 26.4015 171.093 26.0386 172.746L25.2266 176.484L30.6676 176.461C31.7023 176.459 32.7303 176.427 33.7515 176.364L36.5326 176.195L37.1826 172.09C37.5027 170.068 37.6991 168.047 37.772 166.026L33.9711 170.855C34.5551 170.736 35.1365 170.606 35.7155 170.466C35.7765 170.451 35.8376 170.437 35.8986 170.422L40.7839 169.221L39.5811 164.376C39.3536 163.459 39.0999 162.549 38.82 161.646L37.2952 156.723L32.9308 158.032C32.4156 158.186 31.9024 158.349 31.3912 158.521L32.4842 158.394C30.4789 158.582 28.4735 158.891 26.4682 159.321L22.7426 160.121L22.7101 162.312C22.6953 163.308 22.7085 164.311 22.7497 165.32L22.9247 169.949L25.8122 169.168C26.5694 168.961 27.3267 168.737 28.0839 168.495C28.6707 168.307 29.2574 168.109 29.8442 167.901ZM36.2626 167.901C36.2626 166.651 36.2626 165.401 36.2626 164.151C35.8839 164.059 35.5052 163.969 35.1266 163.881L37.2168 166.507C37.4326 166.066 37.6452 165.624 37.8547 165.181C38.0715 164.722 38.2849 164.263 38.4949 163.803L35.7826 165.961C38.6946 166.557 41.6066 167.033 44.5186 167.389L40.3103 163.324C40.0683 166.103 39.9349 168.879 39.9102 171.652L43.3397 166.807C42.0475 167.152 40.763 167.52 39.486 167.913L45.7042 171.042C45.6386 170.85 45.5726 170.658 45.506 170.466C45.2632 169.767 45.0132 169.071 44.7558 168.377L41.5617 174.753C42.1286 174.56 42.6939 174.361 43.2577 174.158L46.9199 172.84L46.6885 169.328C46.613 168.183 46.5188 167.038 46.406 165.894L45.9227 160.989L41.6706 161.288C40.8599 161.346 40.0492 161.412 39.2386 161.488L34.3195 161.947L34.7005 166.026C34.8894 168.047 35.1361 170.068 35.4408 172.09L38.421 168.381C37.462 168.749 36.5061 169.132 35.5534 169.528L39.5572 172.746C39.309 171.363 39.0337 169.981 38.7313 168.598C38.5438 167.741 38.3459 166.883 38.1376 166.026C36.8876 166.026 35.6376 166.026 34.3876 166.026C34.1792 166.883 33.9813 167.741 33.7938 168.598C33.4914 169.981 33.2161 171.363 32.9679 172.746L32.3626 176.153L36.9718 175.963C38.003 175.923 39.0311 175.868 40.0561 175.799L42.5023 175.634L43.0364 172.09C43.341 170.068 43.5878 168.047 43.7766 166.026L39.2386 170.564C40.0492 170.64 40.8599 170.706 41.6706 170.763L36.9351 166.158C36.8863 167.307 36.8562 168.455 36.8447 169.603L40.2755 164.773C39.6979 164.933 39.1219 165.097 38.5474 165.267L33.7463 166.682L35.3533 171.643C35.5814 172.347 35.8168 173.048 36.0595 173.747C36.1261 173.939 36.1933 174.13 36.261 174.322L37.8879 178.921L42.4791 177.451C43.7515 177.043 45.0163 176.612 46.2735 176.156L49.9776 174.814L49.7029 171.312C49.4862 168.548 49.1608 165.788 48.7268 163.032L48.0194 158.54L44.5186 158.967C41.6066 159.323 38.6946 159.798 35.7826 160.394L33.1097 160.941L33.0702 162.553C33.0578 163.059 33.0488 163.565 33.0431 164.072C33.0377 164.562 33.0354 165.053 33.0363 165.544L33.034 168.651L35.1266 168.171C35.5052 168.083 35.8839 167.993 36.2626 167.901ZM46.0707 167.299C46.7118 166.226 47.3528 165.153 47.9939 164.08C47.7352 163.683 47.4711 163.295 47.2017 162.915C47.1684 162.868 47.1351 162.822 47.1018 162.775L47.9788 166.255C48.8261 165.647 49.6283 165.012 50.3854 164.35L45.4256 165.611C46.154 166.436 46.9144 167.208 47.7069 167.925L45.5199 164.09C45.1575 165.866 44.9763 167.642 44.9763 169.418C44.9763 170.314 45.0224 171.21 45.1146 172.106L48.9189 167.36C47.9601 167.68 47.0139 168.056 46.0803 168.489L51.4094 172.762C50.9876 170.83 50.3515 168.899 49.5011 166.967C49.3136 166.542 49.1156 166.116 48.9073 165.69C47.6573 165.69 46.4073 165.69 45.1573 165.69C44.949 166.116 44.7511 166.542 44.5636 166.967C43.7132 168.899 43.077 170.83 42.6552 172.762L41.7233 177.074L47.9843 177.034C49.0134 177.03 50.0299 176.969 51.0337 176.851L54.3902 176.458L54.838 172.106C54.9302 171.21 54.9763 170.314 54.9763 169.418C54.9763 167.642 54.7951 165.866 54.4327 164.09L53.7568 160.777L52.2457 160.255C51.2355 159.905 50.1933 159.61 49.119 159.369L44.6756 158.372L44.1592 160.63C43.9349 161.611 43.7558 162.618 43.6218 163.652L43.1929 166.963L44.4989 167.132C44.5556 167.14 44.6125 167.147 44.6694 167.154C45.1312 167.211 45.5983 167.26 46.0707 167.299ZM53.5899 168.669C53.9654 169.862 54.3409 171.054 54.7165 172.246C55.4353 172.238 56.151 172.22 56.8636 172.192C56.8865 172.192 56.9094 172.191 56.9322 172.19L58.0399 172.145L58.672 169.818C59.0181 168.543 59.3285 167.268 59.6031 165.994L60.1552 163.431L56.1852 162.576C54.5692 162.228 52.9532 161.937 51.3372 161.704L55.6272 165.994C55.8597 164.383 56.035 162.772 56.1533 161.162L51.3372 165.978C52.3185 166.05 53.2999 166.101 54.2812 166.131L49.3124 161.162C49.2925 161.818 49.2822 162.474 49.2813 163.13L49.2743 168.123L54.2812 168.13C54.3127 168.13 54.3443 168.13 54.3759 168.13C55.971 168.13 57.5661 168.074 59.1612 167.962L54.3291 163.13C54.5336 166.042 54.9246 168.954 55.5022 171.866L58.0659 168.375C56.7905 169.071 55.5285 169.81 54.2799 170.592L57.6114 172.272C57.4625 172.049 57.3121 171.826 57.1604 171.603C56.7586 171.014 56.347 170.428 55.9255 169.846C54.744 170.254 53.5624 170.662 52.3808 171.07C52.4084 171.788 52.4459 172.503 52.4932 173.215C52.5111 173.483 52.5303 173.752 52.551 174.019L52.6927 175.855L55.8824 175.7C57.3538 175.628 58.8118 175.514 60.2565 175.357L62.1689 175.149L62.8202 171.866C63.3978 168.954 63.7888 166.042 63.9932 163.13L64.3071 158.659L59.1612 158.298C57.5661 158.186 55.971 158.13 54.3759 158.13C54.3443 158.13 54.3127 158.13 54.2812 158.13L59.2811 163.13C59.2802 162.474 59.2698 161.818 59.25 161.162L59.0952 156.047L54.2812 156.193C53.2999 156.223 52.3185 156.274 51.3372 156.346L46.1951 156.723L46.521 161.162C46.6393 162.772 46.8147 164.383 47.0472 165.994L47.7413 170.803L51.3372 170.284C52.9532 170.051 54.5692 169.76 56.1852 169.412L52.7673 165.994C53.0419 167.268 53.3523 168.543 53.6984 169.818L55.4381 167.446C55.4188 167.458 55.3996 167.471 55.3803 167.483C54.7804 167.869 54.1836 168.264 53.5899 168.669ZM63.102 168.569C63.4688 169.764 63.8356 170.959 64.2024 172.154C64.7806 172.118 65.3576 172.078 65.9334 172.033L67.0692 171.945L67.5351 169.866C67.6037 169.56 67.671 169.254 67.7369 168.948C67.947 167.974 68.144 167 68.3279 166.026L68.7804 163.629L65.2682 162.966C64.8789 162.893 64.4895 162.821 64.1002 162.752L67.2915 166.757C67.6802 165.841 68.056 164.922 68.4189 164.001L64.7562 166.919C67.7109 167.366 70.6655 167.692 73.6202 167.898L68.8843 163.162C68.7082 165.689 68.6202 168.217 68.6202 170.744C68.6202 171.187 68.6229 171.63 68.6283 172.074L72.5456 167.199C71.5563 167.43 70.57 167.674 69.5868 167.933L75.5562 172.73C75.4663 170.495 75.3076 168.26 75.0801 166.026L74.5876 161.188L70.6442 161.59C69.8389 161.672 69.0335 161.763 68.2282 161.863L63.6197 162.434L64.065 166.026C64.3097 167.999 64.6081 169.972 64.9601 171.946L67.2854 168.817C66.1297 169.403 64.9804 170.01 63.8377 170.639L66.9488 172.241C66.9087 172.173 66.8684 172.106 66.8281 172.039C66.3712 171.275 65.9044 170.516 65.4278 169.759C64.244 170.161 63.0603 170.563 61.8766 170.964C61.9587 171.854 62.0506 172.741 62.1524 173.625C62.1613 173.703 62.1704 173.781 62.1795 173.859L62.3954 175.7L65.2907 175.461C66.5906 175.354 67.884 175.225 69.171 175.075L70.9756 174.864L71.4963 171.946C71.8483 169.972 72.1466 167.999 72.3913 166.026L68.2282 170.189C69.0335 170.289 69.8389 170.38 70.6442 170.462L66.2083 166.026C65.9808 168.26 65.8221 170.495 65.7322 172.73L65.497 178.638L71.7016 177.527C72.7023 177.348 73.7001 177.155 74.6947 176.949L78.5623 176.146L78.6121 172.074C78.6175 171.63 78.6202 171.187 78.6202 170.744C78.6202 168.217 78.5322 165.689 78.3561 163.162L78.005 158.12L73.6202 158.426C70.6655 158.632 67.7109 158.958 64.7562 159.404L61.2737 159.93L61.0935 162.323C61.019 163.311 60.9575 164.301 60.9088 165.295L60.6741 169.903L64.1002 169.3C64.4895 169.23 64.8789 169.159 65.2682 169.086L62.2085 166.026C62.3924 167 62.5894 167.974 62.7994 168.948C62.8654 169.254 62.9327 169.56 63.0013 169.866L64.603 167.699C64.1014 167.985 63.6011 168.275 63.102 168.569ZM75.7458 167.901C75.7458 166.651 75.7458 165.401 75.7458 164.151C75.4098 164.064 75.0738 163.98 74.7378 163.897L76.8125 166.504C77.0326 166.068 77.2493 165.632 77.4626 165.195C77.6878 164.733 77.9092 164.271 78.1267 163.807L75.3993 165.982C78.1418 166.568 80.884 167.035 83.626 167.382L79.4007 163.315C79.1296 166.267 78.9958 169.215 78.9993 172.157L82.7331 167.185C81.7485 167.396 80.7678 167.623 79.791 167.865L86.0066 172.546C86.0036 172.448 86.0004 172.349 85.9971 172.251C85.9257 170.12 85.7822 167.992 85.5665 165.866L85.0679 160.952L80.7858 161.242C80.0978 161.289 79.4098 161.343 78.7218 161.405L73.7269 161.852L74.1009 166.026C74.282 168.047 74.528 170.068 74.839 172.09L77.886 168.298C76.9276 168.669 75.9728 169.057 75.0215 169.46L79.1107 172.746C78.8445 171.316 78.5458 169.885 78.2146 168.455C78.0271 167.645 77.8291 166.836 77.6208 166.026C76.3708 166.026 75.1208 166.026 73.8708 166.026C73.6625 166.836 73.4646 167.645 73.2771 168.455C72.9459 169.885 72.6472 171.316 72.381 172.746L71.7453 176.196L76.4701 176.032C77.5028 175.998 78.532 175.948 79.5576 175.882L82.046 175.721L82.6047 172.09C82.9156 170.068 83.1617 168.047 83.3428 166.026L78.7218 170.647C79.4098 170.708 80.0978 170.763 80.7858 170.809L76.0051 166.186C75.9322 168.322 75.9314 170.455 76.0027 172.585C76.006 172.684 76.0095 172.783 76.0131 172.881L76.2402 179.088L82.2286 177.563C83.2038 177.314 84.1752 177.05 85.1425 176.771L89.1491 175.613L88.8764 171.799C88.6665 168.864 88.3194 165.934 87.8349 163.009L87.0862 158.488L83.6096 158.942C80.869 159.3 78.1285 159.777 75.3884 160.373L72.6831 160.962L72.6609 162.548C72.6537 163.06 72.6505 163.573 72.651 164.087C72.6516 164.573 72.6557 165.06 72.6632 165.548L72.7025 168.651L74.7378 168.155C75.0738 168.072 75.4098 167.987 75.7458 167.901ZM84.0239 168.569C84.3907 169.764 84.7575 170.959 85.1242 172.154C85.7025 172.118 86.2795 172.078 86.8552 172.033L87.9911 171.945L88.457 169.866C88.5256 169.56 88.5928 169.254 88.6588 168.948C88.8689 167.974 89.0659 167 89.2498 166.026L89.7023 163.629L86.1901 162.966C85.8007 162.893 85.4114 162.821 85.0221 162.752L88.2134 166.757C88.6021 165.841 88.9779 164.922 89.3408 164.001L85.6781 166.919C88.6327 167.366 91.5874 167.692 94.5421 167.898L89.8061 163.162C89.6301 165.689 89.5421 168.217 89.5421 170.744C89.5421 171.187 89.5448 171.63 89.5502 172.074L93.4675 167.199C92.4782 167.43 91.4919 167.674 90.5087 167.933L96.478 172.73C96.3882 170.495 96.2295 168.26 96.002 166.026L95.5095 161.188L91.5661 161.59C90.7607 161.672 89.9554 161.763 89.1501 161.863L84.5415 162.434L84.9869 166.026C85.2316 167.999 85.53 169.972 85.882 171.946L88.2072 168.817C87.0515 169.403 85.9023 170.01 84.7596 170.639L87.8707 172.241C87.8305 172.173 87.7903 172.106 87.7499 172.039C87.293 171.275 86.8263 170.516 86.3496 169.759C85.1659 170.161 83.9822 170.563 82.7985 170.964C82.8805 171.854 82.9725 172.741 83.0742 173.625C83.0832 173.703 83.0923 173.781 83.1014 173.859L83.3172 175.7L86.2126 175.461C87.5125 175.354 88.8059 175.225 90.0929 175.075L91.8975 174.864L92.4181 171.946C92.7702 169.972 93.0685 167.999 93.3132 166.026L89.1501 170.189C89.9554 170.289 90.7607 170.38 91.5661 170.462L87.1301 166.026C86.9026 168.26 86.744 170.495 86.6541 172.73L86.4189 178.638L92.6234 177.527C93.6242 177.348 94.622 177.155 95.6166 176.949L99.4842 176.146L99.5339 172.074C99.5394 171.63 99.5421 171.187 99.5421 170.744C99.5421 168.217 99.454 165.689 99.278 163.162L98.9268 158.12L94.5421 158.426C91.5874 158.632 88.6327 158.958 85.6781 159.404L82.1956 159.93L82.0153 162.323C81.9409 163.311 81.8794 164.301 81.8307 165.295L81.596 169.903L85.0221 169.3C85.4114 169.23 85.8007 169.159 86.1901 169.086L83.1303 166.026C83.3143 167 83.5113 167.974 83.7213 168.948C83.7873 169.254 83.8546 169.56 83.9231 169.866L85.5249 167.699C85.0233 167.985 84.5229 168.275 84.0239 168.569ZM95.8984 168.031C96.0166 169.276 96.1348 170.52 96.253 171.764C97.1363 171.89 98.0187 172.005 98.9 172.109C99.9672 172.236 101.033 172.348 102.097 172.444L104.293 172.643L104.908 169.354C105.115 168.244 105.306 167.135 105.479 166.026L105.952 162.999L101.804 162.35C101.185 162.254 100.566 162.162 99.9477 162.076L96.6125 161.612L95.998 166.026C95.8926 166.783 95.7951 167.54 95.7055 168.298L99.0085 164.161C97.9953 164.268 96.9853 164.389 95.9784 164.524L101.546 168.97C101.635 167.988 101.71 167.007 101.772 166.026L102.054 161.561L96.9877 161.241C96.5344 161.213 96.081 161.187 95.6277 161.164L100.367 167.111C100.633 166.168 100.887 165.221 101.128 164.272L96.2837 168.132C97.1299 168.152 97.9762 168.162 98.8224 168.162C100.808 168.162 102.794 168.107 104.78 167.998L99.9434 163.162C100.104 166.09 100.384 169.018 100.782 171.946L104.408 167.966C101.644 168.608 98.8895 169.359 96.1454 170.219L98.8869 172.461C98.8607 172.381 98.8345 172.302 98.8081 172.222C98.5291 171.379 98.2397 170.538 97.94 169.698C96.6971 169.831 95.4543 169.965 94.2114 170.098C94.0968 170.983 93.9927 171.866 93.8988 172.749C93.89 172.832 93.8812 172.916 93.8725 172.999L93.6753 174.893L96.614 175.24C99.4699 175.578 102.316 175.806 105.151 175.926L108.218 176.055L108.777 171.946C109.175 169.018 109.455 166.09 109.616 163.162L109.866 158.605L104.78 158.326C102.794 158.216 100.808 158.162 98.8224 158.162C97.9762 158.162 97.1299 158.172 96.2837 158.192L92.209 158.287L91.4389 162.052C91.2426 163.012 91.0592 163.975 90.8888 164.94L89.7842 171.179L95.6277 170.887C96.081 170.865 96.5344 170.839 96.9877 170.81L92.2033 166.026C92.2653 167.007 92.3405 167.988 92.4291 168.97L92.9707 175.038L97.9969 173.415C98.9634 173.102 99.9267 172.775 100.887 172.435L104.526 171.143L104.19 168.298C104.1 167.54 104.003 166.783 103.897 166.026L99.9477 169.976C100.566 169.889 101.185 169.798 101.804 169.701L98.1283 166.026C98.3017 167.135 98.4922 168.244 98.6997 169.354L101.51 166.264C100.483 166.559 99.4574 166.869 98.4332 167.194C97.5873 167.463 96.7424 167.742 95.8984 168.031ZM106.95 167.901C106.95 166.651 106.95 165.401 106.95 164.151C106.571 164.059 106.193 163.969 105.814 163.881L107.904 166.507C108.12 166.066 108.333 165.624 108.542 165.181C108.759 164.722 108.972 164.263 109.182 163.803L106.47 165.961C109.382 166.557 112.294 167.033 115.206 167.389L110.998 163.324C110.756 166.103 110.622 168.879 110.598 171.652L114.027 166.807C112.735 167.152 111.451 167.52 110.174 167.913L116.392 171.042C116.326 170.85 116.26 170.658 116.193 170.466C115.951 169.767 115.701 169.071 115.443 168.377L112.249 174.753C112.816 174.56 113.381 174.361 113.945 174.158L117.607 172.84L117.376 169.328C117.3 168.183 117.206 167.038 117.094 165.894L116.61 160.989L112.358 161.288C111.547 161.346 110.737 161.412 109.926 161.488L105.007 161.947L105.388 166.026C105.577 168.047 105.824 170.068 106.128 172.09L109.109 168.381C108.15 168.749 107.194 169.132 106.241 169.528L110.245 172.746C109.996 171.363 109.721 169.981 109.419 168.598C109.231 167.741 109.033 166.883 108.825 166.026C107.575 166.026 106.325 166.026 105.075 166.026C104.867 166.883 104.669 167.741 104.481 168.598C104.179 169.981 103.904 171.363 103.655 172.746L103.05 176.153L107.659 175.963C108.691 175.923 109.719 175.868 110.744 175.799L113.19 175.634L113.724 172.09C114.029 170.068 114.275 168.047 114.464 166.026L109.926 170.564C110.737 170.64 111.547 170.706 112.358 170.763L107.623 166.158C107.574 167.307 107.544 168.455 107.532 169.603L110.963 164.773C110.385 164.933 109.809 165.097 109.235 165.267L104.434 166.682L106.041 171.643C106.269 172.347 106.504 173.048 106.747 173.747C106.814 173.939 106.881 174.13 106.948 174.322L108.575 178.921L113.167 177.451C114.439 177.043 115.704 176.612 116.961 176.156L120.665 174.814L120.39 171.312C120.174 168.548 119.848 165.788 119.414 163.032L118.707 158.54L115.206 158.967C112.294 159.323 109.382 159.798 106.47 160.394L103.797 160.941L103.758 162.553C103.745 163.059 103.736 163.565 103.731 164.072C103.725 164.562 103.723 165.053 103.724 165.544L103.722 168.651L105.814 168.171C106.193 168.083 106.571 167.993 106.95 167.901Z" fill="#2461E5" mask="url(#path-4-inside-1_735_2454)"/>
<defs>
<clipPath id="clip0_735_2454">
<rect width="126.7" height="170.045" fill="white"/>
</clipPath>
</defs>
</svg>
