<svg width="59" height="57" viewBox="0 0 59 57" fill="none" xmlns="http://www.w3.org/2000/svg">
<g clip-path="url(#clip0_724_884)">
<path d="M19.3597 0.180516C30.8992 -0.240209 42.4718 0.235156 54.0168 0.0275251C60.0101 0.568457 58.5201 8.19068 58.6856 12.3706C58.8898 17.4138 58.6856 21.5446 58.658 26.5277C58.6139 34.0516 59.4196 43.3622 58.7022 50.6074C58.4097 53.5306 56.6879 56.6614 53.465 56.8964C38.4321 56.3773 23.0572 57.7542 8.16229 56.3555C6.0652 56.1588 3.77496 56.6778 1.85998 55.4922C-0.0549925 54.3065 0.783844 50.4325 0.761769 48.4327C0.673471 39.368 0.701064 30.4454 0.563098 21.5501C0.480318 16.25 -0.347481 10.5675 0.165754 5.22375C0.645878 0.24062 2.90853 1.54104 6.55084 1.15856C10.7505 0.721448 15.1489 0.333507 19.3597 0.180516ZM2.94716 54.1426H53.9948C54.0941 54.1426 55.551 53.2574 55.6724 53.0716C56.2574 46.8646 55.7607 40.4608 55.9042 34.1773C56.1084 25.4076 57.1846 15.8675 56.4947 6.85201C56.423 5.87396 56.0532 3.00538 55.0488 2.80322C54.3093 2.93435 53.6857 3.3059 52.9021 3.34415C39.7897 4.02714 26.6167 2.75404 13.1677 3.34415C10.2208 3.46982 6.52877 2.93981 3.75288 3.31136C3.11272 3.39879 2.68226 3.56271 2.44496 4.19652L2.93612 54.1371L2.94716 54.1426Z" fill="#2461E5"/>
<path d="M12.9192 46.4548C12.6377 46.1925 12.9137 44.7664 13.151 44.2965C13.438 43.7228 14.6079 43.0453 15.0991 42.4005C17.4279 39.3462 15.9545 35.6798 17.8308 33.6309C19.4754 31.8332 21.6994 32.325 23.8958 32.2649C23.9565 31.1393 24.3042 30.041 24.7457 29.0084C27.5271 22.5554 33.6197 16.8674 39.4033 12.9225C42.2895 10.9554 46.7044 8.1415 47.5378 13.5563C47.8137 15.3539 46.9417 17.9712 46.2685 19.7196C44.3811 24.6099 38.9066 31.3469 34.9497 34.74C33.8184 35.7072 30.6396 36.7125 29.718 37.7561C28.8902 38.6905 29.0502 40.0346 28.6198 41.04C26.6331 45.6734 20.9102 48.3289 15.9269 47.5749C15.5626 47.5202 13.0351 46.564 12.9192 46.4548ZM44.8888 13.1629C42.742 13.2284 41.6328 15.2556 40.2035 16.4413C37.2068 18.9328 34.0557 21.2659 31.1418 23.8613C30.6286 25.4622 31.8427 25.0962 32.7698 25.9759C33.7853 26.9375 34.3702 27.9538 35.2367 28.9974C39.8116 25.2765 45.0764 19.3645 44.8943 13.1574L44.8888 13.1629ZM29.1496 26.8829C27.3339 28.2106 27.4554 30.7404 26.0867 32.5599C26.0922 33.2211 27.6375 34.8876 28.1121 34.9914C28.6419 35.1061 33.8404 31.4016 33.8404 30.9207L29.1496 26.8829ZM16.7436 44.8484C20.7005 46.4712 27.8141 41.335 26.4344 37.1715C25.6894 34.9204 23.5813 34.6472 21.4235 35.0132C18.8794 35.4394 19.8065 37.5594 19.4754 39.0948C19.0173 41.2094 18.0129 43.1217 16.7381 44.8538L16.7436 44.8484Z" fill="#2461E5"/>
</g>
<defs>
<clipPath id="clip0_724_884">
<rect width="59" height="57" fill="white"/>
</clipPath>
</defs>
</svg>
