<svg width="307" height="242" viewBox="0 0 307 242" fill="none" xmlns="http://www.w3.org/2000/svg">
<g clip-path="url(#clip0_724_915)">
<path d="M241.763 17.1391C242.993 18.2673 242.181 21.6133 241.265 23.4988C240.398 25.2916 237.787 27.3316 236.598 29.1167C235.747 30.3994 235.112 32.339 234.309 33.699C229.947 41.1405 224.934 49.4939 220.693 57.1286C218.885 60.3818 217.455 63.8283 215.222 66.842C217.399 66.7724 219.608 66.9579 221.785 66.842C232.051 66.2933 242.318 64.8174 252.624 64.3615C258.095 64.1142 263.509 64.0137 268.98 64.3383C270.289 65.2656 270.747 67.1665 269.606 68.4493C267.019 70.188 264.513 72.5448 262.015 74.3221C259.083 76.4085 255.187 78.4718 251.877 80.6277C243.908 85.8283 236.02 91.2066 227.609 95.7271L227.85 96.4689C230.999 98.509 233.827 101.098 236.92 103.176C238.872 104.482 241.547 104.838 242.503 107.117C242.141 110.703 242.012 112.148 237.924 112.341C231.489 112.642 228.26 112.256 225.199 111.236C216.981 108.501 186.391 104.76 164.517 115.401C160.059 117.573 153.223 121.668 146.339 129.689C145.841 129.426 141.117 127.031 136.016 129.303C130.305 131.845 129.501 137.818 129.461 138.143C130.112 133.236 130.578 123.229 124.103 115.401C119.468 109.799 113.363 107.658 102.213 104.281C91.7297 101.105 82.9978 99.8304 77.8245 98.8335C63.0035 95.9821 48.0459 93.8184 33.1606 91.2993C28.5817 90.5266 21.119 88.2933 27.1519 83.4482C41.5552 80.5582 56.1834 77.9849 70.8438 76.1226C73.2537 75.8135 76.0412 75.914 78.4671 75.4967C78.909 75.4194 79.15 75.3267 79.407 74.9558C75.6475 70.7366 73.2697 65.7524 70.185 61.0928C64.0317 51.8199 57.5169 42.7169 51.1226 33.5908C50.1265 32.0608 50.6647 29.8353 52.2873 28.993C53.2272 28.7844 56.5609 30.469 57.5892 30.979C63.0838 33.6758 68.1125 37.3464 73.5911 40.1282C77.8084 42.2687 82.3712 43.5824 86.6368 45.6302C92.2439 48.327 96.3006 51.4953 102.277 53.6667C103.113 53.9681 106.053 56.7036 107.009 55.2895L104.551 22.5947C105.008 19.3183 102.92 9.3267 109.153 10.9804C112.31 11.8227 121.107 20.5083 123.878 23.1588C129.919 28.9389 136.121 35.2213 141.302 41.8515C143.222 44.3011 144.877 46.9979 146.837 49.4166C147.078 49.7103 146.837 50.0812 147.688 49.8725C148.267 49.3703 149.664 43.1729 150.13 41.9287C153.552 32.8567 157.738 24.0397 161.007 14.8518C162.252 11.3513 163.465 4.64388 165.714 2.05519C168.55 -1.20579 171.338 -0.541227 172.374 3.56977C174.398 11.5754 175.426 20.7324 176.856 28.8616C177.836 34.4022 178.72 39.9505 179.861 45.4524C180.31 47.6316 180.158 50.7535 181.7 52.3608C183.604 51.2789 185.652 50.4598 187.58 49.4321C199.847 42.8792 205.165 37.9182 216.323 30.1599C225.006 24.1247 238.888 14.4809 241.763 17.116V17.1391ZM167.948 17.4019C166.968 17.2319 167.369 17.541 167.168 17.9119C165.337 21.3583 164.389 27.1307 162.879 31.1026C161.738 34.0931 159.979 37.1532 158.838 40.2132C156.388 46.7584 155.006 53.7749 152.251 60.2118C152.203 60.3355 150.99 62.0973 150.901 62.1823C150.797 62.2828 148.379 63.2178 148.242 63.2024C147.913 63.156 147.841 62.4142 147.624 62.2596C147.503 62.1669 146.965 62.4219 146.684 62.2519C144.459 60.8609 140.057 54.0299 137.92 51.5262C131.285 43.7447 124.111 36.0559 117.283 28.4212C116.745 27.8184 113.845 24.7197 113.162 25.3457C114.439 32.5863 114.206 39.8887 114.664 47.1757C114.945 51.7039 115.54 55.4286 115.556 60.1114C115.556 62.2519 116.624 63.411 114.632 65.5592C111.981 68.4261 106.286 63.5037 103.9 62.2287C101.161 60.7605 98.1642 59.81 95.4169 58.4809C90.0107 55.8768 84.8856 52.9326 79.6721 50.1662C75.4949 47.9484 71.3418 45.692 67.02 43.7524L72.4102 52.098C75.993 58.7745 81.4072 64.7169 85.713 71.0612C86.4841 72.1971 86.8135 73.8276 87.6489 74.9712C88.7013 76.4085 91.2156 77.3745 90.573 79.5922C90.1713 80.9986 85.1989 81.6246 83.6003 81.9337C74.8041 83.6491 65.3009 84.5223 56.3039 85.7665C54.7294 85.9828 53.2031 85.4419 51.6286 86.516C56.8983 88.842 62.8187 88.7802 68.4258 89.8156C74.3703 90.9129 80.2907 92.157 86.2753 93.2312C100.301 95.7503 103.426 94.4135 111.451 97.3731C113.66 98.1922 117.299 99.5522 121.428 102.288C130.979 108.601 130.505 113.848 135.582 116.614C144.949 121.714 152.604 107.164 177.836 103.609C185.58 102.52 195.316 102.411 211.262 102.241C215.407 102.195 218.853 102.203 221.223 102.226C219.729 98.0608 211.664 100.217 215.969 94.1044C226.557 87.5824 237.61 81.64 247.836 74.5849C249.114 73.7039 250.728 72.6144 251.893 71.6562C252.166 71.4321 252.6 71.6716 252.367 70.8293C246.069 71.8185 239.651 71.8803 233.305 72.5294C226.983 73.1785 220.468 74.5385 214.282 74.9712C210.145 75.2649 201.196 76.2308 204.024 69.9639C206.755 63.9133 212.346 58.3882 215.246 52.2449L223.111 36.535L206.297 47.6857C198.899 51.673 191.38 56.0622 184.504 60.575C181.965 62.2364 176.752 68.0784 174.527 63.2487C172.044 57.855 172.406 47.4461 171.338 41.411L167.964 17.4096L167.948 17.4019Z" fill="#2461E5"/>
<path d="M84.1864 122.163C84.4836 122.441 84.5639 123.407 85.5922 124.234C89.4641 127.348 100.22 133.275 101.385 137.927C102.036 140.523 100.992 143.537 99.7705 145.801C94.0349 156.457 86.0661 166.843 80.1217 177.731C79.7843 178.341 78.74 178.388 79.0051 179.995L84.4033 185.481C88.3074 188.441 91.2796 191.795 95.3684 194.6C95.6496 194.793 99.8589 199.283 100.028 199.576C101.144 201.508 100.301 203.672 99.0556 205.418C97.6016 207.458 90.9743 213.555 88.7411 214.614C84.7969 216.476 84.6603 214.405 82.5878 212.666C67.2045 199.785 52.3112 183.264 37.3616 169.547C35.9558 168.257 32.0678 163.141 30.0997 163.551L18.99 212.303L17.9135 211.979C17.785 212.404 17.7207 212.744 17.2468 212.945C14.6039 214.05 6.47444 213.478 3.51023 212.945C1.33327 212.551 0.570128 211.345 0.0078125 209.429C4.32157 189.693 10.2339 170.158 14.869 150.399C14.861 148.05 10.499 144.14 8.6755 142.293C7.59907 141.203 5.53457 139.789 4.53043 138.684C1.4859 135.323 3.00415 135.153 4.89192 132.51C6.57887 130.153 7.40627 129.674 9.24585 127.672C10.9649 125.795 12.676 123.816 13.3748 121.344L14.3067 121.661C14.5396 121.668 14.4352 121.066 14.7324 120.996C17.8653 120.262 20.5885 123.585 22.653 125.339C35.1043 135.941 46.6639 150.059 58.3761 161.611C59.2598 162.485 63.4611 166.758 64.1921 166.82C65.4211 166.912 66.7626 164.401 67.3973 163.412C69.5823 159.996 72.5143 155.229 74.3539 151.689C74.7475 150.924 75.6553 149.008 75.6633 148.251C75.7115 144.086 67.7829 141.28 65.871 138.143C65.7344 137.919 65.3167 135.207 65.3247 134.882C65.381 133.105 68.5701 129.527 69.6546 128.036C70.482 126.892 71.6146 125.045 72.5224 123.963C74.7475 121.305 76.8361 118.345 80.8687 120.478C81.5114 120.818 84.0418 122.039 84.1784 122.171L84.1864 122.163Z" fill="#2461E5"/>
<path d="M274.161 116.12C278.161 118.786 282.323 120.772 286.765 123.09C293.826 126.776 300.558 133.26 303.586 140.477C309.812 155.337 306.365 188.611 302.437 204.398C301.57 207.891 300.381 212.126 296.051 212.62C293.754 212.883 289.665 212.636 287.094 212.682C268.409 212.999 248.656 213.965 230.051 213.764C224.814 213.71 222.741 213.779 222.468 208.154C222.34 205.441 224.107 196.694 225.199 194.283C226.292 191.872 229.144 191.092 231.562 190.837C236.847 190.28 242.735 191.316 248.037 191.385C257.757 191.509 269.301 192.034 278.844 191.385C280.419 191.277 283.688 190.999 284.363 189.477C285.022 178.187 285.568 166.735 284.612 155.491C284.507 154.943 284.066 154.556 283.921 153.992C282.821 149.603 282.081 147.679 278.266 144.634C274.916 141.961 272.273 141.42 267.951 141.675C266.746 141.744 264.176 141.953 263.164 142.393C261.597 143.066 259.509 146.095 258.199 147.362C256.119 149.363 253.195 149.912 255.09 153.946C256.826 157.647 262.376 161.72 264.505 165.12C266.08 167.639 265.156 168.783 263.622 170.977C262.336 172.809 258.673 177.213 257.026 178.712C256.07 179.585 254.191 181.007 252.825 180.683C251.034 180.25 245.7 173.975 243.989 172.383C240.518 169.138 236.711 166.124 233.377 162.724C232.477 161.812 231.128 160.684 230.373 159.857C226.854 156.001 230.228 151.651 232.935 148.297C234.486 146.373 236.59 144.727 238.39 143.274C238.711 143.019 239.538 142.038 240.382 141.358C241.82 140.199 243.242 138.506 244.374 137.479C246.832 135.245 249.162 132.17 251.62 129.829C256.295 125.378 261.252 120.077 265.308 116.282C267.742 115.857 270.675 114.93 272.771 115.656C273.237 115.819 273.88 115.927 274.177 116.128L274.161 116.12Z" fill="#2461E5"/>
<path d="M192.545 196.632C185.178 208.849 168.984 221.901 155.753 228.183C154.05 228.995 150.524 230.687 148.797 230.185C146.941 229.652 141.575 222.851 141.31 221.113C140.868 218.176 142.86 215.062 145.318 213.455C157.882 205.256 173.008 198.317 179.113 183.519C181.371 178.048 185.395 164.54 175.884 163.775C171.667 163.435 164.268 163.698 159.858 163.93C155.448 164.162 150.829 165.46 146.387 165.398C136.627 165.259 129.895 161.48 129.332 151.489C128.995 145.469 129.453 134.504 130.24 128.561C130.529 126.398 130.955 123.894 133.068 122.619C135.92 120.896 143.688 120.927 145.624 123.894C147.399 126.622 145.182 137.193 146.539 140.67C147.206 141.559 150.098 142.223 151.263 142.308C156.026 142.633 162.758 142.293 167.771 142.308C175.209 142.332 189.42 140.825 195.87 143.761C206.683 148.691 203.614 164.293 201.63 173.396C199.775 181.896 197.091 189.113 192.561 196.617L192.545 196.632Z" fill="#2461E5"/>
<path d="M265.879 96.8089L266.626 97.883C264.208 97.9525 261.661 98.7716 259.179 99.0962C256.52 99.4439 248.399 100.41 246.399 99.1426C244.599 97.9989 244.953 94.7534 246.856 93.8415C248.286 93.1538 256.641 91.9174 258.585 91.8556C259.782 91.8169 262.971 92.0333 264.136 92.242C264.433 92.296 266.907 92.9529 267.027 93.0456C268.313 93.9652 267.823 97.1102 265.895 96.8166L265.879 96.8089Z" fill="#2461E5"/>
<path d="M211.922 5.1425L213.153 5.65898C211.156 6.97324 209.471 8.98542 207.563 10.5478C205.519 12.2214 199.221 17.2525 196.827 17.2241C194.671 17.1956 193.15 14.2792 194.242 12.5227C195.061 11.201 201.403 5.82125 203.005 4.75963C203.991 4.1055 206.798 2.63149 207.896 2.20227C208.176 2.09346 210.628 1.36163 210.781 1.37714C212.379 1.48396 213.728 4.38671 211.94 5.14067L211.922 5.1425Z" fill="#2461E5"/>
<path d="M76.7529 21.4032L75.522 21.9197C77.5191 23.234 79.2044 25.2462 81.1127 26.8085C83.1568 28.4822 89.4541 33.5132 91.8485 33.4849C94.0044 33.4563 95.5252 30.5399 94.433 28.7834C93.6143 27.4617 87.2723 22.082 85.67 21.0204C84.6838 20.3662 81.8772 18.8922 80.7795 18.463C80.4989 18.3542 78.0476 17.6224 77.8941 17.6379C76.2967 17.7447 74.9471 20.6474 76.7351 21.4014L76.7529 21.4032Z" fill="#2461E5"/>
</g>
<defs>
<clipPath id="clip0_724_915">
<rect width="307" height="242" fill="white"/>
</clipPath>
</defs>
</svg>
