<svg width="62" height="71" viewBox="0 0 62 71" fill="none" xmlns="http://www.w3.org/2000/svg">
<g clip-path="url(#clip0_726_1171)">
<path d="M0.371738 70.608C-0.676086 69.5844 0.787899 65.911 1.24864 64.4881C7.90716 43.7834 24.6872 28.705 38.4501 12.2254C41.393 8.70446 46.045 -0.217728 50.9423 0.00732422C53.2609 0.116219 60.2687 4.30508 61.3313 6.32328C62.1042 7.797 62.1339 9.99669 61.7921 11.6229C61.0935 14.926 47.2117 31.2894 44.0608 35.1153C34.4669 46.7671 25.2669 58.6876 11.9275 66.4482C9.91364 67.617 2.19986 72.3794 0.379173 70.6008L0.371738 70.608ZM10.954 51.3117L6.06418 62.2376C6.77016 65.0834 9.56436 62.949 11.1027 62.1577C12.3214 61.5261 18.2591 57.86 18.5935 57.0251C18.9279 56.1902 12.8416 52.9669 12.2322 51.8054L10.9615 51.3117H10.954ZM19.0988 52.8L22.3389 54.2519C33.7461 43.0647 42.9684 29.9101 53.5135 17.9461L53.729 17.2637L50.1917 14.4687L19.0988 52.8ZM16.3641 50.4769L47.9846 12.7699L44.4101 9.90957L12.7896 47.6165L16.3641 50.4769ZM55.9808 13.9315C60.5808 10.0548 57.3556 6.43217 52.8596 4.64628C48.75 3.0201 49.2405 4.806 46.6321 7.25252L55.9808 13.9315Z" fill="#2461E5"/>
</g>
<defs>
<clipPath id="clip0_726_1171">
<rect width="62" height="71" fill="white" transform="matrix(-1 0 0 -1 62 71)"/>
</clipPath>
</defs>
</svg>
