<svg width="65" height="75" viewBox="0 0 65 75" fill="none" xmlns="http://www.w3.org/2000/svg">
<g clip-path="url(#clip0_724_900)">
<path d="M64.6103 0.414205C65.7088 1.49549 64.174 5.37586 63.691 6.87893C56.7103 28.7501 39.1183 44.678 24.6894 62.086C21.6042 65.8053 16.727 75.2302 11.5928 74.9924C9.16202 74.8774 1.81514 70.4525 0.701033 68.3206C-0.109227 66.7639 -0.140391 64.4403 0.217994 62.7225C0.950344 59.2332 15.5039 41.9479 18.8072 37.9065C28.8654 25.5983 38.5106 13.0062 52.4953 4.80838C54.6067 3.57371 62.6937 -1.45696 64.6025 0.421874L64.6103 0.414205ZM53.516 20.7976L58.6424 9.25623C57.9023 6.25009 54.9729 8.5047 53.3601 9.34059C52.0824 10.0078 45.8575 13.8805 45.5069 14.7624C45.1563 15.6443 51.5371 19.0492 52.1759 20.2762L53.5082 20.7976H53.516ZM44.9771 19.2256L41.5802 17.6918C29.6211 29.5093 19.9525 43.405 8.89713 56.043L8.67119 56.7639L12.3797 59.7164L44.9771 19.2256ZM47.8441 21.6795L14.6936 61.5108L18.4411 64.5323L51.5916 24.701L47.8441 21.6795ZM6.31053 60.2838C1.48792 64.3789 4.8692 68.2056 9.58273 70.0921C13.8911 71.8099 13.3769 69.9234 16.1116 67.3391L6.31053 60.2838Z" fill="#2461E5"/>
</g>
<defs>
<clipPath id="clip0_724_900">
<rect width="65" height="75" fill="white"/>
</clipPath>
</defs>
</svg>
