<svg width="51" height="60" viewBox="0 0 51 60" fill="none" xmlns="http://www.w3.org/2000/svg">
<g clip-path="url(#clip0_724_934)">
<path d="M19.5629 27.2185C16.0013 26.8153 9.24244 24.2092 6.20877 22.2005C0.483442 18.4146 -4.42398 9.90927 6.56567 10.8277C2.03746 3.63671 8.14943 0.127063 14.9083 1.16502C21.221 2.13577 24.9536 5.80223 28.478 10.8277C29.5116 7.69894 33.3185 -1.88165 37.6683 0.328681C39.5644 2.32993 39.0141 7.45251 38.6795 10.0586C38.2631 13.2845 37.1776 16.473 36.1366 19.5347C39.7279 16.4208 52.7698 10.8203 50.7994 20.1918C49.4089 26.8228 36.7091 32.6622 30.8128 28.264C30.2923 28.376 28.9911 32.1918 28.9911 32.6025V42.0785L36.1738 36.2391C38.3152 34.4618 45.2599 33.5135 46.5686 36.4556C49.3718 42.7805 35.921 50.2403 30.5228 47.7164C29.6008 50.091 32.7014 60.0225 29.2439 60.0225C26.292 60.0225 25.8979 50.9646 25.9277 48.7468C23.7342 49.5907 21.972 50.076 19.5406 49.7773C16.1798 49.3592 10.4247 45.0356 9.01194 41.9217C4.81833 32.6921 14.9306 34.4992 20.3139 36.717C22.4702 37.6056 23.8532 39.2484 25.9277 40.0399C25.4444 35.7388 25.9797 31.4152 26.9538 27.2409C24.5819 27.0468 21.8828 27.5023 19.5629 27.2409V27.2185ZM30.4261 22.4917C33.0583 20.7892 35.2666 7.16129 35.6161 3.65911C32.0694 8.35606 29.3852 15.9653 28.9911 21.8421C28.939 22.656 28.9019 22.7008 29.7644 22.6037C30.0544 22.768 30.2031 22.6336 30.4336 22.4843L30.4261 22.4917ZM7.57689 5.71263C6.84822 6.52657 10.2611 8.89371 10.8783 9.30441C15.4213 12.366 21.3474 13.5608 24.909 18.2577C27.1397 19.221 24.5075 12.254 23.8086 11.1712C20.7228 6.40709 12.9379 3.88313 7.57689 5.71263ZM25.4221 22.1034C18.8714 17.4662 12.4843 13.4562 4.0153 14.4195C8.81862 20.5427 17.6743 22.8501 25.1767 23.119L25.4295 22.1034H25.4221ZM47.8549 19.0269C46.8214 18.0561 34.3595 23.1712 33.0732 25.165C37.7947 26.5988 46.286 24.1495 47.8549 19.0269ZM43.2672 38.4867C39.0216 38.2329 34.9395 40.6597 32.5601 44.1096C36.5902 44.6548 41.6314 42.3847 43.2672 38.4867ZM23.8904 45.6479C21.7415 40.7419 16.2021 38.9348 11.1459 39.002C14.2688 42.7879 18.6186 46.5664 23.8904 45.6479Z" fill="#2461E5"/>
</g>
<defs>
<clipPath id="clip0_724_934">
<rect width="51" height="60" fill="white"/>
</clipPath>
</defs>
</svg>
