<svg width="65" height="81" viewBox="0 0 65 81" fill="none" xmlns="http://www.w3.org/2000/svg">
<g clip-path="url(#clip0_725_960)">
<path d="M7.67472 0.460286C22.372 -0.905054 38.7224 1.31938 53.5865 0.322218C61.7693 1.34239 64.9697 -0.897384 65 9.04352C65.0531 28.841 64.3478 50.1111 63.3771 69.9163C63.2406 72.7773 64.3099 78.6606 61.466 80.256C58.6221 81.8515 46.382 80.3557 42.2944 80.2867C29.4248 80.0873 16.6235 80.0336 3.76152 79.8955C1.88076 79.7038 0.94038 77.533 0 76.0833L0.348851 4.88614C1.18306 1.16597 4.45922 0.759434 7.67472 0.460286ZM3.62502 5.03955L3.10932 76.3134L59.6459 77.5714C60.0023 75.7381 60.3739 73.1532 60.4725 71.2126C61.3067 54.3989 61.4584 36.8719 61.7314 20.0199C61.7693 17.8492 62.0044 6.00602 61.3371 5.14693C60.2602 4.47193 58.2733 4.28017 56.9006 4.13443C48.7557 3.27534 40.6639 4.33387 32.6555 4.33387C25.4661 4.33387 16.5628 3.09125 9.66923 3.69722C8.84261 3.77392 3.83736 4.70972 3.6326 5.03188L3.62502 5.03955Z" fill="#2461E5"/>
<path d="M38.0928 33.1363C42.1197 33.1363 48.5128 32.7451 52.2819 33.3511C53.3967 33.5275 54.4205 34.3099 54.9362 35.3147C55.0575 39.9477 55.3685 44.5499 55.4519 49.1675C55.4822 50.8627 55.0803 52.5195 55.0803 53.9002C55.0954 59.0624 57.9469 71.036 51.0457 71.8261C45.722 72.4397 40.019 71.4502 34.7483 71.3889C27.8472 71.3045 20.4834 71.9948 13.6656 71.2815C10.306 70.9286 7.993 70.5221 7.7124 66.5411C9.16089 57.3059 7.51523 46.4675 8.57695 37.3397C8.81962 35.2764 10.5335 33.5658 12.5508 33.3204C19.5127 32.4843 30.6607 33.1286 38.0852 33.1363H38.0928ZM52.0999 54.0613V37.3474C52.0999 37.24 52.4411 37.0943 52.4336 36.9255L51.8648 36.3042H38.1079L11.9214 36.9025C11.1706 37.4318 11.5801 48.9221 11.5422 50.9164C11.5118 52.7266 11.1099 54.6366 11.0872 56.3778C11.0872 56.8764 10.8369 58.257 11.7318 57.8658C15.0838 55.1352 18.2538 51.7141 22.1973 49.8579C24.0326 49.8502 28.8103 56.1553 30.5621 57.4363C32.7007 55.4343 38.5023 45.4244 40.3982 44.5499C41.3765 44.0974 42.2107 44.1894 43.1359 44.7264C45.9191 46.3602 48.9071 52.2741 52.1075 54.0536L52.0999 54.0613ZM11.1023 68.0292C20.5137 68.2286 29.9403 68.2363 39.3517 68.4357C42.4913 68.5048 46.723 69.3332 49.8172 69.2411C53.6925 69.1261 51.88 61.1795 51.88 58.7249L41.8315 48.1474L31.7073 60.7346C28.8785 62.0309 27.9306 58.9704 26.3683 57.444C25.117 56.2244 23.2969 55.419 22.5992 53.6241L11.1023 61.6704V68.0139V68.0292Z" fill="#2461E5"/>
<path d="M14.3409 11.0073C22.1749 9.66497 25.0264 14.2519 23.4717 21.5081C22.5313 25.888 17.746 26.4863 14.0224 25.5121C9.72244 24.3846 9.93479 17.6883 10.8828 14.2749C11.4591 12.1885 12.1492 11.3831 14.3485 11.0073H14.3409ZM15.5847 13.9604C12.7787 14.6278 12.6953 21.7536 15.2661 22.559C22.4934 24.8218 23.0698 12.1732 15.5847 13.9604Z" fill="#2461E5"/>
<path d="M52.0623 13.9067C52.1912 14.4513 52.176 15.0803 51.8954 15.5712C51.046 17.0286 44.1449 15.7093 42.2717 15.7016C38.5026 15.6863 34.104 16.8982 30.5624 15.9931L29.9937 14.1292C30.3653 12.457 36.1744 13.109 37.6684 13.0246C38.495 12.9786 39.2761 12.6027 40.1634 12.5874C44.1828 12.5184 48.2173 12.6411 52.0698 13.9067H52.0623Z" fill="#2461E5"/>
<path d="M51.6453 21.109C51.8955 21.4772 51.5239 23.134 51.1675 23.5022C49.6204 25.09 34.4075 22.8886 31.3892 23.6096L30.555 23.1877C29.7435 21.623 30.0014 20.8559 31.7911 20.6258C35.4313 20.1579 40.4972 21.0477 44.3422 21.0937C45.6314 21.109 51.2282 20.5107 51.6453 21.1167V21.109Z" fill="#2461E5"/>
</g>
<defs>
<clipPath id="clip0_725_960">
<rect width="65" height="81" fill="white"/>
</clipPath>
</defs>
</svg>
