<svg width="252" height="232" viewBox="0 0 252 232" fill="none" xmlns="http://www.w3.org/2000/svg">
<g clip-path="url(#clip0_1073_454)">
<path d="M225.328 214.45C225.949 212.711 225.949 213.87 226.615 212.421C227.297 210.936 226.974 209.196 227.217 207.591C227.46 205.987 226.927 205.257 227.053 203.76C227.115 203.057 227.601 202.223 227.597 201.661C227.597 201.197 227.257 200.548 227.257 199.976C227.257 198.98 227.88 197.864 227.917 197.06C227.953 196.256 227.67 195.375 227.782 194.45C227.855 193.858 228.37 192.956 228.41 192.593C228.457 192.166 227.964 190.81 228.047 189.828C228.112 189.092 228.569 188.193 228.613 187.585C228.664 186.868 228.25 185.933 228.33 184.964C228.384 184.302 228.769 183.609 228.769 182.997C228.769 182.116 228.261 181.355 228.33 180.232C228.384 179.344 229.005 178.362 229.034 177.729C229.055 177.235 228.653 176.502 228.613 175.903C228.544 174.87 229.026 174.336 229.055 173.659C229.077 173.148 228.722 172.395 228.754 171.554C228.794 170.525 229.414 169.431 229.462 168.792C229.509 168.153 228.976 167.349 229.044 166.435C229.106 165.631 229.792 164.766 229.824 164.278C229.842 164.023 229.316 162.957 229.327 162.358C229.349 161.282 230.161 160.69 230.285 160.091C230.372 159.674 229.918 158.668 230.042 157.894C230.143 157.262 230.763 156.455 231.025 155.849C226.466 155.944 221.033 156.468 216.899 154.292C214.034 152.785 212.373 149.247 212.823 146.243L211.539 145.856C211.637 148.096 212.304 150.397 212.58 152.644C212.696 153.576 213 155.735 212.852 156.542C212.844 156.586 212.496 157.326 212.46 157.356C211.862 157.817 210.654 157.242 209.976 157.033C207.535 156.293 205.214 155.183 202.817 154.339C201.424 153.848 199.937 153.522 198.57 152.957L199.553 156.99C199.567 158.258 198.342 158.194 197.529 158.631C193.362 160.875 188.898 163.572 185.032 166.364C184.328 166.872 183.288 167.282 182.86 168.163C183.578 169.018 184.383 169.694 184.401 170.898V216.761L182.294 216.607C182.225 216.549 182.171 215.426 182.156 215.204C181.75 208.722 182.142 216.596 182.131 210.07C182.116 200.689 182.113 191.231 182.12 181.806C182.12 179.23 182.704 172.919 181.812 170.8C180.832 168.476 172.694 163.441 170.112 161.904C167.146 160.135 164.005 158.607 161.078 156.774C160.074 156.203 162.076 153.152 161.858 152.96C161.26 152.96 160.545 153.175 159.99 153.367C157.415 154.252 154.677 155.355 152.11 156.233C150.692 156.717 147.061 158.412 147.406 155.789C147.602 152.92 149.506 149.139 149.644 146.415C149.687 145.527 151.286 140.77 150.953 140.865C147.845 141.759 143.569 143.344 140.537 144.544C137.005 145.944 128.784 150.114 125.643 152.008C125.059 152.361 125.971 155.212 126.187 155.907C126.84 158.399 127.467 160.922 127.938 163.448C129.356 171.022 130.281 179.132 130.959 186.804C131.822 196.623 136.006 215.029 136.006 215.609C136.006 216.188 134.766 216.188 134.766 216.188C134.766 216.188 134.145 215.029 134.145 214.45C134.145 214.174 134.125 213.64 133.723 212.156C128.305 192.288 129.77 185.99 126.129 165.654C125.559 162.472 124.798 157.733 123.866 154.739C123.829 154.622 123.79 154.349 123.59 154.467C120.536 158.214 118.926 162.983 117.849 167.548C114.132 183.296 113.425 200.212 112.732 216.273L112.761 216.307C112.674 216.802 110.785 216.993 110.574 216.408C110.756 204.747 110.585 208.166 111.546 196.535C112.21 188.489 113.164 179.919 114.701 171.988C116.388 163.296 118.353 154.403 126.524 149.038C128.722 147.595 131.199 146.761 133.338 145.463C133.683 145.254 134.492 145.106 134.622 144.716C134.691 139.247 137.922 132.193 136.53 128.48C135.138 124.767 140.154 119.678 139.322 115.808C138.49 111.938 143.503 104.557 142.401 101.985C141.3 99.4135 146.209 69.1599 161.274 59.8125C168.491 55.339 174.188 54.5115 182.762 54.4981C194.222 54.4813 205.029 61.649 210.386 70.6903C215.724 79.698 219.406 95.692 219.406 99.8636C219.406 104.035 222.572 113.421 223.871 117.071C225.171 120.721 226.343 126.933 225.171 130.848C224 134.763 226.343 140.511 226.343 140.511C226.343 140.511 227.322 141.09 227.518 141.164C231.3 142.604 240.149 145.648 241.622 149.502C242.155 150.895 241.676 151.43 241.248 152.728C241.828 153.34 242.39 153.976 242.851 154.672C247.206 161.302 248.875 171.974 249.872 179.707C252.092 196.909 252.015 199.21 252.008 216.543C251.395 216.855 250.63 216.822 250.013 216.559L249.879 212.035C249.517 199.549 248.954 186.962 246.876 174.598C245.905 168.813 244.599 162.257 241.727 157.027C241.462 156.542 240.323 154.538 240.022 154.268C239.884 154.147 239.801 154.104 239.605 154.131C237.748 157.639 237.135 161.692 236.45 165.543C235.5 170.891 234.833 176.303 234.122 181.655C233.959 182.896 233.552 184.275 233.436 185.489C233.346 186.458 233.538 187.534 233.418 188.496C233.327 189.206 232.754 190.057 232.715 190.615C232.675 191.174 233.008 192.099 232.99 192.701C232.968 193.609 232.341 194.658 232.308 195.355C232.272 196.125 232.704 197.154 232.58 198.234C232.493 198.994 231.935 199.727 231.877 200.222C231.804 200.83 232.189 201.789 232.171 202.442C232.145 203.303 231.572 203.911 231.46 204.554C231.34 205.243 231.666 205.846 231.579 206.505C231.434 207.591 229.425 209.656 229.019 210.968C228.566 212.421 228.602 211.046 228.315 212.621C227.354 217.864 227.189 217.347 226.569 218.507L224.708 217.347L225.328 214.45ZM188.173 69.4088C185.326 67.912 182.29 66.7751 179.367 65.4162L178.943 59.2374C178.239 61.2353 178.957 63.4788 178.312 65.4869L170.798 69.429C164.353 73.7579 157.956 79.6004 155.7 86.8389C154.83 89.634 154.808 92.5334 154.286 95.3857L153.927 95.4496C153.107 94.676 152.273 93.9158 151.446 93.1489C150.938 92.678 150.793 92.0524 149.858 91.8607C146.488 91.1711 146.877 95.9104 147.141 97.7974C147.573 100.878 149.883 106.771 152.552 108.746C152.987 109.069 154.866 109.419 155.127 108.79L155.403 109.059C157.401 116.563 160.65 123.095 167.399 127.77C171.871 130.868 175.596 132.409 181.355 132.452C187.65 132.499 195.255 127.215 199.107 122.634C202.36 118.763 204.452 113.684 205.58 108.914L206.973 109.267C209.798 109.294 212.391 103.714 213.167 101.625C214.11 99.0823 214.904 95.712 213.831 93.1187C213.33 91.9111 211.604 91.5882 210.483 92.3013C209.649 92.8327 208.641 94.2892 207.851 94.9854C207.745 95.0763 206.879 95.7322 206.792 95.6447C206.48 93.5761 206.371 91.4873 205.899 89.4389C203.883 80.6532 196.336 73.7041 188.169 69.4088H188.173ZM197.863 126.933C197.562 126.99 197.174 127.383 196.938 127.585C187.737 135.459 178.294 137.807 167.327 130.478L163.287 127.195C163.37 131.403 162.482 136.452 164.252 140.427C166.935 146.452 173.082 153.206 177.141 158.708C178.261 160.232 179.639 161.648 180.437 163.34C180.524 163.401 181.028 162.835 181.119 162.728C182.907 160.531 184.542 157.851 186.272 155.547C190.563 149.835 196.927 143.064 197.721 135.934C198.059 132.92 197.602 129.93 197.867 126.933H197.863ZM200.271 130.744H199.992C200.293 134.02 200.053 137.878 198.784 140.992C196.739 146.014 192.503 150.767 189.25 155.15C186.744 158.527 184.321 161.951 181.728 165.274L181.714 165.97L188.278 161.547L197.286 156.488L196.024 150.33C196.307 150.084 198.588 150.696 199.085 150.834C199.974 151.083 201.065 151.497 202.015 151.803C204.859 152.721 207.651 153.838 210.48 154.793C210.273 153.609 210.222 152.402 210.016 151.214C209.522 148.365 208.786 144.676 208.007 141.907C206.839 137.773 202.879 134.158 200.275 130.74L200.271 130.744ZM161.013 131.531C160.864 131.383 160.124 132.136 160.023 132.254C158.108 134.44 154.365 138.762 153.433 141.258C151.867 145.459 151.377 150.212 150.242 154.531C152.599 153.626 154.993 152.815 157.397 152.022C157.651 151.938 157.898 152.049 158.065 151.995C160.338 151.258 162.583 149.855 165.122 149.929C165.278 150.071 164.415 152.27 164.273 152.627C164.027 153.249 163.247 154.541 163.16 155.025C163.015 155.839 165.129 156.579 165.731 156.919C168.15 158.285 170.649 159.654 172.981 161.103C175.135 162.442 177.17 163.929 179.291 165.308C179.407 165.17 179.008 164.665 178.914 164.544C177.728 162.994 176.582 161.403 175.411 159.842C170.134 152.822 161.749 144.575 161.013 135.799C160.901 134.45 160.81 132.853 161.013 131.531ZM211.075 143.465L213.102 143.999L214.299 142.113C213.907 141.642 210.28 140.273 210.048 140.471L211.071 143.465H211.075ZM235.592 146.793C234.013 146.243 230.569 143.999 226.104 142.622C218.848 141.579 216.899 142.819 216.058 143.665C215.217 144.51 215.43 149.644 216.431 150.918C218.643 153.73 223.971 153.882 227.405 153.875C227.753 153.875 228.098 154.053 228.544 154.02C228.99 153.986 235.413 154.083 235.413 154.083C235.413 154.083 238.829 152.822 239.246 151.837C239.246 151.837 241.301 150.042 235.592 146.793ZM233.516 157.767C233.897 157.259 234.412 156.529 234.013 155.907C233.393 154.945 232.74 156.371 232.468 156.852C232.258 157.218 231.032 159.438 232.272 158.91C232.352 158.877 233.425 157.888 233.52 157.763L233.516 157.767ZM234.709 163.606L236.552 156.64C235.075 157.222 235.221 159.472 234.93 160.723C234.669 161.853 234.089 162.129 234.43 163.411C234.481 163.602 234.318 163.646 234.709 163.609V163.606ZM233.578 159.795C232.192 160.215 230.782 161.779 231.028 163.212C232.25 162.412 233.385 161.248 233.578 159.795ZM233.008 163.606C232.584 163.145 230.259 166.932 230.742 167.548C231.612 167.07 231.862 166.408 232.301 165.671C232.356 165.577 232.548 165.573 232.624 165.412C232.889 164.85 233.066 164.221 233.008 163.606ZM234.143 165.97C233.846 165.853 233.599 166.603 233.589 166.7C233.523 167.188 233.628 167.605 233.723 168.069C234.172 167.531 233.955 166.626 234.147 165.967L234.143 165.97ZM230.6 172.412C231.815 171.147 232.54 169.69 232.443 167.945C231.387 168.779 230.495 170.696 230.39 171.947C230.383 172.045 230.397 172.455 230.6 172.412ZM232.301 172.674C231.307 172.819 229.857 176.108 230.317 176.616C230.629 176.687 230.629 176.448 230.771 176.313C231.855 175.281 232.203 174.103 232.301 172.674ZM232.443 176.751C232.145 176.515 230.88 178.557 230.76 178.802C230.408 179.512 230.1 180.286 230.176 181.086C231.986 180.309 232.051 178.321 232.443 176.751ZM230.176 186.212C231.275 184.732 232.047 183.185 232.16 181.349C231.442 182.109 230.734 183.128 230.354 184.073C230.125 184.645 229.541 185.802 230.176 186.209V186.212ZM229.61 191.076C231.057 190.013 231.964 188.056 231.732 186.344C230.223 187.457 229.636 189.334 229.61 191.076ZM231.453 191.076C231.144 191.009 231.137 191.231 231.003 191.382C229.915 192.627 229.313 194.187 229.469 195.805C229.712 196.061 230.847 194.319 230.952 194.093C231.398 193.145 231.507 192.095 231.449 191.073L231.453 191.076ZM229.044 200.541C230.423 199.596 231.162 197.904 231.025 196.337C229.581 197.144 228.754 199.011 229.044 200.541ZM230.742 201.066C229.251 201.661 228.638 203.437 228.617 204.877C230.093 204.147 230.582 202.512 230.742 201.066ZM230.176 205.667C229.893 205.371 228.475 207.598 228.903 208.032L229.715 207.144L230.176 205.667Z" fill="#8082F8"/>
<path d="M222.495 213.844C221.066 215.275 218.617 215.995 216.555 216.14C210.411 216.577 203.708 215.813 197.503 216.148C192.862 216.136 188.62 212.713 188.46 208.323C188.203 201.294 188.499 194.08 188.473 186.998C188.464 185.175 188.117 183.158 188.473 181.352C188.72 180.099 189.997 180.527 190.787 180.495C200.143 180.111 210.103 180.37 219.434 180.531C220.628 180.551 222.33 180.37 223.432 180.531C225.095 180.774 224.626 182.702 224.635 183.72C224.683 189.916 224.839 196.068 224.809 202.196C224.787 206.019 225.469 210.861 222.495 213.84V213.844ZM220.745 192.099C223.528 189.727 222.62 185.822 222.538 182.71L222.299 182.488L190.548 182.318C190.687 185.515 189.41 188.506 191.833 191.182C193.157 192.641 194.486 193.211 196.544 193.352C199.952 193.586 203.803 193.263 207.246 193.255C210.22 193.247 213.316 193.485 216.238 193.36C217.797 193.291 219.547 193.122 220.745 192.103V192.099ZM190.761 192.992C190.657 192.912 190.392 192.289 190.383 192.823C190.292 197.147 190.344 201.767 190.552 206.076C190.704 209.152 190.635 212.009 194.169 213.59C197.13 214.915 206.426 214.366 210.142 214.354C213.924 214.346 220.115 215.251 221.995 211.221C222.772 209.56 222.521 208.121 222.551 206.375C222.625 202.119 222.425 197.826 222.551 193.558C222.56 193.308 222.594 193.118 222.72 192.895L220.623 194.294C218.313 195.442 216.381 195.11 213.993 195.118C208.215 195.139 201.884 195.486 196.231 195.13C193.622 194.965 192.689 194.472 190.761 192.992Z" fill="#8082F8"/>
<path d="M170.981 213.844C169.552 215.275 167.104 215.995 165.041 216.14C158.898 216.577 152.194 215.813 145.99 216.148C141.349 216.136 137.107 212.713 136.946 208.323C136.69 201.294 136.985 194.08 136.959 186.998C136.95 185.175 136.603 183.158 136.959 181.352C137.206 180.099 138.483 180.527 139.273 180.495C148.63 180.111 158.59 180.37 167.92 180.531C169.114 180.551 170.816 180.37 171.919 180.531C173.582 180.774 173.113 182.702 173.121 183.72C173.169 189.916 173.325 196.068 173.295 202.196C173.273 206.019 173.955 210.861 170.981 213.84V213.844ZM169.231 192.099C172.014 189.727 171.107 185.822 171.024 182.71L170.785 182.488L139.034 182.318C139.173 185.515 137.897 188.506 140.32 191.182C141.644 192.641 142.972 193.211 145.03 193.352C148.439 193.586 152.29 193.263 155.733 193.255C158.707 193.247 161.802 193.485 164.724 193.36C166.283 193.291 168.033 193.122 169.231 192.103V192.099ZM139.247 192.992C139.143 192.912 138.878 192.289 138.869 192.823C138.778 197.147 138.83 201.767 139.039 206.076C139.191 209.152 139.121 212.009 142.655 213.59C145.616 214.915 154.912 214.366 158.629 214.354C162.41 214.346 168.602 215.251 170.482 211.221C171.259 209.56 171.007 208.121 171.037 206.375C171.111 202.119 170.911 197.826 171.037 193.558C171.046 193.308 171.081 193.118 171.207 192.895L169.11 194.294C166.8 195.442 164.868 195.11 162.48 195.118C156.701 195.139 150.371 195.486 144.718 195.13C142.108 194.965 141.175 194.472 139.247 192.992Z" fill="#8082F8"/>
</g>
<g clip-path="url(#clip1_1073_454)">
<path d="M106.961 74.1874C105.079 75.425 117.906 87.5239 118.234 89.9858C119.114 96.6475 99.8659 90.4466 95.8264 88.8405C85.1923 84.5881 82.6891 77.4261 70.1906 75.7146C41.344 71.765 8.25062 77.3998 1.20728 47.6461C-3.86808 26.1076 6.66242 2.75227 38.8408 0.816962C54.9991 -0.157274 86.6769 -0.381085 102.663 0.856458C121.686 2.31781 134.168 18.6165 136.36 31.795C139.088 48.199 133.633 72.8182 106.961 74.1874ZM107.911 86.5234C103.008 81.639 98.4676 76.2544 98.7956 69.8034C103.163 68.5922 107.203 69.3294 111.916 68.1709C138.811 61.575 134.703 14.9697 107.479 7.33381C97.5181 4.54275 55.845 5.28001 43.5882 5.88562C10.9091 7.50496 0.844749 29.0303 9.3382 50.9506C17.2102 71.2911 50.7869 68.5132 72.1932 70.5538C87.9544 72.0546 91.5796 85.5754 107.911 86.5102V86.5234Z" fill="#8082F8"/>
<path d="M28.0366 25C27.9266 25 27.8366 24.965 27.7666 24.895C27.6966 24.825 27.6616 24.735 27.6616 24.625V16.81C27.6616 16.7 27.6966 16.61 27.7666 16.54C27.8366 16.47 27.9266 16.435 28.0366 16.435H31.3966C32.2766 16.435 33.0166 16.56 33.6166 16.81C34.2166 17.05 34.6666 17.44 34.9666 17.98C35.2666 18.51 35.4166 19.22 35.4166 20.11V24.61C35.4166 24.71 35.3816 24.8 35.3116 24.88C35.2416 24.96 35.1466 25 35.0266 25H28.0366ZM29.8366 23.035H33.0916V20.185C33.0916 19.605 32.9466 19.165 32.6566 18.865C32.3766 18.555 31.9316 18.4 31.3216 18.4H29.8366V23.035ZM37.4688 21.46C37.3588 21.46 37.2688 21.425 37.1988 21.355C37.1288 21.275 37.0938 21.185 37.0938 21.085V16.81C37.0938 16.7 37.1288 16.61 37.1988 16.54C37.2688 16.47 37.3588 16.435 37.4688 16.435H39.2388C39.3488 16.435 39.4388 16.47 39.5088 16.54C39.5788 16.61 39.6138 16.7 39.6138 16.81V21.085C39.6138 21.185 39.5788 21.275 39.5088 21.355C39.4388 21.425 39.3488 21.46 39.2388 21.46H37.4688ZM44.7922 25C44.5722 25 44.4622 24.89 44.4622 24.67V20.065C44.4622 19.425 44.5272 18.935 44.6572 18.595C44.7972 18.255 45.0172 18.085 45.3172 18.085H47.7172C47.4672 18.085 47.2622 18.295 47.1022 18.715C46.9522 19.125 46.8772 19.63 46.8772 20.23V24.67C46.8772 24.77 46.8322 24.85 46.7422 24.91C46.6522 24.97 46.5572 25 46.4572 25H44.7922ZM41.2972 18.4C41.1872 18.4 41.0922 18.365 41.0122 18.295C40.9422 18.225 40.9072 18.135 40.9072 18.025V16.81C40.9072 16.7 40.9422 16.61 41.0122 16.54C41.0922 16.47 41.1872 16.435 41.2972 16.435H47.9722C48.0722 16.435 48.1572 16.47 48.2272 16.54C48.3072 16.61 48.3472 16.7 48.3472 16.81V18.025C48.3472 18.125 48.3122 18.215 48.2422 18.295C48.1722 18.365 48.0822 18.4 47.9722 18.4H41.2972ZM49.8264 25C49.7264 25 49.6364 24.965 49.5564 24.895C49.4864 24.825 49.4514 24.735 49.4514 24.625V23.41C49.4514 23.3 49.4864 23.21 49.5564 23.14C49.6364 23.07 49.7264 23.035 49.8264 23.035H53.6364V20.185C53.6364 19.615 53.4914 19.18 53.2014 18.88C52.9214 18.57 52.4764 18.415 51.8664 18.415H49.9764C49.8764 18.415 49.7864 18.38 49.7064 18.31C49.6364 18.23 49.6014 18.14 49.6014 18.04V16.81C49.6014 16.7 49.6364 16.61 49.7064 16.54C49.7864 16.47 49.8764 16.435 49.9764 16.435H51.9414C52.8414 16.435 53.6014 16.565 54.2214 16.825C54.8514 17.075 55.3314 17.475 55.6614 18.025C55.9914 18.565 56.1564 19.285 56.1564 20.185V23.035H56.6814C56.7914 23.035 56.8814 23.07 56.9514 23.14C57.0214 23.21 57.0564 23.3 57.0564 23.41V24.625C57.0564 24.735 57.0214 24.825 56.9514 24.895C56.8814 24.965 56.7914 25 56.6814 25H49.8264ZM58.7397 25C58.6297 25 58.5397 24.965 58.4697 24.895C58.3997 24.825 58.3647 24.735 58.3647 24.625V16.81C58.3647 16.7 58.3997 16.61 58.4697 16.54C58.5397 16.47 58.6297 16.435 58.7397 16.435H60.5097C60.6197 16.435 60.7097 16.47 60.7797 16.54C60.8497 16.61 60.8847 16.7 60.8847 16.81V24.625C60.8847 24.735 60.8497 24.825 60.7797 24.895C60.7097 24.965 60.6197 25 60.5097 25H58.7397ZM62.7603 25.84C62.6503 25.86 62.5503 25.835 62.4603 25.765C62.3803 25.695 62.3403 25.61 62.3403 25.51V24.265C62.3403 24.165 62.3703 24.08 62.4303 24.01C62.5003 23.93 62.5803 23.88 62.6703 23.86L65.9703 23.035C66.5203 22.895 66.9403 22.715 67.2303 22.495C67.5303 22.275 67.7303 22 67.8303 21.67C67.9403 21.34 67.9953 20.95 67.9953 20.5V16.795C67.9953 16.695 68.0303 16.61 68.1003 16.54C68.1803 16.47 68.2703 16.435 68.3703 16.435H70.0503C70.1603 16.435 70.2503 16.47 70.3203 16.54C70.3903 16.61 70.4253 16.7 70.4253 16.81V21.22C70.4253 21.88 70.2703 22.465 69.9603 22.975C69.6603 23.485 69.2203 23.915 68.6403 24.265C68.0603 24.605 67.3653 24.855 66.5553 25.015L62.7603 25.84ZM64.6953 24.64L62.5803 17.035C62.5603 16.955 62.5403 16.895 62.5203 16.855C62.5103 16.815 62.5053 16.775 62.5053 16.735C62.5053 16.655 62.5353 16.585 62.5953 16.525C62.6553 16.465 62.7253 16.435 62.8053 16.435H64.6503C64.8403 16.435 64.9553 16.51 64.9953 16.66L66.8703 24.295L64.6953 24.64ZM75.7319 25C75.6219 25 75.5319 24.965 75.4619 24.895C75.3919 24.825 75.3569 24.735 75.3569 24.625V16.81C75.3569 16.7 75.3919 16.61 75.4619 16.54C75.5319 16.47 75.6219 16.435 75.7319 16.435H77.5019C77.6119 16.435 77.7019 16.47 77.7719 16.54C77.8419 16.61 77.8769 16.7 77.8769 16.81V24.625C77.8769 24.735 77.8419 24.825 77.7719 24.895C77.7019 24.965 77.6119 25 77.5019 25H75.7319ZM79.7375 25C79.6375 25 79.5475 24.965 79.4675 24.895C79.3975 24.825 79.3625 24.735 79.3625 24.625V23.41C79.3625 23.3 79.3975 23.21 79.4675 23.14C79.5475 23.07 79.6375 23.035 79.7375 23.035H84.5525V24.655C84.5525 24.755 84.5175 24.84 84.4475 24.91C84.3775 24.97 84.2875 25 84.1775 25H79.7375ZM82.7225 25C82.6125 25 82.5225 24.965 82.4525 24.895C82.3825 24.825 82.3475 24.735 82.3475 24.625L82.1225 20.005C82.1125 19.635 82.0725 19.325 82.0025 19.075C81.9325 18.815 81.8125 18.62 81.6425 18.49C81.4725 18.36 81.2175 18.295 80.8775 18.295H80.1275C80.0275 18.295 79.9375 18.26 79.8575 18.19C79.7875 18.11 79.7525 18.015 79.7525 17.905V16.72C79.7525 16.61 79.7875 16.52 79.8575 16.45C79.9375 16.38 80.0275 16.345 80.1275 16.345H80.9375C81.5875 16.345 82.1425 16.42 82.6025 16.57C83.0625 16.71 83.4375 16.935 83.7275 17.245C84.0275 17.545 84.2475 17.93 84.3875 18.4C84.5375 18.86 84.6275 19.405 84.6575 20.035L84.8675 24.625C84.8775 24.735 84.8425 24.825 84.7625 24.895C84.6825 24.965 84.5925 25 84.4925 25H82.7225ZM86.6889 25C86.5789 25 86.4889 24.965 86.4189 24.895C86.3489 24.825 86.3139 24.735 86.3139 24.625V16.81C86.3139 16.7 86.3489 16.61 86.4189 16.54C86.4889 16.47 86.5789 16.435 86.6889 16.435H90.1839C91.0939 16.435 91.8539 16.56 92.4639 16.81C93.0739 17.06 93.5339 17.46 93.8439 18.01C94.1539 18.56 94.3089 19.285 94.3089 20.185V24.625C94.3089 24.735 94.2739 24.825 94.2039 24.895C94.1339 24.965 94.0439 25 93.9339 25H92.2539C92.1439 25 92.0539 24.965 91.9839 24.895C91.9139 24.825 91.8789 24.74 91.8789 24.64V20.185C91.8789 19.605 91.7339 19.165 91.4439 18.865C91.1639 18.555 90.7189 18.4 90.1089 18.4H88.7439V24.625C88.7439 24.735 88.7089 24.825 88.6389 24.895C88.5689 24.965 88.4789 25 88.3689 25H86.6889ZM96.0851 25C95.9851 25 95.8951 24.965 95.8151 24.895C95.7451 24.825 95.7101 24.735 95.7101 24.625V23.41C95.7101 23.3 95.7451 23.21 95.8151 23.14C95.8951 23.07 95.9851 23.035 96.0851 23.035H100.9V24.655C100.9 24.755 100.865 24.84 100.795 24.91C100.725 24.97 100.635 25 100.525 25H96.0851ZM99.0701 25C98.9601 25 98.8701 24.965 98.8001 24.895C98.7301 24.825 98.6951 24.735 98.6951 24.625L98.4701 20.005C98.4601 19.635 98.4201 19.325 98.3501 19.075C98.2801 18.815 98.1601 18.62 97.9901 18.49C97.8201 18.36 97.5651 18.295 97.2251 18.295H96.4751C96.3751 18.295 96.2851 18.26 96.2051 18.19C96.1351 18.11 96.1001 18.015 96.1001 17.905V16.72C96.1001 16.61 96.1351 16.52 96.2051 16.45C96.2851 16.38 96.3751 16.345 96.4751 16.345H97.2851C97.9351 16.345 98.4901 16.42 98.9501 16.57C99.4101 16.71 99.7851 16.935 100.075 17.245C100.375 17.545 100.595 17.93 100.735 18.4C100.885 18.86 100.975 19.405 101.005 20.035L101.215 24.625C101.225 24.735 101.19 24.825 101.11 24.895C101.03 24.965 100.94 25 100.84 25H99.0701ZM108.512 25C108.352 25 108.232 24.96 108.152 24.88C108.072 24.8 108.017 24.74 107.987 24.7L102.587 16.975C102.537 16.905 102.512 16.83 102.512 16.75C102.512 16.67 102.542 16.6 102.602 16.54C102.672 16.47 102.752 16.435 102.842 16.435H104.507C104.667 16.435 104.787 16.475 104.867 16.555C104.947 16.635 105.007 16.7 105.047 16.75L110.492 24.46C110.532 24.51 110.552 24.555 110.552 24.595C110.562 24.625 110.567 24.655 110.567 24.685C110.567 24.765 110.537 24.84 110.477 24.91C110.417 24.97 110.342 25 110.252 25H108.512ZM102.827 25C102.727 25 102.637 24.96 102.557 24.88C102.487 24.8 102.452 24.71 102.452 24.61V22.705C102.452 22.145 102.502 21.655 102.602 21.235C102.702 20.805 102.882 20.415 103.142 20.065C103.402 19.715 103.777 19.37 104.267 19.03L105.422 20.71C105.172 20.89 104.987 21.1 104.867 21.34C104.757 21.57 104.687 21.805 104.657 22.045C104.627 22.285 104.612 22.5 104.612 22.69V24.61C104.612 24.73 104.572 24.825 104.492 24.895C104.422 24.965 104.337 25 104.237 25H102.827ZM108.392 22.09L107.222 20.425C107.542 20.265 107.767 20.09 107.897 19.9C108.037 19.7 108.122 19.495 108.152 19.285C108.182 19.075 108.197 18.875 108.197 18.685V16.825C108.197 16.705 108.232 16.61 108.302 16.54C108.382 16.47 108.472 16.435 108.572 16.435H110.072C110.172 16.435 110.257 16.475 110.327 16.555C110.407 16.635 110.447 16.725 110.447 16.825V18.745C110.447 19.155 110.392 19.555 110.282 19.945C110.172 20.335 109.972 20.71 109.682 21.07C109.392 21.43 108.962 21.77 108.392 22.09ZM50.1166 43C50.0066 43 49.9166 42.965 49.8466 42.895C49.7766 42.825 49.7416 42.735 49.7416 42.625V40.72C49.7416 40.62 49.7766 40.535 49.8466 40.465C49.9166 40.385 50.0066 40.345 50.1166 40.345H52.0066C52.1166 40.345 52.2066 40.385 52.2766 40.465C52.3566 40.535 52.3966 40.62 52.3966 40.72V42.625C52.3966 42.735 52.3566 42.825 52.2766 42.895C52.2066 42.965 52.1166 43 52.0066 43H50.1166ZM60.0043 43C59.8943 43 59.7993 42.965 59.7193 42.895C59.6493 42.825 59.6143 42.74 59.6143 42.64V38.185C59.6143 37.605 59.4743 37.165 59.1943 36.865C58.9143 36.555 58.4643 36.4 57.8443 36.4H54.4843C54.3743 36.4 54.2843 36.365 54.2143 36.295C54.1443 36.225 54.1093 36.135 54.1093 36.025V34.81C54.1093 34.7 54.1443 34.61 54.2143 34.54C54.2843 34.47 54.3743 34.435 54.4843 34.435H57.9193C59.2693 34.435 60.2943 34.74 60.9943 35.35C61.7043 35.95 62.0593 36.895 62.0593 38.185V42.625C62.0593 42.735 62.0193 42.825 61.9393 42.895C61.8693 42.965 61.7793 43 61.6693 43H60.0043ZM54.4843 43C54.3743 43 54.2843 42.965 54.2143 42.895C54.1443 42.825 54.1093 42.735 54.1093 42.625V38.185C54.1093 38.085 54.1443 38 54.2143 37.93C54.2843 37.85 54.3743 37.81 54.4843 37.81H56.1643C56.2743 37.81 56.3643 37.85 56.4343 37.93C56.5043 38 56.5393 38.085 56.5393 38.185V42.625C56.5393 42.735 56.5043 42.825 56.4343 42.895C56.3643 42.965 56.2743 43 56.1643 43H54.4843ZM64.7576 43C64.5376 43 64.4276 42.89 64.4276 42.67V38.065C64.4276 37.425 64.4926 36.935 64.6226 36.595C64.7626 36.255 64.9776 36.085 65.2676 36.085H67.6676C67.4176 36.085 67.2126 36.295 67.0526 36.715C66.9026 37.125 66.8276 37.63 66.8276 38.23V42.67C66.8276 42.77 66.7826 42.85 66.6926 42.91C66.6026 42.97 66.5076 43 66.4076 43H64.7576ZM63.5876 36.4C63.4876 36.4 63.3976 36.365 63.3176 36.295C63.2476 36.225 63.2126 36.135 63.2126 36.025V34.81C63.2126 34.7 63.2476 34.61 63.3176 34.54C63.3976 34.47 63.4876 34.435 63.5876 34.435H67.9226C68.0326 34.435 68.1226 34.47 68.1926 34.54C68.2626 34.61 68.2976 34.7 68.2976 34.81V36.025C68.2976 36.125 68.2626 36.215 68.1926 36.295C68.1326 36.365 68.0426 36.4 67.9226 36.4H63.5876ZM74.5617 43.18C74.4617 43.21 74.3667 43.18 74.2767 43.09C74.1967 43 74.1567 42.905 74.1567 42.805V41.365C74.1567 41.265 74.1917 41.17 74.2617 41.08C74.3317 40.99 74.4217 40.925 74.5317 40.885L75.0117 40.69C75.2917 40.57 75.5467 40.42 75.7767 40.24C76.0167 40.05 76.2067 39.8 76.3467 39.49C76.4867 39.18 76.5567 38.775 76.5567 38.275C76.5567 37.845 76.5067 37.5 76.4067 37.24C76.3067 36.98 76.1367 36.79 75.8967 36.67C75.6667 36.55 75.3367 36.49 74.9067 36.49H74.5617C74.4617 36.49 74.3717 36.455 74.2917 36.385C74.2217 36.315 74.1867 36.225 74.1867 36.115V34.795C74.1867 34.695 74.2217 34.61 74.2917 34.54C74.3717 34.47 74.4617 34.435 74.5617 34.435H75.4017C76.3017 34.435 77.0167 34.58 77.5467 34.87C78.0867 35.15 78.4717 35.575 78.7017 36.145C78.9417 36.705 79.0617 37.395 79.0617 38.215C79.0617 38.895 78.9517 39.5 78.7317 40.03C78.5217 40.56 78.2317 41.025 77.8617 41.425C77.4917 41.815 77.0767 42.14 76.6167 42.4C76.1567 42.66 75.6717 42.86 75.1617 43L74.5617 43.18ZM75.0867 36.49H72.5517C72.4517 36.49 72.3617 36.455 72.2817 36.385C72.2117 36.315 72.1767 36.225 72.1767 36.115V32.725C72.1767 32.615 72.2117 32.525 72.2817 32.455C72.3617 32.385 72.4517 32.35 72.5517 32.35H74.0817C74.1917 32.35 74.2817 32.385 74.3517 32.455C74.4217 32.525 74.4567 32.615 74.4567 32.725V34.435H75.1017L75.0867 36.49ZM80.5801 43.84C80.4701 43.86 80.3701 43.835 80.2801 43.765C80.2001 43.695 80.1601 43.61 80.1601 43.51V42.265C80.1601 42.165 80.1901 42.08 80.2501 42.01C80.3201 41.93 80.4001 41.88 80.4901 41.86L83.7901 41.035C84.3401 40.895 84.7601 40.715 85.0501 40.495C85.3501 40.275 85.5501 40 85.6501 39.67C85.7601 39.34 85.8151 38.95 85.8151 38.5V34.795C85.8151 34.695 85.8501 34.61 85.9201 34.54C86.0001 34.47 86.0901 34.435 86.1901 34.435H87.8701C87.9801 34.435 88.0701 34.47 88.1401 34.54C88.2101 34.61 88.2451 34.7 88.2451 34.81V39.22C88.2451 39.88 88.0901 40.465 87.7801 40.975C87.4801 41.485 87.0401 41.915 86.4601 42.265C85.8801 42.605 85.1851 42.855 84.3751 43.015L80.5801 43.84ZM82.5151 42.64L80.4001 35.035C80.3801 34.955 80.3601 34.895 80.3401 34.855C80.3301 34.815 80.3251 34.775 80.3251 34.735C80.3251 34.655 80.3551 34.585 80.4151 34.525C80.4751 34.465 80.5451 34.435 80.6251 34.435H82.4701C82.6601 34.435 82.7751 34.51 82.8151 34.66L84.6901 42.295L82.5151 42.64ZM31.5449 61C31.4349 61 31.3449 60.965 31.2749 60.895C31.2049 60.825 31.1699 60.735 31.1699 60.625V52.81C31.1699 52.7 31.2049 52.61 31.2749 52.54C31.3449 52.47 31.4349 52.435 31.5449 52.435H34.9049C35.7849 52.435 36.5249 52.56 37.1249 52.81C37.7249 53.05 38.1749 53.44 38.4749 53.98C38.7749 54.51 38.9249 55.22 38.9249 56.11V60.61C38.9249 60.71 38.8899 60.8 38.8199 60.88C38.7499 60.96 38.6549 61 38.5349 61H31.5449ZM33.3449 59.035H36.5999V56.185C36.5999 55.605 36.4549 55.165 36.1649 54.865C35.8849 54.555 35.4399 54.4 34.8299 54.4H33.3449V59.035ZM40.9621 61C40.8521 61 40.7571 60.965 40.6771 60.895C40.6071 60.825 40.5721 60.735 40.5721 60.625V59.32C40.5721 59.21 40.6071 59.12 40.6771 59.05C40.7571 58.98 40.8521 58.945 40.9621 58.945H43.1371C43.7471 58.945 44.2021 58.79 44.5021 58.48C44.8021 58.17 44.9671 57.73 44.9971 57.16C45.0071 56.98 45.0121 56.83 45.0121 56.71C45.0121 56.59 45.0071 56.445 44.9971 56.275C44.9671 55.695 44.8021 55.255 44.5021 54.955C44.2021 54.645 43.7471 54.49 43.1371 54.49H40.9621C40.8521 54.49 40.7571 54.455 40.6771 54.385C40.6071 54.315 40.5721 54.225 40.5721 54.115V52.81C40.5721 52.7 40.6071 52.61 40.6771 52.54C40.7571 52.47 40.8521 52.435 40.9621 52.435H43.2121C44.1721 52.435 44.9471 52.595 45.5371 52.915C46.1271 53.225 46.5621 53.67 46.8421 54.25C47.1321 54.82 47.2971 55.495 47.3371 56.275C47.3471 56.445 47.3521 56.59 47.3521 56.71C47.3521 56.83 47.3471 56.98 47.3371 57.16C47.2971 57.93 47.1321 58.605 46.8421 59.185C46.5621 59.765 46.1271 60.215 45.5371 60.535C44.9471 60.845 44.1721 61 43.2121 61H40.9621ZM50.7434 61.18C50.6434 61.21 50.5484 61.18 50.4584 61.09C50.3784 61 50.3384 60.905 50.3384 60.805V59.365C50.3384 59.265 50.3734 59.17 50.4434 59.08C50.5134 58.99 50.6034 58.925 50.7134 58.885L51.1934 58.69C51.4734 58.57 51.7284 58.42 51.9584 58.24C52.1984 58.05 52.3884 57.8 52.5284 57.49C52.6684 57.18 52.7384 56.775 52.7384 56.275C52.7384 55.845 52.6884 55.5 52.5884 55.24C52.4884 54.98 52.3184 54.79 52.0784 54.67C51.8484 54.55 51.5184 54.49 51.0884 54.49H50.7434C50.6434 54.49 50.5534 54.455 50.4734 54.385C50.4034 54.315 50.3684 54.225 50.3684 54.115V52.795C50.3684 52.695 50.4034 52.61 50.4734 52.54C50.5534 52.47 50.6434 52.435 50.7434 52.435H51.5834C52.4834 52.435 53.1984 52.58 53.7284 52.87C54.2684 53.15 54.6534 53.575 54.8834 54.145C55.1234 54.705 55.2434 55.395 55.2434 56.215C55.2434 56.895 55.1334 57.5 54.9134 58.03C54.7034 58.56 54.4134 59.025 54.0434 59.425C53.6734 59.815 53.2584 60.14 52.7984 60.4C52.3384 60.66 51.8534 60.86 51.3434 61L50.7434 61.18ZM51.2684 54.49H48.7334C48.6334 54.49 48.5434 54.455 48.4634 54.385C48.3934 54.315 48.3584 54.225 48.3584 54.115V50.725C48.3584 50.615 48.3934 50.525 48.4634 50.455C48.5434 50.385 48.6334 50.35 48.7334 50.35H50.2634C50.3734 50.35 50.4634 50.385 50.5334 50.455C50.6034 50.525 50.6384 50.615 50.6384 50.725V52.435H51.2834L51.2684 54.49ZM57.1057 61C56.9957 61 56.9057 60.965 56.8357 60.895C56.7657 60.825 56.7307 60.735 56.7307 60.625V59.365C56.7307 59.255 56.7657 59.165 56.8357 59.095C56.9057 59.025 56.9957 58.99 57.1057 58.99H60.6607L56.2807 52.975C56.2607 52.935 56.2407 52.895 56.2207 52.855C56.2007 52.815 56.1907 52.775 56.1907 52.735C56.1907 52.645 56.2207 52.575 56.2807 52.525C56.3507 52.465 56.4307 52.435 56.5207 52.435H58.2757C58.4157 52.435 58.5207 52.47 58.5907 52.54C58.6607 52.6 58.7157 52.655 58.7557 52.705L63.3007 58.975C63.3507 59.045 63.3957 59.12 63.4357 59.2C63.4857 59.27 63.5107 59.36 63.5107 59.47V60.625C63.5107 60.735 63.4707 60.825 63.3907 60.895C63.3207 60.965 63.2357 61 63.1357 61H57.1057ZM61.8907 57.46L60.6757 55.825C61.0357 55.605 61.2857 55.315 61.4257 54.955C61.5657 54.595 61.6357 54.18 61.6357 53.71V52.825C61.6357 52.705 61.6707 52.61 61.7407 52.54C61.8207 52.47 61.9107 52.435 62.0107 52.435H63.5107C63.6207 52.435 63.7107 52.475 63.7807 52.555C63.8507 52.635 63.8857 52.725 63.8857 52.825V54.145C63.8857 54.845 63.7157 55.485 63.3757 56.065C63.0357 56.645 62.5407 57.11 61.8907 57.46ZM71.3851 61C71.2251 61 71.1051 60.96 71.0251 60.88C70.9451 60.8 70.8901 60.74 70.8601 60.7L65.4601 52.975C65.4101 52.905 65.3851 52.83 65.3851 52.75C65.3851 52.67 65.4151 52.6 65.4751 52.54C65.5451 52.47 65.6251 52.435 65.7151 52.435H67.3801C67.5401 52.435 67.6601 52.475 67.7401 52.555C67.8201 52.635 67.8801 52.7 67.9201 52.75L73.3651 60.46C73.4051 60.51 73.4251 60.555 73.4251 60.595C73.4351 60.625 73.4401 60.655 73.4401 60.685C73.4401 60.765 73.4101 60.84 73.3501 60.91C73.2901 60.97 73.2151 61 73.1251 61H71.3851ZM65.7001 61C65.6001 61 65.5101 60.96 65.4301 60.88C65.3601 60.8 65.3251 60.71 65.3251 60.61V58.705C65.3251 58.145 65.3751 57.655 65.4751 57.235C65.5751 56.805 65.7551 56.415 66.0151 56.065C66.2751 55.715 66.6501 55.37 67.1401 55.03L68.2951 56.71C68.0451 56.89 67.8601 57.1 67.7401 57.34C67.6301 57.57 67.5601 57.805 67.5301 58.045C67.5001 58.285 67.4851 58.5 67.4851 58.69V60.61C67.4851 60.73 67.4451 60.825 67.3651 60.895C67.2951 60.965 67.2101 61 67.1101 61H65.7001ZM71.2651 58.09L70.0951 56.425C70.4151 56.265 70.6401 56.09 70.7701 55.9C70.9101 55.7 70.9951 55.495 71.0251 55.285C71.0551 55.075 71.0701 54.875 71.0701 54.685V52.825C71.0701 52.705 71.1051 52.61 71.1751 52.54C71.2551 52.47 71.3451 52.435 71.4451 52.435H72.9451C73.0451 52.435 73.1301 52.475 73.2001 52.555C73.2801 52.635 73.3201 52.725 73.3201 52.825V54.745C73.3201 55.155 73.2651 55.555 73.1551 55.945C73.0451 56.335 72.8451 56.71 72.5551 57.07C72.2651 57.43 71.8351 57.77 71.2651 58.09ZM79.7859 54.49V55.225C79.7859 55.465 79.8109 55.675 79.8609 55.855C79.9109 56.025 80.0159 56.135 80.1759 56.185L80.5959 56.335C80.6759 56.365 80.7359 56.425 80.7759 56.515C80.8259 56.595 80.8509 56.685 80.8509 56.785L80.8659 57.625C80.8659 57.735 80.8059 57.825 80.6859 57.895C80.5759 57.955 80.4609 57.98 80.3409 57.97L79.5759 57.865C79.2459 57.805 78.9459 57.66 78.6759 57.43C78.4059 57.2 78.1909 56.885 78.0309 56.485C77.8809 56.085 77.8059 55.61 77.8059 55.06V52.81C77.8059 52.7 77.8409 52.61 77.9109 52.54C77.9809 52.47 78.0709 52.435 78.1809 52.435H81.0759C81.9659 52.435 82.6909 52.595 83.2509 52.915C83.8209 53.225 84.2459 53.67 84.5259 54.25C84.8059 54.82 84.9609 55.495 84.9909 56.275L85.0059 62.485C85.0059 62.595 84.9659 62.685 84.8859 62.755C84.8159 62.825 84.7259 62.86 84.6159 62.86H83.0259C82.9259 62.86 82.8359 62.825 82.7559 62.755C82.6859 62.685 82.6509 62.595 82.6509 62.485V56.275C82.6409 55.695 82.4859 55.25 82.1859 54.94C81.8959 54.62 81.4509 54.465 80.8509 54.475L79.7859 54.49ZM87.0314 61C86.9214 61 86.8264 60.965 86.7464 60.895C86.6764 60.825 86.6414 60.735 86.6414 60.625V59.32C86.6414 59.21 86.6764 59.12 86.7464 59.05C86.8264 58.98 86.9214 58.945 87.0314 58.945H89.2064C89.8164 58.945 90.2714 58.79 90.5714 58.48C90.8714 58.17 91.0364 57.73 91.0664 57.16C91.0764 56.98 91.0814 56.83 91.0814 56.71C91.0814 56.59 91.0764 56.445 91.0664 56.275C91.0364 55.695 90.8714 55.255 90.5714 54.955C90.2714 54.645 89.8164 54.49 89.2064 54.49H87.0314C86.9214 54.49 86.8264 54.455 86.7464 54.385C86.6764 54.315 86.6414 54.225 86.6414 54.115V52.81C86.6414 52.7 86.6764 52.61 86.7464 52.54C86.8264 52.47 86.9214 52.435 87.0314 52.435H89.2814C90.2414 52.435 91.0164 52.595 91.6064 52.915C92.1964 53.225 92.6314 53.67 92.9114 54.25C93.2014 54.82 93.3664 55.495 93.4064 56.275C93.4164 56.445 93.4214 56.59 93.4214 56.71C93.4214 56.83 93.4164 56.98 93.4064 57.16C93.3664 57.93 93.2014 58.605 92.9114 59.185C92.6314 59.765 92.1964 60.215 91.6064 60.535C91.0164 60.845 90.2414 61 89.2814 61H87.0314ZM95.507 54.4C95.397 54.4 95.307 54.365 95.237 54.295C95.167 54.225 95.132 54.135 95.132 54.025V52.81C95.132 52.7 95.167 52.61 95.237 52.54C95.307 52.47 95.397 52.435 95.507 52.435H99.617C100.517 52.435 101.272 52.565 101.882 52.825C102.492 53.075 102.952 53.47 103.262 54.01C103.572 54.55 103.727 55.25 103.727 56.11V60.625C103.727 60.735 103.692 60.825 103.622 60.895C103.552 60.965 103.462 61 103.352 61H101.672C101.562 61 101.472 60.965 101.402 60.895C101.332 60.825 101.297 60.74 101.297 60.64V56.185C101.297 55.605 101.152 55.165 100.862 54.865C100.582 54.555 100.137 54.4 99.527 54.4H95.507ZM97.367 53.365H98.042C98.312 53.365 98.497 53.42 98.597 53.53C98.707 53.64 98.737 53.755 98.687 53.875C98.597 54.195 98.522 54.5 98.462 54.79C98.402 55.07 98.357 55.36 98.327 55.66C98.307 55.96 98.297 56.295 98.297 56.665L98.417 60.625C98.417 60.735 98.377 60.825 98.297 60.895C98.227 60.965 98.142 61 98.042 61L94.937 60.985C94.837 60.985 94.747 60.95 94.667 60.88C94.597 60.81 94.562 60.72 94.562 60.61V59.5C94.562 59.39 94.597 59.3 94.667 59.23C94.747 59.15 94.837 59.11 94.937 59.11L96.152 59.125V56.695C96.152 56.365 96.162 56.055 96.182 55.765C96.202 55.465 96.237 55.16 96.287 54.85C96.347 54.54 96.432 54.215 96.542 53.875C96.592 53.735 96.672 53.615 96.782 53.515C96.902 53.415 97.097 53.365 97.367 53.365Z" fill="black"/>
</g>
<defs>
<clipPath id="clip0_1073_454">
<rect width="141.427" height="177.338" fill="white" transform="translate(110.574 54.498)"/>
</clipPath>
<clipPath id="clip1_1073_454">
<rect width="137" height="93" fill="white"/>
</clipPath>
</defs>
</svg>
