<svg width="83" height="70" viewBox="0 0 83 70" fill="none" xmlns="http://www.w3.org/2000/svg">
<g clip-path="url(#clip0_724_887)">
<path d="M7.17418 0L77.2834 0.202109C80.1898 1.15114 82.2058 5.21968 82.5026 8.12829C81.2196 24.7803 84.0997 43.6731 82.5026 60.0351C81.7869 67.3286 78.3482 68.7698 71.6017 69.2706C54.4693 70.5448 28.33 70.1318 11.3722 68.3216C8.61424 68.0228 5.46356 69.1388 3.06346 67.0211C1.50121 65.6503 0.576074 59.7188 0.401521 57.3989C-0.60216 44.0773 0.471342 29.3058 1.33538 16.0984C1.7194 10.3076 -0.567248 1.34446 7.17418 0ZM36.2198 12.9877C35.7223 4.43761 28.7315 5.82601 22.2556 5.95782C21.2781 6.88928 25.7379 12.4253 27.1867 12.8559L36.2198 12.9877ZM55.2199 7.9174C53.1078 5.54482 48.744 5.86116 45.8202 5.95782C45.4799 6.28295 47.4959 12.4956 48.9796 12.8822L57.1662 12.9877C57.4978 12.6714 55.6563 8.4007 55.2199 7.9174ZM73.6789 6.02812C71.7763 5.44815 69.7689 6.39719 68.0758 6.44112C67.0721 6.46749 63.3977 4.76274 64.157 7.26714C64.288 7.68893 67.3426 12.4077 67.6045 12.5835C69.0882 13.6204 72.7189 12.6977 74.6215 12.9877L73.6789 6.01933V6.02812ZM14.4007 12.9877C15.2385 12.2056 11.3635 6.18629 9.16409 6.83656C8.74516 11.7663 9.02444 13.6995 14.4007 12.9877ZM5.63811 19.1388V63.9543H77.2834V19.1388H5.63811Z" fill="#2461E5"/>
<g clip-path="url(#clip1_724_887)">
<path d="M28.8013 26.0722C31.7512 24.8331 32.6414 25.7294 35.1986 27.1003C40.1123 29.7277 48.037 33.928 52.3398 37.0827C54.6351 38.7699 54.9057 40.7382 52.8285 42.7857C50.7513 44.8331 37.0664 52.8384 34.0902 53.7962C32.24 54.385 28.81 53.6908 28.81 51.9948V26.0722H28.8013Z" fill="#2461E5"/>
</g>
</g>
<defs>
<clipPath id="clip0_724_887">
<rect width="83" height="70" fill="white"/>
</clipPath>
<clipPath id="clip1_724_887">
<rect width="25.4324" height="28.5237" fill="white" transform="translate(28.8013 25.4834)"/>
</clipPath>
</defs>
</svg>
