<svg width="120" height="180" viewBox="0 0 120 180" fill="none" xmlns="http://www.w3.org/2000/svg">
<mask id="path-1-inside-1_738_2583" fill="white">
<path d="M17.4751 160.536L16.2431 159.8L17.7151 157.336L20.4191 158.936V166.952L17.4751 167.608V160.536ZM22.036 162.296L23.38 161.288L21.78 159.256L24.1 157.432L26.436 160.408L27.028 159.944L26.404 159.144L28.612 157.432L31.06 160.552L28.26 162.744L30.644 165.784L28.308 167.592L24.98 163.368V166.984L22.036 167.608V162.296ZM32.5026 160.52L31.2706 159.784L32.7586 157.336L35.4626 158.936V163.352L32.5026 164.008V160.52ZM40.6933 160.872H36.6613L37.3173 158.024H43.3333L44.9013 157.656L45.5733 160.408L43.6533 160.872V166.936L40.6933 167.592V160.872ZM47.2214 160.52L45.9894 159.784L47.4774 157.336L50.1814 158.936V163.352L47.2214 164.008V160.52ZM52.4595 160.536L51.2275 159.8L52.6995 157.336L55.4035 158.936V166.952L52.4595 167.608V160.536ZM59.8919 165.208L61.5079 164.712V160.872H60.3399L60.9959 158.008H69.8599V166.92L66.8839 167.576V160.872H64.4679V166.792L60.8039 167.896L59.8919 165.208ZM71.2015 164.888L75.8575 164.376V160.872H70.9775L71.6335 158.024H78.8015L78.8175 166.92L71.5375 167.72L71.2015 164.888ZM83.9626 160.856H79.8506L80.5066 158.008H86.9226V166.92L83.9626 167.576V160.856ZM89.272 160.536L88.04 159.8L89.512 157.336L92.216 158.936V166.952L89.272 167.608V160.536ZM93.4169 165.992L95.7849 165.096L94.6169 160.728L93.0169 159.784L94.4729 157.352L97.2089 158.984L98.5529 164.088L99.0649 163.896L99.6569 160.568L98.3609 159.784L99.8329 157.352L102.921 159.208L101.705 166.008L94.3449 168.712L93.4169 165.992Z"/>
</mask>
<path d="M17.4751 160.536H20.4751V158.834L19.0137 157.961L17.4751 160.536ZM16.2431 159.8L13.6677 158.261L12.1291 160.837L14.7046 162.375L16.2431 159.8ZM17.7151 157.336L19.2429 154.754L16.6718 153.233L15.1397 155.797L17.7151 157.336ZM20.4191 158.936H23.4191V157.225L21.9469 156.354L20.4191 158.936ZM20.4191 166.952L21.0716 169.88L23.4191 169.357V166.952H20.4191ZM17.4751 167.608H14.4751V171.35L18.1276 170.536L17.4751 167.608ZM17.4751 160.536L19.0137 157.961L17.7817 157.225L16.2431 159.8L14.7046 162.375L15.9366 163.111L17.4751 160.536ZM16.2431 159.8L18.8186 161.339L20.2906 158.875L17.7151 157.336L15.1397 155.797L13.6677 158.261L16.2431 159.8ZM17.7151 157.336L16.1874 159.918L18.8914 161.518L20.4191 158.936L21.9469 156.354L19.2429 154.754L17.7151 157.336ZM20.4191 158.936H17.4191V166.952H20.4191H23.4191V158.936H20.4191ZM20.4191 166.952L19.7667 164.024L16.8227 164.68L17.4751 167.608L18.1276 170.536L21.0716 169.88L20.4191 166.952ZM17.4751 167.608H20.4751V160.536H17.4751H14.4751V167.608H17.4751ZM22.036 162.296L20.236 159.896L19.036 160.796V162.296H22.036ZM23.38 161.288L25.18 163.688L27.6371 161.845L25.737 159.432L23.38 161.288ZM21.78 159.256L19.9258 156.898L17.5657 158.753L19.423 161.112L21.78 159.256ZM24.1 157.432L26.4598 155.58L24.6061 153.218L22.2458 155.074L24.1 157.432ZM26.436 160.408L24.0762 162.26L25.9272 164.618L28.2867 162.769L26.436 160.408ZM27.028 159.944L28.8787 162.305L31.2343 160.459L29.3935 158.099L27.028 159.944ZM26.404 159.144L24.5658 156.773L22.1881 158.617L24.0385 160.989L26.404 159.144ZM28.612 157.432L30.9722 155.58L29.131 153.233L26.7738 155.061L28.612 157.432ZM31.06 160.552L32.9093 162.914L35.2741 161.063L33.4202 158.7L31.06 160.552ZM28.26 162.744L26.4107 160.382L24.0465 162.233L25.8993 164.595L28.26 162.744ZM30.644 165.784L32.4802 168.156L34.8678 166.308L33.0047 163.933L30.644 165.784ZM28.308 167.592L25.9515 169.449L27.7922 171.785L30.1442 169.964L28.308 167.592ZM24.98 163.368L27.3365 161.511L21.98 154.713V163.368H24.98ZM24.98 166.984L25.6021 169.919L27.98 169.415V166.984H24.98ZM22.036 167.608H19.036V171.311L22.6581 170.543L22.036 167.608ZM22.036 162.296L23.836 164.696L25.18 163.688L23.38 161.288L21.58 158.888L20.236 159.896L22.036 162.296ZM23.38 161.288L25.737 159.432L24.137 157.4L21.78 159.256L19.423 161.112L21.023 163.144L23.38 161.288ZM21.78 159.256L23.6342 161.614L25.9542 159.79L24.1 157.432L22.2458 155.074L19.9258 156.898L21.78 159.256ZM24.1 157.432L21.7402 159.284L24.0762 162.26L26.436 160.408L28.7958 158.556L26.4598 155.58L24.1 157.432ZM26.436 160.408L28.2867 162.769L28.8787 162.305L27.028 159.944L25.1774 157.583L24.5854 158.047L26.436 160.408ZM27.028 159.944L29.3935 158.099L28.7695 157.299L26.404 159.144L24.0385 160.989L24.6625 161.789L27.028 159.944ZM26.404 159.144L28.2423 161.515L30.4503 159.803L28.612 157.432L26.7738 155.061L24.5658 156.773L26.404 159.144ZM28.612 157.432L26.2518 159.284L28.6998 162.404L31.06 160.552L33.4202 158.7L30.9722 155.58L28.612 157.432ZM31.06 160.552L29.2107 158.19L26.4107 160.382L28.26 162.744L30.1093 165.106L32.9093 162.914L31.06 160.552ZM28.26 162.744L25.8993 164.595L28.2833 167.635L30.644 165.784L33.0047 163.933L30.6207 160.893L28.26 162.744ZM30.644 165.784L28.8078 163.412L26.4718 165.22L28.308 167.592L30.1442 169.964L32.4802 168.156L30.644 165.784ZM28.308 167.592L30.6645 165.735L27.3365 161.511L24.98 163.368L22.6235 165.225L25.9515 169.449L28.308 167.592ZM24.98 163.368H21.98V166.984H24.98H27.98V163.368H24.98ZM24.98 166.984L24.358 164.049L21.414 164.673L22.036 167.608L22.6581 170.543L25.6021 169.919L24.98 166.984ZM22.036 167.608H25.036V162.296H22.036H19.036V167.608H22.036ZM32.5026 160.52H35.5026V158.818L34.0412 157.945L32.5026 160.52ZM31.2706 159.784L28.7071 158.226L27.1368 160.809L29.7321 162.359L31.2706 159.784ZM32.7586 157.336L34.2864 154.754L31.7349 153.244L30.1951 155.778L32.7586 157.336ZM35.4626 158.936H38.4626V157.225L36.9904 156.354L35.4626 158.936ZM35.4626 163.352L36.1117 166.281L38.4626 165.76V163.352H35.4626ZM32.5026 164.008H29.5026V167.746L33.1517 166.937L32.5026 164.008ZM32.5026 160.52L34.0412 157.945L32.8092 157.209L31.2706 159.784L29.7321 162.359L30.9641 163.095L32.5026 160.52ZM31.2706 159.784L33.8342 161.342L35.3222 158.894L32.7586 157.336L30.1951 155.778L28.7071 158.226L31.2706 159.784ZM32.7586 157.336L31.2309 159.918L33.9349 161.518L35.4626 158.936L36.9904 156.354L34.2864 154.754L32.7586 157.336ZM35.4626 158.936H32.4626V163.352H35.4626H38.4626V158.936H35.4626ZM35.4626 163.352L34.8135 160.423L31.8535 161.079L32.5026 164.008L33.1517 166.937L36.1117 166.281L35.4626 163.352ZM32.5026 164.008H35.5026V160.52H32.5026H29.5026V164.008H32.5026ZM40.6933 160.872H43.6933V157.872H40.6933V160.872ZM36.6613 160.872L33.7378 160.199L32.8917 163.872H36.6613V160.872ZM37.3173 158.024V155.024H34.9297L34.3938 157.351L37.3173 158.024ZM43.3333 158.024V161.024H43.6806L44.0187 160.945L43.3333 158.024ZM44.9013 157.656L47.8156 156.944L47.1103 154.056L44.2158 154.735L44.9013 157.656ZM45.5733 160.408L46.278 163.324L49.201 162.618L48.4876 159.696L45.5733 160.408ZM43.6533 160.872L42.9485 157.956L40.6533 158.511V160.872H43.6533ZM43.6533 166.936L44.3024 169.865L46.6533 169.344V166.936H43.6533ZM40.6933 167.592H37.6933V171.33L41.3424 170.521L40.6933 167.592ZM40.6933 160.872V157.872H36.6613V160.872V163.872H40.6933V160.872ZM36.6613 160.872L39.5847 161.545L40.2407 158.697L37.3173 158.024L34.3938 157.351L33.7378 160.199L36.6613 160.872ZM37.3173 158.024V161.024H43.3333V158.024V155.024H37.3173V158.024ZM43.3333 158.024L44.0187 160.945L45.5867 160.577L44.9013 157.656L44.2158 154.735L42.6478 155.103L43.3333 158.024ZM44.9013 157.656L41.9869 158.368L42.6589 161.12L45.5733 160.408L48.4876 159.696L47.8156 156.944L44.9013 157.656ZM45.5733 160.408L44.8685 157.492L42.9485 157.956L43.6533 160.872L44.358 163.788L46.278 163.324L45.5733 160.408ZM43.6533 160.872H40.6533V166.936H43.6533H46.6533V160.872H43.6533ZM43.6533 166.936L43.0041 164.007L40.0441 164.663L40.6933 167.592L41.3424 170.521L44.3024 169.865L43.6533 166.936ZM40.6933 167.592H43.6933V160.872H40.6933H37.6933V167.592H40.6933ZM47.2214 160.52H50.2214V158.818L48.7599 157.945L47.2214 160.52ZM45.9894 159.784L43.4258 158.226L41.8556 160.809L44.4508 162.359L45.9894 159.784ZM47.4774 157.336L49.0051 154.754L46.4537 153.244L44.9138 155.778L47.4774 157.336ZM50.1814 158.936H53.1814V157.225L51.7091 156.354L50.1814 158.936ZM50.1814 163.352L50.8305 166.281L53.1814 165.76V163.352H50.1814ZM47.2214 164.008H44.2214V167.746L47.8705 166.937L47.2214 164.008ZM47.2214 160.52L48.7599 157.945L47.528 157.209L45.9894 159.784L44.4508 162.359L45.6828 163.095L47.2214 160.52ZM45.9894 159.784L48.5529 161.342L50.041 158.894L47.4774 157.336L44.9138 155.778L43.4258 158.226L45.9894 159.784ZM47.4774 157.336L45.9497 159.918L48.6537 161.518L50.1814 158.936L51.7091 156.354L49.0051 154.754L47.4774 157.336ZM50.1814 158.936H47.1814V163.352H50.1814H53.1814V158.936H50.1814ZM50.1814 163.352L49.5323 160.423L46.5723 161.079L47.2214 164.008L47.8705 166.937L50.8305 166.281L50.1814 163.352ZM47.2214 164.008H50.2214V160.52H47.2214H44.2214V164.008H47.2214ZM52.4595 160.536H55.4595V158.834L53.9981 157.961L52.4595 160.536ZM51.2275 159.8L48.6521 158.261L47.1135 160.837L49.6889 162.375L51.2275 159.8ZM52.6995 157.336L54.2272 154.754L51.6562 153.233L50.1241 155.797L52.6995 157.336ZM55.4035 158.936H58.4035V157.225L56.9312 156.354L55.4035 158.936ZM55.4035 166.952L56.056 169.88L58.4035 169.357V166.952H55.4035ZM52.4595 167.608H49.4595V171.35L53.112 170.536L52.4595 167.608ZM52.4595 160.536L53.9981 157.961L52.7661 157.225L51.2275 159.8L49.6889 162.375L50.9209 163.111L52.4595 160.536ZM51.2275 159.8L53.8029 161.339L55.2749 158.875L52.6995 157.336L50.1241 155.797L48.6521 158.261L51.2275 159.8ZM52.6995 157.336L51.1718 159.918L53.8758 161.518L55.4035 158.936L56.9312 156.354L54.2272 154.754L52.6995 157.336ZM55.4035 158.936H52.4035V166.952H55.4035H58.4035V158.936H55.4035ZM55.4035 166.952L54.751 164.024L51.807 164.68L52.4595 167.608L53.112 170.536L56.056 169.88L55.4035 166.952ZM52.4595 167.608H55.4595V160.536H52.4595H49.4595V167.608H52.4595ZM59.8919 165.208L59.0116 162.34L56.0584 163.246L57.0509 166.172L59.8919 165.208ZM61.5079 164.712L62.3881 167.58L64.5079 166.929V164.712H61.5079ZM61.5079 160.872H64.5079V157.872H61.5079V160.872ZM60.3399 160.872L57.4156 160.202L56.575 163.872H60.3399V160.872ZM60.9959 158.008V155.008H58.6053L58.0716 157.338L60.9959 158.008ZM69.8599 158.008H72.8599V155.008H69.8599V158.008ZM69.8599 166.92L70.5057 169.85L72.8599 169.331V166.92H69.8599ZM66.8839 167.576H63.8839V171.309L67.5297 170.506L66.8839 167.576ZM66.8839 160.872H69.8839V157.872H66.8839V160.872ZM64.4679 160.872V157.872H61.4679V160.872H64.4679ZM64.4679 166.792L65.3334 169.664L67.4679 169.021V166.792H64.4679ZM60.8039 167.896L57.9629 168.86L58.8942 171.605L61.6694 170.768L60.8039 167.896ZM59.8919 165.208L60.7721 168.076L62.3881 167.58L61.5079 164.712L60.6276 161.844L59.0116 162.34L59.8919 165.208ZM61.5079 164.712H64.5079V160.872H61.5079H58.5079V164.712H61.5079ZM61.5079 160.872V157.872H60.3399V160.872V163.872H61.5079V160.872ZM60.3399 160.872L63.2642 161.542L63.9202 158.678L60.9959 158.008L58.0716 157.338L57.4156 160.202L60.3399 160.872ZM60.9959 158.008V161.008H69.8599V158.008V155.008H60.9959V158.008ZM69.8599 158.008H66.8599V166.92H69.8599H72.8599V158.008H69.8599ZM69.8599 166.92L69.2141 163.99L66.2381 164.646L66.8839 167.576L67.5297 170.506L70.5057 169.85L69.8599 166.92ZM66.8839 167.576H69.8839V160.872H66.8839H63.8839V167.576H66.8839ZM66.8839 160.872V157.872H64.4679V160.872V163.872H66.8839V160.872ZM64.4679 160.872H61.4679V166.792H64.4679H67.4679V160.872H64.4679ZM64.4679 166.792L63.6024 163.92L59.9384 165.024L60.8039 167.896L61.6694 170.768L65.3334 169.664L64.4679 166.792ZM60.8039 167.896L63.6448 166.932L62.7328 164.244L59.8919 165.208L57.0509 166.172L57.9629 168.86L60.8039 167.896ZM71.2015 164.888L70.8736 161.906L67.8659 162.237L68.2224 165.241L71.2015 164.888ZM75.8575 164.376L76.1854 167.358L78.8575 167.064V164.376H75.8575ZM75.8575 160.872H78.8575V157.872H75.8575V160.872ZM70.9775 160.872L68.0541 160.199L67.2079 163.872H70.9775V160.872ZM71.6335 158.024V155.024H69.246L68.7101 157.351L71.6335 158.024ZM78.8015 158.024L81.8015 158.019L81.7961 155.024H78.8015V158.024ZM78.8175 166.92L79.1452 169.902L81.8223 169.608L81.8175 166.915L78.8175 166.92ZM71.5375 167.72L68.5584 168.073L68.9088 171.027L71.8652 170.702L71.5375 167.72ZM71.2015 164.888L71.5294 167.87L76.1854 167.358L75.8575 164.376L75.5296 161.394L70.8736 161.906L71.2015 164.888ZM75.8575 164.376H78.8575V160.872H75.8575H72.8575V164.376H75.8575ZM75.8575 160.872V157.872H70.9775V160.872V163.872H75.8575V160.872ZM70.9775 160.872L73.901 161.545L74.557 158.697L71.6335 158.024L68.7101 157.351L68.0541 160.199L70.9775 160.872ZM71.6335 158.024V161.024H78.8015V158.024V155.024H71.6335V158.024ZM78.8015 158.024L75.8015 158.029L75.8175 166.925L78.8175 166.92L81.8175 166.915L81.8015 158.019L78.8015 158.024ZM78.8175 166.92L78.4898 163.938L71.2098 164.738L71.5375 167.72L71.8652 170.702L79.1452 169.902L78.8175 166.92ZM71.5375 167.72L74.5166 167.367L74.1806 164.535L71.2015 164.888L68.2224 165.241L68.5584 168.073L71.5375 167.72ZM83.9626 160.856H86.9626V157.856H83.9626V160.856ZM79.8506 160.856L76.9272 160.183L76.0811 163.856H79.8506V160.856ZM80.5066 158.008V155.008H78.1191L77.5832 157.335L80.5066 158.008ZM86.9226 158.008H89.9226V155.008H86.9226V158.008ZM86.9226 166.92L87.5717 169.849L89.9226 169.328V166.92H86.9226ZM83.9626 167.576H80.9626V171.314L84.6117 170.505L83.9626 167.576ZM83.9626 160.856V157.856H79.8506V160.856V163.856H83.9626V160.856ZM79.8506 160.856L82.7741 161.529L83.4301 158.681L80.5066 158.008L77.5832 157.335L76.9272 160.183L79.8506 160.856ZM80.5066 158.008V161.008H86.9226V158.008V155.008H80.5066V158.008ZM86.9226 158.008H83.9226V166.92H86.9226H89.9226V158.008H86.9226ZM86.9226 166.92L86.2735 163.991L83.3135 164.647L83.9626 167.576L84.6117 170.505L87.5717 169.849L86.9226 166.92ZM83.9626 167.576H86.9626V160.856H83.9626H80.9626V167.576H83.9626ZM89.272 160.536H92.272V158.834L90.8106 157.961L89.272 160.536ZM88.04 159.8L85.4646 158.261L83.926 160.837L86.5014 162.375L88.04 159.8ZM89.512 157.336L91.0397 154.754L88.4687 153.233L86.9366 155.797L89.512 157.336ZM92.216 158.936H95.216V157.225L93.7437 156.354L92.216 158.936ZM92.216 166.952L92.8685 169.88L95.216 169.357V166.952H92.216ZM89.272 167.608H86.272V171.35L89.9245 170.536L89.272 167.608ZM89.272 160.536L90.8106 157.961L89.5786 157.225L88.04 159.8L86.5014 162.375L87.7334 163.111L89.272 160.536ZM88.04 159.8L90.6154 161.339L92.0874 158.875L89.512 157.336L86.9366 155.797L85.4646 158.261L88.04 159.8ZM89.512 157.336L87.9843 159.918L90.6883 161.518L92.216 158.936L93.7437 156.354L91.0397 154.754L89.512 157.336ZM92.216 158.936H89.216V166.952H92.216H95.216V158.936H92.216ZM92.216 166.952L91.5635 164.024L88.6195 164.68L89.272 167.608L89.9245 170.536L92.8685 169.88L92.216 166.952ZM89.272 167.608H92.272V160.536H89.272H86.272V167.608H89.272ZM93.4169 165.992L92.3552 163.186L89.6403 164.213L90.5776 166.961L93.4169 165.992ZM95.7849 165.096L96.8466 167.902L99.3839 166.942L98.6831 164.321L95.7849 165.096ZM94.6169 160.728L97.5151 159.953L97.1981 158.768L96.1413 158.144L94.6169 160.728ZM93.0169 159.784L90.4429 158.243L88.892 160.834L91.4924 162.368L93.0169 159.784ZM94.4729 157.352L96.0097 154.776L93.4374 153.241L91.8989 155.811L94.4729 157.352ZM97.2089 158.984L100.11 158.22L99.798 157.035L98.7457 156.408L97.2089 158.984ZM98.5529 164.088L95.6518 164.852L96.4973 168.063L99.6063 166.897L98.5529 164.088ZM99.0649 163.896L100.118 166.705L101.719 166.105L102.019 164.421L99.0649 163.896ZM99.6569 160.568L102.611 161.093L102.971 159.067L101.21 158.001L99.6569 160.568ZM98.3609 159.784L95.7944 158.231L94.2406 160.798L96.8081 162.351L98.3609 159.784ZM99.8329 157.352L101.378 154.781L98.815 153.24L97.2664 155.799L99.8329 157.352ZM102.921 159.208L105.874 159.736L106.238 157.701L104.466 156.637L102.921 159.208ZM101.705 166.008L102.739 168.824L104.355 168.23L104.658 166.536L101.705 166.008ZM94.3449 168.712L91.5056 169.681L92.4971 172.587L95.3794 171.528L94.3449 168.712ZM93.4169 165.992L94.4786 168.798L96.8466 167.902L95.7849 165.096L94.7232 162.29L92.3552 163.186L93.4169 165.992ZM95.7849 165.096L98.6831 164.321L97.5151 159.953L94.6169 160.728L91.7187 161.503L92.8867 165.871L95.7849 165.096ZM94.6169 160.728L96.1413 158.144L94.5413 157.2L93.0169 159.784L91.4924 162.368L93.0924 163.312L94.6169 160.728ZM93.0169 159.784L95.5909 161.325L97.0469 158.893L94.4729 157.352L91.8989 155.811L90.4429 158.243L93.0169 159.784ZM94.4729 157.352L92.9361 159.928L95.6721 161.56L97.2089 158.984L98.7457 156.408L96.0097 154.776L94.4729 157.352ZM97.2089 158.984L94.3078 159.748L95.6518 164.852L98.5529 164.088L101.454 163.324L100.11 158.22L97.2089 158.984ZM98.5529 164.088L99.6063 166.897L100.118 166.705L99.0649 163.896L98.0115 161.087L97.4995 161.279L98.5529 164.088ZM99.0649 163.896L102.019 164.421L102.611 161.093L99.6569 160.568L96.7033 160.043L96.1113 163.371L99.0649 163.896ZM99.6569 160.568L101.21 158.001L99.9137 157.217L98.3609 159.784L96.8081 162.351L98.1041 163.135L99.6569 160.568ZM98.3609 159.784L100.927 161.337L102.399 158.905L99.8329 157.352L97.2664 155.799L95.7944 158.231L98.3609 159.784ZM99.8329 157.352L98.2874 159.923L101.375 161.779L102.921 159.208L104.466 156.637L101.378 154.781L99.8329 157.352ZM102.921 159.208L99.9677 158.68L98.7517 165.48L101.705 166.008L104.658 166.536L105.874 159.736L102.921 159.208ZM101.705 166.008L100.67 163.192L93.3103 165.896L94.3449 168.712L95.3794 171.528L102.739 168.824L101.705 166.008ZM94.3449 168.712L97.1842 167.743L96.2562 165.023L93.4169 165.992L90.5776 166.961L91.5056 169.681L94.3449 168.712Z" fill="#2461E5" mask="url(#path-1-inside-1_738_2583)"/>
<g clip-path="url(#clip0_738_2583)">
<path d="M28.305 111.697L54.2189 111.802C54.4497 111.985 54.4147 112.23 54.4357 112.483C54.6525 114.848 54.2958 117.354 54.2679 119.705C54.2259 123.572 54.6036 128.141 54.2679 131.896C54.0021 134.85 51.589 137.159 48.6514 137.391C43.8813 137.77 38.6286 137.103 33.8095 137.391C31.0467 137.068 28.5917 134.836 28.186 132.05C27.6755 128.506 28.1301 123.86 28.0392 120.161C27.9832 117.683 27.4796 115.136 27.7244 112.637C27.7664 112.174 27.8293 111.921 28.291 111.704L28.305 111.697ZM52.6312 113.472H29.6968V118.813C29.6968 118.877 30.0955 119.838 30.1724 119.992C30.767 121.115 32.0189 121.803 33.2359 122.035C38.2649 121.74 43.8533 122.484 48.8123 122.056C50.5609 121.901 52.6312 120.428 52.6312 118.519V113.479V113.472ZM29.9976 122.645V131.748C29.9976 132.127 30.5571 133.285 30.8159 133.629C31.97 135.152 33.5017 135.475 35.3133 135.587C38.9713 135.805 44.273 135.826 47.917 135.587C50.0223 135.454 52.4843 134.015 52.4843 131.594V122.491C51.7149 123.137 50.7777 123.53 49.8195 123.803C44.6856 123.831 38.7684 124.421 33.6766 123.993C32.3337 123.881 31.1167 123.361 30.0046 122.638L29.9976 122.645Z" fill="#2461E5"/>
<path d="M69.0678 111.69L94.9887 111.802C95.2965 112.09 95.3244 112.392 95.3594 112.785C95.5623 115.038 95.0936 117.459 95.0447 119.705C94.9677 123.411 95.3244 127.509 95.0447 131.138C94.7649 134.766 92.7575 136.963 89.2814 137.384C84.4972 137.054 79.1536 137.812 74.4394 137.377C71.3899 137.096 69.0958 134.612 68.816 131.587C68.4803 127.888 68.8719 123.361 68.816 119.55C68.788 117.67 68.6761 115.747 68.6691 113.838C68.6691 113.101 68.2634 112.308 69.0608 111.69H69.0678ZM93.401 113.473H70.4666V118.364C70.4666 118.47 70.8513 119.663 70.9423 119.845C71.5438 121.123 73.0825 121.951 74.4324 122.056C79.4334 122.456 84.9589 121.761 90.0158 122.035C91.4566 121.923 93.401 120.112 93.401 118.666V113.48V113.473ZM93.2541 122.491C92.212 123.347 90.904 123.804 89.5821 123.993C84.7351 123.74 79.5383 124.337 74.7402 124C73.2154 123.895 71.7746 123.298 70.6275 122.337V131.285C70.6275 133.65 72.9986 135.405 75.1948 135.58C78.8528 135.868 84.7071 135.812 88.4001 135.58C90.4424 135.454 92.0651 134.879 92.8415 132.815C92.9814 132.436 93.2681 131.482 93.2681 131.138V122.491H93.2541Z" fill="#2461E5"/>
<path d="M23.8075 108.847C24.2131 109.275 24.2341 115.066 24.2901 116.111C24.7867 124.989 25.2903 133.854 25.7938 142.725C25.9897 146.171 26.4373 149.659 26.5492 153.098C26.5632 153.596 26.5982 154.109 26.4023 154.586C24.9685 155.379 24.7097 154.312 24.5908 153.105C24.0243 147.301 24.0313 141.209 23.6886 135.363C23.2339 127.551 22.6814 119.733 22.3386 111.9C22.3037 111.156 21.6812 108.51 23.0171 108.524C23.157 108.524 23.7095 108.756 23.8005 108.854L23.8075 108.847Z" fill="#2461E5"/>
<path d="M100.562 108.791L96 154.815L97.9209 155.007L102.483 108.983L100.562 108.791Z" fill="#2461E5"/>
<path d="M80.5105 8.0289C86.6865 6.60418 91.8902 12.2259 90.2675 18.3108C91.1628 18.8442 92.212 19.1179 93.0932 19.6934C96.4365 21.8901 97.4507 26.5082 95.6672 30.0454C99.8358 32.7054 100.899 38.6359 97.3038 42.2433C101.389 45.1068 102.067 51.2127 98.2061 54.5745C101.85 57.5784 101.955 63.4457 98.353 66.5268C102.41 68.6112 102.675 74.5698 99.7169 77.735C102.822 79.7914 103.809 83.5322 102.403 86.9852C104.277 87.7221 106.452 88.8381 107.711 90.4593C108.082 90.9295 108.432 91.87 108.747 92.2069C108.998 92.4736 109.46 92.5718 109.817 93.014C110.299 93.6175 110.264 94.2422 110.586 94.7966C110.824 95.2037 111.327 95.5125 111.572 96.0599C112.132 97.3022 111.691 96.9723 112.677 98.1093C113.552 99.1199 113.286 100.208 113.559 101.289C113.615 101.52 113.943 101.647 114.097 101.934C114.985 103.605 114.153 104.454 114.398 105.703C114.468 106.075 114.895 106.272 115.069 106.686C115.755 108.3 115.104 109.697 115.167 111.128C115.188 111.549 115.664 112.16 115.734 112.637C115.923 113.887 115.496 115.206 115.594 116.385C115.643 117.017 115.958 117.712 116.021 118.357C116.126 119.382 115.944 120.491 116.042 121.494C116.181 122.954 116.629 123.881 116.489 125.551C116.44 126.134 116.07 127.06 116.084 127.537C116.091 127.818 116.566 128.527 116.629 129.025C116.713 129.678 116.706 131.046 116.643 131.72C116.587 132.303 115.888 133.924 115.923 134.106C115.979 134.366 116.692 135.18 116.741 135.952C117.098 141.518 117.643 147.167 117.839 152.775C117.867 153.519 118.392 154.305 117.419 154.775C116.741 155.105 116.349 154.586 116.223 153.94L115.286 140.514L113.929 141.637C114.37 143.693 115.006 145.729 115.265 147.827C115.461 149.413 115.93 151.975 113.489 150.585C113.083 154.361 110.537 156.221 109.138 151.638C108.719 151.533 108.872 151.961 108.509 152.129C107.858 152.431 107.222 152.059 107.075 151.378C106.599 149.231 107.271 145.967 107.69 143.785C107.795 143.23 108.243 142.051 108.229 141.623C108.201 140.865 106.921 139.63 106.886 138.023C106.865 137.103 107.327 136.345 107.327 135.763C107.327 134.977 106.795 134.162 106.9 132.906C106.963 132.113 107.641 130.731 107.634 130.345C107.634 129.432 107.054 128.351 107.194 126.884C107.264 126.19 107.753 125.256 107.788 124.772C107.823 124.288 107.264 123.361 107.194 122.673C107.04 121.129 107.795 120.021 107.774 119.066C107.767 118.561 107.173 117.276 107.187 116.371C107.194 115.613 107.9 113.732 107.886 113.508C107.886 113.409 107.299 112.42 107.222 111.963C106.935 110.132 107.844 108.798 107.781 107.795C107.746 107.282 107.208 106.482 107.173 105.682C107.145 104.938 107.634 103.963 107.599 103.598C107.55 103.127 106.76 102.145 106.732 101.008C106.718 100.306 107.348 98.6918 107.306 98.4813C107.271 98.2988 106.774 97.9479 106.613 97.6812C106.068 96.8109 105.886 95.9547 105.991 94.923C105.655 94.923 105.361 95.0703 105.026 95.0774C99.1433 95.2739 92.8694 93.6386 87.4139 91.5331L83.3642 89.3574C84.4413 91.2804 85.4555 93.2666 86.1339 95.3791C86.5396 96.6495 87.6657 98.8322 85.5604 98.6707C84.3783 98.5795 82.5039 98.1093 81.2589 97.8636C79.909 97.5969 78.5311 97.2952 77.2161 96.8811C77.0553 97.0916 77.9575 98.5795 77.0553 99.2041C72.1663 101.534 67.0954 103.57 62.4441 106.356C62.3392 110.49 62.3322 114.637 62.3602 118.771C62.4302 128.464 62.5561 138.247 62.675 147.939C62.6959 149.659 62.8218 151.856 62.675 153.519C62.5281 155.182 60.8704 155.028 60.7096 153.821C60.8145 137.973 60.5977 122.154 60.5347 106.314C60.3878 105.801 57.1145 104.313 56.422 103.97C52.9039 102.236 49.1829 100.797 45.7977 98.8322L45.8746 96.8741L36.9918 98.6497C35.7398 98.383 36.747 96.2143 37.0268 95.4423C37.8591 93.1614 39.0971 91.0137 39.9504 88.7538C35.8518 90.3259 31.6482 91.5963 27.5495 93.1543C20.3454 95.8845 16.5614 97.7584 14.1694 105.605C12.7006 110.426 11.9452 116.027 11.2667 121.045C9.77694 132.029 8.92364 143.076 7.79056 154.109C7.31494 155.344 5.88111 154.923 5.99302 153.666C7.50379 140.57 8.2312 127.306 10.3854 114.294C11.7913 105.822 13.4909 97.2039 22.038 93.1964L22.3108 91.1822C16.9251 89.1749 16.3446 80.7389 21.2826 77.9245V77.707C18.1631 74.4575 18.6178 68.7095 22.4786 66.2741C18.9115 63.193 19.0934 57.431 22.7794 54.5394C18.9885 51.2408 19.4781 44.9173 23.6816 42.2082C20.1006 38.5727 21.0658 32.6422 25.3183 30.0103C22.9123 25.3502 25.5841 19.539 30.669 18.3739C29.0743 12.3662 34.1591 6.54102 40.3211 7.9868C41.3493 0.821072 49.2739 -1.41076 54.7924 2.72304C55.6806 2.06332 56.2332 1.34745 57.2544 0.835108C60.5417 -0.828238 64.5494 -0.0913127 66.9485 2.709C71.8026 -1.41076 79.5942 1.81066 80.4965 7.9868L80.5105 8.0289ZM66.1651 5.12331C66.0462 5.02506 65.8854 4.75134 65.7315 4.49868C65.6336 4.3513 65.5426 4.20391 65.4517 4.11267C65.3818 4.04249 65.3118 3.97231 65.2419 3.90212C62.8778 1.60713 59.5135 1.22112 56.9116 3.51611C56.2962 4.05653 55.8135 5.15139 54.9532 5.17946C54.3168 5.20051 52.9948 3.9302 52.2185 3.55822C49.071 2.03524 45.5739 2.37914 43.4616 5.36194C42.3285 6.9551 42.7062 7.89556 42.1606 9.32028C41.6221 10.7099 40.3981 9.91684 39.3839 9.83262C35.3761 9.48872 31.9699 12.5277 32.4525 16.6404C32.5574 17.5458 33.4247 19.0056 32.9911 19.6793C32.7253 20.0934 30.6969 20.4303 30.0115 20.7461C27.1928 22.0445 25.7869 25.3782 26.7941 28.333C27.0879 29.2102 27.7383 29.7717 27.8852 30.635C27.5565 31.5474 26.5703 31.6246 25.8219 32.186C23.1431 34.2073 22.6045 37.9621 24.7658 40.594C25.2973 41.2467 26.4234 41.7169 26.2625 42.6925C26.1646 43.268 24.8147 43.8154 24.3251 44.2155C21.8072 46.2718 21.4784 50.1319 23.5627 52.6304C24.0523 53.22 25.3113 53.9218 25.3813 54.5815C25.4792 55.5992 24.5419 55.6694 23.8705 56.2379C21.3875 58.3153 21.2336 62.2877 23.4928 64.5967C24.1433 65.2635 26.3325 66.1688 24.6958 67.2988C23.7866 67.9234 22.9822 68.1761 22.2198 69.1797C20.786 71.0817 20.814 73.882 22.2198 75.798C22.7164 76.4788 24.0593 77.1385 23.9894 78.0158C23.9264 78.8369 22.7164 79.0826 22.0799 79.5738C19.1214 81.8408 19.0234 86.9501 22.1639 89.0907C22.5835 89.3785 24.1992 89.9189 24.3251 90.1154C24.8287 90.9085 23.8285 92.3262 24.0174 92.5718L41.3073 86.3816C42.944 84.5569 44.3149 82.4865 45.9725 80.6827C46.3642 80.2616 47.9379 78.9632 47.9939 78.6474L48.1198 74.6189C43.8323 70.2956 40.8737 64.4985 40.0553 58.4206C34.4319 59.6698 31.9909 52.0479 32.4315 47.6825C32.7882 44.1383 35.4391 41.0151 39.1601 42.7767C39.9085 41.2397 40.3841 40.2431 40.3701 38.4815C40.3701 37.8639 39.8875 36.9304 40.6079 36.4742C41.1954 36.1023 43.2098 36.404 44.119 36.2426C46.5321 35.8005 48.1687 33.4844 48.3156 31.1263C48.3646 30.2911 48.0359 29.2453 48.1618 28.5646C48.4135 27.2592 50.288 28.2417 51.0994 28.3189C53.2746 28.5225 55.8275 27.0135 56.45 24.8519C56.6389 24.1992 56.4081 23.378 57.1914 23.0341C57.9678 22.6972 58.5133 23.4271 59.1708 23.6798C60.5347 24.1992 62.1434 24.0167 63.3464 23.1955C63.9899 22.7604 64.5494 21.5532 65.3888 21.9463C66.0672 22.2621 66.333 24.129 66.6687 24.8729C67.6339 27.0275 69.9141 28.5856 72.3201 28.2908C73.0545 28.1996 74.1247 27.5609 74.7751 28.0242C75.4256 28.4803 74.985 29.3436 74.985 29.9121C74.971 32.2562 75.4186 34.3336 77.5868 35.5899C79.4543 36.6707 80.3006 36.0672 82.1192 36.3058C83.4831 36.4812 82.7626 38.0814 82.7766 38.9447C82.7836 39.5623 83.6649 42.8258 84.3364 42.7556C84.742 42.7135 85.3086 42.2012 86.1199 42.2152C93.7717 42.3837 91.3796 59.5926 83.7698 58.5609C83.497 58.5259 83.3222 58.3785 83.0914 58.2662C82.287 64.4563 79.5592 70.4711 75.0199 74.7663L75.2158 78.865C77.6708 81.0337 79.7691 83.6585 81.5876 86.3886L84.2035 85.0341C89.6171 83.4199 95.4713 84.5288 100.773 86.0939C101.619 83.3287 101.046 80.9635 98.5768 79.3493C97.9473 78.9422 97.0311 78.9913 97.0171 78.0368C97.0031 77.2578 98.0382 76.6823 98.5208 76.0857C100.528 73.5872 100.227 70.1903 97.6955 68.1971C96.9121 67.5795 95.5902 67.4111 95.828 66.1688C95.9259 65.6705 97.1709 65.0248 97.6256 64.5125C99.6119 62.2807 99.584 58.4206 97.3248 56.3853C96.9401 56.0343 95.863 55.529 95.6672 55.1921C94.9957 54.0762 96.4645 53.592 97.101 53.0024C99.4441 50.8478 99.3741 46.8614 97.1569 44.6646C96.6394 44.1523 95.0307 43.3803 94.9258 42.8399C94.688 41.6117 95.7161 41.3169 96.3456 40.5168C98.346 37.9832 97.8704 33.9055 95.1146 32.1158C94.646 31.8141 93.457 31.4631 93.2961 30.9297C93.0583 30.1297 93.8486 29.3927 94.1284 28.6698C95.4084 25.4063 93.8137 21.8129 90.5683 20.5847C89.8689 20.318 88.3651 20.2338 88.0364 19.6653C87.5747 18.8722 88.2042 18.388 88.4001 17.6581C89.5191 13.405 86.0989 9.54487 81.7974 9.83262C81.0211 9.88175 79.811 10.4151 79.1116 9.96597C78.657 9.67822 78.3422 7.27092 77.9436 6.47083C76.0131 2.58969 71.299 1.84575 68.0046 4.56886C67.536 4.95487 67.0884 5.86024 66.1721 5.12331H66.1651ZM73.0126 29.9893C69.3965 30.9227 65.4657 28.2136 64.4655 24.7255C62.619 25.9608 60.22 26.1222 58.1706 25.3291C57.2893 28.7049 53.5963 30.628 50.2251 30.1437C50.5118 34.6354 46.9028 38.685 42.2795 38.1165C42.5103 39.9694 41.3213 43.7733 39.8735 44.9524C38.7614 45.8577 38.1739 43.4785 36.1525 44.3769C32.6693 45.9279 34.5578 55.9361 38.3767 56.7011C39.5098 56.9257 40.8107 55.8238 41.4752 56.6028C41.7899 56.9748 42.1117 59.5435 42.2935 60.2945C44.3988 68.6463 50.5538 77.6157 59.8912 78.121C71.8655 78.7667 78.8458 69.9798 81.063 59.0592C81.2379 58.189 81.07 56.2238 82.2311 56.1537C83.3921 56.0835 83.6299 57.3468 85.5044 56.4414C88.6309 54.9325 90.2955 46.2929 87.1551 44.4541C86.4626 44.047 85.7632 44.033 85.0498 44.3979C84.4483 44.7138 84.0566 45.6402 83.2173 44.9454C82.9935 44.7629 82.2521 43.5557 82.0842 43.2259C81.2519 41.6397 80.7832 39.9202 80.9651 38.1095C76.2999 38.6499 72.5999 34.5652 73.0196 29.9893H73.0126ZM73.1664 76.3173C73.0685 76.205 70.9003 77.7421 70.6205 77.8965C65.4587 80.788 58.6253 80.9354 53.2746 78.4509L50.0782 76.3173C49.2109 82.8865 50.9525 88.7679 54.5126 94.2001C56.6319 97.4355 59.6254 100.011 61.4719 103.387L61.7797 103.296C64.8222 98.6707 68.8579 94.9931 71.0891 89.8066C72.9216 85.5464 73.663 80.9565 73.1594 76.3173H73.1664ZM48.1338 81.5811C47.9729 81.4056 46.7279 82.7532 46.5601 82.9286C42.944 86.8308 40.6009 91.7015 38.6914 96.6144L47.4273 94.6914C48.5255 95.0142 47.4623 97.1197 47.7141 97.9479L59.3806 103.534C58.8281 102.966 58.4364 102.243 57.9398 101.597C56.506 99.7375 54.9253 97.983 53.5614 96.0669C50.5118 91.7858 48.2107 86.9571 48.1338 81.5811ZM84.4063 96.474C84.5112 96.3266 83.3711 93.5263 83.1823 93.1122C82.4199 91.4419 81.154 89.2732 80.1748 87.7081C78.7759 85.4763 77.0693 83.3427 75.1109 81.5881C74.971 84.606 74.0897 87.687 72.9286 90.4593C70.8933 95.3511 67.2982 99.1059 64.1648 103.247L75.3906 97.9619C75.4466 97.1618 74.5583 95.1826 75.6634 94.8528L84.3993 96.474H84.4063ZM88.1273 86.136C86.6655 86.2553 85.0428 86.5501 83.8118 87.3712C87.1201 89.9048 91.3167 91.2734 95.3524 92.1858C97.6535 92.7052 104.48 94.0597 106.347 92.8385C106.501 92.7332 106.662 92.642 106.732 92.4525C106.851 91.9753 105.522 90.7681 105.144 90.4733C101.472 87.6028 92.7086 85.75 88.1273 86.129V86.136ZM108.04 94.0737C107.362 94.2702 107.585 96.3196 108.32 96.6144C108.998 96.2003 108.998 93.793 108.04 94.0737ZM110.187 96.9232C109.859 96.5512 108.907 98.5795 108.83 98.7971C108.537 99.6674 108.39 100.545 108.691 101.436C109.887 100.278 110.362 98.5585 110.187 96.9232ZM111.691 101.962C111.789 101.31 111.621 100.46 111.691 99.7796L109.362 103.984C109.026 104.636 108.928 105.24 109.145 105.942C110.061 105.142 111.502 103.155 111.691 101.955V101.962ZM112.887 103.696C112.481 103.605 112.628 103.822 112.516 103.998C111.418 105.675 109.047 108.181 108.837 110.09C108.809 110.349 108.761 111.676 109.061 111.669C110.516 109.121 113.062 106.889 112.88 103.703L112.887 103.696ZM113.636 110.237C113.733 109.521 113.566 108.644 113.636 107.907L109.558 113.669C109.089 114.659 108.628 116.196 109.061 117.227C110.369 115.388 113.335 112.49 113.636 110.237ZM114.09 115.346C114.181 114.68 114.027 113.851 114.09 113.164L109.621 119.129C108.935 120.252 108.823 121.593 108.991 122.863L109.292 122.94C110.411 120.652 113.747 117.922 114.09 115.346ZM108.844 126.632C108.747 127.285 108.914 128.134 108.844 128.815C109.166 128.857 109.397 128.372 109.586 128.134C111.509 125.783 114.776 122.182 114.391 118.968L114.09 118.891C113.202 121.129 109.187 124.407 108.837 126.639L108.844 126.632ZM114.839 124.147C114.601 124.098 114.531 124.218 114.391 124.372C113.866 124.94 113.286 126.211 112.74 126.927C111.607 128.414 109.306 130.253 108.795 131.994C108.684 132.38 108.306 134.282 108.768 134.373L111.383 131.587C113.349 129.404 114.741 127.186 114.832 124.147H114.839ZM114.985 129.713C114.097 130.555 113.475 131.664 112.663 132.576C111.453 133.938 108.677 135.938 108.551 137.784C108.523 138.191 108.551 138.514 108.837 138.83C112.181 137.117 115.342 133.769 114.985 129.72V129.713ZM114.985 135.882C114.734 135.601 113.293 137.531 113.118 137.693C112.055 138.696 110.747 139.665 109.439 140.318C112.202 141.721 115.517 138.872 114.985 135.882ZM112.44 142.198L109.817 142.346C109.271 144.557 108.726 146.831 108.691 149.119C111.146 147.196 110.187 151.919 111.167 152.424C111.418 152.551 111.404 152.242 111.46 152.122C111.586 151.835 111.74 151.407 111.803 151.105C111.95 150.382 111.894 148.41 112.069 148.059C112.335 147.518 113.132 147.799 113.489 148.059L112.44 142.191V142.198Z" fill="#2461E5"/>
<path d="M66.6826 4.24602C66.3189 3.85299 64.0667 1.54396 60.4646 1.57203C57.0864 1.59309 54.9531 3.65648 54.5335 4.07056C53.869 3.76877 52.9108 3.36171 51.7217 2.94763C48.98 2.00717 47.6091 1.53694 46.3221 1.97909C45.1121 2.39318 44.4686 3.34767 43.2446 5.14437C42.1955 6.6884 41.587 8.11312 41.2373 9.08867C40.4399 9.00445 39.076 8.96936 37.5303 9.48872C36.8798 9.70629 33.9212 10.7099 32.5713 13.791C31.4732 16.3035 32.1307 18.6336 32.3475 19.3004C29.5567 19.4969 27.1157 21.2093 26.0526 23.7359C24.5768 27.2381 26.5562 30.3823 26.7241 30.635C24.3949 31.4912 22.7233 33.5827 22.3946 36.0531C22.0658 38.5236 23.136 40.973 25.1643 42.4117C22.8212 43.7943 21.3804 46.2929 21.4154 48.9528C21.4573 52.462 24.0312 54.5184 24.36 54.7781C23.9753 55.0869 21.898 56.7993 21.6392 59.7541C21.2965 63.5931 24.332 66.0004 24.5418 66.1618C22.1987 67.0531 20.576 69.2078 20.3872 71.6712C20.2193 73.9451 21.2965 76.1559 23.1989 77.4543C20.4781 78.479 18.6736 81.0828 18.6876 83.9463C18.7086 86.9852 20.7859 89.7013 23.7794 90.5295C23.7934 91.2945 23.8074 92.0524 23.8214 92.8174C29.6547 90.726 35.4879 88.6345 41.3212 86.543C43.5384 83.9112 45.7556 81.2793 47.9798 78.6474L48.2456 74.4505C46.8607 72.4783 45.4758 70.5061 44.0909 68.534C42.8739 65.9162 41.6569 63.2983 40.4399 60.6805C40.335 59.8734 40.2301 59.0663 40.1182 58.2662C39.7195 58.3855 39.2159 58.4837 38.6284 58.4697C36.7329 58.4135 35.46 57.1783 35.0893 56.7923C34.4877 55.9992 33.6344 54.6938 33.0819 52.8901C32.8021 51.9707 32.4244 50.7074 32.5643 49.0511C32.6342 48.2019 32.8301 46.2297 34.3129 44.5734C34.7186 44.1242 35.439 43.3452 36.67 42.9592C37.859 42.5942 38.8872 42.7907 39.3628 42.9171C39.7615 42.2573 40.286 41.1905 40.384 39.829C40.5029 38.1797 39.9293 37.1901 40.5029 36.6356C40.9365 36.2145 41.4821 36.5795 43.1817 36.5023C44.2098 36.4602 45.196 36.4111 46.0773 35.9478C47.679 35.1056 48.2526 33.2247 48.4414 32.6071C49.1548 30.284 48.3295 28.6839 49.1408 28.2207C49.6444 27.9329 50.0641 28.4944 51.3371 28.726C52.7849 28.9927 54.8622 28.74 55.9743 27.568C57.3102 26.1643 56.4429 24.3255 57.513 23.7851C58.5342 23.2727 59.4505 24.8799 61.1781 24.6904C63.2973 24.4588 63.9408 21.841 65.0809 22.0866C66.3189 22.3603 65.5845 25.4695 67.8297 27.4136C68.683 28.1505 70.1098 28.8453 71.6276 28.7891C73.3062 28.733 74.2364 27.7996 74.747 28.2628C75.2506 28.7119 74.4533 29.7015 74.7261 31.6175C74.9219 32.9791 75.5234 33.8704 75.6493 34.0529C76.4117 35.1618 77.4328 35.6882 77.8595 35.8847C80.1886 36.9445 82.0421 35.7513 82.7485 36.7409C83.0633 37.1831 82.7066 37.4568 82.7485 38.8394C82.7695 39.4921 82.8395 41.9696 84.2173 42.7907C84.9657 43.2399 85.3854 42.7697 86.4975 43.1487C87.7774 43.5838 88.5049 44.6366 88.8336 45.1208C91.2606 48.651 88.4419 53.999 88.1062 54.6166C87.4767 55.7676 86.7563 57.059 85.4274 57.3959C84.1124 57.7257 83.3081 56.8485 82.5667 57.3538C81.7204 57.9293 82.4478 59.3189 81.9302 61.9648C81.6854 63.2281 81.2797 64.1054 80.4684 65.86C79.9508 66.9759 79.3493 68.2884 78.2442 69.8043C77.0831 71.4045 75.7892 72.7169 75.7892 72.7169C74.803 73.7205 74.5722 73.7697 74.2924 74.3311C73.6489 75.6015 73.9916 76.97 74.2924 78.1702C74.3623 78.4579 74.7261 79.8475 75.7682 81.3144C75.8521 81.4267 75.9221 81.5249 75.971 81.5881C77.8875 83.2936 79.8109 84.992 81.7274 86.6974C83.2591 85.371 84.665 84.9078 85.5043 84.7253C86.3646 84.5358 87.078 84.5358 88.4699 84.5428C90.0016 84.5498 91.2606 84.6621 92.1279 84.7674C94.499 85.2166 96.8701 85.6587 99.2341 86.1079L101.109 86.8729C101.388 86.3886 102.221 84.7814 101.857 82.7531C101.29 79.6089 98.3668 78.2825 98.1081 78.1702C100.024 77.0262 101.172 74.9417 101.109 72.7239C101.039 70.4149 99.6678 68.3305 97.5695 67.3479C98.192 66.4425 99.6468 64.0703 99.7097 60.7085C99.7657 57.7679 98.7305 55.5781 98.192 54.6096C98.6186 53.7393 99.5559 51.5566 99.2271 48.7142C98.8355 45.3244 96.912 43.1838 96.2685 42.531C96.4224 42.3907 99.1292 39.8641 98.4578 36.1724C97.8283 32.7194 94.7997 31.2807 94.527 31.1543C94.8627 30.6139 96.3595 28.0803 95.5901 25.0343C94.8067 21.9322 92.002 19.553 88.5049 19.0617C89.4351 16.5632 88.9385 13.7559 87.2109 11.7627C85.3924 9.66418 82.4967 8.80794 79.7969 9.56592C79.769 9.33431 79.1744 4.95487 75.1527 3.11607C72.376 1.84575 69.0746 2.30194 66.6686 4.28111L66.6826 4.24602Z" fill="#2461E5"/>
</g>
<defs>
<clipPath id="clip0_738_2583">
<rect width="112" height="155" fill="white" transform="translate(6)"/>
</clipPath>
</defs>
</svg>
