<svg width="65" height="65" viewBox="0 0 65 65" fill="none" xmlns="http://www.w3.org/2000/svg">
<g clip-path="url(#clip0_724_923)">
<path d="M39.4865 0.975306L40.1674 8.00025L45.175 10.0144C46.9908 9.83192 49.0052 5.22817 51.2892 5.85978C53.3603 6.43525 57.3891 12.2742 59.7156 13.4883C61.9854 16.2533 58.5382 18.6675 56.3607 20.1062L57.6445 25.3485C59.5028 25.5521 63.6593 24.7871 64.6523 26.8363C65.0921 27.7487 65.0921 37.2369 64.7871 38.5212C63.9856 41.953 59.3184 40.423 56.7011 40.8652L55.2258 44.7742C56.6018 46.9567 59.9001 47.9603 58.9567 51.0271C58.7935 51.5465 51.7715 58.5995 51.2608 58.817C47.1398 60.5645 46.1539 55.5958 43.8061 55.8063C43.4018 55.8414 40.5008 57.3152 40.3163 57.617C39.4439 59.0276 40.9334 63.5401 39.1105 64.6068C38.4154 65.0138 27.627 65.1121 26.3077 64.7472C23.7046 64.0173 25.9531 58.9714 24.5203 57.3783C24.1515 56.9713 21.1015 55.6028 20.4773 55.7642C16.0371 59.982 15.3775 61.0136 10.8805 56.4379C10.1854 55.7291 5.92252 51.2166 5.77357 50.8727C5.61043 50.5148 5.46857 50.199 5.61043 49.799L9.85912 44.4794L7.90146 40.8652C6.17787 40.7038 1.29081 41.0476 0.432561 39.3493C-0.127783 38.2405 -0.0923186 28.7312 0.205586 27.082C0.723373 24.2678 4.84439 25.7626 6.76659 25.3907C8.4689 25.0678 8.28448 22.1484 9.29878 20.808C8.29867 18.8429 4.01451 17.706 4.65997 15.1655C4.89404 14.2392 11.9941 6.76509 12.8595 6.37209C15.264 5.27028 17.555 8.54063 19.1935 9.26347C21.0873 10.0986 22.5272 8.03534 24.4636 8.00726C24.6409 6.25278 24.038 1.3262 25.8538 0.357729C27.3149 -0.42126 38.614 0.0980661 39.4794 0.954253L39.4865 0.975306ZM37.1671 3.74739H29.1449C28.996 3.74739 28.4569 3.0877 27.932 3.27017C27.6767 3.57194 28.1377 8.17569 27.932 9.28453C27.6057 11.0671 21.1369 12.4356 19.4985 13.776L14.1362 10.0354L8.97959 15.5164C9.97261 17.0042 12.675 17.9657 12.8382 19.8886C12.8949 20.5553 10.9302 26.9697 10.54 27.6855C9.39808 29.7769 5.24869 28.3943 3.12789 28.7733L3.6244 37.4334L10.3485 37.9948C10.7599 40.1143 14.2355 44.1075 13.4765 45.9532C12.8878 47.3778 9.49029 49.1604 10.1499 50.4236L15.5264 55.7151L19.9737 51.4412L27.8469 55.3221L27.9249 61.9821L37.1671 61.5049L37.4792 55.2028L44.714 51.3921L49.5656 55.7291L55.6443 49.2376C54.5378 47.7427 51.6651 46.7602 51.3601 44.8022C51.1544 43.4688 53.1404 38.43 54.4385 37.4474H61.4889V28.7873C58.8645 28.3803 55.8287 29.9944 54.4314 27.3487C53.9349 26.4083 52.1403 20.7378 52.3247 19.9798C52.4879 19.2921 55.5946 16.3446 56.6231 16.2674C56.999 15.734 50.8778 10.1828 50.4451 10.0705C48.7002 9.62139 46.7851 13.8251 45.2034 13.8602C43.3309 12.6461 37.0181 11.5162 36.6706 9.27049C36.4223 7.66339 37.6068 5.55099 37.1671 3.76142V3.74739Z" fill="#2461E5"/>
<path d="M46.5513 32.1559C46.5513 39.8616 40.2315 46.1146 32.4434 46.1146C24.6553 46.1146 18.3354 39.8616 18.3354 32.1559C18.3354 24.4502 24.6553 18.1973 32.4434 18.1973C40.2315 18.1973 46.5513 24.4502 46.5513 32.1559ZM42.9055 32.2191C42.9055 26.4995 38.2171 21.8676 32.4434 21.8676C26.6697 21.8676 21.9812 26.5065 21.9812 32.2191C21.9812 37.9317 26.6697 42.5705 32.4434 42.5705C38.2171 42.5705 42.9055 37.9317 42.9055 32.2191Z" fill="#2461E5"/>
</g>
<defs>
<clipPath id="clip0_724_923">
<rect width="65" height="65" fill="white"/>
</clipPath>
</defs>
</svg>
