<svg width="92" height="73" viewBox="0 0 92 73" fill="none" xmlns="http://www.w3.org/2000/svg">
<g clip-path="url(#clip0_960_54)">
<path d="M66.9442 12.9802C67.9485 13.6439 79.7657 12.751 82.0688 12.828C87.3292 13 90.6644 16.7183 91.1412 21.8686C90.141 34.8733 92.1225 49.4243 90.8442 62.2424C90.5446 65.2588 89.4209 68.2013 86.8328 69.9704C83.5121 72.2411 80.6239 70.983 77.0199 71.8008C55.2553 70.177 31.1889 73.3632 9.6859 71.351C5.75583 70.9825 3.10778 69.4864 1.80447 65.6379C0.815258 62.7224 1.18587 56.2157 1.15448 52.7522C1.07509 43.2104 0.434294 29.9688 1.39503 20.8241C1.9046 15.9611 4.3629 13.2123 9.36616 13.1089C9.45599 11.9048 9.18694 10.3493 10.1203 9.39049C11.5614 7.90802 21.0826 7.91002 23.1431 8.59455C24.578 9.0764 23.2905 13.0582 25.7429 13.2457C26.7556 9.58376 27.5773 2.87478 31.8853 1.76737C36.6234 0.553316 43.6294 1.61995 48.5021 1.67303C53.1091 1.7175 61.3706 -0.499691 64.3453 4.13338C65.8832 6.53239 65.8578 10.3378 66.9442 12.987L66.9442 12.9802ZM60.7505 5.60147C58.9838 3.78272 36.3013 5.91726 32.1958 5.28068C30.3776 7.08917 30.3249 14.9805 28.5539 15.8448C26.4958 16.844 14.1136 15.5841 10.5535 15.9504C7.98914 16.2139 4.92222 17.227 5.13304 20.3563C5.86893 33.6464 3.93236 48.0754 4.85999 61.2299C5.07205 64.1745 5.36562 67.1606 8.79777 67.5874C14.0005 68.2313 21.1325 67.7793 26.4821 67.8698C44.7318 68.1834 63.1875 68.2793 81.6796 68.0332C84.5739 67.3475 87.0238 64.8383 87.1464 61.7865C86.3456 49.0366 88.4302 34.8961 87.4101 22.3228C87.1647 19.2685 86.1841 17.099 82.9157 16.6392L64.5347 16.5848C62.3885 15.4754 62.4698 7.38569 60.7505 5.61516L60.7505 5.60147ZM20.6111 13.1977C20.4673 10.2399 14.8902 11.5647 13.1463 12.4497C12.9072 13.5637 14.0822 13.1541 14.784 13.1724C16.7261 13.2196 18.6787 12.7262 20.6111 13.1977Z" fill="#2461E5"/>
<path d="M68.4856 41.3469C68.4019 53.8787 58.2135 63.9747 45.7349 63.8914C33.2563 63.808 23.2036 53.5768 23.2874 41.045C23.3711 28.5133 33.5595 18.4172 46.0381 18.5006C58.5167 18.5839 68.5693 28.8152 68.4856 41.3469ZM64.9069 41.4394C64.9774 30.8788 56.5156 22.2666 45.9998 22.1964C35.484 22.1261 26.9078 30.6245 26.8373 41.1851C26.7667 51.7457 35.2286 60.3579 45.7444 60.4281C56.2602 60.4984 64.8363 52 64.9069 41.4394Z" fill="#2461E5"/>
<path d="M74.6354 21.6422C81.9525 20.0142 83.4613 29.8256 75.8842 29.5696C70.6715 29.3911 70.7926 22.4995 74.6354 21.6422Z" fill="#2461E5"/>
<path d="M59.2014 41.6065C59.1519 49.0051 53.1418 54.9607 45.7746 54.9115C38.4074 54.8623 32.4773 48.8269 32.5267 41.4283C32.5762 34.0297 38.5863 28.0741 45.9535 28.1233C53.3207 28.1725 59.2508 34.2079 59.2014 41.6065ZM55.1667 41.5932C55.2012 36.419 51.0515 32.2024 45.9061 32.1681C40.7606 32.1337 36.5549 36.3013 36.5203 41.4687C36.4858 46.636 40.6355 50.8594 45.781 50.8938C50.9264 50.9282 55.1322 46.7606 55.1667 41.5932Z" fill="#2461E5"/>
</g>
<defs>
<clipPath id="clip0_960_54">
<rect width="90.5349" height="71.065" fill="white" transform="translate(1.09912 0.801758) rotate(0.38274)"/>
</clipPath>
</defs>
</svg>
