<svg width="112" height="85" viewBox="0 0 112 85" fill="none" xmlns="http://www.w3.org/2000/svg">
<g clip-path="url(#clip0_960_70)">
<path d="M97.5953 61.6371C98.9795 62.2821 100.799 63.5159 101.904 64.5331C103.656 66.1426 105.083 68.8016 106.566 70.1123C107.962 71.3464 110.768 71.9999 110.866 74.0285C110.902 74.7687 108.647 79.082 108.059 79.9425C105.919 83.0522 103.582 83.4606 100.071 84.2067L10.6885 82.9813C4.99079 82.3782 1.65551 79.3194 0.973979 73.5357C0.437632 68.9526 1.74351 70.2332 3.7856 68.156C4.34824 67.5827 4.5826 66.5866 5.13081 66.061C7.52474 63.7771 11.013 62.3184 13.434 60.0485C15.3139 58.2907 14.1392 57.3614 14.185 55.3145C14.515 39.0893 14.7286 22.8692 14.9492 6.64916C15.0082 4.62986 16.4979 2.47551 18.4276 1.89632C19.4302 1.59704 23.254 0.965409 24.3002 0.940747C26.1189 0.900823 29.0311 1.74095 31.1216 1.80117C42.6061 2.12531 53.8096 2.06155 65.2604 2.35777C74.0056 2.58412 84.9548 1.73566 93.3324 2.73693C99.0562 3.42261 99.2989 10.1651 98.8912 14.8018C98.8164 15.6498 98.2288 16.5035 98.1783 17.5436C97.4357 32.1872 98.0714 46.9894 97.602 61.6441L97.5953 61.6371ZM95.6742 5.513L18.4309 4.3001L17.5592 59.812L94.8026 61.0249L95.6742 5.513ZM103.515 70.7287C100.566 69.6004 98.3439 66.1961 95.372 64.8072C90.8395 62.6884 72.5262 63.2774 66.3545 63.2627C51.3729 63.2192 36.0597 64.2731 20.788 63.1224C20.1667 63.0784 19.4303 62.5327 18.5424 62.4914C16.261 62.3939 9.64682 67.4879 7.36636 69.0751C6.78581 69.4837 6.10446 68.9115 6.46122 70.5675C24.7975 70.6911 43.1594 71.3561 61.5028 71.4592C74.1328 71.5274 86.8856 70.7347 99.7671 71.3204C101.311 71.3926 102.714 72.9897 103.515 70.7218L103.515 70.7287ZM106.177 74.8794L5.0286 74.3116C6.70849 80.5014 11.1875 78.6268 16.2546 78.9118C21.6083 79.2219 27.1035 79.6643 32.5649 79.209L34.7414 79.8938C55.3795 77.5059 78.4871 81.9435 98.9365 80.258C102.495 79.9647 105.374 78.5512 106.177 74.8726L106.177 74.8794Z" fill="#F52BA0"/>
<path d="M90.0068 11.6964L89.359 54.6932L86.354 55.413C67.736 54.5112 48.7751 55.8639 30.3327 53.7938C26.8871 53.4109 23.0845 54.8647 22.478 49.9587C23.5085 39.182 21.8074 26.938 23.0193 16.356C23.8441 9.10295 26.7742 10.1077 32.3608 10.3872C44.695 11.0055 57.4561 10.5553 69.9349 10.6759C72.1217 10.6965 75.1159 11.0996 77.4603 11.1022C81.527 11.1113 86.0899 9.98448 90.0138 11.6828L90.0068 11.6964ZM26.5936 50.3383L84.3347 51.245C84.4919 51.2475 85.0704 52.2769 85.349 51.9457L87.3069 14.3111C85.8442 14.3156 84.3701 14.1691 82.8989 14.2762C68.1663 15.3528 49.2025 15.1509 34.3037 14.1911C32.0436 14.046 29.9615 13.0135 27.571 13.3389C26.9203 13.4246 26.473 15.7939 26.4086 16.4092C25.6354 23.8685 26.5792 31.6629 26.7919 39.0144C26.897 42.7689 26.5022 46.5772 26.5937 50.3315L26.5936 50.3383Z" fill="#F52BA0"/>
</g>
<defs>
<clipPath id="clip0_960_70">
<rect width="110.029" height="82.2441" fill="white" transform="translate(1.96924 0.589844) rotate(0.899604)"/>
</clipPath>
</defs>
</svg>
