<svg width="92" height="74" viewBox="0 0 92 74" fill="none" xmlns="http://www.w3.org/2000/svg">
<g clip-path="url(#clip0_962_79)">
<path d="M1.37892 3.6771C4.03048 -0.114821 19.16 1.4118 24.0198 1.28048C43.418 0.730564 67.4052 -0.902754 86.4997 0.673111C89.4632 0.91934 91.655 0.95217 91.8684 4.32551C92.3446 11.975 91.2774 21.7011 91.2445 29.646C91.1953 41.818 92.3692 56.7641 91.2856 68.5338C90.7027 74.8291 89.299 72.6622 85.3504 72.6869C78.8077 72.7361 72.1911 72.8428 65.6566 72.9085C46.5621 73.1055 22.9444 74.9768 4.26855 73.3189C2.19163 73.1301 0.163968 72.6704 0.0490399 70.2246C0.43487 51.1008 -0.615902 31.7718 0.640099 12.7794C0.796073 10.4074 0.122922 5.48278 1.38713 3.6771H1.37892ZM5.14693 5.75363V14.1993H29.0684C29.7333 14.1993 32.3192 15.6438 32.1797 16.7272C32.1797 18.1472 30.4311 18.7217 29.2654 18.8941L4.58049 18.6971V60.9089C10.6306 54.4905 14.0292 45.3801 20.0548 38.9535C23.7242 35.0385 28.1079 32.9209 32.3849 37.3284L49.9525 61.426C51.857 61.8856 56.3392 53.4482 58.1206 51.6835C63.9163 45.9382 67.2492 46.0941 72.7083 51.6097C77.7569 56.7066 81.607 62.9772 86.4914 68.2219C87.9855 63.5518 86.8773 58.6354 86.9512 53.8832C87.1564 40.2175 88.9378 20.7654 87.3616 7.69884C87.2877 7.09148 87.3862 6.40204 86.8034 5.99986L5.14693 5.75363ZM81.1391 68.78C76.5748 62.5176 71.3702 56.7066 65.6648 51.4701C57.5213 53.9406 57.5295 67.2042 48.4995 66.2439L26.9094 39.0274C24.5123 39.9056 23.3302 41.6292 21.7951 43.5005C18.1502 47.9573 15.1457 53.5795 11.7881 58.2579C9.21046 61.861 5.49992 65.0291 4.00585 69.0509L81.1309 68.7718L81.1391 68.78Z" fill="#2461E5"/>
<path d="M62.0121 13.1155C71.034 11.5807 76.8132 17.7446 74.9744 26.6417C73.5214 33.6838 62.8905 36.0312 57.6859 31.238C51.9559 25.9605 54.0903 14.4616 62.0121 13.1155ZM62.5703 17.6215C57.1195 18.6228 57.6284 27.6759 62.127 29.0547C73.4475 32.5266 74.9498 15.3562 62.5703 17.6215Z" fill="#2461E5"/>
</g>
<defs>
<clipPath id="clip0_962_79">
<rect width="92" height="74" fill="white"/>
</clipPath>
</defs>
</svg>
