<svg width="96" height="95" viewBox="0 0 96 95" fill="none" xmlns="http://www.w3.org/2000/svg">
<g clip-path="url(#clip0_959_56)">
<path d="M32.3916 0.950698C50.7856 0.573402 69.2077 1.65883 87.6045 1.62931C97.1369 2.67227 94.5543 15.0669 94.7034 21.8902C94.8903 30.1229 94.4517 36.8562 94.2711 44.9847C93.9944 57.2575 95.0226 72.4679 93.681 84.2682C93.1349 89.0291 90.3062 94.0905 85.1657 94.3875C61.2327 93.1381 36.7027 94.9725 13.0136 92.2917C9.67831 91.9147 6.01572 92.7001 2.9977 90.7146C-0.0203301 88.729 1.42218 82.4317 1.44187 79.1688C1.54982 64.3787 1.8385 49.8235 1.86269 35.3084C1.87619 26.66 0.713362 17.3677 1.67751 8.66391C2.57901 0.547554 6.14774 2.72959 11.9604 2.20319C18.6625 1.60258 25.6797 1.08751 32.3916 0.950698ZM4.76658 88.542L86.0852 89.9092C86.2434 89.9118 88.5886 88.5069 88.7871 88.207C89.8892 78.0968 89.2736 67.6368 89.6745 57.39C90.2403 43.0891 92.2162 27.5547 91.3646 12.8288C91.2772 11.2313 90.7668 6.54177 89.1724 6.18507C87.9907 6.37919 86.9872 6.96861 85.7378 7.01002C64.8311 7.77305 43.8815 5.34337 22.4411 5.94585C17.7432 6.07194 11.8764 5.10844 7.44424 5.64022C6.42206 5.76569 5.73185 6.02157 5.33644 7.0492L4.74915 88.5328L4.76658 88.542Z" fill="#A257D6"/>
<path d="M20.8626 76.2669C20.4214 75.8315 20.9001 73.5124 21.291 72.7522C21.7639 71.824 23.6462 70.75 24.4463 69.7113C28.2399 64.791 25.9932 58.7705 29.0384 55.4782C31.7075 52.5896 35.2369 53.4514 38.7374 53.4122C38.865 51.5776 39.449 49.7953 40.1806 48.1224C44.7883 37.6699 54.6498 28.554 63.9712 22.2733C68.623 19.1417 75.7331 14.6694 76.912 23.5251C77.3023 26.4651 75.8415 30.7114 74.721 33.5457C71.5803 41.4728 62.6747 52.3167 56.2783 57.7461C54.4496 59.2935 49.3583 60.8485 47.8615 62.5263C46.5172 64.0284 46.7353 66.2254 46.022 67.854C42.7301 75.3595 33.5408 79.5383 25.623 78.1747C25.0443 78.0758 21.0442 76.4482 20.8626 76.2669ZM72.7031 22.8124C69.2815 22.8619 67.4589 26.1391 65.1494 28.0351C60.3075 32.0195 55.2237 35.7412 50.5108 39.8971C49.6493 42.4951 51.5934 41.9304 53.0462 43.3903C54.6374 44.9863 55.5414 46.6599 56.893 48.3856C64.2829 42.4379 72.8319 32.9344 72.712 22.8037L72.7031 22.8124ZM47.2543 44.773C44.3255 46.8904 44.4496 51.0206 42.2194 53.9522C42.2101 55.0309 44.6259 57.7909 45.3791 57.973C46.2199 58.1744 54.6028 52.2702 54.616 51.4858L47.2543 44.773ZM26.9989 73.7487C33.2577 76.502 44.7304 68.3137 42.6468 61.4846C41.5217 57.7922 38.171 57.2901 34.7236 57.8295C30.6592 58.4566 32.0779 61.94 31.5084 64.4358C30.7207 67.8731 29.0682 70.966 26.99 73.7575L26.9989 73.7487Z" fill="#A257D6"/>
</g>
<defs>
<clipPath id="clip0_959_56">
<rect width="94" height="93" fill="white" transform="translate(1.55664 0.137695) rotate(0.96319)"/>
</clipPath>
</defs>
</svg>
