<svg width="96" height="80" viewBox="0 0 96 80" fill="none" xmlns="http://www.w3.org/2000/svg">
<g clip-path="url(#clip0_960_59)">
<path d="M8.22007 0L88.5501 0.23C91.8801 1.31 94.1901 5.94 94.5301 9.25C93.0601 28.2 96.3601 49.7 94.5301 68.32C93.7101 76.62 89.7701 78.26 82.0401 78.83C62.4101 80.28 32.4601 79.81 13.0301 77.75C9.87007 77.41 6.26007 78.68 3.51007 76.27C1.72007 74.71 0.660066 67.96 0.460066 65.32C-0.689934 50.16 0.540066 33.35 1.53007 18.32C1.97007 11.73 -0.649934 1.53 8.22007 0ZM41.5001 14.78C40.9301 5.05 32.9201 6.63 25.5001 6.78C24.3801 7.84 29.4901 14.14 31.1501 14.63L41.5001 14.78ZM63.2701 9.01C60.8501 6.31 55.8501 6.67 52.5001 6.78C52.1101 7.15 54.4201 14.22 56.1201 14.66L65.5001 14.78C65.8801 14.42 63.7701 9.56 63.2701 9.01ZM84.4201 6.86C82.2401 6.2 79.9401 7.28 78.0001 7.33C76.8501 7.36 72.6401 5.42 73.5101 8.27C73.6601 8.75 77.1601 14.12 77.4601 14.32C79.1601 15.5 83.3201 14.45 85.5001 14.78L84.4201 6.85V6.86ZM16.5001 14.78C17.4601 13.89 13.0201 7.04 10.5001 7.78C10.0201 13.39 10.3401 15.59 16.5001 14.78ZM6.46007 21.78V72.78H88.5501V21.78H6.46007Z" fill="#8082F8"/>
<g clip-path="url(#clip1_960_59)">
<path d="M33 29.67C36.38 28.26 37.4 29.28 40.33 30.84C45.96 33.83 55.04 38.61 59.97 42.2C62.6 44.12 62.91 46.36 60.53 48.69C58.15 51.02 42.47 60.13 39.06 61.22C36.94 61.89 33.01 61.1 33.01 59.17V29.67H33Z" fill="#8082F8"/>
</g>
</g>
<defs>
<clipPath id="clip0_960_59">
<rect width="95.1" height="79.66" fill="white"/>
</clipPath>
<clipPath id="clip1_960_59">
<rect width="29.14" height="32.46" fill="white" transform="translate(33 29)"/>
</clipPath>
</defs>
</svg>
